<svg xmlns="http://www.w3.org/2000/svg" xmlns:xlink="http://www.w3.org/1999/xlink" version="1.1" width="156.8992003947825" height="129.57789607349343" viewBox="1.0055001005366044 4.038300059719344 156.8992003947825 129.57789607349343">
  <!-- Exported by Scratch - http://scratch.mit.edu/ -->
  <g id="ID0.7698455736972392">
    <g id="ID0.3829534202814102">
      <path id="ID0.2946433946490288" fill="#E10139" stroke="#000000" stroke-width="1.9999999553293788" stroke-linecap="round" d="M 49.7546 50.4934 L 56.1379 38.3072 L 59.0118 22.5595 L 58.5584 12.126 L 52.4542 5.6462 L 46.731 5.0383 L 38.2251 7.804 L 32.5482 15.2931 L 26.5478 28.2953 L 21.5605 42.9667 L 49.7546 50.4934 Z "/>
      <path id="ID0.9234447325579822" fill="#FF7AC4" stroke="none" stroke-linecap="round" d="M 27.3705 29.1021 L 33.2821 15.682 L 38.8771 8.7369 L 46.5202 5.993 L 52.0951 6.5786 L 53.8546 8.6635 L 45.2536 8.0273 L 39.9392 11.4247 L 32.8823 26.7456 L 26.8781 43.135 L 23.0018 42.3497 L 27.3705 29.1021 Z " stroke-width="0.9999999776646894"/>
      <path id="ID0.7883298550732434" fill="#EDC696" stroke="#000000" stroke-width="1.9999999553293788" stroke-linecap="round" d="M 22.1616 44.3901 L 12.8523 79.3949 L 6.9316 110.3587 L 2.0055 126.3034 L 23.8092 132.6162 L 26.882 113.8647 L 37.961 73.817 L 47.2907 50.4445 L 23.2992 43.5499 Z "/>
      <path id="ID0.2265506349503994" fill="#E2FFDE" stroke="none" stroke-linecap="round" d="M 7.8921 110.2073 L 13.7757 79.4907 L 23.3668 44.6294 L 28.316 45.6771 L 17.7245 78.1126 L 6.6 127.2041 L 3.3992 124.9531 L 7.8921 110.2073 Z " stroke-width="0.9999999776646894"/>
    </g>
    <g id="ID0.6883956957608461">
      <path id="ID0.2330573690123856" fill="#EDC696" stroke="#000000" stroke-width="1.9999999414549947" stroke-linecap="round" d="M 156.9047 115.1297 L 147.3464 64.9854 L 141.9502 41.5933 L 136.0161 43.2753 L 135.015 119.2511 L 156.9047 115.1297 Z "/>
      <path id="ID0.24896233575418591" fill="#E10139" stroke="#000000" stroke-width="1.9999999414549947" stroke-linecap="round" d="M 127.6278 10.142 L 133.5351 24.3133 L 135.0016 43.7583 L 137.3038 43.0712 L 142.6777 41.2838 L 138.4707 23.3137 L 134.5285 14.853 L 130.5579 9.1535 L 127.6278 10.142 Z "/>
    </g>
  </g>
</svg>