<svg xmlns="http://www.w3.org/2000/svg" xmlns:xlink="http://www.w3.org/1999/xlink" version="1.1" width="117.77690124511719" height="124.75" viewBox="11.973099708557129 0.75 117.77690124511719 124.75">
  <!-- Exported by Scratch - http://scratch.mit.edu/ -->
  <path id="ID0.2330573690123856" fill="#EDC696" stroke="#000000" stroke-width="2" stroke-linecap="round" d="M 128.75 121.65 L 123.25 70.9 L 119.75 47.15 L 114.75 47.9 L 119 124.5 L 128.75 121.65 Z "/>
  <path id="ID0.24896233575418591" fill="#E10139" stroke="#000000" stroke-width="2" stroke-linecap="round" d="M 108 14.65 L 112.75 29.25 L 115 48.25 L 120.5 46.9 L 117.75 28.65 L 114.5 19.9 L 111 13.9 L 108 14.65 Z "/>
  <g id="ID0.5489800069481134">
    <path id="ID0.2946433946490288" fill="#E10139" stroke="#000000" stroke-width="1.9999999579201275" stroke-linecap="round" d="M 46.2964 49.9546 L 44.0791 34.7675 L 39.6321 20.0418 L 34.1642 11.1444 L 25.6799 8.4488 L 20.3828 10.6995 L 14.2939 17.2512 L 12.9731 26.5554 L 14.0496 40.8349 L 16.8228 56.0807 L 46.2964 49.9546 Z "/>
    <path id="ID0.9234447325579822" fill="#FF7AC4" stroke="none" stroke-linecap="round" d="M 15.1432 41.1482 L 13.7859 26.5467 L 15.2995 17.7576 L 20.6451 11.6445 L 25.8017 9.4464 L 28.3528 10.413 L 20.527 14.038 L 17.5342 19.5903 L 18.8144 36.4096 L 21.5341 53.651 L 17.7648 54.849 L 15.1432 41.1482 Z " stroke-width="0.9999999789600638"/>
  </g>
  <path id="ID0.5014133658260107" fill="#EDC696" stroke="#000000" stroke-width="2" stroke-linecap="round" d="M 109.75 37 L 104.5 43 L 103 60.25 L 87.25 54 L 89.75 36.75 L 87.25 30.25 L 86 20.75 L 84.75 13 L 89.5 12.5 L 90.75 19 L 92.5 24.75 L 94.75 20 L 96.75 3.75 L 102 3.25 L 100.5 17.25 L 103.25 18.75 L 108.5 1.75 L 112.25 4 L 107.75 19.75 L 109.75 21.75 L 115 12.25 L 117.5 16.25 L 113.75 26 L 109.75 37 Z "/>
</svg>