<svg xmlns="http://www.w3.org/2000/svg" xmlns:xlink="http://www.w3.org/1999/xlink" version="1.1" width="131.1999969482422" height="131.8000030517578" viewBox="0.5499999523162842 0.1499999761581421 131.1999969482422 131.8000030517578">
  <!-- Exported by Scratch - http://scratch.mit.edu/ -->
  <g id="ID0.13815629808232188">
    <g id="ID0.3829534202814102">
      <path id="ID0.2946433946490288" fill="#E10139" stroke="#000000" stroke-width="2" stroke-linecap="round" d="M 37.5 45.9 L 42 32.9 L 42.5 16.9 L 40.5 6.65 L 33.5 1.15 L 27.75 1.4 L 19.75 5.4 L 15.25 13.65 L 11.25 27.4 L 8.5 42.65 L 37.5 45.9 Z "/>
      <path id="ID0.9234447325579822" fill="#FF7AC4" stroke="none" stroke-linecap="round" d="M 12.2 28.05 L 16.05 13.9 L 20.55 6.2 L 27.7 2.35 L 33.3 2.1 L 35.35 3.9 L 26.75 4.55 L 22 8.7 L 17.3 24.9 L 13.8 42 L 9.85 41.8 L 12.2 28.05 Z " stroke-width="1"/>
      <path id="ID0.7883298550732434" fill="#EDC696" stroke="#000000" stroke-width="2" stroke-linecap="round" d="M 9.3 43.95 L 5.3 79.95 L 4.05 111.45 L 1.55 127.95 L 24.05 130.95 L 24.3 111.95 L 29.3 70.7 L 35.05 46.2 L 10.3 42.95 Z "/>
      <path id="ID0.2265506349503994" fill="#E2FFDE" stroke="none" stroke-linecap="round" d="M 5 111.15 L 6.25 79.9 L 10.55 44 L 15.6 44.3 L 9.95 77.95 L 6.25 128.15 L 2.75 126.4 L 5 111.15 Z " stroke-width="1"/>
    </g>
    <path id="ID0.2330573690123856" fill="#EDC696" stroke="#000000" stroke-width="2" stroke-linecap="round" d="M 130.75 114.65 L 125.25 63.9 L 121.75 40.15 L 116.75 40.9 L 121 117.5 L 130.75 114.65 Z "/>
    <path id="ID0.24896233575418591" fill="#E10139" stroke="#000000" stroke-width="2" stroke-linecap="round" d="M 110 7.65 L 114.75 22.25 L 117 41.25 L 122.5 39.9 L 119.75 21.65 L 116.5 12.9 L 113 6.9 L 110 7.65 Z "/>
  </g>
</svg>