<svg xmlns="http://www.w3.org/2000/svg" xmlns:xlink="http://www.w3.org/1999/xlink" version="1.1" width="117.32319643462428" height="118.07209780181178" viewBox="10.426799762424192 3.4278998257481663 117.32319643462428 118.07209780181178">
  <!-- Exported by Scratch - http://scratch.mit.edu/ -->
  <path id="ID0.2330573690123856" fill="#EDC696" stroke="#000000" stroke-width="2" stroke-linecap="round" d="M 126.75 117.65 L 121.25 66.9 L 117.75 43.15 L 112.75 43.9 L 117 120.5 L 126.75 117.65 Z "/>
  <path id="ID0.24896233575418591" fill="#E10139" stroke="#000000" stroke-width="2" stroke-linecap="round" d="M 106 10.65 L 110.75 25.25 L 113 44.25 L 118.5 42.9 L 115.75 24.65 L 112.5 15.9 L 109 9.9 L 106 10.65 Z "/>
  <g id="ID0.5489800069481134">
    <path id="ID0.2946433946490288" fill="#E10139" stroke="#000000" stroke-width="1.9999999970932318" stroke-linecap="round" d="M 42.9362 47.3394 L 41.8435 32.0303 L 38.493 17.0171 L 33.6953 7.741 L 25.4325 4.4279 L 19.9841 6.2824 L 13.4291 12.3679 L 11.4268 21.5496 L 11.4487 35.8696 L 13.0915 51.2782 L 42.9362 47.3394 Z "/>
    <path id="ID0.9234447325579822" fill="#FF7AC4" stroke="none" stroke-linecap="round" d="M 12.5162 36.2626 L 12.238 21.6008 L 14.3948 12.947 L 20.176 7.2442 L 25.4805 5.4318 L 27.9535 6.5837 L 19.882 9.6224 L 16.4884 14.9393 L 16.5265 31.8072 L 17.969 49.202 L 14.1217 50.1192 L 12.5162 36.2626 Z " stroke-width="0.9999999985466159"/>
  </g>
  <path id="ID0.5014133658260107" fill="#EDC696" stroke="#000000" stroke-width="2.0000000234914603" stroke-linecap="round" d="M 104.2245 52.3755 L 97.0755 55.9046 L 89.0774 71.2618 L 76.9265 59.4516 L 85.8482 44.4778 L 86.0309 37.516 L 88.5182 28.2625 L 90.3346 20.6254 L 94.9134 21.9845 L 93.5762 28.4671 L 92.9882 34.4487 L 96.8872 30.9241 L 104.9638 16.6822 L 110.0044 18.2329 L 103.2522 30.5884 L 105.2171 33.028 L 116.5828 19.3392 L 119.1838 22.8549 L 108.9899 35.6766 L 110.0705 38.2905 L 118.5612 31.5288 L 119.3368 36.1816 L 112.1357 43.7492 L 104.2245 52.3755 Z "/>
</svg>