<svg xmlns="http://www.w3.org/2000/svg" xmlns:xlink="http://www.w3.org/1999/xlink" version="1.1" width="87.56070282095645" height="47.213016053378325" viewBox="-0.2029214006363056 0.27784584942472956 87.56070282095645 47.213016053378325">
  <!-- Exported by Scratch - http://scratch.mit.edu/ -->
  <path id="ID0.17011773446574807" fill="#FF1B45" stroke="#000000" stroke-width="1.436442890452479" d="M 32.4613 1.6381 C 33.433 1.4465 34.3625 1.5195 35.0795 1.7924 C 35.7959 2.0655 36.299 2.538 36.4188 3.1454 C 36.5385 3.7529 36.2524 4.381 35.6934 4.9056 C 35.1336 5.4303 34.3014 5.8506 33.3297 6.0422 C 32.358 6.2338 31.4285 6.1609 30.7115 5.8879 C 29.9951 5.6148 29.492 5.1423 29.3722 4.5349 C 29.2525 3.9275 29.5386 3.2993 30.0976 2.7748 C 30.6574 2.25 31.4896 1.8297 32.4613 1.6381 Z "/>
  <path id="ID0.7822854588739574" fill="#FF1B45" stroke="#000000" stroke-width="2.1546642780303955" stroke-linecap="round" d="M 76.9056 33.5646 L 61.2843 34.2828 L 25.9119 37.5148 L 9.8956 42.4705 L 2.7493 46.1334 C 0.4351 47.3882 0.9961 37.0235 1.4924 32.4872 C 2.0497 27.3886 3.0904 22.0924 5.9813 17.9432 C 8.6746 13.8724 13.1225 11.0972 17.4728 8.9655 C 22.7546 6.3777 28.5636 4.8055 34.351 3.7584 C 39.3929 2.8462 44.6668 2.4605 49.7568 3.2556 C 55.2433 4.0148 60.7938 5.5747 65.6295 8.355 C 69.0318 10.3028 72.1783 13.2899 73.7454 16.8659 C 76.0186 22.0464 80.1778 28.9356 76.9056 33.5646 Z "/>
  <path id="ID0.6644536075182259" fill="#000000" stroke="#000000" stroke-width="2.5058093273041053" stroke-linecap="round" d="M 53.7675 32.622 C 59.4055 31.8867 65.0751 31.9477 70.7534 31.309 C 72.108 31.0764 72.554 30.5972 73.4467 30.1836 C 74.2059 29.8366 74.9794 28.8819 75.7809 29.1989 C 78.9749 30.268 82.3469 31.3887 84.9383 34.1694 C 86.0113 35.3173 86.6498 38.4383 85.4769 39.5618 C 83.1707 41.7723 79.8856 42.033 77.0378 41.6719 C 75.2775 41.4497 73.9437 38.8575 72.1898 37.9207 C 70.1702 36.8084 68.0163 36.0075 65.9054 35.3416 C 64.1853 35.0884 62.7955 34.9403 61.237 34.8727 C 56.2604 34.6589 47.9398 35.0612 46.0107 34.4976 C 44.799 34.114 51.2436 32.9511 53.7675 32.622 Z "/>
  <path id="ID0.5022262083366513" fill="#FFA8AD" stroke="none" stroke-linecap="round" d="M 10.95 13.9 C 14.565 11.446 18.764 10.038 22.8 8.4 C 25.359 7.467 31.546 5.474 30.7 6.2 C 29.769 7.001 22.087 9.641 18.2 12.05 C 15.812 13.638 13.655 15.677 12.1 18.05 C 10.637 20.282 10.12 23.089 9.45 25.7 C 8.826 28.144 8.357 30.562 8.1 33.05 C 7.939 35.278 8.246 37.484 8.2 39.8 C 8.188 40.377 8.48 40.554 8.1 40.9 C 6.698 42.157 4.997 43.046 3.3 43.9 C 2.876 44.046 2.871 43.894 2.8 43.4 C 2.516 41.422 2.186 39.497 2.2 37.55 C 2.354 34.236 2.733 30.884 3.3 27.675 C 3.731 25.233 4.123 22.67 5.352 20.517 C 6.736 18.088 8.562 15.522 10.95 13.9 Z " stroke-width="1"/>
  <path id="ID0.7746342602185905" fill="#D3EFF9" stroke="#000000" stroke-width="2.5058093273041053" stroke-linecap="round" d="M 2.9892 45.4857 C 3.1041 45.5297 7.9837 41.333 10.9615 40.8434 C 14.717 40.2264 18.4281 42.4162 22.2734 42.2971 C 24.7161 42.2267 27.2435 41.2627 29.6352 40.2808 C 32.781 38.9922 35.4054 36.5135 38.5053 35.4979 C 45.1624 33.3174 51.7931 31.3358 58.5077 30.715 C 66.0189 30.0332 79.5423 32.1949 80.9881 31.6059 C 82.4338 31.017 71.7431 28.0075 66.9827 27.3857 C 61.7713 26.7058 56.5427 27.2019 51.3614 27.3857 C 47.3861 27.6699 43.3698 27.8828 39.5108 28.7924 C 34.0408 30.0585 28.6829 32.1536 23.3508 34.1849 C 18.673 35.9668 14.1044 37.7786 9.7405 40.2339 C 7.2878 41.5618 2.87 45.4397 2.9892 45.4857 Z "/>
</svg>