<svg xmlns="http://www.w3.org/2000/svg" xmlns:xlink="http://www.w3.org/1999/xlink" version="1.1" width="87.46069671744083" height="47.16301681631778" viewBox="0.14222024860991023 0.7278457778991558 87.46069671744083 47.16301681631778">
  <!-- Exported by Scratch - http://scratch.mit.edu/ -->
  <g id="ID0.6847796123474836">
    <path id="ID0.17011773446574807" fill="#FF1B45" stroke="#000000" stroke-width="1.436442890452479" d="M 54.9887 2.0881 C 54.017 1.8965 53.0875 1.9695 52.3705 2.2424 C 51.6541 2.5155 51.151 2.988 51.0312 3.5954 C 50.9115 4.2029 51.1976 4.831 51.7566 5.3556 C 52.3164 5.8803 53.1486 6.3006 54.1203 6.4922 C 55.092 6.6838 56.0215 6.6109 56.7385 6.3379 C 57.4549 6.0648 57.958 5.5923 58.0778 4.9849 C 58.1975 4.3775 57.9114 3.7493 57.3524 3.2248 C 56.7926 2.7 55.9604 2.2797 54.9887 2.0881 Z "/>
    <path id="ID0.7822854588739574" fill="#FF1B45" stroke="#000000" stroke-width="2.1546642780303955" stroke-linecap="round" d="M 10.4944 33.9646 L 26.1157 34.6828 L 61.4881 37.9148 L 77.5044 42.8705 L 84.6507 46.5334 C 86.9649 47.7882 86.4039 37.4235 85.9076 32.8872 C 85.3503 27.7886 84.3096 22.4924 81.4187 18.3432 C 78.7254 14.2724 74.2775 11.4972 69.9272 9.3655 C 64.6454 6.7777 58.8364 5.2055 53.049 4.1584 C 48.0071 3.2462 42.7332 2.8605 37.6432 3.6556 C 32.1567 4.4148 26.6062 5.9747 21.7705 8.755 C 18.3682 10.7028 15.2217 13.6899 13.6546 17.2659 C 11.3814 22.4464 7.2222 29.3356 10.4944 33.9646 Z "/>
    <path id="ID0.6644536075182259" fill="#000000" stroke="#000000" stroke-width="2.5058093273041053" stroke-linecap="round" d="M 33.7325 33.072 C 28.0945 32.3367 22.4249 32.3977 16.7466 31.759 C 15.392 31.5264 14.946 31.0472 14.0533 30.6336 C 13.2941 30.2866 12.5206 29.3319 11.7191 29.6489 C 8.5251 30.718 5.1531 31.8387 2.5617 34.6194 C 1.4887 35.7673 0.8502 38.8883 2.0231 40.0118 C 4.3293 42.2223 7.6144 42.483 10.4622 42.1219 C 12.2225 41.8997 13.5563 39.3075 15.3102 38.3707 C 17.3298 37.2584 19.4837 36.4575 21.5946 35.7916 C 23.3147 35.5384 24.7045 35.3903 26.263 35.3227 C 31.2396 35.1089 39.5602 35.5112 41.4893 34.9476 C 42.701 34.564 36.2564 33.4011 33.7325 33.072 Z "/>
    <path id="ID0.5022262083366513" fill="#FFA8AD" stroke="none" stroke-linecap="round" d="M 19.8 11.9 C 23.1 9.51 26.832 7.957 30.5 6.5 C 33.446 5.379 40.181 3.599 39.55 4.2 C 38.915 4.805 30.937 7.641 27.05 10.05 C 24.662 11.638 22.505 13.677 20.95 16.05 C 19.487 18.282 19.194 21.158 18.3 23.7 C 17.651 25.55 17.679 27.973 16 29.1 C 14.49 30.281 12.202 29.757 10.15 29.6 C 9.637 29.561 9.952 29.054 10 28.75 C 10.206 27.568 10.411 26.366 10.9 25.25 C 11.818 22.94 12.803 20.613 14.202 18.517 C 15.803 16.118 17.463 13.594 19.8 11.9 Z " stroke-width="1"/>
    <path id="ID0.7746342602185905" fill="#D3EFF9" stroke="#000000" stroke-width="2.5058093273041053" stroke-linecap="round" d="M 84.5108 45.9357 C 84.3959 45.9797 79.5163 41.783 76.5385 41.2934 C 72.783 40.6764 69.0719 42.8662 65.2266 42.7471 C 62.7839 42.6767 60.2565 41.7127 57.8648 40.7308 C 54.719 39.4422 52.0946 36.9635 48.9947 35.9479 C 42.3376 33.7674 35.7069 31.7858 28.9923 31.165 C 21.4811 30.4832 7.9577 32.6449 6.5119 32.0559 C 5.0662 31.467 15.7569 28.4575 20.5173 27.8357 C 25.7287 27.1558 30.9573 27.6519 36.1386 27.8357 C 40.1139 28.1199 44.1302 28.3328 47.9892 29.2424 C 53.4592 30.5085 58.8171 32.6036 64.1492 34.6349 C 68.827 36.4168 73.3956 38.2286 77.7595 40.6839 C 80.2122 42.0118 84.63 45.8897 84.5108 45.9357 Z "/>
  </g>
</svg>