<svg xmlns="http://www.w3.org/2000/svg" xmlns:xlink="http://www.w3.org/1999/xlink" version="1.1" width="84.43425323599551" height="45.184016724765044" viewBox="0.7562446493209698 0.7278457778991558 84.43425323599551 45.184016724765044">
  <!-- Exported by Scratch - http://scratch.mit.edu/ -->
  <path id="ID0.19987679086625576" fill="#000000" stroke="none" stroke-linecap="round" d="M 42.1 23.85 C 50.17 23.85 57.482 24.791 62.777 26.312 C 68.072 27.833 70.785 28.938 71.35 32.25 C 71.846 35.161 68.044 38.149 65.1 38.85 C 60.969 39.833 56.841 37.231 52.7 36.85 C 49.162 36.496 45.572 36.435 42.1 36.65 C 33.424 37.19 24.708 40.245 16.1 39 C 13.663 38.583 11.906 34.523 12.85 32.25 C 14.181 29.044 16.128 27.833 21.423 26.312 C 26.718 24.791 34.03 23.85 42.1 23.85 Z " stroke-width="1"/>
  <path id="ID0.17011773446574807" fill="#FF1B45" stroke="#000000" stroke-width="1.436442890452479" d="M 41.7613 2.0881 C 42.733 1.8965 43.6625 1.9695 44.3795 2.2424 C 45.0959 2.5155 45.599 2.988 45.7188 3.5954 C 45.8385 4.2029 45.5524 4.831 44.9934 5.3556 C 44.4336 5.8803 43.6014 6.3006 42.6297 6.4922 C 41.658 6.6838 40.7285 6.6109 40.0115 6.3379 C 39.2951 6.0648 38.792 5.5923 38.6722 4.9849 C 38.5525 4.3775 38.8386 3.7493 39.3976 3.2248 C 39.9574 2.7 40.7896 2.2797 41.7613 2.0881 Z "/>
  <path id="ID0.7822854588739574" fill="#FF1B45" stroke="#000000" stroke-width="2.1546642780303955" stroke-linecap="round" d="M 82.5022 41.244 L 65.0135 32.9845 L 44.3647 29.1061 L 26.2655 34.4927 L 12.1165 39.628 L 4.0006 44.476 C 1.2836 46.0317 1.9652 37.2615 2.4924 33.4872 C 3.2106 28.3455 4.6506 23.0594 7.6277 18.7637 C 10.1874 14.9104 14.2554 12.0828 18.4728 9.9655 C 23.7287 7.326 29.5492 5.7222 35.351 4.7584 C 40.5394 3.8965 46.0159 3.5252 51.2237 4.507 C 57.9872 5.8465 64.7959 8.0105 70.7234 11.6174 C 74.5343 13.9293 77.7397 17.4106 79.4857 21.7443 C 81.9356 27.8341 86.1709 38.3266 82.5022 41.244 Z "/>
  <path id="ID0.5022262083366513" fill="#FFA8AD" stroke="none" stroke-linecap="round" d="M 11.95 14.9 C 15.454 12.319 19.764 11.038 23.8 9.4 C 26.359 8.467 32.546 6.474 31.7 7.2 C 30.769 8.001 23.087 10.641 19.2 13.05 C 16.812 14.638 14.655 16.677 13.1 19.05 C 11.637 21.282 11.12 24.089 10.45 26.7 C 9.826 29.144 9.39 31.578 9.1 34.05 C 8.911 35.687 9.024 37.127 9 38.65 C 8.994 39.196 9.412 38.824 9 39.15 C 7.351 40.464 5.756 42.17 3.65 42.65 C 2.989 42.837 3.512 41.263 3.4 40.5 C 3.307 39.854 3.142 39.454 3.2 38.55 C 3.431 35.249 3.563 31.893 4.3 28.675 C 4.854 26.256 6.072 23.981 7.35 21.8 C 8.63 19.374 9.689 16.565 11.95 14.9 Z " stroke-width="1"/>
  <path id="ID0.7746342602185905" fill="#D3EFF9" stroke="#000000" stroke-width="2.5058093273041053" stroke-linecap="round" d="M 9.6258 41.2339 C 9.7471 42.2129 15.7737 41.8087 18.7472 40.9994 C 20.8516 40.4264 22.6364 38.6652 24.493 37.3888 C 27.1712 35.4935 29.4056 32.3208 32.3575 31.4805 C 38.8014 29.6461 45.5763 28.6633 52.1086 29.8862 C 56.3906 30.5633 59.8941 34.6438 63.8515 37.0137 C 65.9386 38.2628 67.9094 40.0822 70.2437 40.3898 C 72.9011 40.7396 79.5094 40.688 78.1441 39.1238 C 75.1391 35.636 67.2501 32.2017 61.4814 29.98 C 56.5357 28.0978 51.2955 27.0699 46.1114 26.979 C 41.3396 26.8158 36.5591 27.8371 31.8547 29.2297 C 27.1554 30.613 22.6249 32.7306 18.1008 35.1849 C 15.1309 36.7961 9.5144 40.1169 9.6258 41.2339 Z "/>
</svg>