<svg xmlns="http://www.w3.org/2000/svg" xmlns:xlink="http://www.w3.org/1999/xlink" version="1.1" width="94.81070282095645" height="46.63533355826114" viewBox="-0.2029214006363056 0.25711595001829646 94.81070282095645 46.63533355826114">
  <!-- Exported by Scratch - http://scratch.mit.edu/ -->
  <path id="ID0.17011773446574807" fill="#FF1B45" stroke="#000000" stroke-width="1.436442890452479" d="M 27.1613 2.0381 C 28.133 1.8465 29.0625 1.9195 29.7795 2.1924 C 30.4959 2.4655 30.999 2.938 31.1188 3.5454 C 31.2385 4.1529 30.9524 4.781 30.3934 5.3056 C 29.8336 5.8303 29.0014 6.2506 28.0297 6.4422 C 27.058 6.6338 26.1285 6.5609 25.4115 6.2879 C 24.6951 6.0148 24.192 5.5423 24.0722 4.9349 C 23.9525 4.3275 24.2386 3.6993 24.7976 3.1748 C 25.3574 2.65 26.1896 2.2297 27.1613 2.0381 Z "/>
  <path id="ID0.7822854588739574" fill="#FF1B45" stroke="#000000" stroke-width="2.1546642780303955" stroke-linecap="round" d="M 76.9056 32.5646 L 61.2843 33.2828 L 25.9119 36.5148 L 9.8956 41.4705 L 2.7493 45.1334 C 0.4351 46.3882 0.9961 36.0235 1.4924 31.4872 C 2.0497 26.3886 3.0904 21.0924 5.9813 16.9432 C 8.6746 12.8724 13.1225 10.0972 17.4728 7.9655 C 22.7546 5.3777 28.5664 3.8142 34.351 2.7584 C 39.4252 1.8326 44.6747 1.1862 49.7928 1.681 C 55.3525 2.4 61.0243 3.7747 65.9527 6.3495 C 69.3269 8.1106 72.4483 11.1946 73.8532 14.609 C 76.1637 20.2169 80.3323 27.6907 76.9056 32.5646 Z "/>
  <path id="ID0.7746342602185905" fill="#D3EFF9" stroke="#000000" stroke-width="2.5058093273041053" stroke-linecap="round" d="M 2.9493 45.6393 C 3.2021 45.6805 12.944 40.4634 18.2115 39.5434 C 21.8349 38.9123 25.6781 41.1162 29.5234 40.9971 C 31.9661 40.9267 34.3355 39.8726 36.8852 38.9808 C 40.8139 37.6115 44.553 35.4367 48.5563 34.2916 C 55.2329 32.3869 62.2061 30.9886 68.8461 30.3059 C 75.2835 29.6419 87.4731 30.7917 88.2381 30.3059 C 88.98 29.6119 78.9931 26.7075 74.2327 26.0857 C 69.0213 25.4058 63.7927 25.9019 58.6114 26.0857 C 54.6361 26.3699 50.6198 26.5828 46.7608 27.4924 C 41.2908 28.7585 35.9415 30.892 30.6008 32.8849 C 25.5086 34.7849 20.2778 36.9457 15.159 39.3559 C 11.0637 41.1949 2.6964 45.598 2.9493 45.6393 Z "/>
  <path id="ID0.6644536075182259" fill="#000000" stroke="#000000" stroke-width="2.5058093273041053" stroke-linecap="round" d="M 61.0175 31.572 C 66.5255 30.682 72.3251 30.8977 78.0034 30.259 C 79.358 30.0264 79.804 29.5472 80.6967 29.1336 C 81.4559 28.7866 82.2294 27.8319 83.0309 28.1489 C 86.2249 29.218 89.5969 30.3387 92.1883 33.1194 C 93.2613 34.2673 93.8998 37.3883 92.7269 38.5118 C 90.4207 40.7223 87.1356 40.983 84.2878 40.6219 C 82.5275 40.3997 81.1937 37.8075 79.4398 36.8707 C 77.4202 35.7584 75.2663 34.9575 73.1554 34.2916 C 71.4353 34.0384 70.0175 33.9175 68.487 33.8227 C 64.3852 33.5686 58.3557 34.3245 56.0976 33.5883 C 55.0059 33.2263 59.3138 31.8477 61.0175 31.572 Z "/>
  <path id="ID0.5022262083366513" fill="#FFA8AD" stroke="none" stroke-linecap="round" d="M 10.95 12.9 C 14.565 10.446 18.764 9.038 22.8 7.4 C 25.359 6.467 31.546 4.474 30.7 5.2 C 29.769 6.001 22.087 8.641 18.2 11.05 C 15.812 12.638 13.655 14.677 12.1 17.05 C 10.637 19.282 10.12 22.089 9.45 24.7 C 8.826 27.144 8.357 29.562 8.1 32.05 C 7.939 34.278 8.246 36.484 8.2 38.8 C 8.188 39.377 8.48 39.554 8.1 39.9 C 6.698 41.157 4.997 42.046 3.3 42.9 C 2.876 43.046 2.871 42.894 2.8 42.4 C 2.516 40.422 2.186 38.497 2.2 36.55 C 2.354 33.236 2.733 29.884 3.3 26.675 C 3.731 24.233 4.123 21.67 5.352 19.517 C 6.736 17.088 8.562 14.522 10.95 12.9 Z " stroke-width="1"/>
</svg>