<svg xmlns="http://www.w3.org/2000/svg" xmlns:xlink="http://www.w3.org/1999/xlink" version="1.1" width="94.81070282095645" height="46.63532974356387" viewBox="0.3922202486099102 0.4571159977020123 94.81070282095645 46.63532974356387">
  <!-- Exported by Scratch - http://scratch.mit.edu/ -->
  <path id="ID0.17011773446574807" fill="#FF1B45" stroke="#000000" stroke-width="1.436442890452479" d="M 67.8387 2.2381 C 66.867 2.0465 65.9375 2.1195 65.2205 2.3924 C 64.5041 2.6655 64.001 3.138 63.8812 3.7454 C 63.7615 4.3529 64.0476 4.981 64.6066 5.5056 C 65.1664 6.0303 65.9986 6.4506 66.9703 6.6422 C 67.942 6.8338 68.8715 6.7609 69.5885 6.4879 C 70.3049 6.2148 70.808 5.7423 70.9278 5.1349 C 71.0475 4.5275 70.7614 3.8993 70.2024 3.3748 C 69.6426 2.85 68.8104 2.4297 67.8387 2.2381 Z "/>
  <path id="ID0.7822854588739574" fill="#FF1B45" stroke="#000000" stroke-width="2.1546642780303955" stroke-linecap="round" d="M 18.0944 32.7646 L 33.7157 33.4828 L 69.0881 36.7148 L 85.1044 41.6705 L 92.2507 45.3334 C 94.5649 46.5882 94.0039 36.2235 93.5076 31.6872 C 92.9503 26.5886 91.9096 21.2924 89.0187 17.1432 C 86.3254 13.0724 81.8775 10.2972 77.5272 8.1655 C 72.2454 5.5777 66.4336 4.0142 60.649 2.9584 C 55.5748 2.0326 50.3253 1.3862 45.2072 1.881 C 39.6475 2.6 33.9757 3.9747 29.0473 6.5495 C 25.6731 8.3106 22.5517 11.3946 21.1468 14.809 C 18.8363 20.4169 14.6677 27.8907 18.0944 32.7646 Z "/>
  <path id="ID0.5022262083366513" fill="#FFA8AD" stroke="none" stroke-linecap="round" d="M 26.1 9.85 C 28.96 7.59 32.344 6.417 35.6 5.2 C 39.336 3.858 47.162 1.912 47 2.2 C 46.836 2.49 38.387 5.641 34.5 8.05 C 32.112 9.638 29.921 11.641 28.4 14.05 C 26.045 17.778 24.796 22.071 23.4 26.2 C 22.946 27.232 23.726 26.331 23.9 26.6 C 24.315 27.28 25.47 28.569 24.75 28.85 C 22.851 29.653 20.366 29.396 18.75 28.1 C 17.679 27.569 18.161 25.936 18.5 24.6 C 19.214 21.801 20.304 19.064 21.652 16.517 C 22.897 14.167 24.009 11.509 26.1 9.85 Z " stroke-width="1"/>
  <path id="ID0.7746342602185905" fill="#D3EFF9" stroke="#000000" stroke-width="2.5058093273041053" stroke-linecap="round" d="M 92.0507 45.8393 C 91.7979 45.8805 82.056 40.6634 76.7885 39.7434 C 73.1651 39.1123 69.3219 41.3162 65.4766 41.1971 C 63.0339 41.1267 60.6645 40.0726 58.1148 39.1808 C 54.1861 37.8115 50.447 35.6367 46.4437 34.4916 C 39.7671 32.5869 32.7939 31.1886 26.1539 30.5059 C 19.7165 29.8419 7.5269 30.9917 6.7619 30.5059 C 6.02 29.8119 16.0069 26.9075 20.7673 26.2857 C 25.9787 25.6058 31.2073 26.1019 36.3886 26.2857 C 40.3639 26.5699 44.3802 26.7828 48.2392 27.6924 C 53.7092 28.9585 59.0585 31.092 64.3992 33.0849 C 69.4914 34.9849 74.7222 37.1457 79.841 39.5559 C 83.9363 41.3949 92.3036 45.798 92.0507 45.8393 Z "/>
  <path id="ID0.6644536075182259" fill="#000000" stroke="#000000" stroke-width="2.5058093273041053" stroke-linecap="round" d="M 33.9825 31.772 C 28.4745 30.882 22.6749 31.0977 16.9966 30.459 C 15.642 30.2264 15.196 29.7472 14.3033 29.3336 C 13.5441 28.9866 12.7706 28.0319 11.9691 28.3489 C 8.7751 29.418 5.4031 30.5387 2.8117 33.3194 C 1.7387 34.4673 1.1002 37.5883 2.2731 38.7118 C 4.5793 40.9223 7.8644 41.183 10.7122 40.8219 C 12.4725 40.5997 13.8063 38.0075 15.5602 37.0707 C 17.5798 35.9584 19.7337 35.1575 21.8446 34.4916 C 23.5647 34.2384 24.9825 34.1175 26.513 34.0227 C 30.6148 33.7686 36.6443 34.5245 38.9024 33.7883 C 39.9941 33.4263 35.6862 32.0477 33.9825 31.772 Z "/>
</svg>