<svg xmlns="http://www.w3.org/2000/svg" xmlns:xlink="http://www.w3.org/1999/xlink" version="1.1" width="101.37880349159241" height="211.8728678226471" viewBox="1.7120500802993774 0.42590630054473877 101.37880349159241 211.8728678226471">
  <!-- Exported by Scratch - http://scratch.mit.edu/ -->
  <g id="ID0.7149084191769361">
    <g id="ID0.7866862644441426">
      <path id="ID0.11782124871388078" fill="#C37B50" stroke="#000000" stroke-width="1.9562477049864906" stroke-linecap="round" d="M 8.105 103.0274 L 25.6051 102.8107 L 22.085 135.7292 L 20.8761 168.5503 L 20.4439 179.6804 L 19.9655 182.3803 L 17.4077 183.1807 L 15.391 180.3274 L 14.7293 174.3971 L 13.789 184.8735 L 9.7342 185.5818 L 7.6299 183.2977 L 9.0378 173.3289 L 7.6456 183.0593 L 5.5711 184.1288 L 3.015 181.0986 L 3.2835 173.2145 L 3.9115 163.6765 L 5.1414 132.8199 L 8.105 103.0274 Z "/>
      <path id="ID0.13247013883665204" fill="#E10139" stroke="#000000" stroke-width="1.9562564194041034" stroke-linecap="round" d="M 5.8848 96.2407 L 8.7949 86.0106 L 12.8914 79.8614 L 16.6857 77.053 L 22.1701 78.0945 L 26.345 82.9391 L 28.2552 88.7042 L 29.8632 97.8101 L 29.0349 102.8155 L 6.284 102.6991 L 5.8848 96.2407 Z "/>
    </g>
    <path id="ID0.3887670743279159" fill="#333640" stroke="#000000" stroke-width="1.4717389622529908" d="M 95.7331 154.8484 L 12.4404 154.8484 L 12.4404 210.9958 L 95.7331 210.9958 L 95.7331 154.8484 Z "/>
    <g id="ID0.5705704805441201">
      <path id="ID0.5024464935995638" fill="#FF1B45" stroke="#000000" stroke-width="2.2288822531700134" stroke-linecap="round" d="M 54.064 65.9071 C 43.0288 65.8143 30.5032 66.8091 21.8084 73.6176 C 15.0259 78.9335 14.1967 89.1068 13.2383 97.3715 C 10.7754 118.5385 11.2316 139.8637 11.641 161.0804 C 11.7435 166.3844 11.6603 169.9699 15.0957 171.1847 C 26.9066 175.534 39.973 175.9916 52.7638 176.0882 C 66.2352 176.19 80.1954 176.1937 92.9952 171.8162 C 96.4425 170.5881 96.071 164.8123 96.2642 161.0804 C 96.8378 150.0118 96.0762 138.8949 95.6698 127.8329 C 95.0613 116.9181 95.2827 105.8227 93.218 95.1055 C 91.7648 87.5637 90.949 78.2106 84.8337 73.6176 C 76.387 67.2749 64.6512 65.8143 54.064 65.9071 Z "/>
      <path id="ID0.9501931658014655" fill="#E10139" stroke="none" stroke-linecap="round" d="M 35.3252 69.2324 L 25.3365 72.5005 L 24.7384 173.8463 L 36.043 174.7904 L 35.3252 69.2324 Z " stroke-width="0.9895533114301723"/>
      <path id="ID0.9501931658014655" fill="#E10139" stroke="none" d="M 58.2145 76.1553 L 47.7473 76.1553 L 48.465 175.0376 L 58.9921 174.4488 L 58.2145 76.1553 Z " stroke-width="0.9641045012294582"/>
      <path id="ID0.9501931658014655" fill="#E10139" stroke="none" stroke-linecap="round" d="M 83.5645 74.3106 L 77.2842 70.171 L 73.0375 69.5174 L 73.3964 174.3128 L 83.7439 172.7514 L 83.5645 74.3106 Z " stroke-width="0.9895533114301723"/>
      <path id="ID0.5343091967515647" fill="#D3EFF9" stroke="#D3EFF9" stroke-width="2.5782090425491333" stroke-linecap="round" d="M 53.675 138.1119 C 52.8766 138.5417 51.0255 138.093 49.1631 137.8971 C 48.3063 137.8069 47.4461 137.7183 46.5849 137.6822 C 45.7273 137.6462 44.8644 137.7183 44.0067 137.6822 C 43.1456 137.6462 42.2836 137.574 41.4285 137.4674 C 40.5648 137.3591 39.7174 137.1099 38.8503 137.0377 C 37.9943 136.9664 37.061 137.3763 36.2721 137.0377 C 35.435 136.6793 34.7303 135.9265 34.3384 135.104 C 33.968 134.3263 34.1236 133.387 34.1236 132.5258 C 34.1236 131.6647 34.1966 130.7976 34.3384 129.9476 C 34.4837 129.0745 34.4399 128.0681 34.983 127.3694 C 35.533 126.6621 36.5755 126.5384 37.3464 126.0803 C 38.8658 125.1779 40.411 124.3005 41.8582 123.2872 C 42.5638 122.7931 43.1826 122.1778 43.7919 121.5684 C 44.4725 120.8878 45.2443 120.2527 45.7255 119.4199 C 46.609 117.8936 48.0708 116.4498 48.0889 114.6932 C 48.1052 113.0621 47.5157 110.9858 46.1552 110.1814 C 44.4553 109.3348 42.2286 109.9639 40.5691 110.6111 C 39.4914 111.0863 39.3187 112.8171 38.4206 113.4041 C 37.6781 113.8819 36.6141 114.4827 35.8424 114.0487 C 35.0535 113.6052 35.1678 112.3565 34.983 111.4705 C 34.8077 110.6274 34.6968 109.7508 34.7681 108.8922 C 34.8421 108.0105 34.8464 106.9938 35.4127 106.314 C 36.0272 105.5767 37.1186 105.4246 37.9909 105.0249 C 38.8366 104.6373 39.6667 104.1758 40.5691 103.9507 C 41.4053 103.7418 42.2888 103.8072 43.1473 103.7358 C 44.0059 103.6645 44.8928 103.3044 45.7255 103.521 C 47.2982 103.9352 48.7016 104.5325 50.0225 105.2398 C 51.236 106.0528 52.7374 106.8176 53.2453 108.0328 C 54.0136 109.8874 53.8899 112.0557 53.675 114.0487 C 53.5006 115.6944 52.7073 117.1958 51.7414 118.5605 C 50.7505 120.3129 49.2663 121.7601 47.874 123.2872 C 47.2948 123.9232 46.7989 124.6485 46.1552 125.2209 C 45.5021 125.801 44.7647 126.2917 44.0067 126.7249 C 43.2565 127.1537 42.3936 127.3703 41.6434 127.7991 C 40.8854 128.2323 39.9323 128.5477 39.4949 129.3031 C 39.0634 130.049 38.7919 131.1714 39.28 131.8813 C 39.7931 132.6272 40.9533 132.7158 41.8582 132.7407 C 43.5882 132.7888 45.295 132.2869 47.0146 132.0961 C 47.8706 132.0007 48.7317 131.9174 49.5928 131.8813 C 50.4505 131.8452 51.3194 131.7747 52.1711 131.8813 C 53.0494 131.9913 54.1451 131.8787 54.7493 132.5258 C 55.3431 133.1618 55.179 134.2335 55.179 135.104 C 55.179 136.0451 54.8661 136.9629 54.7493 137.8971 C 54.72 138.1309 55.2176 138.5417 54.7493 138.5417 Z "/>
    </g>
    <g id="ID0.2370505714789033">
      <path id="ID0.7782022436149418" fill="#C37B50" stroke="#000000" stroke-width="2.6059000492095947" d="M 48.3391 5.2762 C 38.0041 5.2762 28.6391 9.4736 21.8579 16.2548 C 15.0767 23.036 10.8793 32.401 10.8793 42.736 C 10.8793 53.071 15.0767 62.436 21.8579 69.2172 C 28.6391 75.9984 38.0041 80.1958 48.3391 80.1958 C 58.6741 80.1958 68.039 75.9984 74.8202 69.2172 C 81.6014 62.436 85.7989 53.071 85.7989 42.736 C 85.7989 32.401 81.6014 23.036 74.8202 16.2548 C 68.039 9.4736 58.6741 5.2762 48.3391 5.2762 Z "/>
      <path id="ID0.3346423259936273" fill="#000000" stroke="none" d="M 46.7658 35.8905 C 45.6108 35.8905 44.564 36.3594 43.8059 37.1175 C 43.0478 37.8756 42.5789 38.9223 42.5789 40.0774 C 42.5789 41.2324 43.0478 42.2791 43.8059 43.0372 C 44.564 43.7953 45.6108 44.2642 46.7658 44.2642 C 47.9208 44.2642 48.9675 43.7953 49.7256 43.0372 C 50.4837 42.2791 50.9527 41.2324 50.9527 40.0774 C 50.9527 38.9223 50.4837 37.8756 49.7256 37.1175 C 48.9675 36.3594 47.9208 35.8905 46.7658 35.8905 Z " stroke-width="0.5582506060600281"/>
      <path id="ID0.3346423259936273" fill="#000000" stroke="none" d="M 18.9158 35.3905 C 17.7608 35.3905 16.714 35.8594 15.9559 36.6175 C 15.1978 37.3756 14.7289 38.4223 14.7289 39.5774 C 14.7289 40.7324 15.1978 41.7791 15.9559 42.5372 C 16.714 43.2953 17.7608 43.7642 18.9158 43.7642 C 20.0708 43.7642 21.1175 43.2953 21.8756 42.5372 C 22.6337 41.7791 23.1027 40.7324 23.1027 39.5774 C 23.1027 38.4223 22.6337 37.3756 21.8756 36.6175 C 21.1175 35.8594 20.0708 35.3905 18.9158 35.3905 Z " stroke-width="0.5582506060600281"/>
      <path id="ID0.5251190410926938" fill="none" stroke="#000000" stroke-width="1.9625998735427856" stroke-linecap="round" d="M 48.0565 55.2209 L 28.1034 55.2209 "/>
      <path id="ID0.263839818071574" fill="#000000" stroke="#000000" stroke-width="2.5782090425491333" stroke-linecap="round" d="M 71.6799 31.9708 C 71.0637 31.6433 72.4869 32.2904 72.969 33.4747 C 73.5809 35.7306 72.6382 40.3388 72.969 40.5648 C 73.2973 40.7771 73.8637 36.6399 74.6878 34.9787 C 75.072 34.2086 75.6332 33.4317 76.4067 33.045 C 77.1371 32.6153 78.0825 32.6153 78.9849 32.6153 C 79.8443 32.6153 80.8102 32.6136 81.5631 33.045 C 82.4328 33.5495 83.1143 34.555 83.4967 35.6232 C 84.0717 36.9097 84.4318 38.3467 84.3561 39.9202 C 84.3252 40.5931 83.5758 40.8802 83.2819 41.639 C 82.9012 42.6093 82.6485 43.6466 82.4225 44.6469 C 82.1457 45.1566 81.7014 45.6121 81.7779 46.1509 C 81.9189 47.1762 82.6373 48.944 82.6373 49.1588 C 82.6373 49.1588 82.5084 50.0182 82.4225 50.4479 C 82.1647 51.3073 81.735 52.1238 81.5631 53.0261 C 81.3482 53.8426 81.1686 54.7604 81.3482 55.6043 C 81.6421 56.9948 82.6201 59.5902 83.067 59.9013 C 83.4349 60.0423 82.6201 57.3859 83.2819 56.6786 C 84.2401 55.6868 86.4161 56.2291 87.1492 55.1746 C 87.6433 54.4459 86.5476 53.4558 86.5046 52.5964 C 86.4187 51.737 86.3757 50.7917 86.7195 50.0182 C 87.0203 49.2018 88.0516 48.858 88.4383 48.0846 C 88.7821 47.2681 88.9539 46.3658 88.868 45.5063 C 88.7391 44.6469 88.2234 43.8735 87.7937 43.143 C 87.2781 42.3266 86.0749 41.8969 86.0749 40.9945 C 86.0749 40.0921 87.45 39.8343 87.7937 39.0608 C 88.0945 38.2444 88.0086 37.342 88.0086 36.4826 C 87.9656 35.5802 88.0086 34.6349 87.5789 33.9044 C 87.1062 33.1309 85.6882 33.2169 85.4304 32.4005 C 85.1296 31.4981 85.8601 30.5957 86.2898 29.8222 C 86.6765 29.0058 88.3524 28.3183 87.7937 27.6737 C 86.1179 25.6971 82.6803 25.7401 81.1334 23.8064 C 80.5318 23.0759 83.1959 23.1619 83.4967 22.3025 C 83.7546 21.4431 83.0241 20.5407 82.4225 19.9391 C 81.7779 19.2946 80.8326 19.2086 80.0591 18.8649 C 79.2427 18.4781 77.8676 18.607 77.6958 17.7906 C 77.4379 16.8882 79.1567 16.3296 79.1997 15.4272 C 79.1997 14.5249 78.5981 13.5795 77.9106 13.0639 C 77.1801 12.5482 76.1488 12.7631 75.3324 12.6342 C 74.473 12.4623 73.3128 12.8061 72.7542 12.2045 C 72.1526 11.5599 73.012 10.3138 72.5393 9.6263 C 72.0237 8.8958 70.9924 8.6809 70.176 8.552 C 69.3166 8.3801 68.3712 9.0677 67.5978 8.7669 C 66.7384 8.4231 66.1712 7.5843 65.6641 6.8332 C 65.2507 6.2153 65.1777 5.3482 64.5899 4.8996 C 63.2561 3.8709 61.4582 2.7708 59.6483 2.5362 C 57.9768 2.3179 56.4204 3.5675 54.7067 3.8253 C 53.599 3.9293 52.3623 3.9594 51.2691 3.6105 C 50.4484 3.3492 50.1089 2.1924 49.3355 1.8916 C 48.519 1.5479 47.5737 1.8487 46.7573 1.8916 C 45.8119 1.8916 44.8236 1.7627 43.9642 2.1065 C 43.1048 2.3643 42.4602 3.0518 41.8157 3.6105 C 41.1282 4.1261 40.7414 5.2433 39.882 5.3293 C 38.9797 5.3722 38.507 4.1261 37.7335 3.8253 C 36.9171 3.4815 35.9717 3.1378 35.1553 3.3956 C 34.2529 3.6105 33.6084 4.4269 33.0068 5.1144 C 32.3193 5.8019 32.0615 6.9192 31.288 7.4778 C 30.5575 7.9504 29.5692 7.9504 28.7098 8.1223 C 27.7644 8.2512 26.7332 7.9075 25.9167 8.3372 C 25.1003 8.6809 24.5847 9.4974 24.1979 10.2708 C 23.7682 11.0443 24.2598 12.6402 23.5534 12.849 C 22.7653 13.069 22.229 10.7383 21.19 10.7005 C 19.6027 10.9137 17.9776 12.0146 17.1078 13.2787 C 16.5999 14.0213 17.9397 14.9881 17.9672 15.8569 C 18.0137 17.2139 16.7099 19.6418 17.7524 19.9391 C 19.4858 20.3929 21.7099 17.5448 23.7682 17.5758 C 24.9963 17.599 25.8669 19.408 26.7761 19.7243 C 27.657 20.0311 28.7201 19.8953 29.5692 19.5094 C 30.3985 19.133 30.597 17.6711 31.5028 17.5758 C 32.3717 17.4847 32.8848 18.6612 33.6514 19.0797 C 34.4678 19.5249 35.3031 20.2382 36.2296 20.154 C 37.0993 20.0749 37.5058 18.6045 38.3781 18.65 C 39.2383 18.6956 39.534 19.9984 40.3117 20.3688 C 41.0972 20.7427 42.0271 20.9111 42.8899 20.7985 C 43.7468 20.6868 44.3896 19.6847 45.2533 19.7243 C 46.1488 19.7647 46.7822 20.6868 47.6167 21.0134 C 48.4408 21.3356 49.332 21.8539 50.1949 21.6579 C 51.0886 21.4551 51.4333 19.8317 52.3434 19.9391 C 53.2105 20.0414 53.1263 21.5943 53.8473 22.0876 C 54.5778 22.5869 55.5438 22.8087 56.4255 22.7322 C 57.2867 22.6574 57.9527 21.4379 58.7889 21.6579 C 59.6749 21.8908 60.084 22.9943 60.5077 23.8064 C 60.958 24.6693 60.6117 25.9859 61.3671 26.5995 C 62.0331 27.1409 63.2552 26.0881 63.9453 26.5995 C 65.3822 27.6643 65.7372 29.8231 67.1681 30.8965 C 67.914 31.456 69.1542 30.7203 69.9611 31.1113 Z "/>
    </g>
    <g id="ID0.7866862644441426">
      <path id="ID0.11782124871388078" fill="#C37B50" stroke="#000000" stroke-width="1.9562476750398694" stroke-linecap="round" d="M 97.9177 102.7556 L 80.4231 102.2656 L 83.4286 135.235 L 84.1249 168.0711 L 84.3832 179.2066 L 84.8194 181.9136 L 87.3644 182.7538 L 89.4254 179.9324 L 90.1796 174.0131 L 90.9562 184.5029 L 94.9995 185.2745 L 97.1391 183.0235 L 95.8871 173.0339 L 97.1272 182.7849 L 99.1847 183.8866 L 101.7879 180.8968 L 101.6425 173.0094 L 101.1635 163.4628 L 100.4156 132.5907 L 97.9177 102.7556 Z "/>
      <path id="ID0.13247013883665204" fill="#E10139" stroke="#000000" stroke-width="1.9562563983398749" stroke-linecap="round" d="M 100.25 96.0624 L 97.5 85.788 L 93.5 79.5756 L 89.75 76.7083 L 84.25 77.6641 L 80 82.4428 L 78 88.1774 L 76.25 97.2571 L 77 102.2748 L 99.75 102.5137 L 100.25 96.0624 Z "/>
    </g>
  </g>
</svg>