<svg xmlns="http://www.w3.org/2000/svg" xmlns:xlink="http://www.w3.org/1999/xlink" version="1.1" width="92.45360207557678" height="211.8728678226471" viewBox="0.680150032043457 0.42590630054473877 92.45360207557678 211.8728678226471">
  <!-- Exported by Scratch - http://scratch.mit.edu/ -->
  <g id="ID0.7866862644441426">
    <path id="ID0.11782124871388078" fill="#C37B50" stroke="#000000" stroke-width="1.956247762196216" stroke-linecap="round" d="M 4.529 103.4027 L 21.9981 102.3396 L 20.0745 135.3898 L 20.4547 168.2311 L 20.5614 179.3691 L 20.2142 182.0889 L 17.698 183.0121 L 15.5457 180.2597 L 14.5979 174.3684 L 14.1655 184.878 L 10.1497 185.7816 L 7.9374 183.602 L 8.8614 173.5767 L 7.9415 183.363 L 5.9212 184.5316 L 3.2214 181.6287 L 3.1083 173.7408 L 3.2742 164.1836 L 3.01 133.3036 L 4.529 103.4027 Z "/>
    <path id="ID0.13247013883665204" fill="#E10139" stroke="#000000" stroke-width="1.9562564766140838" stroke-linecap="round" d="M 1.9831 96.7313 L 4.3949 86.3723 L 8.1892 80.0322 L 11.8432 77.0436 L 17.3716 77.8186 L 21.7759 82.4555 L 23.9627 88.1214 L 26.0093 97.1389 L 25.4241 102.1785 L 2.6942 103.1628 L 1.9831 96.7313 Z "/>
  </g>
  <path id="ID0.3887670743279159" fill="#333640" stroke="#000000" stroke-width="1.4717389622529908" d="M 89.9831 154.8484 L 6.6904 154.8484 L 6.6904 210.9958 L 89.9831 210.9958 L 89.9831 154.8484 Z "/>
  <g id="ID0.5705704805441201">
    <path id="ID0.5024464935995638" fill="#FF1B45" stroke="#000000" stroke-width="2.2288822531700134" stroke-linecap="round" d="M 48.314 65.9071 C 37.2788 65.8143 24.7532 66.8091 16.0584 73.6176 C 9.2759 78.9335 8.4467 89.1068 7.4883 97.3715 C 5.0254 118.5385 5.4816 139.8637 5.891 161.0804 C 5.9935 166.3844 5.9103 169.9699 9.3457 171.1847 C 21.1566 175.534 34.223 175.9916 47.0138 176.0882 C 60.4852 176.19 74.4454 176.1937 87.2452 171.8162 C 90.6925 170.5881 90.321 164.8123 90.5142 161.0804 C 91.0878 150.0118 90.3262 138.8949 89.9198 127.8329 C 89.3113 116.9181 89.5327 105.8227 87.468 95.1055 C 86.0148 87.5637 85.199 78.2106 79.0837 73.6176 C 70.637 67.2749 58.9012 65.8143 48.314 65.9071 Z "/>
    <path id="ID0.9501931658014655" fill="#E10139" stroke="none" stroke-linecap="round" d="M 29.5752 69.2324 L 19.5865 72.5005 L 18.9884 173.8463 L 30.293 174.7904 L 29.5752 69.2324 Z " stroke-width="0.9895533114301723"/>
    <path id="ID0.9501931658014655" fill="#E10139" stroke="none" d="M 52.4645 76.1553 L 41.9973 76.1553 L 42.715 175.0376 L 53.2421 174.4488 L 52.4645 76.1553 Z " stroke-width="0.9641045012294582"/>
    <path id="ID0.9501931658014655" fill="#E10139" stroke="none" stroke-linecap="round" d="M 77.8145 74.3106 L 71.5342 70.171 L 67.2875 69.5174 L 67.6464 174.3128 L 77.9939 172.7514 L 77.8145 74.3106 Z " stroke-width="0.9895533114301723"/>
    <path id="ID0.5343091967515647" fill="#D3EFF9" stroke="#D3EFF9" stroke-width="2.5782090425491333" stroke-linecap="round" d="M 47.925 138.1119 C 47.1266 138.5417 45.2755 138.093 43.4131 137.8971 C 42.5563 137.8069 41.6961 137.7183 40.8349 137.6822 C 39.9773 137.6462 39.1144 137.7183 38.2567 137.6822 C 37.3956 137.6462 36.5336 137.574 35.6785 137.4674 C 34.8148 137.3591 33.9674 137.1099 33.1003 137.0377 C 32.2443 136.9664 31.311 137.3763 30.5221 137.0377 C 29.685 136.6793 28.9803 135.9265 28.5884 135.104 C 28.218 134.3263 28.3736 133.387 28.3736 132.5258 C 28.3736 131.6647 28.4466 130.7976 28.5884 129.9476 C 28.7337 129.0745 28.6899 128.0681 29.233 127.3694 C 29.783 126.6621 30.8255 126.5384 31.5964 126.0803 C 33.1158 125.1779 34.661 124.3005 36.1082 123.2872 C 36.8138 122.7931 37.4326 122.1778 38.0419 121.5684 C 38.7225 120.8878 39.4943 120.2527 39.9755 119.4199 C 40.859 117.8936 42.3208 116.4498 42.3389 114.6932 C 42.3552 113.0621 41.7657 110.9858 40.4052 110.1814 C 38.7053 109.3348 36.4786 109.9639 34.8191 110.6111 C 33.7414 111.0863 33.5687 112.8171 32.6706 113.4041 C 31.9281 113.8819 30.8641 114.4827 30.0924 114.0487 C 29.3035 113.6052 29.4178 112.3565 29.233 111.4705 C 29.0577 110.6274 28.9468 109.7508 29.0181 108.8922 C 29.0921 108.0105 29.0964 106.9938 29.6627 106.314 C 30.2772 105.5767 31.3686 105.4246 32.2409 105.0249 C 33.0866 104.6373 33.9167 104.1758 34.8191 103.9507 C 35.6553 103.7418 36.5388 103.8072 37.3973 103.7358 C 38.2559 103.6645 39.1428 103.3044 39.9755 103.521 C 41.5482 103.9352 42.9516 104.5325 44.2725 105.2398 C 45.486 106.0528 46.9874 106.8176 47.4953 108.0328 C 48.2636 109.8874 48.1399 112.0557 47.925 114.0487 C 47.7506 115.6944 46.9573 117.1958 45.9914 118.5605 C 45.0005 120.3129 43.5163 121.7601 42.124 123.2872 C 41.5448 123.9232 41.0489 124.6485 40.4052 125.2209 C 39.7521 125.801 39.0147 126.2917 38.2567 126.7249 C 37.5065 127.1537 36.6436 127.3703 35.8934 127.7991 C 35.1354 128.2323 34.1823 128.5477 33.7449 129.3031 C 33.3134 130.049 33.0419 131.1714 33.53 131.8813 C 34.0431 132.6272 35.2033 132.7158 36.1082 132.7407 C 37.8382 132.7888 39.545 132.2869 41.2646 132.0961 C 42.1206 132.0007 42.9817 131.9174 43.8428 131.8813 C 44.7005 131.8452 45.5694 131.7747 46.4211 131.8813 C 47.2994 131.9913 48.3951 131.8787 48.9993 132.5258 C 49.5931 133.1618 49.429 134.2335 49.429 135.104 C 49.429 136.0451 49.1161 136.9629 48.9993 137.8971 C 48.97 138.1309 49.4676 138.5417 48.9993 138.5417 Z "/>
  </g>
  <g id="ID0.2370505714789033">
    <path id="ID0.7782022436149418" fill="#C37B50" stroke="#000000" stroke-width="2.6059000492095947" d="M 42.5891 5.2762 C 32.2541 5.2762 22.8891 9.4736 16.1079 16.2548 C 9.3267 23.036 5.1293 32.401 5.1293 42.736 C 5.1293 53.071 9.3267 62.436 16.1079 69.2172 C 22.8891 75.9984 32.2541 80.1958 42.5891 80.1958 C 52.9241 80.1958 62.289 75.9984 69.0702 69.2172 C 75.8514 62.436 80.0489 53.071 80.0489 42.736 C 80.0489 32.401 75.8514 23.036 69.0702 16.2548 C 62.289 9.4736 52.9241 5.2762 42.5891 5.2762 Z "/>
    <path id="ID0.3346423259936273" fill="#000000" stroke="none" d="M 41.0158 35.8905 C 39.8608 35.8905 38.814 36.3594 38.0559 37.1175 C 37.2978 37.8756 36.8289 38.9223 36.8289 40.0774 C 36.8289 41.2324 37.2978 42.2791 38.0559 43.0372 C 38.814 43.7953 39.8608 44.2642 41.0158 44.2642 C 42.1708 44.2642 43.2175 43.7953 43.9756 43.0372 C 44.7337 42.2791 45.2027 41.2324 45.2027 40.0774 C 45.2027 38.9223 44.7337 37.8756 43.9756 37.1175 C 43.2175 36.3594 42.1708 35.8905 41.0158 35.8905 Z " stroke-width="0.5582506060600281"/>
    <path id="ID0.3346423259936273" fill="#000000" stroke="none" d="M 13.1658 35.3905 C 12.0108 35.3905 10.964 35.8594 10.2059 36.6175 C 9.4478 37.3756 8.9789 38.4223 8.9789 39.5774 C 8.9789 40.7324 9.4478 41.7791 10.2059 42.5372 C 10.964 43.2953 12.0108 43.7642 13.1658 43.7642 C 14.3208 43.7642 15.3675 43.2953 16.1256 42.5372 C 16.8837 41.7791 17.3527 40.7324 17.3527 39.5774 C 17.3527 38.4223 16.8837 37.3756 16.1256 36.6175 C 15.3675 35.8594 14.3208 35.3905 13.1658 35.3905 Z " stroke-width="0.5582506060600281"/>
    <path id="ID0.5251190410926938" fill="none" stroke="#000000" stroke-width="1.9625998735427856" stroke-linecap="round" d="M 42.3065 55.2209 L 22.3534 55.2209 "/>
    <path id="ID0.263839818071574" fill="#000000" stroke="#000000" stroke-width="2.5782090425491333" stroke-linecap="round" d="M 65.9299 31.9708 C 65.3137 31.6433 66.7369 32.2904 67.219 33.4747 C 67.8309 35.7306 66.8882 40.3388 67.219 40.5648 C 67.5473 40.7771 68.1137 36.6399 68.9378 34.9787 C 69.322 34.2086 69.8832 33.4317 70.6567 33.045 C 71.3871 32.6153 72.3325 32.6153 73.2349 32.6153 C 74.0943 32.6153 75.0602 32.6136 75.8131 33.045 C 76.6828 33.5495 77.3643 34.555 77.7467 35.6232 C 78.3217 36.9097 78.6818 38.3467 78.6061 39.9202 C 78.5752 40.5931 77.8258 40.8802 77.5319 41.639 C 77.1512 42.6093 76.8985 43.6466 76.6725 44.6469 C 76.3957 45.1566 75.9514 45.6121 76.0279 46.1509 C 76.1689 47.1762 76.8873 48.944 76.8873 49.1588 C 76.8873 49.1588 76.7584 50.0182 76.6725 50.4479 C 76.4147 51.3073 75.985 52.1238 75.8131 53.0261 C 75.5982 53.8426 75.4186 54.7604 75.5982 55.6043 C 75.8921 56.9948 76.8701 59.5902 77.317 59.9013 C 77.6849 60.0423 76.8701 57.3859 77.5319 56.6786 C 78.4901 55.6868 80.6661 56.2291 81.3992 55.1746 C 81.8933 54.4459 80.7976 53.4558 80.7546 52.5964 C 80.6687 51.737 80.6257 50.7917 80.9695 50.0182 C 81.2703 49.2018 82.3016 48.858 82.6883 48.0846 C 83.0321 47.2681 83.2039 46.3658 83.118 45.5063 C 82.9891 44.6469 82.4734 43.8735 82.0437 43.143 C 81.5281 42.3266 80.3249 41.8969 80.3249 40.9945 C 80.3249 40.0921 81.7 39.8343 82.0437 39.0608 C 82.3445 38.2444 82.2586 37.342 82.2586 36.4826 C 82.2156 35.5802 82.2586 34.6349 81.8289 33.9044 C 81.3562 33.1309 79.9382 33.2169 79.6804 32.4005 C 79.3796 31.4981 80.1101 30.5957 80.5398 29.8222 C 80.9265 29.0058 82.6024 28.3183 82.0437 27.6737 C 80.3679 25.6971 76.9303 25.7401 75.3834 23.8064 C 74.7818 23.0759 77.4459 23.1619 77.7467 22.3025 C 78.0046 21.4431 77.2741 20.5407 76.6725 19.9391 C 76.0279 19.2946 75.0826 19.2086 74.3091 18.8649 C 73.4927 18.4781 72.1176 18.607 71.9458 17.7906 C 71.6879 16.8882 73.4067 16.3296 73.4497 15.4272 C 73.4497 14.5249 72.8481 13.5795 72.1606 13.0639 C 71.4301 12.5482 70.3988 12.7631 69.5824 12.6342 C 68.723 12.4623 67.5628 12.8061 67.0042 12.2045 C 66.4026 11.5599 67.262 10.3138 66.7893 9.6263 C 66.2737 8.8958 65.2424 8.6809 64.426 8.552 C 63.5666 8.3801 62.6212 9.0677 61.8478 8.7669 C 60.9884 8.4231 60.4212 7.5843 59.9141 6.8332 C 59.5007 6.2153 59.4277 5.3482 58.8399 4.8996 C 57.5061 3.8709 55.7082 2.7708 53.8983 2.5362 C 52.2268 2.3179 50.6704 3.5675 48.9567 3.8253 C 47.849 3.9293 46.6123 3.9594 45.5191 3.6105 C 44.6984 3.3492 44.3589 2.1924 43.5855 1.8916 C 42.769 1.5479 41.8237 1.8487 41.0073 1.8916 C 40.0619 1.8916 39.0736 1.7627 38.2142 2.1065 C 37.3548 2.3643 36.7102 3.0518 36.0657 3.6105 C 35.3782 4.1261 34.9914 5.2433 34.132 5.3293 C 33.2297 5.3722 32.757 4.1261 31.9835 3.8253 C 31.1671 3.4815 30.2217 3.1378 29.4053 3.3956 C 28.5029 3.6105 27.8584 4.4269 27.2568 5.1144 C 26.5693 5.8019 26.3115 6.9192 25.538 7.4778 C 24.8075 7.9504 23.8192 7.9504 22.9598 8.1223 C 22.0144 8.2512 20.9832 7.9075 20.1667 8.3372 C 19.3503 8.6809 18.8347 9.4974 18.4479 10.2708 C 18.0182 11.0443 18.5098 12.6402 17.8034 12.849 C 17.0153 13.069 16.479 10.7383 15.44 10.7005 C 13.8527 10.9137 12.2276 12.0146 11.3578 13.2787 C 10.8499 14.0213 12.1897 14.9881 12.2172 15.8569 C 12.2637 17.2139 10.9599 19.6418 12.0024 19.9391 C 13.7358 20.3929 15.9599 17.5448 18.0182 17.5758 C 19.2463 17.599 20.1169 19.408 21.0261 19.7243 C 21.907 20.0311 22.9701 19.8953 23.8192 19.5094 C 24.6485 19.133 24.847 17.6711 25.7528 17.5758 C 26.6217 17.4847 27.1348 18.6612 27.9014 19.0797 C 28.7178 19.5249 29.5531 20.2382 30.4796 20.154 C 31.3493 20.0749 31.7558 18.6045 32.6281 18.65 C 33.4883 18.6956 33.784 19.9984 34.5617 20.3688 C 35.3472 20.7427 36.2771 20.9111 37.1399 20.7985 C 37.9968 20.6868 38.6396 19.6847 39.5033 19.7243 C 40.3988 19.7647 41.0322 20.6868 41.8667 21.0134 C 42.6908 21.3356 43.582 21.8539 44.4449 21.6579 C 45.3386 21.4551 45.6833 19.8317 46.5934 19.9391 C 47.4605 20.0414 47.3763 21.5943 48.0973 22.0876 C 48.8278 22.5869 49.7938 22.8087 50.6755 22.7322 C 51.5367 22.6574 52.2027 21.4379 53.0389 21.6579 C 53.9249 21.8908 54.334 22.9943 54.7577 23.8064 C 55.208 24.6693 54.8617 25.9859 55.6171 26.5995 C 56.2831 27.1409 57.5052 26.0881 58.1953 26.5995 C 59.6322 27.6643 59.9872 29.8231 61.4181 30.8965 C 62.164 31.456 63.4042 30.7203 64.2111 31.1113 Z "/>
  </g>
  <g id="ID0.7866862644441426">
    <path id="ID0.11782124871388078" fill="#C37B50" stroke="#000000" stroke-width="1.956247679729913" stroke-linecap="round" d="M 89.1414 104.3933 L 71.6985 102.9618 L 72.9242 136.0452 L 71.8511 168.8711 L 71.5093 180.0044 L 71.7991 182.731 L 74.2952 183.707 L 76.5051 181.0006 L 77.577 175.1306 L 77.7875 185.647 L 81.7834 186.6352 L 84.0412 184.5027 L 83.329 174.4602 L 84.0421 184.2638 L 86.0373 185.4748 L 88.7977 182.6294 L 89.0773 174.7457 L 89.1132 165.1871 L 90.029 134.3196 L 89.1414 104.3933 Z "/>
    <path id="ID0.13247013883665204" fill="#E10139" stroke="#000000" stroke-width="1.9562564030299396" stroke-linecap="round" d="M 91.8308 97.8353 L 89.6381 87.4278 L 85.9785 81.0089 L 82.3883 77.9439 L 76.8448 78.6021 L 72.3436 83.145 L 70.0377 88.7635 L 67.8013 97.7358 L 68.28 102.7866 L 90.9841 104.2504 L 91.8308 97.8353 Z "/>
  </g>
</svg>