<svg xmlns="http://www.w3.org/2000/svg" xmlns:xlink="http://www.w3.org/1999/xlink" version="1.1" width="101.37880349159241" height="211.8728678226471" viewBox="1.2120498418807983 0.42590630054473877 101.37880349159241 211.8728678226471">
  <!-- Exported by Scratch - http://scratch.mit.edu/ -->
  <g id="ID0.7149084191769361">
    <g id="ID0.7866862644441426">
      <path id="ID0.11782124871388078" fill="#C37B50" stroke="#000000" stroke-width="1.9562477049864906" stroke-linecap="round" d="M 7.605 103.0274 L 25.1051 102.8107 L 21.585 135.7292 L 20.3761 168.5503 L 19.9439 179.6804 L 19.4655 182.3803 L 16.9077 183.1807 L 14.891 180.3274 L 14.2293 174.3971 L 13.289 184.8735 L 9.2342 185.5818 L 7.1299 183.2977 L 8.5378 173.3289 L 7.1456 183.0593 L 5.0711 184.1288 L 2.515 181.0986 L 2.7835 173.2145 L 3.4115 163.6765 L 4.6414 132.8199 L 7.605 103.0274 Z "/>
      <path id="ID0.13247013883665204" fill="#E10139" stroke="#000000" stroke-width="1.9562564194041034" stroke-linecap="round" d="M 5.3848 96.2407 L 8.2949 86.0106 L 12.3914 79.8614 L 16.1857 77.053 L 21.6701 78.0945 L 25.845 82.9391 L 27.7552 88.7042 L 29.3632 97.8101 L 28.5349 102.8155 L 5.784 102.6991 L 5.3848 96.2407 Z "/>
    </g>
    <path id="ID0.3887670743279159" fill="#333640" stroke="#000000" stroke-width="1.4717389622529908" d="M 95.2331 154.8484 L 11.9404 154.8484 L 11.9404 210.9958 L 95.2331 210.9958 L 95.2331 154.8484 Z "/>
    <g id="ID0.5705704805441201">
      <path id="ID0.5024464935995638" fill="#FF1B45" stroke="#000000" stroke-width="2.2288822531700134" stroke-linecap="round" d="M 53.564 65.9071 C 42.5288 65.8143 30.0032 66.8091 21.3084 73.6176 C 14.5259 78.9335 13.6967 89.1068 12.7383 97.3715 C 10.2754 118.5385 10.7316 139.8637 11.141 161.0804 C 11.2435 166.3844 11.1603 169.9699 14.5957 171.1847 C 26.4066 175.534 39.473 175.9916 52.2638 176.0882 C 65.7352 176.19 79.6954 176.1937 92.4952 171.8162 C 95.9425 170.5881 95.571 164.8123 95.7642 161.0804 C 96.3378 150.0118 95.5762 138.8949 95.1698 127.8329 C 94.5613 116.9181 94.7827 105.8227 92.718 95.1055 C 91.2648 87.5637 90.449 78.2106 84.3337 73.6176 C 75.887 67.2749 64.1512 65.8143 53.564 65.9071 Z "/>
      <path id="ID0.9501931658014655" fill="#E10139" stroke="none" stroke-linecap="round" d="M 34.8252 69.2324 L 24.8365 72.5005 L 24.2384 173.8463 L 35.543 174.7904 L 34.8252 69.2324 Z " stroke-width="0.9895533114301723"/>
      <path id="ID0.9501931658014655" fill="#E10139" stroke="none" d="M 57.7145 76.1553 L 47.2473 76.1553 L 47.965 175.0376 L 58.4921 174.4488 L 57.7145 76.1553 Z " stroke-width="0.9641045012294582"/>
      <path id="ID0.9501931658014655" fill="#E10139" stroke="none" stroke-linecap="round" d="M 83.0645 74.3106 L 76.7842 70.171 L 72.5375 69.5174 L 72.8964 174.3128 L 83.2439 172.7514 L 83.0645 74.3106 Z " stroke-width="0.9895533114301723"/>
      <path id="ID0.5343091967515647" fill="#D3EFF9" stroke="#D3EFF9" stroke-width="2.5782090425491333" stroke-linecap="round" d="M 53.175 138.1119 C 52.3766 138.5417 50.5255 138.093 48.6631 137.8971 C 47.8063 137.8069 46.9461 137.7183 46.0849 137.6822 C 45.2273 137.6462 44.3644 137.7183 43.5067 137.6822 C 42.6456 137.6462 41.7836 137.574 40.9285 137.4674 C 40.0648 137.3591 39.2174 137.1099 38.3503 137.0377 C 37.4943 136.9664 36.561 137.3763 35.7721 137.0377 C 34.935 136.6793 34.2303 135.9265 33.8384 135.104 C 33.468 134.3263 33.6236 133.387 33.6236 132.5258 C 33.6236 131.6647 33.6966 130.7976 33.8384 129.9476 C 33.9837 129.0745 33.9399 128.0681 34.483 127.3694 C 35.033 126.6621 36.0755 126.5384 36.8464 126.0803 C 38.3658 125.1779 39.911 124.3005 41.3582 123.2872 C 42.0638 122.7931 42.6826 122.1778 43.2919 121.5684 C 43.9725 120.8878 44.7443 120.2527 45.2255 119.4199 C 46.109 117.8936 47.5708 116.4498 47.5889 114.6932 C 47.6052 113.0621 47.0157 110.9858 45.6552 110.1814 C 43.9553 109.3348 41.7286 109.9639 40.0691 110.6111 C 38.9914 111.0863 38.8187 112.8171 37.9206 113.4041 C 37.1781 113.8819 36.1141 114.4827 35.3424 114.0487 C 34.5535 113.6052 34.6678 112.3565 34.483 111.4705 C 34.3077 110.6274 34.1968 109.7508 34.2681 108.8922 C 34.3421 108.0105 34.3464 106.9938 34.9127 106.314 C 35.5272 105.5767 36.6186 105.4246 37.4909 105.0249 C 38.3366 104.6373 39.1667 104.1758 40.0691 103.9507 C 40.9053 103.7418 41.7888 103.8072 42.6473 103.7358 C 43.5059 103.6645 44.3928 103.3044 45.2255 103.521 C 46.7982 103.9352 48.2016 104.5325 49.5225 105.2398 C 50.736 106.0528 52.2374 106.8176 52.7453 108.0328 C 53.5136 109.8874 53.3899 112.0557 53.175 114.0487 C 53.0006 115.6944 52.2073 117.1958 51.2414 118.5605 C 50.2505 120.3129 48.7663 121.7601 47.374 123.2872 C 46.7948 123.9232 46.2989 124.6485 45.6552 125.2209 C 45.0021 125.801 44.2647 126.2917 43.5067 126.7249 C 42.7565 127.1537 41.8936 127.3703 41.1434 127.7991 C 40.3854 128.2323 39.4323 128.5477 38.9949 129.3031 C 38.5634 130.049 38.2919 131.1714 38.78 131.8813 C 39.2931 132.6272 40.4533 132.7158 41.3582 132.7407 C 43.0882 132.7888 44.795 132.2869 46.5146 132.0961 C 47.3706 132.0007 48.2317 131.9174 49.0928 131.8813 C 49.9505 131.8452 50.8194 131.7747 51.6711 131.8813 C 52.5494 131.9913 53.6451 131.8787 54.2493 132.5258 C 54.8431 133.1618 54.679 134.2335 54.679 135.104 C 54.679 136.0451 54.3661 136.9629 54.2493 137.8971 C 54.22 138.1309 54.7176 138.5417 54.2493 138.5417 Z "/>
    </g>
    <g id="ID0.2370505714789033">
      <path id="ID0.7782022436149418" fill="#C37B50" stroke="#000000" stroke-width="2.6059000492095947" d="M 47.8391 5.2762 C 37.5041 5.2762 28.1391 9.4736 21.3579 16.2548 C 14.5767 23.036 10.3793 32.401 10.3793 42.736 C 10.3793 53.071 14.5767 62.436 21.3579 69.2172 C 28.1391 75.9984 37.5041 80.1958 47.8391 80.1958 C 58.1741 80.1958 67.539 75.9984 74.3202 69.2172 C 81.1014 62.436 85.2989 53.071 85.2989 42.736 C 85.2989 32.401 81.1014 23.036 74.3202 16.2548 C 67.539 9.4736 58.1741 5.2762 47.8391 5.2762 Z "/>
      <path id="ID0.3346423259936273" fill="#000000" stroke="none" d="M 46.2658 35.8905 C 45.1108 35.8905 44.064 36.3594 43.3059 37.1175 C 42.5478 37.8756 42.0789 38.9223 42.0789 40.0774 C 42.0789 41.2324 42.5478 42.2791 43.3059 43.0372 C 44.064 43.7953 45.1108 44.2642 46.2658 44.2642 C 47.4208 44.2642 48.4675 43.7953 49.2256 43.0372 C 49.9837 42.2791 50.4527 41.2324 50.4527 40.0774 C 50.4527 38.9223 49.9837 37.8756 49.2256 37.1175 C 48.4675 36.3594 47.4208 35.8905 46.2658 35.8905 Z " stroke-width="0.5582506060600281"/>
      <path id="ID0.3346423259936273" fill="#000000" stroke="none" d="M 18.4158 35.3905 C 17.2608 35.3905 16.214 35.8594 15.4559 36.6175 C 14.6978 37.3756 14.2289 38.4223 14.2289 39.5774 C 14.2289 40.7324 14.6978 41.7791 15.4559 42.5372 C 16.214 43.2953 17.2608 43.7642 18.4158 43.7642 C 19.5708 43.7642 20.6175 43.2953 21.3756 42.5372 C 22.1337 41.7791 22.6027 40.7324 22.6027 39.5774 C 22.6027 38.4223 22.1337 37.3756 21.3756 36.6175 C 20.6175 35.8594 19.5708 35.3905 18.4158 35.3905 Z " stroke-width="0.5582506060600281"/>
      <path id="ID0.5251190410926938" fill="none" stroke="#000000" stroke-width="1.9625998735427856" stroke-linecap="round" d="M 47.5565 55.2209 L 27.6034 55.2209 "/>
      <path id="ID0.263839818071574" fill="#000000" stroke="#000000" stroke-width="2.5782090425491333" stroke-linecap="round" d="M 71.1799 31.9708 C 70.5637 31.6433 71.9869 32.2904 72.469 33.4747 C 73.0809 35.7306 72.1382 40.3388 72.469 40.5648 C 72.7973 40.7771 73.3637 36.6399 74.1878 34.9787 C 74.572 34.2086 75.1332 33.4317 75.9067 33.045 C 76.6371 32.6153 77.5825 32.6153 78.4849 32.6153 C 79.3443 32.6153 80.3102 32.6136 81.0631 33.045 C 81.9328 33.5495 82.6143 34.555 82.9967 35.6232 C 83.5717 36.9097 83.9318 38.3467 83.8561 39.9202 C 83.8252 40.5931 83.0758 40.8802 82.7819 41.639 C 82.4012 42.6093 82.1485 43.6466 81.9225 44.6469 C 81.6457 45.1566 81.2014 45.6121 81.2779 46.1509 C 81.4189 47.1762 82.1373 48.944 82.1373 49.1588 C 82.1373 49.1588 82.0084 50.0182 81.9225 50.4479 C 81.6647 51.3073 81.235 52.1238 81.0631 53.0261 C 80.8482 53.8426 80.6686 54.7604 80.8482 55.6043 C 81.1421 56.9948 82.1201 59.5902 82.567 59.9013 C 82.9349 60.0423 82.1201 57.3859 82.7819 56.6786 C 83.7401 55.6868 85.9161 56.2291 86.6492 55.1746 C 87.1433 54.4459 86.0476 53.4558 86.0046 52.5964 C 85.9187 51.737 85.8757 50.7917 86.2195 50.0182 C 86.5203 49.2018 87.5516 48.858 87.9383 48.0846 C 88.2821 47.2681 88.4539 46.3658 88.368 45.5063 C 88.2391 44.6469 87.7234 43.8735 87.2937 43.143 C 86.7781 42.3266 85.5749 41.8969 85.5749 40.9945 C 85.5749 40.0921 86.95 39.8343 87.2937 39.0608 C 87.5945 38.2444 87.5086 37.342 87.5086 36.4826 C 87.4656 35.5802 87.5086 34.6349 87.0789 33.9044 C 86.6062 33.1309 85.1882 33.2169 84.9304 32.4005 C 84.6296 31.4981 85.3601 30.5957 85.7898 29.8222 C 86.1765 29.0058 87.8524 28.3183 87.2937 27.6737 C 85.6179 25.6971 82.1803 25.7401 80.6334 23.8064 C 80.0318 23.0759 82.6959 23.1619 82.9967 22.3025 C 83.2546 21.4431 82.5241 20.5407 81.9225 19.9391 C 81.2779 19.2946 80.3326 19.2086 79.5591 18.8649 C 78.7427 18.4781 77.3676 18.607 77.1958 17.7906 C 76.9379 16.8882 78.6567 16.3296 78.6997 15.4272 C 78.6997 14.5249 78.0981 13.5795 77.4106 13.0639 C 76.6801 12.5482 75.6488 12.7631 74.8324 12.6342 C 73.973 12.4623 72.8128 12.8061 72.2542 12.2045 C 71.6526 11.5599 72.512 10.3138 72.0393 9.6263 C 71.5237 8.8958 70.4924 8.6809 69.676 8.552 C 68.8166 8.3801 67.8712 9.0677 67.0978 8.7669 C 66.2384 8.4231 65.6712 7.5843 65.1641 6.8332 C 64.7507 6.2153 64.6777 5.3482 64.0899 4.8996 C 62.7561 3.8709 60.9582 2.7708 59.1483 2.5362 C 57.4768 2.3179 55.9204 3.5675 54.2067 3.8253 C 53.099 3.9293 51.8623 3.9594 50.7691 3.6105 C 49.9484 3.3492 49.6089 2.1924 48.8355 1.8916 C 48.019 1.5479 47.0737 1.8487 46.2573 1.8916 C 45.3119 1.8916 44.3236 1.7627 43.4642 2.1065 C 42.6048 2.3643 41.9602 3.0518 41.3157 3.6105 C 40.6282 4.1261 40.2414 5.2433 39.382 5.3293 C 38.4797 5.3722 38.007 4.1261 37.2335 3.8253 C 36.4171 3.4815 35.4717 3.1378 34.6553 3.3956 C 33.7529 3.6105 33.1084 4.4269 32.5068 5.1144 C 31.8193 5.8019 31.5615 6.9192 30.788 7.4778 C 30.0575 7.9504 29.0692 7.9504 28.2098 8.1223 C 27.2644 8.2512 26.2332 7.9075 25.4167 8.3372 C 24.6003 8.6809 24.0847 9.4974 23.6979 10.2708 C 23.2682 11.0443 23.7598 12.6402 23.0534 12.849 C 22.2653 13.069 21.729 10.7383 20.69 10.7005 C 19.1027 10.9137 17.4776 12.0146 16.6078 13.2787 C 16.0999 14.0213 17.4397 14.9881 17.4672 15.8569 C 17.5137 17.2139 16.2099 19.6418 17.2524 19.9391 C 18.9858 20.3929 21.2099 17.5448 23.2682 17.5758 C 24.4963 17.599 25.3669 19.408 26.2761 19.7243 C 27.157 20.0311 28.2201 19.8953 29.0692 19.5094 C 29.8985 19.133 30.097 17.6711 31.0028 17.5758 C 31.8717 17.4847 32.3848 18.6612 33.1514 19.0797 C 33.9678 19.5249 34.8031 20.2382 35.7296 20.154 C 36.5993 20.0749 37.0058 18.6045 37.8781 18.65 C 38.7383 18.6956 39.034 19.9984 39.8117 20.3688 C 40.5972 20.7427 41.5271 20.9111 42.3899 20.7985 C 43.2468 20.6868 43.8896 19.6847 44.7533 19.7243 C 45.6488 19.7647 46.2822 20.6868 47.1167 21.0134 C 47.9408 21.3356 48.832 21.8539 49.6949 21.6579 C 50.5886 21.4551 50.9333 19.8317 51.8434 19.9391 C 52.7105 20.0414 52.6263 21.5943 53.3473 22.0876 C 54.0778 22.5869 55.0438 22.8087 55.9255 22.7322 C 56.7867 22.6574 57.4527 21.4379 58.2889 21.6579 C 59.1749 21.8908 59.584 22.9943 60.0077 23.8064 C 60.458 24.6693 60.1117 25.9859 60.8671 26.5995 C 61.5331 27.1409 62.7552 26.0881 63.4453 26.5995 C 64.8822 27.6643 65.2372 29.8231 66.6681 30.8965 C 67.414 31.456 68.6542 30.7203 69.4611 31.1113 Z "/>
    </g>
    <g id="ID0.7866862644441426">
      <path id="ID0.11782124871388078" fill="#C37B50" stroke="#000000" stroke-width="1.9562476750398694" stroke-linecap="round" d="M 97.4177 102.7556 L 79.9231 102.2656 L 82.9286 135.235 L 83.6249 168.0711 L 83.8832 179.2066 L 84.3194 181.9136 L 86.8644 182.7538 L 88.9254 179.9324 L 89.6796 174.0131 L 90.4562 184.5029 L 94.4995 185.2745 L 96.6391 183.0235 L 95.3871 173.0339 L 96.6272 182.7849 L 98.6847 183.8866 L 101.2879 180.8968 L 101.1425 173.0094 L 100.6635 163.4628 L 99.9156 132.5907 L 97.4177 102.7556 Z "/>
      <path id="ID0.13247013883665204" fill="#E10139" stroke="#000000" stroke-width="1.9562563983398749" stroke-linecap="round" d="M 99.75 96.0624 L 97 85.788 L 93 79.5756 L 89.25 76.7083 L 83.75 77.6641 L 79.5 82.4428 L 77.5 88.1774 L 75.75 97.2571 L 76.5 102.2748 L 99.25 102.5137 L 99.75 96.0624 Z "/>
    </g>
  </g>
</svg>