<svg xmlns="http://www.w3.org/2000/svg" xmlns:xlink="http://www.w3.org/1999/xlink" version="1.1" width="111.29900002479553" height="211.8728678226471" viewBox="2.205150008201599 0.42590630054473877 111.29900002479553 211.8728678226471">
  <!-- Exported by Scratch - http://scratch.mit.edu/ -->
  <g id="ID0.7866862644441426">
    <path id="ID0.11782124871388078" fill="#C37B50" stroke="#000000" stroke-width="1.956247754719183" stroke-linecap="round" d="M 13.6957 102.5533 L 31.1725 103.4822 L 25.506 136.0997 L 22.152 168.7714 L 20.9925 179.8494 L 20.3385 182.5123 L 17.7337 183.1435 L 15.9081 180.1644 L 15.6358 174.2035 L 14.0121 184.5959 L 9.9196 185.0374 L 7.9693 182.6205 L 10.0264 172.7652 L 8.0006 182.3836 L 5.8605 183.3151 L 3.5081 180.1242 L 4.292 172.2745 L 5.5427 162.7981 L 8.789 132.088 L 13.6957 102.5533 Z "/>
    <path id="ID0.13247013883665204" fill="#E10139" stroke="#000000" stroke-width="1.9562564691370177" stroke-linecap="round" d="M 11.9243 95.6359 L 15.4976 85.6181 L 19.9877 79.7501 L 23.9576 77.196 L 29.3621 78.5942 L 33.211 83.7016 L 34.7399 89.5793 L 35.7486 98.7709 L 34.5946 103.7113 L 11.9 102.1066 L 11.9243 95.6359 Z "/>
  </g>
  <path id="ID0.3887670743279159" fill="#333640" stroke="#000000" stroke-width="1.4717389622529908" d="M 101.9831 154.8484 L 18.6904 154.8484 L 18.6904 210.9958 L 101.9831 210.9958 L 101.9831 154.8484 Z "/>
  <g id="ID0.5705704805441201">
    <path id="ID0.5024464935995638" fill="#FF1B45" stroke="#000000" stroke-width="2.2288822531700134" stroke-linecap="round" d="M 60.314 65.9071 C 49.2788 65.8143 36.7532 66.8091 28.0584 73.6176 C 21.2759 78.9335 20.4467 89.1068 19.4883 97.3715 C 17.0254 118.5385 17.4816 139.8637 17.891 161.0804 C 17.9935 166.3844 17.9103 169.9699 21.3457 171.1847 C 33.1566 175.534 46.223 175.9916 59.0138 176.0882 C 72.4852 176.19 86.4454 176.1937 99.2452 171.8162 C 102.6925 170.5881 102.321 164.8123 102.5142 161.0804 C 103.0878 150.0118 102.3262 138.8949 101.9198 127.8329 C 101.3113 116.9181 101.5327 105.8227 99.468 95.1055 C 98.0148 87.5637 97.199 78.2106 91.0837 73.6176 C 82.637 67.2749 70.9012 65.8143 60.314 65.9071 Z "/>
    <path id="ID0.9501931658014655" fill="#E10139" stroke="none" stroke-linecap="round" d="M 41.5752 69.2324 L 31.5865 72.5005 L 30.9884 173.8463 L 42.293 174.7904 L 41.5752 69.2324 Z " stroke-width="0.9895533114301723"/>
    <path id="ID0.9501931658014655" fill="#E10139" stroke="none" d="M 64.4645 76.1553 L 53.9973 76.1553 L 54.715 175.0376 L 65.2421 174.4488 L 64.4645 76.1553 Z " stroke-width="0.9641045012294582"/>
    <path id="ID0.9501931658014655" fill="#E10139" stroke="none" stroke-linecap="round" d="M 89.8145 74.3106 L 83.5342 70.171 L 79.2875 69.5174 L 79.6464 174.3128 L 89.9939 172.7514 L 89.8145 74.3106 Z " stroke-width="0.9895533114301723"/>
    <path id="ID0.5343091967515647" fill="#D3EFF9" stroke="#D3EFF9" stroke-width="2.5782090425491333" stroke-linecap="round" d="M 59.925 138.1119 C 59.1266 138.5417 57.2755 138.093 55.4131 137.8971 C 54.5563 137.8069 53.6961 137.7183 52.8349 137.6822 C 51.9773 137.6462 51.1144 137.7183 50.2567 137.6822 C 49.3956 137.6462 48.5336 137.574 47.6785 137.4674 C 46.8148 137.3591 45.9674 137.1099 45.1003 137.0377 C 44.2443 136.9664 43.311 137.3763 42.5221 137.0377 C 41.685 136.6793 40.9803 135.9265 40.5884 135.104 C 40.218 134.3263 40.3736 133.387 40.3736 132.5258 C 40.3736 131.6647 40.4466 130.7976 40.5884 129.9476 C 40.7337 129.0745 40.6899 128.0681 41.233 127.3694 C 41.783 126.6621 42.8255 126.5384 43.5964 126.0803 C 45.1158 125.1779 46.661 124.3005 48.1082 123.2872 C 48.8138 122.7931 49.4326 122.1778 50.0419 121.5684 C 50.7225 120.8878 51.4943 120.2527 51.9755 119.4199 C 52.859 117.8936 54.3208 116.4498 54.3389 114.6932 C 54.3552 113.0621 53.7657 110.9858 52.4052 110.1814 C 50.7053 109.3348 48.4786 109.9639 46.8191 110.6111 C 45.7414 111.0863 45.5687 112.8171 44.6706 113.4041 C 43.9281 113.8819 42.8641 114.4827 42.0924 114.0487 C 41.3035 113.6052 41.4178 112.3565 41.233 111.4705 C 41.0577 110.6274 40.9468 109.7508 41.0181 108.8922 C 41.0921 108.0105 41.0964 106.9938 41.6627 106.314 C 42.2772 105.5767 43.3686 105.4246 44.2409 105.0249 C 45.0866 104.6373 45.9167 104.1758 46.8191 103.9507 C 47.6553 103.7418 48.5388 103.8072 49.3973 103.7358 C 50.2559 103.6645 51.1428 103.3044 51.9755 103.521 C 53.5482 103.9352 54.9516 104.5325 56.2725 105.2398 C 57.486 106.0528 58.9874 106.8176 59.4953 108.0328 C 60.2636 109.8874 60.1399 112.0557 59.925 114.0487 C 59.7506 115.6944 58.9573 117.1958 57.9914 118.5605 C 57.0005 120.3129 55.5163 121.7601 54.124 123.2872 C 53.5448 123.9232 53.0489 124.6485 52.4052 125.2209 C 51.7521 125.801 51.0147 126.2917 50.2567 126.7249 C 49.5065 127.1537 48.6436 127.3703 47.8934 127.7991 C 47.1354 128.2323 46.1823 128.5477 45.7449 129.3031 C 45.3134 130.049 45.0419 131.1714 45.53 131.8813 C 46.0431 132.6272 47.2033 132.7158 48.1082 132.7407 C 49.8382 132.7888 51.545 132.2869 53.2646 132.0961 C 54.1206 132.0007 54.9817 131.9174 55.8428 131.8813 C 56.7005 131.8452 57.5694 131.7747 58.4211 131.8813 C 59.2994 131.9913 60.3951 131.8787 60.9993 132.5258 C 61.5931 133.1618 61.429 134.2335 61.429 135.104 C 61.429 136.0451 61.1161 136.9629 60.9993 137.8971 C 60.97 138.1309 61.4676 138.5417 60.9993 138.5417 Z "/>
  </g>
  <g id="ID0.2370505714789033">
    <path id="ID0.7782022436149418" fill="#C37B50" stroke="#000000" stroke-width="2.6059000492095947" d="M 54.5891 5.2762 C 44.2541 5.2762 34.8891 9.4736 28.1079 16.2548 C 21.3267 23.036 17.1293 32.401 17.1293 42.736 C 17.1293 53.071 21.3267 62.436 28.1079 69.2172 C 34.8891 75.9984 44.2541 80.1958 54.5891 80.1958 C 64.9241 80.1958 74.289 75.9984 81.0702 69.2172 C 87.8514 62.436 92.0489 53.071 92.0489 42.736 C 92.0489 32.401 87.8514 23.036 81.0702 16.2548 C 74.289 9.4736 64.9241 5.2762 54.5891 5.2762 Z "/>
    <path id="ID0.3346423259936273" fill="#000000" stroke="none" d="M 53.0158 35.8905 C 51.8608 35.8905 50.814 36.3594 50.0559 37.1175 C 49.2978 37.8756 48.8289 38.9223 48.8289 40.0774 C 48.8289 41.2324 49.2978 42.2791 50.0559 43.0372 C 50.814 43.7953 51.8608 44.2642 53.0158 44.2642 C 54.1708 44.2642 55.2175 43.7953 55.9756 43.0372 C 56.7337 42.2791 57.2027 41.2324 57.2027 40.0774 C 57.2027 38.9223 56.7337 37.8756 55.9756 37.1175 C 55.2175 36.3594 54.1708 35.8905 53.0158 35.8905 Z " stroke-width="0.5582506060600281"/>
    <path id="ID0.3346423259936273" fill="#000000" stroke="none" d="M 25.1658 35.3905 C 24.0108 35.3905 22.964 35.8594 22.2059 36.6175 C 21.4478 37.3756 20.9789 38.4223 20.9789 39.5774 C 20.9789 40.7324 21.4478 41.7791 22.2059 42.5372 C 22.964 43.2953 24.0108 43.7642 25.1658 43.7642 C 26.3208 43.7642 27.3675 43.2953 28.1256 42.5372 C 28.8837 41.7791 29.3527 40.7324 29.3527 39.5774 C 29.3527 38.4223 28.8837 37.3756 28.1256 36.6175 C 27.3675 35.8594 26.3208 35.3905 25.1658 35.3905 Z " stroke-width="0.5582506060600281"/>
    <path id="ID0.5251190410926938" fill="none" stroke="#000000" stroke-width="1.9625998735427856" stroke-linecap="round" d="M 54.3065 55.2209 L 34.3534 55.2209 "/>
    <path id="ID0.263839818071574" fill="#000000" stroke="#000000" stroke-width="2.5782090425491333" stroke-linecap="round" d="M 77.9299 31.9708 C 77.3137 31.6433 78.7369 32.2904 79.219 33.4747 C 79.8309 35.7306 78.8882 40.3388 79.219 40.5648 C 79.5473 40.7771 80.1137 36.6399 80.9378 34.9787 C 81.322 34.2086 81.8832 33.4317 82.6567 33.045 C 83.3871 32.6153 84.3325 32.6153 85.2349 32.6153 C 86.0943 32.6153 87.0602 32.6136 87.8131 33.045 C 88.6828 33.5495 89.3643 34.555 89.7467 35.6232 C 90.3217 36.9097 90.6818 38.3467 90.6061 39.9202 C 90.5752 40.5931 89.8258 40.8802 89.5319 41.639 C 89.1512 42.6093 88.8985 43.6466 88.6725 44.6469 C 88.3957 45.1566 87.9514 45.6121 88.0279 46.1509 C 88.1689 47.1762 88.8873 48.944 88.8873 49.1588 C 88.8873 49.1588 88.7584 50.0182 88.6725 50.4479 C 88.4147 51.3073 87.985 52.1238 87.8131 53.0261 C 87.5982 53.8426 87.4186 54.7604 87.5982 55.6043 C 87.8921 56.9948 88.8701 59.5902 89.317 59.9013 C 89.6849 60.0423 88.8701 57.3859 89.5319 56.6786 C 90.4901 55.6868 92.6661 56.2291 93.3992 55.1746 C 93.8933 54.4459 92.7976 53.4558 92.7546 52.5964 C 92.6687 51.737 92.6257 50.7917 92.9695 50.0182 C 93.2703 49.2018 94.3016 48.858 94.6883 48.0846 C 95.0321 47.2681 95.2039 46.3658 95.118 45.5063 C 94.9891 44.6469 94.4734 43.8735 94.0437 43.143 C 93.5281 42.3266 92.3249 41.8969 92.3249 40.9945 C 92.3249 40.0921 93.7 39.8343 94.0437 39.0608 C 94.3445 38.2444 94.2586 37.342 94.2586 36.4826 C 94.2156 35.5802 94.2586 34.6349 93.8289 33.9044 C 93.3562 33.1309 91.9382 33.2169 91.6804 32.4005 C 91.3796 31.4981 92.1101 30.5957 92.5398 29.8222 C 92.9265 29.0058 94.6024 28.3183 94.0437 27.6737 C 92.3679 25.6971 88.9303 25.7401 87.3834 23.8064 C 86.7818 23.0759 89.4459 23.1619 89.7467 22.3025 C 90.0046 21.4431 89.2741 20.5407 88.6725 19.9391 C 88.0279 19.2946 87.0826 19.2086 86.3091 18.8649 C 85.4927 18.4781 84.1176 18.607 83.9458 17.7906 C 83.6879 16.8882 85.4067 16.3296 85.4497 15.4272 C 85.4497 14.5249 84.8481 13.5795 84.1606 13.0639 C 83.4301 12.5482 82.3988 12.7631 81.5824 12.6342 C 80.723 12.4623 79.5628 12.8061 79.0042 12.2045 C 78.4026 11.5599 79.262 10.3138 78.7893 9.6263 C 78.2737 8.8958 77.2424 8.6809 76.426 8.552 C 75.5666 8.3801 74.6212 9.0677 73.8478 8.7669 C 72.9884 8.4231 72.4212 7.5843 71.9141 6.8332 C 71.5007 6.2153 71.4277 5.3482 70.8399 4.8996 C 69.5061 3.8709 67.7082 2.7708 65.8983 2.5362 C 64.2268 2.3179 62.6704 3.5675 60.9567 3.8253 C 59.849 3.9293 58.6123 3.9594 57.5191 3.6105 C 56.6984 3.3492 56.3589 2.1924 55.5855 1.8916 C 54.769 1.5479 53.8237 1.8487 53.0073 1.8916 C 52.0619 1.8916 51.0736 1.7627 50.2142 2.1065 C 49.3548 2.3643 48.7102 3.0518 48.0657 3.6105 C 47.3782 4.1261 46.9914 5.2433 46.132 5.3293 C 45.2297 5.3722 44.757 4.1261 43.9835 3.8253 C 43.1671 3.4815 42.2217 3.1378 41.4053 3.3956 C 40.5029 3.6105 39.8584 4.4269 39.2568 5.1144 C 38.5693 5.8019 38.3115 6.9192 37.538 7.4778 C 36.8075 7.9504 35.8192 7.9504 34.9598 8.1223 C 34.0144 8.2512 32.9832 7.9075 32.1667 8.3372 C 31.3503 8.6809 30.8347 9.4974 30.4479 10.2708 C 30.0182 11.0443 30.5098 12.6402 29.8034 12.849 C 29.0153 13.069 28.479 10.7383 27.44 10.7005 C 25.8527 10.9137 24.2276 12.0146 23.3578 13.2787 C 22.8499 14.0213 24.1897 14.9881 24.2172 15.8569 C 24.2637 17.2139 22.9599 19.6418 24.0024 19.9391 C 25.7358 20.3929 27.9599 17.5448 30.0182 17.5758 C 31.2463 17.599 32.1169 19.408 33.0261 19.7243 C 33.907 20.0311 34.9701 19.8953 35.8192 19.5094 C 36.6485 19.133 36.847 17.6711 37.7528 17.5758 C 38.6217 17.4847 39.1348 18.6612 39.9014 19.0797 C 40.7178 19.5249 41.5531 20.2382 42.4796 20.154 C 43.3493 20.0749 43.7558 18.6045 44.6281 18.65 C 45.4883 18.6956 45.784 19.9984 46.5617 20.3688 C 47.3472 20.7427 48.2771 20.9111 49.1399 20.7985 C 49.9968 20.6868 50.6396 19.6847 51.5033 19.7243 C 52.3988 19.7647 53.0322 20.6868 53.8667 21.0134 C 54.6908 21.3356 55.582 21.8539 56.4449 21.6579 C 57.3386 21.4551 57.6833 19.8317 58.5934 19.9391 C 59.4605 20.0414 59.3763 21.5943 60.0973 22.0876 C 60.8278 22.5869 61.7938 22.8087 62.6755 22.7322 C 63.5367 22.6574 64.2027 21.4379 65.0389 21.6579 C 65.9249 21.8908 66.334 22.9943 66.7577 23.8064 C 67.208 24.6693 66.8617 25.9859 67.6171 26.5995 C 68.2831 27.1409 69.5052 26.0881 70.1953 26.5995 C 71.6322 27.6643 71.9872 29.8231 73.4181 30.8965 C 74.164 31.456 75.4042 30.7203 76.2111 31.1113 Z "/>
  </g>
  <g id="ID0.7866862644441426">
    <path id="ID0.11782124871388078" fill="#C37B50" stroke="#000000" stroke-width="1.9562476254362244" stroke-linecap="round" d="M 104.9175 102.3643 L 87.4181 102.6398 L 91.8627 135.4462 L 93.9942 168.2204 L 94.7393 179.334 L 95.2934 182.0193 L 97.8727 182.7475 L 99.8083 179.8386 L 100.303 173.892 L 101.5375 184.3378 L 105.6107 184.9318 L 107.6499 182.5894 L 105.9622 172.6642 L 107.6275 182.3515 L 109.7313 183.3623 L 112.2012 180.2614 L 111.711 172.3879 L 110.815 162.8714 L 108.7177 132.0616 L 104.9175 102.3643 Z "/>
    <path id="ID0.13247013883665204" fill="#E10139" stroke="#000000" stroke-width="1.9562563487360087" stroke-linecap="round" d="M 106.9548 95.5754 L 103.7581 85.4311 L 99.4903 79.3996 L 95.6185 76.6991 L 90.1655 77.8944 L 86.1286 82.8545 L 84.3813 88.671 L 83.03 97.8185 L 83.9987 102.7987 L 106.7374 102.0425 L 106.9548 95.5754 Z "/>
  </g>
</svg>