<svg xmlns="http://www.w3.org/2000/svg" xmlns:xlink="http://www.w3.org/1999/xlink" version="1.1" width="101.37880349159241" height="211.8728678226471" viewBox="1.7120500802993774 0.17590641975402832 101.37880349159241 211.8728678226471">
  <!-- Exported by Scratch - http://scratch.mit.edu/ -->
  <g id="ID0.7149084191769361">
    <g id="ID0.7866862644441426">
      <path id="ID0.11782124871388078" fill="#C37B50" stroke="#000000" stroke-width="1.9562477049864906" stroke-linecap="round" d="M 8.105 102.7774 L 25.6051 102.5607 L 22.085 135.4792 L 20.8761 168.3003 L 20.4439 179.4304 L 19.9655 182.1303 L 17.4077 182.9307 L 15.391 180.0774 L 14.7293 174.1471 L 13.789 184.6235 L 9.7342 185.3318 L 7.6299 183.0477 L 9.0378 173.0789 L 7.6456 182.8093 L 5.5711 183.8788 L 3.015 180.8486 L 3.2835 172.9645 L 3.9115 163.4265 L 5.1414 132.5699 L 8.105 102.7774 Z "/>
      <path id="ID0.13247013883665204" fill="#E10139" stroke="#000000" stroke-width="1.9562564194041034" stroke-linecap="round" d="M 5.8848 95.9907 L 8.7949 85.7606 L 12.8914 79.6114 L 16.6857 76.803 L 22.1701 77.8445 L 26.345 82.6891 L 28.2552 88.4542 L 29.8632 97.5601 L 29.0349 102.5655 L 6.284 102.4491 L 5.8848 95.9907 Z "/>
    </g>
    <path id="ID0.3887670743279159" fill="#333640" stroke="#000000" stroke-width="1.4717389622529908" d="M 95.7331 154.5984 L 12.4404 154.5984 L 12.4404 210.7458 L 95.7331 210.7458 L 95.7331 154.5984 Z "/>
    <g id="ID0.5705704805441201">
      <path id="ID0.5024464935995638" fill="#FF1B45" stroke="#000000" stroke-width="2.2288822531700134" stroke-linecap="round" d="M 54.064 65.6571 C 43.0288 65.5643 30.5032 66.5591 21.8084 73.3676 C 15.0259 78.6835 14.1967 88.8568 13.2383 97.1215 C 10.7754 118.2885 11.2316 139.6137 11.641 160.8304 C 11.7435 166.1344 11.6603 169.7199 15.0957 170.9347 C 26.9066 175.284 39.973 175.7416 52.7638 175.8382 C 66.2352 175.94 80.1954 175.9437 92.9952 171.5662 C 96.4425 170.3381 96.071 164.5623 96.2642 160.8304 C 96.8378 149.7618 96.0762 138.6449 95.6698 127.5829 C 95.0613 116.6681 95.2827 105.5727 93.218 94.8555 C 91.7648 87.3137 90.949 77.9606 84.8337 73.3676 C 76.387 67.0249 64.6512 65.5643 54.064 65.6571 Z "/>
      <path id="ID0.9501931658014655" fill="#E10139" stroke="none" stroke-linecap="round" d="M 35.3252 68.9824 L 25.3365 72.2505 L 24.7384 173.5963 L 36.043 174.5404 L 35.3252 68.9824 Z " stroke-width="0.9895533114301723"/>
      <path id="ID0.9501931658014655" fill="#E10139" stroke="none" d="M 58.2145 75.9053 L 47.7473 75.9053 L 48.465 174.7876 L 58.9921 174.1988 L 58.2145 75.9053 Z " stroke-width="0.9641045012294582"/>
      <path id="ID0.9501931658014655" fill="#E10139" stroke="none" stroke-linecap="round" d="M 83.5645 74.0606 L 77.2842 69.921 L 73.0375 69.2674 L 73.3964 174.0628 L 83.7439 172.5014 L 83.5645 74.0606 Z " stroke-width="0.9895533114301723"/>
      <path id="ID0.5343091967515647" fill="#D3EFF9" stroke="#D3EFF9" stroke-width="2.5782090425491333" stroke-linecap="round" d="M 53.675 137.8619 C 52.8766 138.2917 51.0255 137.843 49.1631 137.6471 C 48.3063 137.5569 47.4461 137.4683 46.5849 137.4322 C 45.7273 137.3962 44.8644 137.4683 44.0067 137.4322 C 43.1456 137.3962 42.2836 137.324 41.4285 137.2174 C 40.5648 137.1091 39.7174 136.8599 38.8503 136.7877 C 37.9943 136.7164 37.061 137.1263 36.2721 136.7877 C 35.435 136.4293 34.7303 135.6765 34.3384 134.854 C 33.968 134.0763 34.1236 133.137 34.1236 132.2758 C 34.1236 131.4147 34.1966 130.5476 34.3384 129.6976 C 34.4837 128.8245 34.4399 127.8181 34.983 127.1194 C 35.533 126.4121 36.5755 126.2884 37.3464 125.8303 C 38.8658 124.9279 40.411 124.0505 41.8582 123.0372 C 42.5638 122.5431 43.1826 121.9278 43.7919 121.3184 C 44.4725 120.6378 45.2443 120.0027 45.7255 119.1699 C 46.609 117.6436 48.0708 116.1998 48.0889 114.4432 C 48.1052 112.8121 47.5157 110.7358 46.1552 109.9314 C 44.4553 109.0848 42.2286 109.7139 40.5691 110.3611 C 39.4914 110.8363 39.3187 112.5671 38.4206 113.1541 C 37.6781 113.6319 36.6141 114.2327 35.8424 113.7987 C 35.0535 113.3552 35.1678 112.1065 34.983 111.2205 C 34.8077 110.3774 34.6968 109.5008 34.7681 108.6422 C 34.8421 107.7605 34.8464 106.7438 35.4127 106.064 C 36.0272 105.3267 37.1186 105.1746 37.9909 104.7749 C 38.8366 104.3873 39.6667 103.9258 40.5691 103.7007 C 41.4053 103.4918 42.2888 103.5572 43.1473 103.4858 C 44.0059 103.4145 44.8928 103.0544 45.7255 103.271 C 47.2982 103.6852 48.7016 104.2825 50.0225 104.9898 C 51.236 105.8028 52.7374 106.5676 53.2453 107.7828 C 54.0136 109.6374 53.8899 111.8057 53.675 113.7987 C 53.5006 115.4444 52.7073 116.9458 51.7414 118.3105 C 50.7505 120.0629 49.2663 121.5101 47.874 123.0372 C 47.2948 123.6732 46.7989 124.3985 46.1552 124.9709 C 45.5021 125.551 44.7647 126.0417 44.0067 126.4749 C 43.2565 126.9037 42.3936 127.1203 41.6434 127.5491 C 40.8854 127.9823 39.9323 128.2977 39.4949 129.0531 C 39.0634 129.799 38.7919 130.9214 39.28 131.6313 C 39.7931 132.3772 40.9533 132.4658 41.8582 132.4907 C 43.5882 132.5388 45.295 132.0369 47.0146 131.8461 C 47.8706 131.7507 48.7317 131.6674 49.5928 131.6313 C 50.4505 131.5952 51.3194 131.5247 52.1711 131.6313 C 53.0494 131.7413 54.1451 131.6287 54.7493 132.2758 C 55.3431 132.9118 55.179 133.9835 55.179 134.854 C 55.179 135.7951 54.8661 136.7129 54.7493 137.6471 C 54.72 137.8809 55.2176 138.2917 54.7493 138.2917 Z "/>
    </g>
    <g id="ID0.2370505714789033">
      <path id="ID0.7782022436149418" fill="#C37B50" stroke="#000000" stroke-width="2.6059000492095947" d="M 48.3391 5.0262 C 38.0041 5.0262 28.6391 9.2236 21.8579 16.0048 C 15.0767 22.786 10.8793 32.151 10.8793 42.486 C 10.8793 52.821 15.0767 62.186 21.8579 68.9672 C 28.6391 75.7484 38.0041 79.9458 48.3391 79.9458 C 58.6741 79.9458 68.039 75.7484 74.8202 68.9672 C 81.6014 62.186 85.7989 52.821 85.7989 42.486 C 85.7989 32.151 81.6014 22.786 74.8202 16.0048 C 68.039 9.2236 58.6741 5.0262 48.3391 5.0262 Z "/>
      <path id="ID0.3346423259936273" fill="#000000" stroke="none" d="M 46.7658 35.6405 C 45.6108 35.6405 44.564 36.1094 43.8059 36.8675 C 43.0478 37.6256 42.5789 38.6723 42.5789 39.8274 C 42.5789 40.9824 43.0478 42.0291 43.8059 42.7872 C 44.564 43.5453 45.6108 44.0142 46.7658 44.0142 C 47.9208 44.0142 48.9675 43.5453 49.7256 42.7872 C 50.4837 42.0291 50.9527 40.9824 50.9527 39.8274 C 50.9527 38.6723 50.4837 37.6256 49.7256 36.8675 C 48.9675 36.1094 47.9208 35.6405 46.7658 35.6405 Z " stroke-width="0.5582506060600281"/>
      <path id="ID0.3346423259936273" fill="#000000" stroke="none" d="M 18.9158 35.1405 C 17.7608 35.1405 16.714 35.6094 15.9559 36.3675 C 15.1978 37.1256 14.7289 38.1723 14.7289 39.3274 C 14.7289 40.4824 15.1978 41.5291 15.9559 42.2872 C 16.714 43.0453 17.7608 43.5142 18.9158 43.5142 C 20.0708 43.5142 21.1175 43.0453 21.8756 42.2872 C 22.6337 41.5291 23.1027 40.4824 23.1027 39.3274 C 23.1027 38.1723 22.6337 37.1256 21.8756 36.3675 C 21.1175 35.6094 20.0708 35.1405 18.9158 35.1405 Z " stroke-width="0.5582506060600281"/>
      <path id="ID0.5251190410926938" fill="none" stroke="#000000" stroke-width="1.9625998735427856" stroke-linecap="round" d="M 48.0565 54.9709 L 28.1034 54.9709 "/>
      <path id="ID0.263839818071574" fill="#000000" stroke="#000000" stroke-width="2.5782090425491333" stroke-linecap="round" d="M 71.6799 31.7208 C 71.0637 31.3933 72.4869 32.0404 72.969 33.2247 C 73.5809 35.4806 72.6382 40.0888 72.969 40.3148 C 73.2973 40.5271 73.8637 36.3899 74.6878 34.7287 C 75.072 33.9586 75.6332 33.1817 76.4067 32.795 C 77.1371 32.3653 78.0825 32.3653 78.9849 32.3653 C 79.8443 32.3653 80.8102 32.3636 81.5631 32.795 C 82.4328 33.2995 83.1143 34.305 83.4967 35.3732 C 84.0717 36.6597 84.4318 38.0967 84.3561 39.6702 C 84.3252 40.3431 83.5758 40.6302 83.2819 41.389 C 82.9012 42.3593 82.6485 43.3966 82.4225 44.3969 C 82.1457 44.9066 81.7014 45.3621 81.7779 45.9009 C 81.9189 46.9262 82.6373 48.694 82.6373 48.9088 C 82.6373 48.9088 82.5084 49.7682 82.4225 50.1979 C 82.1647 51.0573 81.735 51.8738 81.5631 52.7761 C 81.3482 53.5926 81.1686 54.5104 81.3482 55.3543 C 81.6421 56.7448 82.6201 59.3402 83.067 59.6513 C 83.4349 59.7923 82.6201 57.1359 83.2819 56.4286 C 84.2401 55.4368 86.4161 55.9791 87.1492 54.9246 C 87.6433 54.1959 86.5476 53.2058 86.5046 52.3464 C 86.4187 51.487 86.3757 50.5417 86.7195 49.7682 C 87.0203 48.9518 88.0516 48.608 88.4383 47.8346 C 88.7821 47.0181 88.9539 46.1158 88.868 45.2563 C 88.7391 44.3969 88.2234 43.6235 87.7937 42.893 C 87.2781 42.0766 86.0749 41.6469 86.0749 40.7445 C 86.0749 39.8421 87.45 39.5843 87.7937 38.8108 C 88.0945 37.9944 88.0086 37.092 88.0086 36.2326 C 87.9656 35.3302 88.0086 34.3849 87.5789 33.6544 C 87.1062 32.8809 85.6882 32.9669 85.4304 32.1505 C 85.1296 31.2481 85.8601 30.3457 86.2898 29.5722 C 86.6765 28.7558 88.3524 28.0683 87.7937 27.4237 C 86.1179 25.4471 82.6803 25.4901 81.1334 23.5564 C 80.5318 22.8259 83.1959 22.9119 83.4967 22.0525 C 83.7546 21.1931 83.0241 20.2907 82.4225 19.6891 C 81.7779 19.0446 80.8326 18.9586 80.0591 18.6149 C 79.2427 18.2281 77.8676 18.357 77.6958 17.5406 C 77.4379 16.6382 79.1567 16.0796 79.1997 15.1772 C 79.1997 14.2749 78.5981 13.3295 77.9106 12.8139 C 77.1801 12.2982 76.1488 12.5131 75.3324 12.3842 C 74.473 12.2123 73.3128 12.5561 72.7542 11.9545 C 72.1526 11.3099 73.012 10.0638 72.5393 9.3763 C 72.0237 8.6458 70.9924 8.4309 70.176 8.302 C 69.3166 8.1301 68.3712 8.8177 67.5978 8.5169 C 66.7384 8.1731 66.1712 7.3343 65.6641 6.5832 C 65.2507 5.9653 65.1777 5.0982 64.5899 4.6496 C 63.2561 3.6209 61.4582 2.5208 59.6483 2.2862 C 57.9768 2.0679 56.4204 3.3175 54.7067 3.5753 C 53.599 3.6793 52.3623 3.7094 51.2691 3.3605 C 50.4484 3.0992 50.1089 1.9424 49.3355 1.6416 C 48.519 1.2979 47.5737 1.5987 46.7573 1.6416 C 45.8119 1.6416 44.8236 1.5127 43.9642 1.8565 C 43.1048 2.1143 42.4602 2.8018 41.8157 3.3605 C 41.1282 3.8761 40.7414 4.9933 39.882 5.0793 C 38.9797 5.1222 38.507 3.8761 37.7335 3.5753 C 36.9171 3.2315 35.9717 2.8878 35.1553 3.1456 C 34.2529 3.3605 33.6084 4.1769 33.0068 4.8644 C 32.3193 5.5519 32.0615 6.6692 31.288 7.2278 C 30.5575 7.7004 29.5692 7.7004 28.7098 7.8723 C 27.7644 8.0012 26.7332 7.6575 25.9167 8.0872 C 25.1003 8.4309 24.5847 9.2474 24.1979 10.0208 C 23.7682 10.7943 24.2598 12.3902 23.5534 12.599 C 22.7653 12.819 22.229 10.4883 21.19 10.4505 C 19.6027 10.6637 17.9776 11.7646 17.1078 13.0287 C 16.5999 13.7713 17.9397 14.7381 17.9672 15.6069 C 18.0137 16.9639 16.7099 19.3918 17.7524 19.6891 C 19.4858 20.1429 21.7099 17.2948 23.7682 17.3258 C 24.9963 17.349 25.8669 19.158 26.7761 19.4743 C 27.657 19.7811 28.7201 19.6453 29.5692 19.2594 C 30.3985 18.883 30.597 17.4211 31.5028 17.3258 C 32.3717 17.2347 32.8848 18.4112 33.6514 18.8297 C 34.4678 19.2749 35.3031 19.9882 36.2296 19.904 C 37.0993 19.8249 37.5058 18.3545 38.3781 18.4 C 39.2383 18.4456 39.534 19.7484 40.3117 20.1188 C 41.0972 20.4927 42.0271 20.6611 42.8899 20.5485 C 43.7468 20.4368 44.3896 19.4347 45.2533 19.4743 C 46.1488 19.5147 46.7822 20.4368 47.6167 20.7634 C 48.4408 21.0856 49.332 21.6039 50.1949 21.4079 C 51.0886 21.2051 51.4333 19.5817 52.3434 19.6891 C 53.2105 19.7914 53.1263 21.3443 53.8473 21.8376 C 54.5778 22.3369 55.5438 22.5587 56.4255 22.4822 C 57.2867 22.4074 57.9527 21.1879 58.7889 21.4079 C 59.6749 21.6408 60.084 22.7443 60.5077 23.5564 C 60.958 24.4193 60.6117 25.7359 61.3671 26.3495 C 62.0331 26.8909 63.2552 25.8381 63.9453 26.3495 C 65.3822 27.4143 65.7372 29.5731 67.1681 30.6465 C 67.914 31.206 69.1542 30.4703 69.9611 30.8613 Z "/>
    </g>
    <g id="ID0.7866862644441426">
      <path id="ID0.11782124871388078" fill="#C37B50" stroke="#000000" stroke-width="1.9562476750398694" stroke-linecap="round" d="M 97.9177 102.5056 L 80.4231 102.0156 L 83.4286 134.985 L 84.1249 167.8211 L 84.3832 178.9566 L 84.8194 181.6636 L 87.3644 182.5038 L 89.4254 179.6824 L 90.1796 173.7631 L 90.9562 184.2529 L 94.9995 185.0245 L 97.1391 182.7735 L 95.8871 172.7839 L 97.1272 182.5349 L 99.1847 183.6366 L 101.7879 180.6468 L 101.6425 172.7594 L 101.1635 163.2128 L 100.4156 132.3407 L 97.9177 102.5056 Z "/>
      <path id="ID0.13247013883665204" fill="#E10139" stroke="#000000" stroke-width="1.9562563983398749" stroke-linecap="round" d="M 100.25 95.8124 L 97.5 85.538 L 93.5 79.3256 L 89.75 76.4583 L 84.25 77.4141 L 80 82.1928 L 78 87.9274 L 76.25 97.0071 L 77 102.0248 L 99.75 102.2637 L 100.25 95.8124 Z "/>
    </g>
  </g>
</svg>