<svg xmlns="http://www.w3.org/2000/svg" xmlns:xlink="http://www.w3.org/1999/xlink" version="1.1" width="320.89380288124084" height="215.87704873085022" viewBox="0.19704997539520264 0.42590630054473877 320.89380288124084 215.87704873085022">
  <!-- Exported by Scratch - http://scratch.mit.edu/ -->
  <g id="ID0.7866862644441426">
    <path id="ID0.11782124871388078" fill="#C37B50" stroke="#000000" stroke-width="1.9562477049864906" stroke-linecap="round" d="M 226.105 103.0274 L 243.6051 102.8107 L 240.085 135.7292 L 238.8761 168.5503 L 238.4439 179.6804 L 237.9655 182.3803 L 235.4077 183.1807 L 233.391 180.3274 L 232.7293 174.3971 L 231.789 184.8735 L 227.7342 185.5818 L 225.6299 183.2977 L 227.0378 173.3289 L 225.6456 183.0593 L 223.5711 184.1288 L 221.015 181.0986 L 221.2835 173.2145 L 221.9115 163.6765 L 223.1414 132.8199 L 226.105 103.0274 Z "/>
    <path id="ID0.13247013883665204" fill="#E10139" stroke="#000000" stroke-width="1.9562564194041034" stroke-linecap="round" d="M 223.8848 96.2407 L 226.7949 86.0106 L 230.8914 79.8614 L 234.6857 77.053 L 240.1701 78.0945 L 244.345 82.9391 L 246.2552 88.7042 L 247.8632 97.8101 L 247.0349 102.8155 L 224.284 102.6991 L 223.8848 96.2407 Z "/>
  </g>
  <path id="ID0.3887670743279159" fill="#333640" stroke="#000000" stroke-width="1.4717389622529908" d="M 313.7331 154.8484 L 230.4404 154.8484 L 230.4404 210.9958 L 313.7331 210.9958 L 313.7331 154.8484 Z "/>
  <g id="ID0.5705704805441201">
    <path id="ID0.5024464935995638" fill="#FF1B45" stroke="#000000" stroke-width="2.2288822531700134" stroke-linecap="round" d="M 272.064 65.9071 C 261.0288 65.8143 248.5032 66.8091 239.8084 73.6176 C 233.0259 78.9335 232.1967 89.1068 231.2383 97.3715 C 228.7754 118.5385 229.2316 139.8637 229.641 161.0804 C 229.7435 166.3844 229.6603 169.9699 233.0957 171.1847 C 244.9066 175.534 257.973 175.9916 270.7638 176.0882 C 284.2352 176.19 298.1954 176.1937 310.9952 171.8162 C 314.4425 170.5881 314.071 164.8123 314.2642 161.0804 C 314.8378 150.0118 314.0762 138.8949 313.6698 127.8329 C 313.0613 116.9181 313.2827 105.8227 311.218 95.1055 C 309.7648 87.5637 308.949 78.2106 302.8337 73.6176 C 294.387 67.2749 282.6512 65.8143 272.064 65.9071 Z "/>
    <path id="ID0.9501931658014655" fill="#E10139" stroke="none" stroke-linecap="round" d="M 253.3252 69.2324 L 243.3365 72.5005 L 242.7384 173.8463 L 254.043 174.7904 L 253.3252 69.2324 Z " stroke-width="0.9895533114301723"/>
    <path id="ID0.9501931658014655" fill="#E10139" stroke="none" d="M 276.2145 76.1553 L 265.7473 76.1553 L 266.465 175.0376 L 276.9921 174.4488 L 276.2145 76.1553 Z " stroke-width="0.9641045012294582"/>
    <path id="ID0.9501931658014655" fill="#E10139" stroke="none" stroke-linecap="round" d="M 301.5645 74.3106 L 295.2842 70.171 L 291.0375 69.5174 L 291.3964 174.3128 L 301.7439 172.7514 L 301.5645 74.3106 Z " stroke-width="0.9895533114301723"/>
    <path id="ID0.5343091967515647" fill="#D3EFF9" stroke="#D3EFF9" stroke-width="2.5782090425491333" stroke-linecap="round" d="M 271.675 138.1119 C 270.8766 138.5417 269.0255 138.093 267.1631 137.8971 C 266.3063 137.8069 265.4461 137.7183 264.5849 137.6822 C 263.7273 137.6462 262.8644 137.7183 262.0067 137.6822 C 261.1456 137.6462 260.2836 137.574 259.4285 137.4674 C 258.5648 137.3591 257.7174 137.1099 256.8503 137.0377 C 255.9943 136.9664 255.061 137.3763 254.2721 137.0377 C 253.435 136.6793 252.7303 135.9265 252.3384 135.104 C 251.968 134.3263 252.1236 133.387 252.1236 132.5258 C 252.1236 131.6647 252.1966 130.7976 252.3384 129.9476 C 252.4837 129.0745 252.4399 128.0681 252.983 127.3694 C 253.533 126.6621 254.5755 126.5384 255.3464 126.0803 C 256.8658 125.1779 258.411 124.3005 259.8582 123.2872 C 260.5638 122.7931 261.1826 122.1778 261.7919 121.5684 C 262.4725 120.8878 263.2443 120.2527 263.7255 119.4199 C 264.609 117.8936 266.0708 116.4498 266.0889 114.6932 C 266.1052 113.0621 265.5157 110.9858 264.1552 110.1814 C 262.4553 109.3348 260.2286 109.9639 258.5691 110.6111 C 257.4914 111.0863 257.3187 112.8171 256.4206 113.4041 C 255.6781 113.8819 254.6141 114.4827 253.8424 114.0487 C 253.0535 113.6052 253.1678 112.3565 252.983 111.4705 C 252.8077 110.6274 252.6968 109.7508 252.7681 108.8922 C 252.8421 108.0105 252.8464 106.9938 253.4127 106.314 C 254.0272 105.5767 255.1186 105.4246 255.9909 105.0249 C 256.8366 104.6373 257.6667 104.1758 258.5691 103.9507 C 259.4053 103.7418 260.2888 103.8072 261.1473 103.7358 C 262.0059 103.6645 262.8928 103.3044 263.7255 103.521 C 265.2982 103.9352 266.7016 104.5325 268.0225 105.2398 C 269.236 106.0528 270.7374 106.8176 271.2453 108.0328 C 272.0136 109.8874 271.8899 112.0557 271.675 114.0487 C 271.5006 115.6944 270.7073 117.1958 269.7414 118.5605 C 268.7505 120.3129 267.2663 121.7601 265.874 123.2872 C 265.2948 123.9232 264.7989 124.6485 264.1552 125.2209 C 263.5021 125.801 262.7647 126.2917 262.0067 126.7249 C 261.2565 127.1537 260.3936 127.3703 259.6434 127.7991 C 258.8854 128.2323 257.9323 128.5477 257.4949 129.3031 C 257.0634 130.049 256.7919 131.1714 257.28 131.8813 C 257.7931 132.6272 258.9533 132.7158 259.8582 132.7407 C 261.5882 132.7888 263.295 132.2869 265.0146 132.0961 C 265.8706 132.0007 266.7317 131.9174 267.5928 131.8813 C 268.4505 131.8452 269.3194 131.7747 270.1711 131.8813 C 271.0494 131.9913 272.1451 131.8787 272.7493 132.5258 C 273.3431 133.1618 273.179 134.2335 273.179 135.104 C 273.179 136.0451 272.8661 136.9629 272.7493 137.8971 C 272.72 138.1309 273.2176 138.5417 272.7493 138.5417 Z "/>
  </g>
  <g id="ID0.2370505714789033">
    <path id="ID0.7782022436149418" fill="#C37B50" stroke="#000000" stroke-width="2.6059000492095947" d="M 266.3391 5.2762 C 256.0041 5.2762 246.6391 9.4736 239.8579 16.2548 C 233.0767 23.036 228.8793 32.401 228.8793 42.736 C 228.8793 53.071 233.0767 62.436 239.8579 69.2172 C 246.6391 75.9984 256.0041 80.1958 266.3391 80.1958 C 276.6741 80.1958 286.039 75.9984 292.8202 69.2172 C 299.6014 62.436 303.7989 53.071 303.7989 42.736 C 303.7989 32.401 299.6014 23.036 292.8202 16.2548 C 286.039 9.4736 276.6741 5.2762 266.3391 5.2762 Z "/>
    <path id="ID0.3346423259936273" fill="#000000" stroke="none" d="M 264.7658 35.8905 C 263.6108 35.8905 262.564 36.3594 261.8059 37.1175 C 261.0478 37.8756 260.5789 38.9223 260.5789 40.0774 C 260.5789 41.2324 261.0478 42.2791 261.8059 43.0372 C 262.564 43.7953 263.6108 44.2642 264.7658 44.2642 C 265.9208 44.2642 266.9675 43.7953 267.7256 43.0372 C 268.4837 42.2791 268.9527 41.2324 268.9527 40.0774 C 268.9527 38.9223 268.4837 37.8756 267.7256 37.1175 C 266.9675 36.3594 265.9208 35.8905 264.7658 35.8905 Z " stroke-width="0.5582506060600281"/>
    <path id="ID0.3346423259936273" fill="#000000" stroke="none" d="M 236.9158 35.3905 C 235.7608 35.3905 234.714 35.8594 233.9559 36.6175 C 233.1978 37.3756 232.7289 38.4223 232.7289 39.5774 C 232.7289 40.7324 233.1978 41.7791 233.9559 42.5372 C 234.714 43.2953 235.7608 43.7642 236.9158 43.7642 C 238.0708 43.7642 239.1175 43.2953 239.8756 42.5372 C 240.6337 41.7791 241.1027 40.7324 241.1027 39.5774 C 241.1027 38.4223 240.6337 37.3756 239.8756 36.6175 C 239.1175 35.8594 238.0708 35.3905 236.9158 35.3905 Z " stroke-width="0.5582506060600281"/>
    <path id="ID0.5251190410926938" fill="none" stroke="#000000" stroke-width="1.9625998735427856" stroke-linecap="round" d="M 266.0565 55.2209 L 246.1034 55.2209 "/>
    <path id="ID0.263839818071574" fill="#000000" stroke="#000000" stroke-width="2.5782090425491333" stroke-linecap="round" d="M 289.6799 31.9708 C 289.0637 31.6433 290.4869 32.2904 290.969 33.4747 C 291.5809 35.7306 290.6382 40.3388 290.969 40.5648 C 291.2973 40.7771 291.8637 36.6399 292.6878 34.9787 C 293.072 34.2086 293.6332 33.4317 294.4067 33.045 C 295.1371 32.6153 296.0825 32.6153 296.9849 32.6153 C 297.8443 32.6153 298.8102 32.6136 299.5631 33.045 C 300.4328 33.5495 301.1143 34.555 301.4967 35.6232 C 302.0717 36.9097 302.4318 38.3467 302.3561 39.9202 C 302.3252 40.5931 301.5758 40.8802 301.2819 41.639 C 300.9012 42.6093 300.6485 43.6466 300.4225 44.6469 C 300.1457 45.1566 299.7014 45.6121 299.7779 46.1509 C 299.9189 47.1762 300.6373 48.944 300.6373 49.1588 C 300.6373 49.1588 300.5084 50.0182 300.4225 50.4479 C 300.1647 51.3073 299.735 52.1238 299.5631 53.0261 C 299.3482 53.8426 299.1686 54.7604 299.3482 55.6043 C 299.6421 56.9948 300.6201 59.5902 301.067 59.9013 C 301.4349 60.0423 300.6201 57.3859 301.2819 56.6786 C 302.2401 55.6868 304.4161 56.2291 305.1492 55.1746 C 305.6433 54.4459 304.5476 53.4558 304.5046 52.5964 C 304.4187 51.737 304.3757 50.7917 304.7195 50.0182 C 305.0203 49.2018 306.0516 48.858 306.4383 48.0846 C 306.7821 47.2681 306.9539 46.3658 306.868 45.5063 C 306.7391 44.6469 306.2234 43.8735 305.7937 43.143 C 305.2781 42.3266 304.0749 41.8969 304.0749 40.9945 C 304.0749 40.0921 305.45 39.8343 305.7937 39.0608 C 306.0945 38.2444 306.0086 37.342 306.0086 36.4826 C 305.9656 35.5802 306.0086 34.6349 305.5789 33.9044 C 305.1062 33.1309 303.6882 33.2169 303.4304 32.4005 C 303.1296 31.4981 303.8601 30.5957 304.2898 29.8222 C 304.6765 29.0058 306.3524 28.3183 305.7937 27.6737 C 304.1179 25.6971 300.6803 25.7401 299.1334 23.8064 C 298.5318 23.0759 301.1959 23.1619 301.4967 22.3025 C 301.7546 21.4431 301.0241 20.5407 300.4225 19.9391 C 299.7779 19.2946 298.8326 19.2086 298.0591 18.8649 C 297.2427 18.4781 295.8676 18.607 295.6958 17.7906 C 295.4379 16.8882 297.1567 16.3296 297.1997 15.4272 C 297.1997 14.5249 296.5981 13.5795 295.9106 13.0639 C 295.1801 12.5482 294.1488 12.7631 293.3324 12.6342 C 292.473 12.4623 291.3128 12.8061 290.7542 12.2045 C 290.1526 11.5599 291.012 10.3138 290.5393 9.6263 C 290.0237 8.8958 288.9924 8.6809 288.176 8.552 C 287.3166 8.3801 286.3712 9.0677 285.5978 8.7669 C 284.7384 8.4231 284.1712 7.5843 283.6641 6.8332 C 283.2507 6.2153 283.1777 5.3482 282.5899 4.8996 C 281.2561 3.8709 279.4582 2.7708 277.6483 2.5362 C 275.9768 2.3179 274.4204 3.5675 272.7067 3.8253 C 271.599 3.9293 270.3623 3.9594 269.2691 3.6105 C 268.4484 3.3492 268.1089 2.1924 267.3355 1.8916 C 266.519 1.5479 265.5737 1.8487 264.7573 1.8916 C 263.8119 1.8916 262.8236 1.7627 261.9642 2.1065 C 261.1048 2.3643 260.4602 3.0518 259.8157 3.6105 C 259.1282 4.1261 258.7414 5.2433 257.882 5.3293 C 256.9797 5.3722 256.507 4.1261 255.7335 3.8253 C 254.9171 3.4815 253.9717 3.1378 253.1553 3.3956 C 252.2529 3.6105 251.6084 4.4269 251.0068 5.1144 C 250.3193 5.8019 250.0615 6.9192 249.288 7.4778 C 248.5575 7.9504 247.5692 7.9504 246.7098 8.1223 C 245.7644 8.2512 244.7332 7.9075 243.9167 8.3372 C 243.1003 8.6809 242.5847 9.4974 242.1979 10.2708 C 241.7682 11.0443 242.2598 12.6402 241.5534 12.849 C 240.7653 13.069 240.229 10.7383 239.19 10.7005 C 237.6027 10.9137 235.9776 12.0146 235.1078 13.2787 C 234.5999 14.0213 235.9397 14.9881 235.9672 15.8569 C 236.0137 17.2139 234.7099 19.6418 235.7524 19.9391 C 237.4858 20.3929 239.7099 17.5448 241.7682 17.5758 C 242.9963 17.599 243.8669 19.408 244.7761 19.7243 C 245.657 20.0311 246.7201 19.8953 247.5692 19.5094 C 248.3985 19.133 248.597 17.6711 249.5028 17.5758 C 250.3717 17.4847 250.8848 18.6612 251.6514 19.0797 C 252.4678 19.5249 253.3031 20.2382 254.2296 20.154 C 255.0993 20.0749 255.5058 18.6045 256.3781 18.65 C 257.2383 18.6956 257.534 19.9984 258.3117 20.3688 C 259.0972 20.7427 260.0271 20.9111 260.8899 20.7985 C 261.7468 20.6868 262.3896 19.6847 263.2533 19.7243 C 264.1488 19.7647 264.7822 20.6868 265.6167 21.0134 C 266.4408 21.3356 267.332 21.8539 268.1949 21.6579 C 269.0886 21.4551 269.4333 19.8317 270.3434 19.9391 C 271.2105 20.0414 271.1263 21.5943 271.8473 22.0876 C 272.5778 22.5869 273.5438 22.8087 274.4255 22.7322 C 275.2867 22.6574 275.9527 21.4379 276.7889 21.6579 C 277.6749 21.8908 278.084 22.9943 278.5077 23.8064 C 278.958 24.6693 278.6117 25.9859 279.3671 26.5995 C 280.0331 27.1409 281.2552 26.0881 281.9453 26.5995 C 283.3822 27.6643 283.7372 29.8231 285.1681 30.8965 C 285.914 31.456 287.1542 30.7203 287.9611 31.1113 Z "/>
  </g>
  <g id="ID0.7866862644441426">
    <path id="ID0.11782124871388078" fill="#C37B50" stroke="#000000" stroke-width="1.9562476750398694" stroke-linecap="round" d="M 315.9177 102.7556 L 298.4231 102.2656 L 301.4286 135.235 L 302.1249 168.0711 L 302.3832 179.2066 L 302.8194 181.9136 L 305.3644 182.7538 L 307.4254 179.9324 L 308.1796 174.0131 L 308.9562 184.5029 L 312.9995 185.2745 L 315.1391 183.0235 L 313.8871 173.0339 L 315.1272 182.7849 L 317.1847 183.8866 L 319.7879 180.8968 L 319.6425 173.0094 L 319.1635 163.4628 L 318.4156 132.5907 L 315.9177 102.7556 Z "/>
    <path id="ID0.13247013883665204" fill="#E10139" stroke="#000000" stroke-width="1.9562563983398749" stroke-linecap="round" d="M 318.25 96.0624 L 315.5 85.788 L 311.5 79.5756 L 307.75 76.7083 L 302.25 77.6641 L 298 82.4428 L 296 88.1774 L 294.25 97.2571 L 295 102.2748 L 317.75 102.5137 L 318.25 96.0624 Z "/>
  </g>
  <path id="ID0.10765106324106455" fill="none" stroke="#000000" stroke-width="2" stroke-linecap="round" d="M 264 209 L 1.5 215 "/>
</svg>