<svg xmlns="http://www.w3.org/2000/svg" xmlns:xlink="http://www.w3.org/1999/xlink" version="1.1" width="101.37880349159241" height="211.8728678226471" viewBox="1.4620498418807983 0.17590641975402832 101.37880349159241 211.8728678226471">
  <!-- Exported by Scratch - http://scratch.mit.edu/ -->
  <g id="ID0.7866862644441426">
    <path id="ID0.11782124871388078" fill="#C37B50" stroke="#000000" stroke-width="1.9562477049864906" stroke-linecap="round" d="M 7.855 102.7774 L 25.3551 102.5607 L 21.835 135.4792 L 20.6261 168.3003 L 20.1939 179.4304 L 19.7155 182.1303 L 17.1577 182.9307 L 15.141 180.0774 L 14.4793 174.1471 L 13.539 184.6235 L 9.4842 185.3318 L 7.3799 183.0477 L 8.7878 173.0789 L 7.3956 182.8093 L 5.3211 183.8788 L 2.765 180.8486 L 3.0335 172.9645 L 3.6615 163.4265 L 4.8914 132.5699 L 7.855 102.7774 Z "/>
    <path id="ID0.13247013883665204" fill="#E10139" stroke="#000000" stroke-width="1.9562564194041034" stroke-linecap="round" d="M 5.6348 95.9907 L 8.5449 85.7606 L 12.6414 79.6114 L 16.4357 76.803 L 21.9201 77.8445 L 26.095 82.6891 L 28.0052 88.4542 L 29.6132 97.5601 L 28.7849 102.5655 L 6.034 102.4491 L 5.6348 95.9907 Z "/>
  </g>
  <path id="ID0.3887670743279159" fill="#333640" stroke="#000000" stroke-width="1.4717389622529908" d="M 95.4831 154.5984 L 12.1904 154.5984 L 12.1904 210.7458 L 95.4831 210.7458 L 95.4831 154.5984 Z "/>
  <g id="ID0.5705704805441201">
    <path id="ID0.5024464935995638" fill="#FF1B45" stroke="#000000" stroke-width="2.2288822531700134" stroke-linecap="round" d="M 53.814 65.6571 C 42.7788 65.5643 30.2532 66.5591 21.5584 73.3676 C 14.7759 78.6835 13.9467 88.8568 12.9883 97.1215 C 10.5254 118.2885 10.9816 139.6137 11.391 160.8304 C 11.4935 166.1344 11.4103 169.7199 14.8457 170.9347 C 26.6566 175.284 39.723 175.7416 52.5138 175.8382 C 65.9852 175.94 79.9454 175.9437 92.7452 171.5662 C 96.1925 170.3381 95.821 164.5623 96.0142 160.8304 C 96.5878 149.7618 95.8262 138.6449 95.4198 127.5829 C 94.8113 116.6681 95.0327 105.5727 92.968 94.8555 C 91.5148 87.3137 90.699 77.9606 84.5837 73.3676 C 76.137 67.0249 64.4012 65.5643 53.814 65.6571 Z "/>
    <path id="ID0.9501931658014655" fill="#E10139" stroke="none" stroke-linecap="round" d="M 35.0752 68.9824 L 25.0865 72.2505 L 24.4884 173.5963 L 35.793 174.5404 L 35.0752 68.9824 Z " stroke-width="0.9895533114301723"/>
    <path id="ID0.9501931658014655" fill="#E10139" stroke="none" d="M 57.9645 75.9053 L 47.4973 75.9053 L 48.215 174.7876 L 58.7421 174.1988 L 57.9645 75.9053 Z " stroke-width="0.9641045012294582"/>
    <path id="ID0.9501931658014655" fill="#E10139" stroke="none" stroke-linecap="round" d="M 83.3145 74.0606 L 77.0342 69.921 L 72.7875 69.2674 L 73.1464 174.0628 L 83.4939 172.5014 L 83.3145 74.0606 Z " stroke-width="0.9895533114301723"/>
    <path id="ID0.5343091967515647" fill="#D3EFF9" stroke="#D3EFF9" stroke-width="2.5782090425491333" stroke-linecap="round" d="M 53.425 137.8619 C 52.6266 138.2917 50.7755 137.843 48.9131 137.6471 C 48.0563 137.5569 47.1961 137.4683 46.3349 137.4322 C 45.4773 137.3962 44.6144 137.4683 43.7567 137.4322 C 42.8956 137.3962 42.0336 137.324 41.1785 137.2174 C 40.3148 137.1091 39.4674 136.8599 38.6003 136.7877 C 37.7443 136.7164 36.811 137.1263 36.0221 136.7877 C 35.185 136.4293 34.4803 135.6765 34.0884 134.854 C 33.718 134.0763 33.8736 133.137 33.8736 132.2758 C 33.8736 131.4147 33.9466 130.5476 34.0884 129.6976 C 34.2337 128.8245 34.1899 127.8181 34.733 127.1194 C 35.283 126.4121 36.3255 126.2884 37.0964 125.8303 C 38.6158 124.9279 40.161 124.0505 41.6082 123.0372 C 42.3138 122.5431 42.9326 121.9278 43.5419 121.3184 C 44.2225 120.6378 44.9943 120.0027 45.4755 119.1699 C 46.359 117.6436 47.8208 116.1998 47.8389 114.4432 C 47.8552 112.8121 47.2657 110.7358 45.9052 109.9314 C 44.2053 109.0848 41.9786 109.7139 40.3191 110.3611 C 39.2414 110.8363 39.0687 112.5671 38.1706 113.1541 C 37.4281 113.6319 36.3641 114.2327 35.5924 113.7987 C 34.8035 113.3552 34.9178 112.1065 34.733 111.2205 C 34.5577 110.3774 34.4468 109.5008 34.5181 108.6422 C 34.5921 107.7605 34.5964 106.7438 35.1627 106.064 C 35.7772 105.3267 36.8686 105.1746 37.7409 104.7749 C 38.5866 104.3873 39.4167 103.9258 40.3191 103.7007 C 41.1553 103.4918 42.0388 103.5572 42.8973 103.4858 C 43.7559 103.4145 44.6428 103.0544 45.4755 103.271 C 47.0482 103.6852 48.4516 104.2825 49.7725 104.9898 C 50.986 105.8028 52.4874 106.5676 52.9953 107.7828 C 53.7636 109.6374 53.6399 111.8057 53.425 113.7987 C 53.2506 115.4444 52.4573 116.9458 51.4914 118.3105 C 50.5005 120.0629 49.0163 121.5101 47.624 123.0372 C 47.0448 123.6732 46.5489 124.3985 45.9052 124.9709 C 45.2521 125.551 44.5147 126.0417 43.7567 126.4749 C 43.0065 126.9037 42.1436 127.1203 41.3934 127.5491 C 40.6354 127.9823 39.6823 128.2977 39.2449 129.0531 C 38.8134 129.799 38.5419 130.9214 39.03 131.6313 C 39.5431 132.3772 40.7033 132.4658 41.6082 132.4907 C 43.3382 132.5388 45.045 132.0369 46.7646 131.8461 C 47.6206 131.7507 48.4817 131.6674 49.3428 131.6313 C 50.2005 131.5952 51.0694 131.5247 51.9211 131.6313 C 52.7994 131.7413 53.8951 131.6287 54.4993 132.2758 C 55.0931 132.9118 54.929 133.9835 54.929 134.854 C 54.929 135.7951 54.6161 136.7129 54.4993 137.6471 C 54.47 137.8809 54.9676 138.2917 54.4993 138.2917 Z "/>
  </g>
  <g id="ID0.2370505714789033">
    <path id="ID0.7782022436149418" fill="#C37B50" stroke="#000000" stroke-width="2.6059000492095947" d="M 48.0891 5.0262 C 37.7541 5.0262 28.3891 9.2236 21.6079 16.0048 C 14.8267 22.786 10.6293 32.151 10.6293 42.486 C 10.6293 52.821 14.8267 62.186 21.6079 68.9672 C 28.3891 75.7484 37.7541 79.9458 48.0891 79.9458 C 58.4241 79.9458 67.789 75.7484 74.5702 68.9672 C 81.3514 62.186 85.5489 52.821 85.5489 42.486 C 85.5489 32.151 81.3514 22.786 74.5702 16.0048 C 67.789 9.2236 58.4241 5.0262 48.0891 5.0262 Z "/>
    <path id="ID0.3346423259936273" fill="#000000" stroke="none" d="M 46.5158 35.6405 C 45.3608 35.6405 44.314 36.1094 43.5559 36.8675 C 42.7978 37.6256 42.3289 38.6723 42.3289 39.8274 C 42.3289 40.9824 42.7978 42.0291 43.5559 42.7872 C 44.314 43.5453 45.3608 44.0142 46.5158 44.0142 C 47.6708 44.0142 48.7175 43.5453 49.4756 42.7872 C 50.2337 42.0291 50.7027 40.9824 50.7027 39.8274 C 50.7027 38.6723 50.2337 37.6256 49.4756 36.8675 C 48.7175 36.1094 47.6708 35.6405 46.5158 35.6405 Z " stroke-width="0.5582506060600281"/>
    <path id="ID0.3346423259936273" fill="#000000" stroke="none" d="M 18.6658 35.1405 C 17.5108 35.1405 16.464 35.6094 15.7059 36.3675 C 14.9478 37.1256 14.4789 38.1723 14.4789 39.3274 C 14.4789 40.4824 14.9478 41.5291 15.7059 42.2872 C 16.464 43.0453 17.5108 43.5142 18.6658 43.5142 C 19.8208 43.5142 20.8675 43.0453 21.6256 42.2872 C 22.3837 41.5291 22.8527 40.4824 22.8527 39.3274 C 22.8527 38.1723 22.3837 37.1256 21.6256 36.3675 C 20.8675 35.6094 19.8208 35.1405 18.6658 35.1405 Z " stroke-width="0.5582506060600281"/>
    <path id="ID0.5251190410926938" fill="none" stroke="#000000" stroke-width="1.9625998735427856" stroke-linecap="round" d="M 47.8065 54.9709 L 27.8534 54.9709 "/>
    <path id="ID0.263839818071574" fill="#000000" stroke="#000000" stroke-width="2.5782090425491333" stroke-linecap="round" d="M 71.4299 31.7208 C 70.8137 31.3933 72.2369 32.0404 72.719 33.2247 C 73.3309 35.4806 72.3882 40.0888 72.719 40.3148 C 73.0473 40.5271 73.6137 36.3899 74.4378 34.7287 C 74.822 33.9586 75.3832 33.1817 76.1567 32.795 C 76.8871 32.3653 77.8325 32.3653 78.7349 32.3653 C 79.5943 32.3653 80.5602 32.3636 81.3131 32.795 C 82.1828 33.2995 82.8643 34.305 83.2467 35.3732 C 83.8217 36.6597 84.1818 38.0967 84.1061 39.6702 C 84.0752 40.3431 83.3258 40.6302 83.0319 41.389 C 82.6512 42.3593 82.3985 43.3966 82.1725 44.3969 C 81.8957 44.9066 81.4514 45.3621 81.5279 45.9009 C 81.6689 46.9262 82.3873 48.694 82.3873 48.9088 C 82.3873 48.9088 82.2584 49.7682 82.1725 50.1979 C 81.9147 51.0573 81.485 51.8738 81.3131 52.7761 C 81.0982 53.5926 80.9186 54.5104 81.0982 55.3543 C 81.3921 56.7448 82.3701 59.3402 82.817 59.6513 C 83.1849 59.7923 82.3701 57.1359 83.0319 56.4286 C 83.9901 55.4368 86.1661 55.9791 86.8992 54.9246 C 87.3933 54.1959 86.2976 53.2058 86.2546 52.3464 C 86.1687 51.487 86.1257 50.5417 86.4695 49.7682 C 86.7703 48.9518 87.8016 48.608 88.1883 47.8346 C 88.5321 47.0181 88.7039 46.1158 88.618 45.2563 C 88.4891 44.3969 87.9734 43.6235 87.5437 42.893 C 87.0281 42.0766 85.8249 41.6469 85.8249 40.7445 C 85.8249 39.8421 87.2 39.5843 87.5437 38.8108 C 87.8445 37.9944 87.7586 37.092 87.7586 36.2326 C 87.7156 35.3302 87.7586 34.3849 87.3289 33.6544 C 86.8562 32.8809 85.4382 32.9669 85.1804 32.1505 C 84.8796 31.2481 85.6101 30.3457 86.0398 29.5722 C 86.4265 28.7558 88.1024 28.0683 87.5437 27.4237 C 85.8679 25.4471 82.4303 25.4901 80.8834 23.5564 C 80.2818 22.8259 82.9459 22.9119 83.2467 22.0525 C 83.5046 21.1931 82.7741 20.2907 82.1725 19.6891 C 81.5279 19.0446 80.5826 18.9586 79.8091 18.6149 C 78.9927 18.2281 77.6176 18.357 77.4458 17.5406 C 77.1879 16.6382 78.9067 16.0796 78.9497 15.1772 C 78.9497 14.2749 78.3481 13.3295 77.6606 12.8139 C 76.9301 12.2982 75.8988 12.5131 75.0824 12.3842 C 74.223 12.2123 73.0628 12.5561 72.5042 11.9545 C 71.9026 11.3099 72.762 10.0638 72.2893 9.3763 C 71.7737 8.6458 70.7424 8.4309 69.926 8.302 C 69.0666 8.1301 68.1212 8.8177 67.3478 8.5169 C 66.4884 8.1731 65.9212 7.3343 65.4141 6.5832 C 65.0007 5.9653 64.9277 5.0982 64.3399 4.6496 C 63.0061 3.6209 61.2082 2.5208 59.3983 2.2862 C 57.7268 2.0679 56.1704 3.3175 54.4567 3.5753 C 53.349 3.6793 52.1123 3.7094 51.0191 3.3605 C 50.1984 3.0992 49.8589 1.9424 49.0855 1.6416 C 48.269 1.2979 47.3237 1.5987 46.5073 1.6416 C 45.5619 1.6416 44.5736 1.5127 43.7142 1.8565 C 42.8548 2.1143 42.2102 2.8018 41.5657 3.3605 C 40.8782 3.8761 40.4914 4.9933 39.632 5.0793 C 38.7297 5.1222 38.257 3.8761 37.4835 3.5753 C 36.6671 3.2315 35.7217 2.8878 34.9053 3.1456 C 34.0029 3.3605 33.3584 4.1769 32.7568 4.8644 C 32.0693 5.5519 31.8115 6.6692 31.038 7.2278 C 30.3075 7.7004 29.3192 7.7004 28.4598 7.8723 C 27.5144 8.0012 26.4832 7.6575 25.6667 8.0872 C 24.8503 8.4309 24.3347 9.2474 23.9479 10.0208 C 23.5182 10.7943 24.0098 12.3902 23.3034 12.599 C 22.5153 12.819 21.979 10.4883 20.94 10.4505 C 19.3527 10.6637 17.7276 11.7646 16.8578 13.0287 C 16.3499 13.7713 17.6897 14.7381 17.7172 15.6069 C 17.7637 16.9639 16.4599 19.3918 17.5024 19.6891 C 19.2358 20.1429 21.4599 17.2948 23.5182 17.3258 C 24.7463 17.349 25.6169 19.158 26.5261 19.4743 C 27.407 19.7811 28.4701 19.6453 29.3192 19.2594 C 30.1485 18.883 30.347 17.4211 31.2528 17.3258 C 32.1217 17.2347 32.6348 18.4112 33.4014 18.8297 C 34.2178 19.2749 35.0531 19.9882 35.9796 19.904 C 36.8493 19.8249 37.2558 18.3545 38.1281 18.4 C 38.9883 18.4456 39.284 19.7484 40.0617 20.1188 C 40.8472 20.4927 41.7771 20.6611 42.6399 20.5485 C 43.4968 20.4368 44.1396 19.4347 45.0033 19.4743 C 45.8988 19.5147 46.5322 20.4368 47.3667 20.7634 C 48.1908 21.0856 49.082 21.6039 49.9449 21.4079 C 50.8386 21.2051 51.1833 19.5817 52.0934 19.6891 C 52.9605 19.7914 52.8763 21.3443 53.5973 21.8376 C 54.3278 22.3369 55.2938 22.5587 56.1755 22.4822 C 57.0367 22.4074 57.7027 21.1879 58.5389 21.4079 C 59.4249 21.6408 59.834 22.7443 60.2577 23.5564 C 60.708 24.4193 60.3617 25.7359 61.1171 26.3495 C 61.7831 26.8909 63.0052 25.8381 63.6953 26.3495 C 65.1322 27.4143 65.4872 29.5731 66.9181 30.6465 C 67.664 31.206 68.9042 30.4703 69.7111 30.8613 Z "/>
  </g>
  <g id="ID0.7866862644441426">
    <path id="ID0.11782124871388078" fill="#C37B50" stroke="#000000" stroke-width="1.9562476750398694" stroke-linecap="round" d="M 97.6677 102.5056 L 80.1731 102.0156 L 83.1786 134.985 L 83.8749 167.8211 L 84.1332 178.9566 L 84.5694 181.6636 L 87.1144 182.5038 L 89.1754 179.6824 L 89.9296 173.7631 L 90.7062 184.2529 L 94.7495 185.0245 L 96.8891 182.7735 L 95.6371 172.7839 L 96.8772 182.5349 L 98.9347 183.6366 L 101.5379 180.6468 L 101.3925 172.7594 L 100.9135 163.2128 L 100.1656 132.3407 L 97.6677 102.5056 Z "/>
    <path id="ID0.13247013883665204" fill="#E10139" stroke="#000000" stroke-width="1.9562563983398749" stroke-linecap="round" d="M 100 95.8124 L 97.25 85.538 L 93.25 79.3256 L 89.5 76.4583 L 84 77.4141 L 79.75 82.1928 L 77.75 87.9274 L 76 97.0071 L 76.75 102.0248 L 99.5 102.2637 L 100 95.8124 Z "/>
  </g>
</svg>