<svg xmlns="http://www.w3.org/2000/svg" xmlns:xlink="http://www.w3.org/1999/xlink" version="1.1" width="101.37880349159241" height="211.8728678226471" viewBox="1.2120498418807983 0.17590641975402832 101.37880349159241 211.8728678226471">
  <!-- Exported by Scratch - http://scratch.mit.edu/ -->
  <g id="ID0.7149084191769361">
    <g id="ID0.7866862644441426">
      <path id="ID0.11782124871388078" fill="#C37B50" stroke="#000000" stroke-width="1.9562477049864906" stroke-linecap="round" d="M 7.605 102.7774 L 25.1051 102.5607 L 21.585 135.4792 L 20.3761 168.3003 L 19.9439 179.4304 L 19.4655 182.1303 L 16.9077 182.9307 L 14.891 180.0774 L 14.2293 174.1471 L 13.289 184.6235 L 9.2342 185.3318 L 7.1299 183.0477 L 8.5378 173.0789 L 7.1456 182.8093 L 5.0711 183.8788 L 2.515 180.8486 L 2.7835 172.9645 L 3.4115 163.4265 L 4.6414 132.5699 L 7.605 102.7774 Z "/>
      <path id="ID0.13247013883665204" fill="#E10139" stroke="#000000" stroke-width="1.9562564194041034" stroke-linecap="round" d="M 5.3848 95.9907 L 8.2949 85.7606 L 12.3914 79.6114 L 16.1857 76.803 L 21.6701 77.8445 L 25.845 82.6891 L 27.7552 88.4542 L 29.3632 97.5601 L 28.5349 102.5655 L 5.784 102.4491 L 5.3848 95.9907 Z "/>
    </g>
    <path id="ID0.3887670743279159" fill="#333640" stroke="#000000" stroke-width="1.4717389622529908" d="M 95.2331 154.5984 L 11.9404 154.5984 L 11.9404 210.7458 L 95.2331 210.7458 L 95.2331 154.5984 Z "/>
    <g id="ID0.5705704805441201">
      <path id="ID0.5024464935995638" fill="#FF1B45" stroke="#000000" stroke-width="2.2288822531700134" stroke-linecap="round" d="M 53.564 65.6571 C 42.5288 65.5643 30.0032 66.5591 21.3084 73.3676 C 14.5259 78.6835 13.6967 88.8568 12.7383 97.1215 C 10.2754 118.2885 10.7316 139.6137 11.141 160.8304 C 11.2435 166.1344 11.1603 169.7199 14.5957 170.9347 C 26.4066 175.284 39.473 175.7416 52.2638 175.8382 C 65.7352 175.94 79.6954 175.9437 92.4952 171.5662 C 95.9425 170.3381 95.571 164.5623 95.7642 160.8304 C 96.3378 149.7618 95.5762 138.6449 95.1698 127.5829 C 94.5613 116.6681 94.7827 105.5727 92.718 94.8555 C 91.2648 87.3137 90.449 77.9606 84.3337 73.3676 C 75.887 67.0249 64.1512 65.5643 53.564 65.6571 Z "/>
      <path id="ID0.9501931658014655" fill="#E10139" stroke="none" stroke-linecap="round" d="M 34.8252 68.9824 L 24.8365 72.2505 L 24.2384 173.5963 L 35.543 174.5404 L 34.8252 68.9824 Z " stroke-width="0.9895533114301723"/>
      <path id="ID0.9501931658014655" fill="#E10139" stroke="none" d="M 57.7145 75.9053 L 47.2473 75.9053 L 47.965 174.7876 L 58.4921 174.1988 L 57.7145 75.9053 Z " stroke-width="0.9641045012294582"/>
      <path id="ID0.9501931658014655" fill="#E10139" stroke="none" stroke-linecap="round" d="M 83.0645 74.0606 L 76.7842 69.921 L 72.5375 69.2674 L 72.8964 174.0628 L 83.2439 172.5014 L 83.0645 74.0606 Z " stroke-width="0.9895533114301723"/>
      <path id="ID0.5343091967515647" fill="#D3EFF9" stroke="#D3EFF9" stroke-width="2.5782090425491333" stroke-linecap="round" d="M 53.175 137.8619 C 52.3766 138.2917 50.5255 137.843 48.6631 137.6471 C 47.8063 137.5569 46.9461 137.4683 46.0849 137.4322 C 45.2273 137.3962 44.3644 137.4683 43.5067 137.4322 C 42.6456 137.3962 41.7836 137.324 40.9285 137.2174 C 40.0648 137.1091 39.2174 136.8599 38.3503 136.7877 C 37.4943 136.7164 36.561 137.1263 35.7721 136.7877 C 34.935 136.4293 34.2303 135.6765 33.8384 134.854 C 33.468 134.0763 33.6236 133.137 33.6236 132.2758 C 33.6236 131.4147 33.6966 130.5476 33.8384 129.6976 C 33.9837 128.8245 33.9399 127.8181 34.483 127.1194 C 35.033 126.4121 36.0755 126.2884 36.8464 125.8303 C 38.3658 124.9279 39.911 124.0505 41.3582 123.0372 C 42.0638 122.5431 42.6826 121.9278 43.2919 121.3184 C 43.9725 120.6378 44.7443 120.0027 45.2255 119.1699 C 46.109 117.6436 47.5708 116.1998 47.5889 114.4432 C 47.6052 112.8121 47.0157 110.7358 45.6552 109.9314 C 43.9553 109.0848 41.7286 109.7139 40.0691 110.3611 C 38.9914 110.8363 38.8187 112.5671 37.9206 113.1541 C 37.1781 113.6319 36.1141 114.2327 35.3424 113.7987 C 34.5535 113.3552 34.6678 112.1065 34.483 111.2205 C 34.3077 110.3774 34.1968 109.5008 34.2681 108.6422 C 34.3421 107.7605 34.3464 106.7438 34.9127 106.064 C 35.5272 105.3267 36.6186 105.1746 37.4909 104.7749 C 38.3366 104.3873 39.1667 103.9258 40.0691 103.7007 C 40.9053 103.4918 41.7888 103.5572 42.6473 103.4858 C 43.5059 103.4145 44.3928 103.0544 45.2255 103.271 C 46.7982 103.6852 48.2016 104.2825 49.5225 104.9898 C 50.736 105.8028 52.2374 106.5676 52.7453 107.7828 C 53.5136 109.6374 53.3899 111.8057 53.175 113.7987 C 53.0006 115.4444 52.2073 116.9458 51.2414 118.3105 C 50.2505 120.0629 48.7663 121.5101 47.374 123.0372 C 46.7948 123.6732 46.2989 124.3985 45.6552 124.9709 C 45.0021 125.551 44.2647 126.0417 43.5067 126.4749 C 42.7565 126.9037 41.8936 127.1203 41.1434 127.5491 C 40.3854 127.9823 39.4323 128.2977 38.9949 129.0531 C 38.5634 129.799 38.2919 130.9214 38.78 131.6313 C 39.2931 132.3772 40.4533 132.4658 41.3582 132.4907 C 43.0882 132.5388 44.795 132.0369 46.5146 131.8461 C 47.3706 131.7507 48.2317 131.6674 49.0928 131.6313 C 49.9505 131.5952 50.8194 131.5247 51.6711 131.6313 C 52.5494 131.7413 53.6451 131.6287 54.2493 132.2758 C 54.8431 132.9118 54.679 133.9835 54.679 134.854 C 54.679 135.7951 54.3661 136.7129 54.2493 137.6471 C 54.22 137.8809 54.7176 138.2917 54.2493 138.2917 Z "/>
    </g>
    <g id="ID0.2370505714789033">
      <path id="ID0.7782022436149418" fill="#C37B50" stroke="#000000" stroke-width="2.6059000492095947" d="M 47.8391 5.0262 C 37.5041 5.0262 28.1391 9.2236 21.3579 16.0048 C 14.5767 22.786 10.3793 32.151 10.3793 42.486 C 10.3793 52.821 14.5767 62.186 21.3579 68.9672 C 28.1391 75.7484 37.5041 79.9458 47.8391 79.9458 C 58.1741 79.9458 67.539 75.7484 74.3202 68.9672 C 81.1014 62.186 85.2989 52.821 85.2989 42.486 C 85.2989 32.151 81.1014 22.786 74.3202 16.0048 C 67.539 9.2236 58.1741 5.0262 47.8391 5.0262 Z "/>
      <path id="ID0.3346423259936273" fill="#000000" stroke="none" d="M 46.2658 35.6405 C 45.1108 35.6405 44.064 36.1094 43.3059 36.8675 C 42.5478 37.6256 42.0789 38.6723 42.0789 39.8274 C 42.0789 40.9824 42.5478 42.0291 43.3059 42.7872 C 44.064 43.5453 45.1108 44.0142 46.2658 44.0142 C 47.4208 44.0142 48.4675 43.5453 49.2256 42.7872 C 49.9837 42.0291 50.4527 40.9824 50.4527 39.8274 C 50.4527 38.6723 49.9837 37.6256 49.2256 36.8675 C 48.4675 36.1094 47.4208 35.6405 46.2658 35.6405 Z " stroke-width="0.5582506060600281"/>
      <path id="ID0.3346423259936273" fill="#000000" stroke="none" d="M 18.4158 35.1405 C 17.2608 35.1405 16.214 35.6094 15.4559 36.3675 C 14.6978 37.1256 14.2289 38.1723 14.2289 39.3274 C 14.2289 40.4824 14.6978 41.5291 15.4559 42.2872 C 16.214 43.0453 17.2608 43.5142 18.4158 43.5142 C 19.5708 43.5142 20.6175 43.0453 21.3756 42.2872 C 22.1337 41.5291 22.6027 40.4824 22.6027 39.3274 C 22.6027 38.1723 22.1337 37.1256 21.3756 36.3675 C 20.6175 35.6094 19.5708 35.1405 18.4158 35.1405 Z " stroke-width="0.5582506060600281"/>
      <path id="ID0.5251190410926938" fill="none" stroke="#000000" stroke-width="1.9625998735427856" stroke-linecap="round" d="M 47.5565 54.9709 L 27.6034 54.9709 "/>
      <path id="ID0.263839818071574" fill="#000000" stroke="#000000" stroke-width="2.5782090425491333" stroke-linecap="round" d="M 71.1799 31.7208 C 70.5637 31.3933 71.9869 32.0404 72.469 33.2247 C 73.0809 35.4806 72.1382 40.0888 72.469 40.3148 C 72.7973 40.5271 73.3637 36.3899 74.1878 34.7287 C 74.572 33.9586 75.1332 33.1817 75.9067 32.795 C 76.6371 32.3653 77.5825 32.3653 78.4849 32.3653 C 79.3443 32.3653 80.3102 32.3636 81.0631 32.795 C 81.9328 33.2995 82.6143 34.305 82.9967 35.3732 C 83.5717 36.6597 83.9318 38.0967 83.8561 39.6702 C 83.8252 40.3431 83.0758 40.6302 82.7819 41.389 C 82.4012 42.3593 82.1485 43.3966 81.9225 44.3969 C 81.6457 44.9066 81.2014 45.3621 81.2779 45.9009 C 81.4189 46.9262 82.1373 48.694 82.1373 48.9088 C 82.1373 48.9088 82.0084 49.7682 81.9225 50.1979 C 81.6647 51.0573 81.235 51.8738 81.0631 52.7761 C 80.8482 53.5926 80.6686 54.5104 80.8482 55.3543 C 81.1421 56.7448 82.1201 59.3402 82.567 59.6513 C 82.9349 59.7923 82.1201 57.1359 82.7819 56.4286 C 83.7401 55.4368 85.9161 55.9791 86.6492 54.9246 C 87.1433 54.1959 86.0476 53.2058 86.0046 52.3464 C 85.9187 51.487 85.8757 50.5417 86.2195 49.7682 C 86.5203 48.9518 87.5516 48.608 87.9383 47.8346 C 88.2821 47.0181 88.4539 46.1158 88.368 45.2563 C 88.2391 44.3969 87.7234 43.6235 87.2937 42.893 C 86.7781 42.0766 85.5749 41.6469 85.5749 40.7445 C 85.5749 39.8421 86.95 39.5843 87.2937 38.8108 C 87.5945 37.9944 87.5086 37.092 87.5086 36.2326 C 87.4656 35.3302 87.5086 34.3849 87.0789 33.6544 C 86.6062 32.8809 85.1882 32.9669 84.9304 32.1505 C 84.6296 31.2481 85.3601 30.3457 85.7898 29.5722 C 86.1765 28.7558 87.8524 28.0683 87.2937 27.4237 C 85.6179 25.4471 82.1803 25.4901 80.6334 23.5564 C 80.0318 22.8259 82.6959 22.9119 82.9967 22.0525 C 83.2546 21.1931 82.5241 20.2907 81.9225 19.6891 C 81.2779 19.0446 80.3326 18.9586 79.5591 18.6149 C 78.7427 18.2281 77.3676 18.357 77.1958 17.5406 C 76.9379 16.6382 78.6567 16.0796 78.6997 15.1772 C 78.6997 14.2749 78.0981 13.3295 77.4106 12.8139 C 76.6801 12.2982 75.6488 12.5131 74.8324 12.3842 C 73.973 12.2123 72.8128 12.5561 72.2542 11.9545 C 71.6526 11.3099 72.512 10.0638 72.0393 9.3763 C 71.5237 8.6458 70.4924 8.4309 69.676 8.302 C 68.8166 8.1301 67.8712 8.8177 67.0978 8.5169 C 66.2384 8.1731 65.6712 7.3343 65.1641 6.5832 C 64.7507 5.9653 64.6777 5.0982 64.0899 4.6496 C 62.7561 3.6209 60.9582 2.5208 59.1483 2.2862 C 57.4768 2.0679 55.9204 3.3175 54.2067 3.5753 C 53.099 3.6793 51.8623 3.7094 50.7691 3.3605 C 49.9484 3.0992 49.6089 1.9424 48.8355 1.6416 C 48.019 1.2979 47.0737 1.5987 46.2573 1.6416 C 45.3119 1.6416 44.3236 1.5127 43.4642 1.8565 C 42.6048 2.1143 41.9602 2.8018 41.3157 3.3605 C 40.6282 3.8761 40.2414 4.9933 39.382 5.0793 C 38.4797 5.1222 38.007 3.8761 37.2335 3.5753 C 36.4171 3.2315 35.4717 2.8878 34.6553 3.1456 C 33.7529 3.3605 33.1084 4.1769 32.5068 4.8644 C 31.8193 5.5519 31.5615 6.6692 30.788 7.2278 C 30.0575 7.7004 29.0692 7.7004 28.2098 7.8723 C 27.2644 8.0012 26.2332 7.6575 25.4167 8.0872 C 24.6003 8.4309 24.0847 9.2474 23.6979 10.0208 C 23.2682 10.7943 23.7598 12.3902 23.0534 12.599 C 22.2653 12.819 21.729 10.4883 20.69 10.4505 C 19.1027 10.6637 17.4776 11.7646 16.6078 13.0287 C 16.0999 13.7713 17.4397 14.7381 17.4672 15.6069 C 17.5137 16.9639 16.2099 19.3918 17.2524 19.6891 C 18.9858 20.1429 21.2099 17.2948 23.2682 17.3258 C 24.4963 17.349 25.3669 19.158 26.2761 19.4743 C 27.157 19.7811 28.2201 19.6453 29.0692 19.2594 C 29.8985 18.883 30.097 17.4211 31.0028 17.3258 C 31.8717 17.2347 32.3848 18.4112 33.1514 18.8297 C 33.9678 19.2749 34.8031 19.9882 35.7296 19.904 C 36.5993 19.8249 37.0058 18.3545 37.8781 18.4 C 38.7383 18.4456 39.034 19.7484 39.8117 20.1188 C 40.5972 20.4927 41.5271 20.6611 42.3899 20.5485 C 43.2468 20.4368 43.8896 19.4347 44.7533 19.4743 C 45.6488 19.5147 46.2822 20.4368 47.1167 20.7634 C 47.9408 21.0856 48.832 21.6039 49.6949 21.4079 C 50.5886 21.2051 50.9333 19.5817 51.8434 19.6891 C 52.7105 19.7914 52.6263 21.3443 53.3473 21.8376 C 54.0778 22.3369 55.0438 22.5587 55.9255 22.4822 C 56.7867 22.4074 57.4527 21.1879 58.2889 21.4079 C 59.1749 21.6408 59.584 22.7443 60.0077 23.5564 C 60.458 24.4193 60.1117 25.7359 60.8671 26.3495 C 61.5331 26.8909 62.7552 25.8381 63.4453 26.3495 C 64.8822 27.4143 65.2372 29.5731 66.6681 30.6465 C 67.414 31.206 68.6542 30.4703 69.4611 30.8613 Z "/>
    </g>
    <g id="ID0.7866862644441426">
      <path id="ID0.11782124871388078" fill="#C37B50" stroke="#000000" stroke-width="1.9562476750398694" stroke-linecap="round" d="M 97.4177 102.5056 L 79.9231 102.0156 L 82.9286 134.985 L 83.6249 167.8211 L 83.8832 178.9566 L 84.3194 181.6636 L 86.8644 182.5038 L 88.9254 179.6824 L 89.6796 173.7631 L 90.4562 184.2529 L 94.4995 185.0245 L 96.6391 182.7735 L 95.3871 172.7839 L 96.6272 182.5349 L 98.6847 183.6366 L 101.2879 180.6468 L 101.1425 172.7594 L 100.6635 163.2128 L 99.9156 132.3407 L 97.4177 102.5056 Z "/>
      <path id="ID0.13247013883665204" fill="#E10139" stroke="#000000" stroke-width="1.9562563983398749" stroke-linecap="round" d="M 99.75 95.8124 L 97 85.538 L 93 79.3256 L 89.25 76.4583 L 83.75 77.4141 L 79.5 82.1928 L 77.5 87.9274 L 75.75 97.0071 L 76.5 102.0248 L 99.25 102.2637 L 99.75 95.8124 Z "/>
    </g>
  </g>
</svg>