<svg xmlns="http://www.w3.org/2000/svg" xmlns:xlink="http://www.w3.org/1999/xlink" version="1.1" width="101.37880349159241" height="211.8728678226471" viewBox="1.4620498418807983 0.42590630054473877 101.37880349159241 211.8728678226471">
  <!-- Exported by Scratch - http://scratch.mit.edu/ -->
  <g id="ID0.7149084191769361">
    <g id="ID0.7866862644441426">
      <path id="ID0.11782124871388078" fill="#C37B50" stroke="#000000" stroke-width="1.9562477049864906" stroke-linecap="round" d="M 7.855 103.0274 L 25.3551 102.8107 L 21.835 135.7292 L 20.6261 168.5503 L 20.1939 179.6804 L 19.7155 182.3803 L 17.1577 183.1807 L 15.141 180.3274 L 14.4793 174.3971 L 13.539 184.8735 L 9.4842 185.5818 L 7.3799 183.2977 L 8.7878 173.3289 L 7.3956 183.0593 L 5.3211 184.1288 L 2.765 181.0986 L 3.0335 173.2145 L 3.6615 163.6765 L 4.8914 132.8199 L 7.855 103.0274 Z "/>
      <path id="ID0.13247013883665204" fill="#E10139" stroke="#000000" stroke-width="1.9562564194041034" stroke-linecap="round" d="M 5.6348 96.2407 L 8.5449 86.0106 L 12.6414 79.8614 L 16.4357 77.053 L 21.9201 78.0945 L 26.095 82.9391 L 28.0052 88.7042 L 29.6132 97.8101 L 28.7849 102.8155 L 6.034 102.6991 L 5.6348 96.2407 Z "/>
    </g>
    <path id="ID0.3887670743279159" fill="#333640" stroke="#000000" stroke-width="1.4717389622529908" d="M 95.4831 154.8484 L 12.1904 154.8484 L 12.1904 210.9958 L 95.4831 210.9958 L 95.4831 154.8484 Z "/>
    <g id="ID0.5705704805441201">
      <path id="ID0.5024464935995638" fill="#FF1B45" stroke="#000000" stroke-width="2.2288822531700134" stroke-linecap="round" d="M 53.814 65.9071 C 42.7788 65.8143 30.2532 66.8091 21.5584 73.6176 C 14.7759 78.9335 13.9467 89.1068 12.9883 97.3715 C 10.5254 118.5385 10.9816 139.8637 11.391 161.0804 C 11.4935 166.3844 11.4103 169.9699 14.8457 171.1847 C 26.6566 175.534 39.723 175.9916 52.5138 176.0882 C 65.9852 176.19 79.9454 176.1937 92.7452 171.8162 C 96.1925 170.5881 95.821 164.8123 96.0142 161.0804 C 96.5878 150.0118 95.8262 138.8949 95.4198 127.8329 C 94.8113 116.9181 95.0327 105.8227 92.968 95.1055 C 91.5148 87.5637 90.699 78.2106 84.5837 73.6176 C 76.137 67.2749 64.4012 65.8143 53.814 65.9071 Z "/>
      <path id="ID0.9501931658014655" fill="#E10139" stroke="none" stroke-linecap="round" d="M 35.0752 69.2324 L 25.0865 72.5005 L 24.4884 173.8463 L 35.793 174.7904 L 35.0752 69.2324 Z " stroke-width="0.9895533114301723"/>
      <path id="ID0.9501931658014655" fill="#E10139" stroke="none" d="M 57.9645 76.1553 L 47.4973 76.1553 L 48.215 175.0376 L 58.7421 174.4488 L 57.9645 76.1553 Z " stroke-width="0.9641045012294582"/>
      <path id="ID0.9501931658014655" fill="#E10139" stroke="none" stroke-linecap="round" d="M 83.3145 74.3106 L 77.0342 70.171 L 72.7875 69.5174 L 73.1464 174.3128 L 83.4939 172.7514 L 83.3145 74.3106 Z " stroke-width="0.9895533114301723"/>
      <path id="ID0.5343091967515647" fill="#D3EFF9" stroke="#D3EFF9" stroke-width="2.5782090425491333" stroke-linecap="round" d="M 53.425 138.1119 C 52.6266 138.5417 50.7755 138.093 48.9131 137.8971 C 48.0563 137.8069 47.1961 137.7183 46.3349 137.6822 C 45.4773 137.6462 44.6144 137.7183 43.7567 137.6822 C 42.8956 137.6462 42.0336 137.574 41.1785 137.4674 C 40.3148 137.3591 39.4674 137.1099 38.6003 137.0377 C 37.7443 136.9664 36.811 137.3763 36.0221 137.0377 C 35.185 136.6793 34.4803 135.9265 34.0884 135.104 C 33.718 134.3263 33.8736 133.387 33.8736 132.5258 C 33.8736 131.6647 33.9466 130.7976 34.0884 129.9476 C 34.2337 129.0745 34.1899 128.0681 34.733 127.3694 C 35.283 126.6621 36.3255 126.5384 37.0964 126.0803 C 38.6158 125.1779 40.161 124.3005 41.6082 123.2872 C 42.3138 122.7931 42.9326 122.1778 43.5419 121.5684 C 44.2225 120.8878 44.9943 120.2527 45.4755 119.4199 C 46.359 117.8936 47.8208 116.4498 47.8389 114.6932 C 47.8552 113.0621 47.2657 110.9858 45.9052 110.1814 C 44.2053 109.3348 41.9786 109.9639 40.3191 110.6111 C 39.2414 111.0863 39.0687 112.8171 38.1706 113.4041 C 37.4281 113.8819 36.3641 114.4827 35.5924 114.0487 C 34.8035 113.6052 34.9178 112.3565 34.733 111.4705 C 34.5577 110.6274 34.4468 109.7508 34.5181 108.8922 C 34.5921 108.0105 34.5964 106.9938 35.1627 106.314 C 35.7772 105.5767 36.8686 105.4246 37.7409 105.0249 C 38.5866 104.6373 39.4167 104.1758 40.3191 103.9507 C 41.1553 103.7418 42.0388 103.8072 42.8973 103.7358 C 43.7559 103.6645 44.6428 103.3044 45.4755 103.521 C 47.0482 103.9352 48.4516 104.5325 49.7725 105.2398 C 50.986 106.0528 52.4874 106.8176 52.9953 108.0328 C 53.7636 109.8874 53.6399 112.0557 53.425 114.0487 C 53.2506 115.6944 52.4573 117.1958 51.4914 118.5605 C 50.5005 120.3129 49.0163 121.7601 47.624 123.2872 C 47.0448 123.9232 46.5489 124.6485 45.9052 125.2209 C 45.2521 125.801 44.5147 126.2917 43.7567 126.7249 C 43.0065 127.1537 42.1436 127.3703 41.3934 127.7991 C 40.6354 128.2323 39.6823 128.5477 39.2449 129.3031 C 38.8134 130.049 38.5419 131.1714 39.03 131.8813 C 39.5431 132.6272 40.7033 132.7158 41.6082 132.7407 C 43.3382 132.7888 45.045 132.2869 46.7646 132.0961 C 47.6206 132.0007 48.4817 131.9174 49.3428 131.8813 C 50.2005 131.8452 51.0694 131.7747 51.9211 131.8813 C 52.7994 131.9913 53.8951 131.8787 54.4993 132.5258 C 55.0931 133.1618 54.929 134.2335 54.929 135.104 C 54.929 136.0451 54.6161 136.9629 54.4993 137.8971 C 54.47 138.1309 54.9676 138.5417 54.4993 138.5417 Z "/>
    </g>
    <g id="ID0.2370505714789033">
      <path id="ID0.7782022436149418" fill="#C37B50" stroke="#000000" stroke-width="2.6059000492095947" d="M 48.0891 5.2762 C 37.7541 5.2762 28.3891 9.4736 21.6079 16.2548 C 14.8267 23.036 10.6293 32.401 10.6293 42.736 C 10.6293 53.071 14.8267 62.436 21.6079 69.2172 C 28.3891 75.9984 37.7541 80.1958 48.0891 80.1958 C 58.4241 80.1958 67.789 75.9984 74.5702 69.2172 C 81.3514 62.436 85.5489 53.071 85.5489 42.736 C 85.5489 32.401 81.3514 23.036 74.5702 16.2548 C 67.789 9.4736 58.4241 5.2762 48.0891 5.2762 Z "/>
      <path id="ID0.3346423259936273" fill="#000000" stroke="none" d="M 46.5158 35.8905 C 45.3608 35.8905 44.314 36.3594 43.5559 37.1175 C 42.7978 37.8756 42.3289 38.9223 42.3289 40.0774 C 42.3289 41.2324 42.7978 42.2791 43.5559 43.0372 C 44.314 43.7953 45.3608 44.2642 46.5158 44.2642 C 47.6708 44.2642 48.7175 43.7953 49.4756 43.0372 C 50.2337 42.2791 50.7027 41.2324 50.7027 40.0774 C 50.7027 38.9223 50.2337 37.8756 49.4756 37.1175 C 48.7175 36.3594 47.6708 35.8905 46.5158 35.8905 Z " stroke-width="0.5582506060600281"/>
      <path id="ID0.3346423259936273" fill="#000000" stroke="none" d="M 18.6658 35.3905 C 17.5108 35.3905 16.464 35.8594 15.7059 36.6175 C 14.9478 37.3756 14.4789 38.4223 14.4789 39.5774 C 14.4789 40.7324 14.9478 41.7791 15.7059 42.5372 C 16.464 43.2953 17.5108 43.7642 18.6658 43.7642 C 19.8208 43.7642 20.8675 43.2953 21.6256 42.5372 C 22.3837 41.7791 22.8527 40.7324 22.8527 39.5774 C 22.8527 38.4223 22.3837 37.3756 21.6256 36.6175 C 20.8675 35.8594 19.8208 35.3905 18.6658 35.3905 Z " stroke-width="0.5582506060600281"/>
      <path id="ID0.5251190410926938" fill="none" stroke="#000000" stroke-width="1.9625998735427856" stroke-linecap="round" d="M 47.8065 55.2209 L 27.8534 55.2209 "/>
      <path id="ID0.263839818071574" fill="#000000" stroke="#000000" stroke-width="2.5782090425491333" stroke-linecap="round" d="M 71.4299 31.9708 C 70.8137 31.6433 72.2369 32.2904 72.719 33.4747 C 73.3309 35.7306 72.3882 40.3388 72.719 40.5648 C 73.0473 40.7771 73.6137 36.6399 74.4378 34.9787 C 74.822 34.2086 75.3832 33.4317 76.1567 33.045 C 76.8871 32.6153 77.8325 32.6153 78.7349 32.6153 C 79.5943 32.6153 80.5602 32.6136 81.3131 33.045 C 82.1828 33.5495 82.8643 34.555 83.2467 35.6232 C 83.8217 36.9097 84.1818 38.3467 84.1061 39.9202 C 84.0752 40.5931 83.3258 40.8802 83.0319 41.639 C 82.6512 42.6093 82.3985 43.6466 82.1725 44.6469 C 81.8957 45.1566 81.4514 45.6121 81.5279 46.1509 C 81.6689 47.1762 82.3873 48.944 82.3873 49.1588 C 82.3873 49.1588 82.2584 50.0182 82.1725 50.4479 C 81.9147 51.3073 81.485 52.1238 81.3131 53.0261 C 81.0982 53.8426 80.9186 54.7604 81.0982 55.6043 C 81.3921 56.9948 82.3701 59.5902 82.817 59.9013 C 83.1849 60.0423 82.3701 57.3859 83.0319 56.6786 C 83.9901 55.6868 86.1661 56.2291 86.8992 55.1746 C 87.3933 54.4459 86.2976 53.4558 86.2546 52.5964 C 86.1687 51.737 86.1257 50.7917 86.4695 50.0182 C 86.7703 49.2018 87.8016 48.858 88.1883 48.0846 C 88.5321 47.2681 88.7039 46.3658 88.618 45.5063 C 88.4891 44.6469 87.9734 43.8735 87.5437 43.143 C 87.0281 42.3266 85.8249 41.8969 85.8249 40.9945 C 85.8249 40.0921 87.2 39.8343 87.5437 39.0608 C 87.8445 38.2444 87.7586 37.342 87.7586 36.4826 C 87.7156 35.5802 87.7586 34.6349 87.3289 33.9044 C 86.8562 33.1309 85.4382 33.2169 85.1804 32.4005 C 84.8796 31.4981 85.6101 30.5957 86.0398 29.8222 C 86.4265 29.0058 88.1024 28.3183 87.5437 27.6737 C 85.8679 25.6971 82.4303 25.7401 80.8834 23.8064 C 80.2818 23.0759 82.9459 23.1619 83.2467 22.3025 C 83.5046 21.4431 82.7741 20.5407 82.1725 19.9391 C 81.5279 19.2946 80.5826 19.2086 79.8091 18.8649 C 78.9927 18.4781 77.6176 18.607 77.4458 17.7906 C 77.1879 16.8882 78.9067 16.3296 78.9497 15.4272 C 78.9497 14.5249 78.3481 13.5795 77.6606 13.0639 C 76.9301 12.5482 75.8988 12.7631 75.0824 12.6342 C 74.223 12.4623 73.0628 12.8061 72.5042 12.2045 C 71.9026 11.5599 72.762 10.3138 72.2893 9.6263 C 71.7737 8.8958 70.7424 8.6809 69.926 8.552 C 69.0666 8.3801 68.1212 9.0677 67.3478 8.7669 C 66.4884 8.4231 65.9212 7.5843 65.4141 6.8332 C 65.0007 6.2153 64.9277 5.3482 64.3399 4.8996 C 63.0061 3.8709 61.2082 2.7708 59.3983 2.5362 C 57.7268 2.3179 56.1704 3.5675 54.4567 3.8253 C 53.349 3.9293 52.1123 3.9594 51.0191 3.6105 C 50.1984 3.3492 49.8589 2.1924 49.0855 1.8916 C 48.269 1.5479 47.3237 1.8487 46.5073 1.8916 C 45.5619 1.8916 44.5736 1.7627 43.7142 2.1065 C 42.8548 2.3643 42.2102 3.0518 41.5657 3.6105 C 40.8782 4.1261 40.4914 5.2433 39.632 5.3293 C 38.7297 5.3722 38.257 4.1261 37.4835 3.8253 C 36.6671 3.4815 35.7217 3.1378 34.9053 3.3956 C 34.0029 3.6105 33.3584 4.4269 32.7568 5.1144 C 32.0693 5.8019 31.8115 6.9192 31.038 7.4778 C 30.3075 7.9504 29.3192 7.9504 28.4598 8.1223 C 27.5144 8.2512 26.4832 7.9075 25.6667 8.3372 C 24.8503 8.6809 24.3347 9.4974 23.9479 10.2708 C 23.5182 11.0443 24.0098 12.6402 23.3034 12.849 C 22.5153 13.069 21.979 10.7383 20.94 10.7005 C 19.3527 10.9137 17.7276 12.0146 16.8578 13.2787 C 16.3499 14.0213 17.6897 14.9881 17.7172 15.8569 C 17.7637 17.2139 16.4599 19.6418 17.5024 19.9391 C 19.2358 20.3929 21.4599 17.5448 23.5182 17.5758 C 24.7463 17.599 25.6169 19.408 26.5261 19.7243 C 27.407 20.0311 28.4701 19.8953 29.3192 19.5094 C 30.1485 19.133 30.347 17.6711 31.2528 17.5758 C 32.1217 17.4847 32.6348 18.6612 33.4014 19.0797 C 34.2178 19.5249 35.0531 20.2382 35.9796 20.154 C 36.8493 20.0749 37.2558 18.6045 38.1281 18.65 C 38.9883 18.6956 39.284 19.9984 40.0617 20.3688 C 40.8472 20.7427 41.7771 20.9111 42.6399 20.7985 C 43.4968 20.6868 44.1396 19.6847 45.0033 19.7243 C 45.8988 19.7647 46.5322 20.6868 47.3667 21.0134 C 48.1908 21.3356 49.082 21.8539 49.9449 21.6579 C 50.8386 21.4551 51.1833 19.8317 52.0934 19.9391 C 52.9605 20.0414 52.8763 21.5943 53.5973 22.0876 C 54.3278 22.5869 55.2938 22.8087 56.1755 22.7322 C 57.0367 22.6574 57.7027 21.4379 58.5389 21.6579 C 59.4249 21.8908 59.834 22.9943 60.2577 23.8064 C 60.708 24.6693 60.3617 25.9859 61.1171 26.5995 C 61.7831 27.1409 63.0052 26.0881 63.6953 26.5995 C 65.1322 27.6643 65.4872 29.8231 66.9181 30.8965 C 67.664 31.456 68.9042 30.7203 69.7111 31.1113 Z "/>
    </g>
    <g id="ID0.7866862644441426">
      <path id="ID0.11782124871388078" fill="#C37B50" stroke="#000000" stroke-width="1.9562476750398694" stroke-linecap="round" d="M 97.6677 102.7556 L 80.1731 102.2656 L 83.1786 135.235 L 83.8749 168.0711 L 84.1332 179.2066 L 84.5694 181.9136 L 87.1144 182.7538 L 89.1754 179.9324 L 89.9296 174.0131 L 90.7062 184.5029 L 94.7495 185.2745 L 96.8891 183.0235 L 95.6371 173.0339 L 96.8772 182.7849 L 98.9347 183.8866 L 101.5379 180.8968 L 101.3925 173.0094 L 100.9135 163.4628 L 100.1656 132.5907 L 97.6677 102.7556 Z "/>
      <path id="ID0.13247013883665204" fill="#E10139" stroke="#000000" stroke-width="1.9562563983398749" stroke-linecap="round" d="M 100 96.0624 L 97.25 85.788 L 93.25 79.5756 L 89.5 76.7083 L 84 77.6641 L 79.75 82.4428 L 77.75 88.1774 L 76 97.2571 L 76.75 102.2748 L 99.5 102.5137 L 100 96.0624 Z "/>
    </g>
  </g>
</svg>