<svg xmlns="http://www.w3.org/2000/svg" xmlns:xlink="http://www.w3.org/1999/xlink" version="1.1" width="529.25" height="364.03570556640625" viewBox="-2 -2 529.25 364.03570556640625">
  <defs>
    <linearGradient id="grad_1" y2="1" x2="0">
      <stop offset="0" stop-color="#AEC0E7" stop-opacity="1"/>
      <stop offset="1" stop-color="#D3E0F0" stop-opacity="1"/>
    </linearGradient>
    <linearGradient id="grad_2" y2="1" x2="0">
      <stop offset="0" stop-color="#55A244" stop-opacity="1"/>
      <stop offset="1" stop-color="#B0C046" stop-opacity="1"/>
    </linearGradient>
    <linearGradient id="grad_3" y2="1" x2="0">
      <stop offset="0" stop-color="#57B74A" stop-opacity="1"/>
      <stop offset="1" stop-color="#9FB461" stop-opacity="1"/>
    </linearGradient>
  <linearGradient id="grad_1-,0,0,1,19,0" y2="360" x2="19" x1="19" y1="0" gradientUnits="userSpaceOnUse">
      <stop offset="0" stop-color="#AEC0E7" stop-opacity="1"/>
      <stop offset="1" stop-color="#D3E0F0" stop-opacity="1"/>
    </linearGradient><linearGradient id="grad_2-,0,0,1,19,0" y2="360" x2="19" x1="19" y1="167.5" gradientUnits="userSpaceOnUse">
      <stop offset="0" stop-color="#55A244" stop-opacity="1"/>
      <stop offset="1" stop-color="#B0C046" stop-opacity="1"/>
    </linearGradient><linearGradient id="grad_3-,0,0,1.153571367263794,19,-55.25" y2="360.0357" x2="0" x1="0" y1="198.5357" gradientUnits="userSpaceOnUse">
      <stop offset="0" stop-color="#57B74A" stop-opacity="1"/>
      <stop offset="1" stop-color="#9FB461" stop-opacity="1"/>
    </linearGradient></defs>
  <!-- Exported by Scratch - http://scratch.mit.edu/ -->
  <path id="ID0.6388234607875347" fill="url(#grad_1-,0,0,1,19,0)" stroke="none" d="M 19 0 L 499 0 L 499 360 L 19 360 L 19 0 Z " stroke-width="1"/>
  <path id="ID0.5004307264462113" fill="#287A7F" stroke="none" d="M 19 140.5 L 77.5 150 L 149.5 145 L 191 152.5 L 252.5 144 L 316 149.5 L 342.5 139 L 448 146.5 L 503 138.5 L 499 168.5 L 19 168.5 L 19 140.5 Z " stroke-width="1"/>
  <g id="ID0.7524295561015606">
    <path id="ID0.6570757920853794" fill="#287A7F" stroke="#287A7F" stroke-width="2" stroke-linecap="round" d="M 314.5 130.5 C 314.203 130.099 315.33 129.488 316.5 129 C 317.328 128.655 318.125 128.195 319 128 C 319.65 127.856 321.16 128.481 321 128 C 320.66 126.981 318.525 126.312 318 125 C 317.723 124.309 318.605 123.631 319 123 C 319.441 122.294 319.958 121.632 320.5 121 C 320.96 120.464 322.127 120.007 322 119.5 C 321.877 119.007 320.681 119.085 320 119 C 319.339 118.917 318.578 119.33 318 119 C 317.277 118.587 316.872 117.745 316.5 117 C 316.193 116.386 316.485 115.485 316 115 C 315.515 114.515 314.681 114.585 314 114.5 C 313.339 114.417 312.471 114.971 312 114.5 C 311.529 114.029 312.471 112.971 312 112.5 C 311.4 111.9 310.344 111.906 309.5 112 C 308.76 112.082 308.237 113.105 307.5 113 C 306.801 112.9 306.575 111.911 306 111.5 C 305.394 111.067 304.739 110.592 304 110.5 C 303.319 110.415 302.637 110.745 302 111 C 300.963 111.415 300.037 112.085 299 112.5 C 298.363 112.755 297.666 113.166 297 113 C 296.192 112.798 295.779 111.792 295 111.5 C 294.376 111.266 293.666 111.5 293 111.5 C 291.002 111.5 288.998 111.5 287 111.5 C 285.668 111.5 284.327 111.389 283 111.5 C 282.316 111.557 281.643 111.759 281 112 C 280.303 112.261 279.477 112.428 279 113 C 278.561 113.527 279.027 114.561 278.5 115 C 277.848 115.544 276.848 115.466 276 115.5 C 272.673 115.633 269.33 115.5 266 115.5 C 265.168 115.5 264.612 115.238 264 115.5 C 263.351 115.778 262.85 116.387 262.5 117 C 262.159 117.596 262.341 118.404 262 119 C 261.65 119.613 260.778 119.851 260.5 120.5 C 260.238 121.112 260.238 121.888 260.5 122.5 C 260.778 123.149 261.468 123.535 262 124 C 262.802 124.702 263.526 125.567 264.5 126 C 265.109 126.27 265.834 126 266.5 126 C 267.166 126 268.5 125.667 268.5 126 C 268.5 126.375 267.245 127.128 266.5 127.5 C 265.886 127.807 264.623 127.507 264.5 128 C 264.373 128.507 265.65 128.887 266 129.5 C 266.341 130.096 265.9 131.167 266.5 131.5 C 267.673 132.152 269.158 132 270.5 132 C 271.186 132 271.819 131.415 272.5 131.5 C 273.239 131.592 273.761 132.408 274.5 132.5 C 275.181 132.585 275.857 132.241 276.5 132 C 277.197 131.739 277.85 130.74 278.5 131 C 279.1 131.24 278.321 132.896 279 133 C 281.002 133.308 282.99 132.251 285 132 C 285.661 131.917 286.388 131.738 287 132 C 287.649 132.278 287.925 133.089 288.5 133.5 C 289.106 133.933 289.763 134.605 290.5 134.5 C 291.199 134.4 291.65 133.613 292 133 C 292.341 132.404 291.964 131.429 292.5 131 C 293.02 130.584 294.029 130.529 294.5 131 C 294.971 131.471 293.999 132.561 294.5 133 C 295.571 133.937 297.09 134.688 298.5 134.5 C 299.92 134.311 300.987 133.013 302 132 C 302.527 131.473 302.41 130 303 130 C 303.66 130 304.059 131.294 304.5 132 C 304.895 132.631 304.928 133.523 305.5 134 C 306.027 134.439 306.886 134.807 307.5 134.5 C 308.166 134.167 308.239 133.197 308.5 132.5 C 308.741 131.857 308.659 131.096 309 130.5 C 309.35 129.887 309.794 129 310.5 129 C 311.206 129 311.394 130.137 312 130.5 C 312.286 130.671 312.684 130.605 313 130.5 Z "/>
    <path id="ID0.30618046782910824" fill="none" stroke="#287A7F" stroke-width="4" stroke-linecap="round" d="M 274.5 129 C 274.5 129 276.375 132.094 277.5 133.5 C 278.383 134.603 279.462 135.542 280.5 136.5 C 281.628 137.541 282.915 138.415 284 139.5 C 285.085 140.585 286.149 141.723 287 143 C 287.826 144.239 288.234 145.723 289 147 C 289.737 148.228 290.944 149.18 291.5 150.5 C 292.299 152.398 293 156.5 293 156.5 "/>
    <path id="ID0.8843724299222231" fill="none" stroke="#287A7F" stroke-width="4" stroke-linecap="round" d="M 297 155 C 297 155 296.621 147.998 296.5 144.5 C 296.454 143.169 296.656 141.823 296.5 140.5 C 296.321 138.975 295.743 137.516 295.5 136 C 295.076 133.349 294.767 130.671 294.5 128 C 294.433 127.332 294.5 126 294.5 126 "/>
    <path id="ID0.13546682987362146" fill="none" stroke="#287A7F" stroke-width="4" stroke-linecap="round" d="M 298.5 141.5 C 298.5 141.5 300.872 139.541 302 138.5 C 303.038 137.542 304.236 136.688 305 135.5 C 305.769 134.303 306.091 132.863 306.5 131.5 C 306.602 131.159 306.5 130.5 306.5 130.5 "/>
  </g>
  <g id="ID0.7524295561015606">
    <path id="ID0.6570757920853794" fill="#287A7F" stroke="#287A7F" stroke-width="1.6373625993728638" stroke-linecap="round" d="M 456.6588 130.8951 C 456.4156 130.5668 457.3383 130.0665 458.2962 129.667 C 458.974 129.3846 459.6265 129.008 460.3429 128.8483 C 460.875 128.7305 462.1112 129.2421 461.9802 128.8483 C 461.7019 128.0141 459.954 127.4664 459.5242 126.3923 C 459.2974 125.8266 460.0195 125.2715 460.3429 124.7549 C 460.7039 124.177 461.1272 123.635 461.5709 123.1176 C 461.9475 122.6788 462.9029 122.3046 462.7989 121.8896 C 462.6982 121.4859 461.7191 121.5498 461.1615 121.4802 C 460.6204 121.4123 459.9974 121.7504 459.5242 121.4802 C 458.9323 121.1421 458.6007 120.4528 458.2962 119.8429 C 458.0448 119.3402 458.2839 118.6026 457.8868 118.2055 C 457.4897 117.8084 456.807 117.8657 456.2494 117.7962 C 455.7083 117.7282 454.9977 118.1818 454.6121 117.7962 C 454.2265 117.4106 454.9977 116.5444 454.6121 116.1588 C 454.1209 115.6676 453.2563 115.6725 452.5654 115.7494 C 451.9596 115.8166 451.5314 116.6541 450.928 116.5681 C 450.3558 116.4863 450.1707 115.6766 449.7 115.3401 C 449.2039 114.9856 448.6676 114.5967 448.0626 114.5214 C 447.5051 114.4518 446.9468 114.722 446.4253 114.9308 C 445.5763 115.2705 444.8182 115.819 443.9692 116.1588 C 443.4477 116.3676 442.8771 116.704 442.3319 116.5681 C 441.6704 116.4028 441.3323 115.5792 440.6945 115.3401 C 440.1836 115.1485 439.6024 115.3401 439.0571 115.3401 C 437.4214 115.3401 435.7808 115.3401 434.1451 115.3401 C 433.0546 115.3401 431.9567 115.2492 430.8703 115.3401 C 430.3103 115.3868 429.7594 115.5521 429.233 115.7494 C 428.6623 115.9631 427.9861 116.0998 427.5956 116.5681 C 427.2362 116.9996 427.6177 117.8461 427.1863 118.2055 C 426.6525 118.6509 425.8338 118.587 425.1396 118.6148 C 422.4158 118.7237 419.679 118.6148 416.9527 118.6148 C 416.2716 118.6148 415.8164 118.4003 415.3154 118.6148 C 414.7841 118.8424 414.3739 119.341 414.0874 119.8429 C 413.8082 120.3308 413.9572 120.9923 413.678 121.4802 C 413.3915 121.9821 412.6776 122.1769 412.45 122.7082 C 412.2355 123.2093 412.2355 123.8446 412.45 124.3456 C 412.6776 124.8769 413.2425 125.1929 413.678 125.5736 C 414.3346 126.1483 414.9273 126.8565 415.7247 127.211 C 416.2233 127.432 416.8168 127.211 417.3621 127.211 C 417.9073 127.211 418.9994 126.9384 418.9994 127.211 C 418.9994 127.518 417.972 128.1345 417.3621 128.439 C 416.8594 128.6903 415.8254 128.4447 415.7247 128.8483 C 415.6208 129.2634 416.6662 129.5745 416.9527 130.0764 C 417.2319 130.5643 416.8709 131.4411 417.3621 131.7137 C 418.3224 132.2475 419.5381 132.1231 420.6368 132.1231 C 421.1984 132.1231 421.7167 131.6441 422.2742 131.7137 C 422.8792 131.7891 423.3065 132.4571 423.9115 132.5324 C 424.4691 132.602 425.0225 132.3204 425.5489 132.1231 C 426.1195 131.9094 426.6541 131.0915 427.1863 131.3044 C 427.6775 131.5009 427.0397 132.8566 427.5956 132.9418 C 429.2346 133.1939 430.8621 132.3286 432.5077 132.1231 C 433.0488 132.0551 433.644 131.9086 434.1451 132.1231 C 434.6764 132.3507 434.9023 133.0146 435.3731 133.3511 C 435.8692 133.7056 436.4071 134.2557 437.0104 134.1698 C 437.5827 134.0879 437.9519 133.4436 438.2385 132.9418 C 438.5176 132.4538 438.209 131.6556 438.6478 131.3044 C 439.0735 130.9638 439.8996 130.9188 440.2852 131.3044 C 440.6708 131.69 439.875 132.5824 440.2852 132.9418 C 441.162 133.7089 442.4055 134.3237 443.5599 134.1698 C 444.7224 134.015 445.5959 132.9524 446.4253 132.1231 C 446.8567 131.6916 446.7609 130.4857 447.244 130.4857 C 447.7843 130.4857 448.1109 131.5451 448.472 132.1231 C 448.7954 132.6397 448.8224 133.3699 449.2907 133.7604 C 449.7221 134.1198 450.4253 134.4211 450.928 134.1698 C 451.4733 133.8972 451.533 133.103 451.7467 132.5324 C 451.944 132.006 451.8769 131.383 452.156 130.8951 C 452.4426 130.3932 452.8061 129.667 453.3841 129.667 C 453.9621 129.667 454.116 130.5979 454.6121 130.8951 C 454.8462 131.035 455.1721 130.981 455.4308 130.8951 Z "/>
    <path id="ID0.30618046782910824" fill="none" stroke="#287A7F" stroke-width="3.2747251987457275" stroke-linecap="round" d="M 423.9231 129.7099 C 423.9231 129.7099 425.4581 132.2429 426.3791 133.394 C 427.102 134.297 427.9854 135.0657 428.8352 135.85 C 429.7586 136.7022 430.8123 137.4178 431.7005 138.306 C 432.5888 139.1943 433.4599 140.126 434.1566 141.1714 C 434.8328 142.1858 435.1668 143.4007 435.794 144.4462 C 436.3973 145.4515 437.3855 146.2309 437.8407 147.3115 C 438.4948 148.8654 439.0687 152.2236 439.0687 152.2236 "/>
    <path id="ID0.8843724299222231" fill="none" stroke="#287A7F" stroke-width="3.2747251987457275" stroke-linecap="round" d="M 442.3434 150.9956 C 442.3434 150.9956 442.0331 145.2632 441.9341 142.3994 C 441.8964 141.3098 442.0618 140.2078 441.9341 139.1247 C 441.7875 137.8762 441.3143 136.6818 441.1154 135.4407 C 440.7683 133.2703 440.5153 131.0779 440.2967 128.8912 C 440.2418 128.3443 440.2967 127.2538 440.2967 127.2538 "/>
    <path id="ID0.13546682987362146" fill="none" stroke="#287A7F" stroke-width="3.2747251987457275" stroke-linecap="round" d="M 443.5714 139.9434 C 443.5714 139.9434 445.5133 138.3396 446.4368 137.4874 C 447.2866 136.7031 448.2674 136.0039 448.8929 135.0313 C 449.5224 134.0514 449.786 132.8725 450.1209 131.7566 C 450.2044 131.4774 450.1209 130.9379 450.1209 130.9379 "/>
  </g>
  <g id="ID0.03272360377013683">
    <path id="ID0.18419262021780014" fill="#287A7F" stroke="#287A7F" stroke-width="0.6619767258227018" stroke-linecap="round" d="M 222.7796 122.955 C 222.5633 122.6329 222.5026 123.2252 222.2442 123.7121 C 222.1378 123.9053 221.8337 123.9804 221.7088 124.1663 C 221.5874 124.3468 221.6167 124.5775 221.5303 124.7719 C 221.4368 124.9833 221.2811 125.1716 221.1733 125.3776 C 221.0434 125.6259 220.9813 125.902 220.8164 126.1346 C 220.6208 126.4114 220.2981 126.6149 220.1025 126.8916 C 219.9376 127.1242 219.9155 127.4185 219.7456 127.6487 C 219.6121 127.8303 219.3565 127.9291 219.2101 128.1029 C 219.0559 128.2864 218.9717 128.5068 218.8532 128.7085 C 218.7347 128.9102 218.5805 129.1003 218.4962 129.3141 C 218.4006 129.5582 218.407 129.8253 218.3178 130.0712 C 218.1686 130.483 217.978 130.8845 217.7823 131.2824 C 217.6803 131.4908 217.4832 131.6682 217.4254 131.888 C 217.3612 132.1339 217.4897 132.3992 217.4254 132.6451 C 217.3676 132.8649 217.162 133.0393 217.0685 133.2507 C 216.9821 133.4451 216.78 133.6704 216.89 133.8563 C 217.0085 134.058 217.3876 134.0283 217.6039 134.1591 C 217.8088 134.2833 218.0401 134.4165 218.1393 134.6134 C 218.2328 134.7987 218.1686 135.0191 218.1393 135.219 C 218.1086 135.4255 218.0201 135.6229 217.9608 135.8246 C 217.9016 136.0263 217.8352 136.2274 217.7823 136.4303 C 217.7167 136.681 217.6631 136.9353 217.6039 137.1873 C 217.5446 137.4392 217.4911 137.6936 217.4254 137.9443 C 217.3726 138.1472 217.2776 138.3434 217.2469 138.5499 C 217.2177 138.7498 217.3048 138.96 217.2469 139.1556 C 217.1827 139.3742 216.9542 139.5426 216.89 139.7612 C 216.8322 139.9568 216.89 140.1652 216.89 140.3668 C 216.89 140.5685 216.9478 140.7768 216.89 140.9725 C 216.8257 141.1911 216.5973 141.3595 216.533 141.5781 C 216.4752 141.7737 216.5594 141.9832 216.533 142.1837 C 216.4995 142.4393 216.4202 142.69 216.3546 142.9407 C 216.3017 143.1436 216.2068 143.3399 216.1761 143.5464 C 216.1468 143.7462 216.2054 143.9521 216.1761 144.152 C 216.1454 144.3585 216.084 144.5632 215.9976 144.7576 C 215.9041 144.969 215.6028 145.1398 215.6407 145.3633 C 215.6764 145.5752 216.0769 145.6206 216.1761 145.8175 C 216.2696 146.0028 216.2025 146.2226 216.1761 146.4231 C 216.1425 146.6787 216.0312 146.9246 215.9976 147.1801 C 215.9712 147.3806 216.0554 147.5901 215.9976 147.7858 C 215.9334 148.0044 215.7342 148.18 215.6407 148.3914 C 215.5543 148.5858 215.5486 148.8026 215.4622 148.997 C 215.3687 149.2084 215.2238 149.401 215.1053 149.6026 C 214.9867 149.8043 214.9025 150.0248 214.7483 150.2083 C 214.602 150.3821 214.3257 150.4711 214.2129 150.6625 C 214.0772 150.8926 214.1001 151.1688 214.0344 151.4195 C 213.9816 151.6224 213.9423 151.8307 213.8559 152.0252 C 213.7624 152.2365 213.4148 152.417 213.499 152.6308 C 213.5832 152.8446 213.9552 152.8791 214.2129 152.9336 C 214.4435 152.9826 214.6912 152.9088 214.9268 152.9336 C 215.1702 152.9596 215.3972 153.059 215.6407 153.085 C 215.8763 153.1098 216.124 153.0359 216.3546 153.085 C 216.6123 153.1395 216.8107 153.3333 217.0685 153.3878 C 217.299 153.4369 217.5468 153.363 217.7823 153.3878 C 218.0258 153.4139 218.2528 153.5162 218.4962 153.5392 C 218.7918 153.5671 219.0931 153.5114 219.3886 153.5392 C 219.632 153.5622 219.8591 153.6646 220.1025 153.6906 C 220.3381 153.7155 220.5808 153.6658 220.8164 153.6906 C 221.0598 153.7167 221.2926 153.7918 221.5303 153.842 C 221.768 153.8923 222.0007 153.9674 222.2442 153.9934 C 222.4798 154.0183 222.7275 153.9444 222.9581 153.9934 C 223.2158 154.0479 223.4142 154.2417 223.672 154.2963 C 223.9025 154.3453 224.1481 154.2963 224.3858 154.2963 C 224.6236 154.2963 224.862 154.2963 225.0997 154.2963 C 225.3375 154.2963 225.5759 154.2963 225.8136 154.2963 C 226.0514 154.2963 226.2898 154.2963 226.5275 154.2963 C 226.8245 154.2963 227.1229 154.2963 227.4199 154.2963 C 227.6576 154.2963 227.8961 154.2963 228.1338 154.2963 C 228.4308 154.2963 228.7292 154.2963 229.0261 154.2963 C 229.3231 154.2963 229.6608 154.4216 229.9185 154.2963 C 230.1491 154.1842 230.2112 153.9093 230.2755 153.6906 C 230.3333 153.495 230.3019 153.2855 230.2755 153.085 C 230.2419 152.8294 230.1562 152.5799 230.097 152.328 C 230.0377 152.076 229.9842 151.8217 229.9185 151.5709 C 229.8657 151.368 229.7707 151.1718 229.74 150.9653 C 229.7108 150.7654 229.7914 150.5565 229.74 150.3597 C 229.6708 150.0944 229.4845 149.86 229.3831 149.6026 C 229.3053 149.4052 229.2639 149.1987 229.2046 148.997 C 229.1454 148.7953 229.0854 148.5931 229.0261 148.3914 C 228.9669 148.1897 228.9341 147.9802 228.8477 147.7858 C 228.7542 147.5744 228.3965 147.34 228.4907 147.1801 C 228.575 147.0372 229.0726 147.3291 229.2046 147.1801 C 229.3403 147.0263 229.1475 146.755 229.0261 146.5745 C 228.9012 146.3886 228.6157 146.3062 228.4907 146.1203 C 228.3694 145.9398 228.4115 145.7048 228.3123 145.5147 C 228.1716 145.2458 227.9175 145.0265 227.7768 144.7576 C 227.6776 144.5675 227.6847 144.3464 227.5984 144.152 C 227.5048 143.9406 227.3349 143.7577 227.2414 143.5464 C 227.155 143.352 227.1408 143.1382 227.0629 142.9407 C 226.9616 142.6834 226.7752 142.449 226.706 142.1837 C 226.6546 141.9869 226.5375 141.6495 226.706 141.5781 C 226.8945 141.4981 227.1707 141.8016 227.4199 141.8809 C 227.6491 141.9542 227.9146 142.1256 228.1338 142.0323 C 228.3715 141.9318 228.4265 141.6453 228.4907 141.4267 C 228.5486 141.2311 228.5486 141.0167 228.4907 140.821 C 228.4265 140.6024 228.288 140.3989 228.1338 140.2154 C 227.9874 140.0416 227.7447 139.935 227.5984 139.7612 C 227.4442 139.5777 227.3821 139.347 227.2414 139.1556 C 227.0836 138.9418 226.8388 138.7752 226.706 138.5499 C 226.5961 138.364 226.6375 138.1302 226.5275 137.9443 C 226.3947 137.719 226.1128 137.5688 225.9921 137.3387 C 225.8693 137.1037 225.9093 136.8257 225.8136 136.5817 C 225.7294 136.3679 225.5502 136.1874 225.4567 135.976 C 225.3703 135.7816 225.1254 135.5327 225.2782 135.3704 C 225.4674 135.1699 225.8693 135.2475 226.1706 135.219 C 226.4069 135.1966 226.6467 135.219 226.8845 135.219 C 227.1222 135.219 227.4663 135.3868 227.5984 135.219 C 227.7961 134.9671 227.6569 134.6091 227.5984 134.3106 C 227.5363 133.9962 227.3492 133.7074 227.2414 133.4021 C 227.1707 133.2029 227.1493 132.9909 227.0629 132.7965 C 226.9694 132.5851 226.7702 132.4095 226.706 132.1909 C 226.6482 131.9952 226.706 131.7869 226.706 131.5852 C 226.706 131.3836 226.7574 131.1764 226.706 130.9796 C 226.6368 130.7143 226.4676 130.4745 226.3491 130.2226 C 226.2305 129.9706 226.1106 129.7175 225.9921 129.4655 C 225.8736 129.2136 225.7365 128.9659 225.6352 128.7085 C 225.5573 128.5111 225.5159 128.3046 225.4567 128.1029 C 225.3974 127.9012 225.3375 127.6989 225.2782 127.4972 C 225.219 127.2956 225.159 127.0933 225.0997 126.8916 C 225.0405 126.6899 224.9805 126.4877 224.9213 126.286 C 224.862 126.0843 224.802 125.882 224.7428 125.6804 C 224.6835 125.4787 224.6236 125.2764 224.5643 125.0747 C 224.5051 124.8731 224.4722 124.6635 224.3858 124.4691 C 224.2923 124.2577 224.1474 124.0652 224.0289 123.8635 C 223.9104 123.6618 223.8262 123.4414 223.672 123.2579 C 223.5256 123.084 223.2615 122.9896 223.1365 122.8036 C 223.0152 122.6232 223.0487 122.3912 222.9581 122.198 C 222.9267 122.132 222.8338 121.9321 222.7796 122.0466 Z "/>
    <path id="ID0.8145076674409211" fill="#287A7F" stroke="none" d="M 220.1011 150.0358 L 223.4921 150.0358 L 223.4921 163.9567 L 220.1011 163.9567 L 220.1011 150.0358 Z " stroke-width="0.7138921618461609"/>
  </g>
  <path id="ID0.7322682659141719" fill="#287A7F" stroke="#287A7F" stroke-width="2" stroke-linecap="round" d="M 425 148 C 424.443 145.115 424.854 145.63 424.75 145.5 C 424.354 145.005 423.899 144.278 423.25 144 C 422.638 143.738 421.745 144.446 421.25 144 C 420.68 143.487 420.926 142.497 420.75 141.75 C 420.593 141.082 420.76 140.209 420.25 139.75 C 419.751 139.301 418.916 139.583 418.25 139.5 C 417.584 139.417 416.635 139.8 416.25 139.25 C 415.299 137.891 415.67 135.88 414.75 134.5 C 414.369 133.929 413.436 134 412.75 134 C 411.901 134 411.068 134.273 410.25 134.5 C 409.565 134.69 408.86 134.884 408.25 135.25 C 407.592 135.645 407.26 136.641 406.5 136.75 C 405.836 136.845 405.333 136.083 404.75 135.75 C 404.167 135.417 403.623 134.999 403 134.75 C 402.363 134.495 401.681 134.165 401 134.25 C 400.261 134.342 399.447 134.654 399 135.25 C 398.597 135.787 399.252 136.804 398.75 137.25 C 398.252 137.692 397.405 137.127 396.75 137.25 C 396.051 137.381 395.342 137.605 394.75 138 C 393.57 138.786 392.529 139.775 391.5 140.75 C 390.943 141.278 390.446 141.875 390 142.5 C 389.61 143.046 389.409 143.718 389 144.25 C 388.569 144.81 387.648 145.059 387.5 145.75 C 387.351 146.445 387.734 147.261 388.25 147.75 C 389.39 148.83 390.893 149.459 392.25 150.25 C 392.893 150.625 393.525 151.079 394.25 151.25 C 394.979 151.422 395.355 151.25 396.5 151.25 C 401.079 151.25 405.672 151.323 410.25 151.25 C 411.395 151.232 411.604 151.181 412.25 151 C 413.695 150.595 415.088 150.008 416.5 149.5 C 417.169 149.259 417.821 148.962 418.5 148.75 C 419.155 148.545 419.863 148.505 420.5 148.25 C 421.123 148.001 421.726 147.669 422.25 147.25 C 422.985 146.662 423.478 145.79 424.25 145.25 Z "/>
  <path id="ID0.7322682659141719" fill="#287A7F" stroke="#287A7F" stroke-width="2" stroke-linecap="round" d="M 330.25 156.55 C 329.693 153.665 330.104 154.18 330 154.05 C 329.604 153.555 329.149 152.828 328.5 152.55 C 327.888 152.288 326.995 152.996 326.5 152.55 C 325.93 152.037 326.176 151.047 326 150.3 C 325.843 149.632 326.01 148.759 325.5 148.3 C 325.001 147.851 324.166 148.133 323.5 148.05 C 322.834 147.967 321.885 148.35 321.5 147.8 C 320.549 146.441 320.92 144.43 320 143.05 C 319.619 142.479 318.686 142.55 318 142.55 C 317.151 142.55 316.318 142.823 315.5 143.05 C 314.815 143.24 314.11 143.434 313.5 143.8 C 312.842 144.195 312.51 145.191 311.75 145.3 C 311.086 145.395 310.583 144.633 310 144.3 C 309.417 143.967 308.873 143.549 308.25 143.3 C 307.613 143.045 306.931 142.715 306.25 142.8 C 305.511 142.892 304.697 143.204 304.25 143.8 C 303.847 144.337 304.502 145.354 304 145.8 C 303.502 146.242 302.655 145.677 302 145.8 C 301.301 145.931 300.592 146.155 300 146.55 C 298.82 147.336 297.779 148.325 296.75 149.3 C 296.193 149.828 295.696 150.425 295.25 151.05 C 294.86 151.596 294.659 152.268 294.25 152.8 C 293.819 153.36 292.898 153.609 292.75 154.3 C 292.601 154.995 292.984 155.811 293.5 156.3 C 294.64 157.38 296.143 158.009 297.5 158.8 C 298.143 159.175 298.775 159.629 299.5 159.8 C 300.229 159.972 300.605 159.8 301.75 159.8 C 306.329 159.8 310.922 159.873 315.5 159.8 C 316.645 159.782 316.854 159.731 317.5 159.55 C 318.945 159.145 320.338 158.558 321.75 158.05 C 322.419 157.809 323.071 157.512 323.75 157.3 C 324.405 157.095 325.113 157.055 325.75 156.8 C 326.373 156.551 326.976 156.219 327.5 155.8 C 328.235 155.212 328.728 154.34 329.5 153.8 Z "/>
  <path id="ID0.7322682659141719" fill="#287A7F" stroke="#287A7F" stroke-width="2" stroke-linecap="round" d="M 212.25 153.9 C 211.693 151.015 212.104 151.53 212 151.4 C 211.604 150.905 211.149 150.178 210.5 149.9 C 209.888 149.638 208.995 150.346 208.5 149.9 C 207.93 149.387 208.176 148.397 208 147.65 C 207.843 146.982 208.01 146.109 207.5 145.65 C 207.001 145.201 206.166 145.483 205.5 145.4 C 204.834 145.317 203.885 145.7 203.5 145.15 C 202.549 143.791 202.92 141.78 202 140.4 C 201.619 139.829 200.686 139.9 200 139.9 C 199.151 139.9 198.318 140.173 197.5 140.4 C 196.815 140.59 196.11 140.784 195.5 141.15 C 194.842 141.545 194.51 142.541 193.75 142.65 C 193.086 142.745 192.583 141.983 192 141.65 C 191.417 141.317 190.873 140.899 190.25 140.65 C 189.613 140.395 188.931 140.065 188.25 140.15 C 187.511 140.242 186.697 140.554 186.25 141.15 C 185.847 141.687 186.502 142.704 186 143.15 C 185.502 143.592 184.655 143.027 184 143.15 C 183.301 143.281 182.592 143.505 182 143.9 C 180.82 144.686 179.779 145.675 178.75 146.65 C 178.193 147.178 177.696 147.775 177.25 148.4 C 176.86 148.946 176.659 149.618 176.25 150.15 C 175.819 150.71 174.898 150.959 174.75 151.65 C 174.601 152.345 174.984 153.161 175.5 153.65 C 176.64 154.73 178.143 155.359 179.5 156.15 C 180.143 156.525 180.775 156.979 181.5 157.15 C 182.229 157.322 182.605 157.15 183.75 157.15 C 188.329 157.15 192.922 157.223 197.5 157.15 C 198.645 157.132 198.854 157.081 199.5 156.9 C 200.945 156.495 202.338 155.908 203.75 155.4 C 204.419 155.159 205.071 154.862 205.75 154.65 C 206.405 154.445 207.113 154.405 207.75 154.15 C 208.373 153.901 208.976 153.569 209.5 153.15 C 210.235 152.562 210.728 151.69 211.5 151.15 Z "/>
  <path id="ID0.7322682659141719" fill="#287A7F" stroke="#287A7F" stroke-width="2" stroke-linecap="round" d="M 229.75 154.1 C 230.307 151.215 229.896 151.73 230 151.6 C 230.396 151.105 230.851 150.378 231.5 150.1 C 232.112 149.838 233.005 150.546 233.5 150.1 C 234.07 149.587 233.824 148.597 234 147.85 C 234.157 147.182 233.99 146.309 234.5 145.85 C 234.999 145.401 235.834 145.683 236.5 145.6 C 237.166 145.517 238.115 145.9 238.5 145.35 C 239.451 143.991 239.08 141.98 240 140.6 C 240.381 140.029 241.314 140.1 242 140.1 C 242.849 140.1 243.682 140.373 244.5 140.6 C 245.185 140.79 245.89 140.984 246.5 141.35 C 247.158 141.745 247.49 142.741 248.25 142.85 C 248.914 142.945 249.417 142.183 250 141.85 C 250.583 141.517 251.127 141.099 251.75 140.85 C 252.387 140.595 253.069 140.265 253.75 140.35 C 254.489 140.442 255.303 140.754 255.75 141.35 C 256.153 141.887 255.498 142.904 256 143.35 C 256.498 143.792 257.345 143.227 258 143.35 C 258.699 143.481 259.408 143.705 260 144.1 C 261.18 144.886 262.221 145.875 263.25 146.85 C 263.807 147.378 264.304 147.975 264.75 148.6 C 265.14 149.146 265.341 149.818 265.75 150.35 C 266.181 150.91 267.102 151.159 267.25 151.85 C 267.399 152.545 267.016 153.361 266.5 153.85 C 265.36 154.93 263.857 155.559 262.5 156.35 C 261.857 156.725 261.225 157.179 260.5 157.35 C 259.771 157.522 259.395 157.35 258.25 157.35 C 253.671 157.35 249.078 157.423 244.5 157.35 C 243.355 157.332 243.146 157.281 242.5 157.1 C 241.055 156.695 239.662 156.108 238.25 155.6 C 237.581 155.359 236.929 155.062 236.25 154.85 C 235.595 154.645 234.887 154.605 234.25 154.35 C 233.627 154.101 233.024 153.769 232.5 153.35 C 231.765 152.762 231.272 151.89 230.5 151.35 Z "/>
  <path id="ID0.7322682659141719" fill="#287A7F" stroke="#287A7F" stroke-width="2" stroke-linecap="round" d="M 77.5 152.1 C 76.943 149.215 77.354 149.73 77.25 149.6 C 76.854 149.105 76.399 148.378 75.75 148.1 C 75.138 147.838 74.245 148.546 73.75 148.1 C 73.18 147.587 73.426 146.597 73.25 145.85 C 73.093 145.182 73.26 144.309 72.75 143.85 C 72.251 143.401 71.416 143.683 70.75 143.6 C 70.084 143.517 69.135 143.9 68.75 143.35 C 67.799 141.991 68.17 139.98 67.25 138.6 C 66.869 138.029 65.936 138.1 65.25 138.1 C 64.401 138.1 63.568 138.373 62.75 138.6 C 62.065 138.79 61.36 138.984 60.75 139.35 C 60.092 139.745 59.76 140.741 59 140.85 C 58.336 140.945 57.833 140.183 57.25 139.85 C 56.667 139.517 56.123 139.099 55.5 138.85 C 54.863 138.595 54.181 138.265 53.5 138.35 C 52.761 138.442 51.947 138.754 51.5 139.35 C 51.097 139.887 51.752 140.904 51.25 141.35 C 50.752 141.792 49.905 141.227 49.25 141.35 C 48.551 141.481 47.842 141.705 47.25 142.1 C 46.07 142.886 45.029 143.875 44 144.85 C 43.443 145.378 42.946 145.975 42.5 146.6 C 42.11 147.146 41.909 147.818 41.5 148.35 C 41.069 148.91 40.148 149.159 40 149.85 C 39.851 150.545 40.234 151.361 40.75 151.85 C 41.89 152.93 43.393 153.559 44.75 154.35 C 45.393 154.725 46.025 155.179 46.75 155.35 C 47.479 155.522 47.855 155.35 49 155.35 C 53.579 155.35 58.172 155.423 62.75 155.35 C 63.895 155.332 64.104 155.281 64.75 155.1 C 66.195 154.695 67.588 154.108 69 153.6 C 69.669 153.359 70.321 153.062 71 152.85 C 71.655 152.645 72.363 152.605 73 152.35 C 73.623 152.101 74.226 151.769 74.75 151.35 C 75.485 150.762 75.978 149.89 76.75 149.35 Z "/>
  <path id="ID0.7322682659141719" fill="#287A7F" stroke="#287A7F" stroke-width="2" stroke-linecap="round" d="M 525.25 144.2 C 524.693 141.315 525.104 141.83 525 141.7 C 524.604 141.205 524.149 140.478 523.5 140.2 C 522.888 139.938 521.995 140.646 521.5 140.2 C 520.93 139.687 521.176 138.697 521 137.95 C 520.843 137.282 521.01 136.409 520.5 135.95 C 520.001 135.501 519.166 135.783 518.5 135.7 C 517.834 135.617 516.885 136 516.5 135.45 C 515.549 134.091 515.92 132.08 515 130.7 C 514.619 130.129 513.686 130.2 513 130.2 C 512.151 130.2 511.318 130.473 510.5 130.7 C 509.815 130.89 509.11 131.084 508.5 131.45 C 507.842 131.845 507.51 132.841 506.75 132.95 C 506.086 133.045 505.583 132.283 505 131.95 C 504.417 131.617 503.873 131.199 503.25 130.95 C 502.613 130.695 501.931 130.365 501.25 130.45 C 500.511 130.542 499.697 130.854 499.25 131.45 C 498.847 131.987 499.502 133.004 499 133.45 C 498.502 133.892 497.655 133.327 497 133.45 C 496.301 133.581 495.592 133.805 495 134.2 C 493.82 134.986 492.779 135.975 491.75 136.95 C 491.193 137.478 490.696 138.075 490.25 138.7 C 489.86 139.246 489.659 139.918 489.25 140.45 C 488.819 141.01 487.898 141.259 487.75 141.95 C 487.601 142.645 487.984 143.461 488.5 143.95 C 489.64 145.03 491.143 145.659 492.5 146.45 C 493.143 146.825 493.775 147.279 494.5 147.45 C 495.229 147.622 495.605 147.45 496.75 147.45 C 501.329 147.45 505.922 147.523 510.5 147.45 C 511.645 147.432 511.854 147.381 512.5 147.2 C 513.945 146.795 515.338 146.208 516.75 145.7 C 517.419 145.459 518.071 145.162 518.75 144.95 C 519.405 144.745 520.113 144.705 520.75 144.45 C 521.373 144.201 521.976 143.869 522.5 143.45 C 523.235 142.862 523.728 141.99 524.5 141.45 Z "/>
  <g id="ID0.7524295561015606">
    <path id="ID0.6570757920853794" fill="#287A7F" stroke="#287A7F" stroke-width="1.4756672382354736" stroke-linecap="round" d="M 76.9641 142.2455 C 77.1833 141.9496 76.3517 141.4988 75.4885 141.1387 C 74.8775 140.8841 74.2895 140.5447 73.6439 140.4009 C 73.1643 140.2946 72.0502 140.7558 72.1682 140.4009 C 72.4191 139.649 73.9943 139.1554 74.3817 138.1874 C 74.5861 137.6775 73.9353 137.1773 73.6439 136.7117 C 73.3185 136.1908 72.937 135.7023 72.5371 135.236 C 72.1977 134.8406 71.3367 134.5034 71.4304 134.1293 C 71.5211 133.7655 72.4036 133.8231 72.906 133.7604 C 73.3937 133.6991 73.9552 134.0038 74.3817 133.7604 C 74.9152 133.4556 75.214 132.8344 75.4885 132.2847 C 75.715 131.8317 75.4995 131.1669 75.8574 130.809 C 76.2152 130.4512 76.8306 130.5028 77.333 130.4401 C 77.8208 130.3789 78.4612 130.7876 78.8087 130.4401 C 79.1562 130.0926 78.4612 129.312 78.8087 128.9644 C 79.2514 128.5217 80.0306 128.5262 80.6533 128.5955 C 81.1993 128.656 81.5852 129.4108 82.129 129.3334 C 82.6447 129.2596 82.8115 128.5299 83.2357 128.2266 C 83.6828 127.9071 84.1661 127.5567 84.7114 127.4888 C 85.2138 127.4261 85.717 127.6695 86.187 127.8577 C 86.9522 128.1639 87.6354 128.6582 88.4005 128.9644 C 88.8705 129.1526 89.3848 129.4558 89.8762 129.3334 C 90.4724 129.1843 90.7771 128.4421 91.3519 128.2266 C 91.8123 128.054 92.3362 128.2266 92.8275 128.2266 C 94.3017 128.2266 95.7804 128.2266 97.2545 128.2266 C 98.2373 128.2266 99.2268 128.1447 100.2059 128.2266 C 100.7106 128.2687 101.2071 128.4177 101.6816 128.5955 C 102.1958 128.7881 102.8053 128.9113 103.1572 129.3334 C 103.4811 129.7222 103.1373 130.4851 103.5261 130.809 C 104.0072 131.2104 104.745 131.1529 105.3707 131.1779 C 107.8255 131.2761 110.2921 131.1779 112.7491 131.1779 C 113.3629 131.1779 113.7732 130.9846 114.2247 131.1779 C 114.7036 131.3831 115.0732 131.8324 115.3315 132.2847 C 115.5831 132.7244 115.4488 133.3206 115.7004 133.7604 C 115.9586 134.2127 116.602 134.3883 116.8071 134.8671 C 117.0005 135.3187 117.0005 135.8912 116.8071 136.3428 C 116.602 136.8216 116.0929 137.1064 115.7004 137.4495 C 115.1086 137.9675 114.5745 138.6057 113.8558 138.9252 C 113.4065 139.1244 112.8715 138.9252 112.3801 138.9252 C 111.8887 138.9252 110.9045 138.6795 110.9045 138.9252 C 110.9045 139.2019 111.8305 139.7575 112.3801 140.0319 C 112.8332 140.2585 113.7651 140.0371 113.8558 140.4009 C 113.9495 140.7749 113.0073 141.0553 112.7491 141.5076 C 112.4975 141.9474 112.8228 142.7376 112.3801 142.9833 C 111.5147 143.4644 110.419 143.3522 109.4288 143.3522 C 108.9227 143.3522 108.4556 142.9206 107.9531 142.9833 C 107.4079 143.0512 107.0227 143.6532 106.4775 143.7211 C 105.975 143.7838 105.4762 143.53 105.0018 143.3522 C 104.4875 143.1596 104.0057 142.4225 103.5261 142.6144 C 103.0834 142.7914 103.6582 144.0133 103.1572 144.09 C 101.6801 144.3173 100.2133 143.5374 98.7302 143.3522 C 98.2425 143.291 97.7061 143.1589 97.2545 143.3522 C 96.7757 143.5573 96.5721 144.1557 96.1478 144.459 C 95.7007 144.7784 95.2159 145.2743 94.6721 145.1968 C 94.1564 145.123 93.8236 144.5423 93.5654 144.09 C 93.3138 143.6503 93.5919 142.9309 93.1965 142.6144 C 92.8128 142.3074 92.0683 142.2668 91.7208 142.6144 C 91.3733 142.9619 92.0905 143.7661 91.7208 144.09 C 90.9306 144.7814 89.8098 145.3355 88.7695 145.1968 C 87.7217 145.0573 86.9345 144.0996 86.187 143.3522 C 85.7982 142.9634 85.8845 141.8765 85.4492 141.8765 C 84.9622 141.8765 84.6678 142.8313 84.3425 143.3522 C 84.051 143.8178 84.0267 144.4759 83.6046 144.8279 C 83.2158 145.1518 82.582 145.4233 82.129 145.1968 C 81.6376 144.9511 81.5837 144.2354 81.3911 143.7211 C 81.2133 143.2467 81.2738 142.6852 81.0222 142.2455 C 80.764 141.7932 80.4364 141.1387 79.9155 141.1387 C 79.3945 141.1387 79.2558 141.9776 78.8087 142.2455 C 78.5977 142.3716 78.304 142.3229 78.0709 142.2455 Z "/>
    <path id="ID0.30618046782910824" fill="none" stroke="#287A7F" stroke-width="2.9513344764709473" stroke-linecap="round" d="M 106.4835 141.1805 C 106.4835 141.1805 105.1001 143.4634 104.27 144.5008 C 103.6185 145.3146 102.8224 146.0074 102.0565 146.7143 C 101.2242 147.4824 100.2746 148.1272 99.4741 148.9278 C 98.6735 149.7283 97.8885 150.568 97.2606 151.5102 C 96.6511 152.4244 96.3501 153.5193 95.7849 154.4615 C 95.2411 155.3676 94.3506 156.07 93.9403 157.044 C 93.3508 158.4444 92.8336 161.471 92.8336 161.471 "/>
    <path id="ID0.8843724299222231" fill="none" stroke="#287A7F" stroke-width="2.9513344764709473" stroke-linecap="round" d="M 89.8823 160.3642 C 89.8823 160.3642 90.1619 155.1979 90.2512 152.617 C 90.2851 151.6349 90.1361 150.6418 90.2512 149.6656 C 90.3832 148.5404 90.8097 147.4639 90.989 146.3454 C 91.3018 144.3894 91.5298 142.4135 91.7268 140.4427 C 91.7763 139.9498 91.7268 138.967 91.7268 138.967 "/>
    <path id="ID0.13546682987362146" fill="none" stroke="#287A7F" stroke-width="2.9513344764709473" stroke-linecap="round" d="M 88.7755 150.4035 C 88.7755 150.4035 87.0254 148.958 86.1931 148.19 C 85.4272 147.4831 84.5433 146.853 83.9796 145.9765 C 83.4122 145.0933 83.1746 144.0308 82.8728 143.0251 C 82.7976 142.7735 82.8728 142.2873 82.8728 142.2873 "/>
  </g>
  <path id="ID0.6887619853951037" fill="#287A7F" stroke="#287A7F" stroke-width="2" stroke-linecap="round" d="M 128.75 146.25 C 129.576 146.191 129.134 145.047 129.25 144 C 129.328 143.298 130.101 142.778 130.75 142.5 C 131.362 142.238 132.196 142.869 132.75 142.5 C 133.37 142.087 133.317 141.106 133.75 140.5 C 134.161 139.925 134.9 139.613 135.25 139 C 135.591 138.404 135.338 137.549 135.75 137 C 136.153 136.463 136.935 136.363 137.5 136 C 138.102 135.613 138.667 135.166 139.25 134.75 C 139.833 134.334 140.294 133.382 141 133.5 C 141.706 133.618 141.566 135.039 142.25 135.25 C 142.93 135.459 143.605 134.801 144.25 134.5 C 144.858 134.216 145.426 133.213 146 133.5 C 146.676 133.838 146.527 134.992 146.75 135.75 C 146.944 136.409 146.778 137.691 147.25 137.75 C 147.778 137.816 148.389 136.677 148.75 136 C 149.073 135.394 148.647 134.329 149.25 134 C 149.924 133.632 150.854 134.085 151.5 134.5 C 152.102 134.887 152.805 135.536 152.75 136.25 C 152.696 136.954 151.081 137.129 151.25 137.75 C 151.456 138.504 152.701 138.689 153.5 139 C 154.215 139.278 155.184 138.981 155.75 139.5 C 156.332 140.034 156.363 140.972 156.5 141.75 C 156.616 142.406 156.008 143.381 156.5 143.75 C 157.008 144.131 157.815 143.207 158.5 143.25 C 159.21 143.294 159.954 143.545 160.5 144 C 161.016 144.43 161.368 145.092 161.5 145.75 C 161.632 146.408 161.749 147.301 161.25 147.75 C 160.69 148.254 159.75 147.921 159 148 C 158.168 148.088 157.334 148.186 156.5 148.25 C 155.169 148.352 153.824 148.334 152.5 148.5 C 151.819 148.585 151.182 149.076 150.5 149 C 148.874 148.819 147.358 148.048 145.75 147.75 C 145.095 147.629 144.405 147.873 143.75 147.75 C 143.051 147.619 142.44 147.173 141.75 147 C 141.099 146.837 140.416 146.833 139.75 146.75 C 139.084 146.667 138.42 146.542 137.75 146.5 C 137.085 146.458 136.416 146.5 135.75 146.5 C 135.084 146.5 134.411 146.417 133.75 146.5 C 133.069 146.585 132.43 146.903 131.75 147 C 131.256 147.071 130.57 147.384 130.25 147 Z "/>
  <g id="ID0.03272360377013683">
    <path id="ID0.18419262021780014" fill="#287A7F" stroke="#287A7F" stroke-width="0.6619767258227018" stroke-linecap="round" d="M 475.9296 123.755 C 475.7133 123.4329 475.6526 124.0252 475.3942 124.5121 C 475.2878 124.7053 474.9837 124.7804 474.8588 124.9663 C 474.7374 125.1468 474.7667 125.3775 474.6803 125.5719 C 474.5868 125.7833 474.4311 125.9716 474.3233 126.1776 C 474.1934 126.4259 474.1313 126.702 473.9664 126.9346 C 473.7708 127.2114 473.4481 127.4149 473.2525 127.6916 C 473.0876 127.9242 473.0655 128.2185 472.8956 128.4487 C 472.7621 128.6303 472.5065 128.7291 472.3601 128.9029 C 472.2059 129.0864 472.1217 129.3068 472.0032 129.5085 C 471.8847 129.7102 471.7305 129.9003 471.6462 130.1141 C 471.5506 130.3582 471.557 130.6253 471.4678 130.8712 C 471.3186 131.283 471.128 131.6845 470.9323 132.0824 C 470.8303 132.2908 470.6332 132.4682 470.5754 132.688 C 470.5112 132.9339 470.6397 133.1992 470.5754 133.4451 C 470.5176 133.6649 470.312 133.8393 470.2185 134.0507 C 470.1321 134.2451 469.93 134.4704 470.04 134.6563 C 470.1585 134.858 470.5376 134.8283 470.7539 134.9591 C 470.9588 135.0833 471.1901 135.2165 471.2893 135.4134 C 471.3828 135.5987 471.3186 135.8191 471.2893 136.019 C 471.2586 136.2255 471.1701 136.4229 471.1108 136.6246 C 471.0516 136.8263 470.9852 137.0274 470.9323 137.2303 C 470.8667 137.481 470.8131 137.7353 470.7539 137.9873 C 470.6946 138.2392 470.6411 138.4936 470.5754 138.7443 C 470.5226 138.9472 470.4276 139.1434 470.3969 139.3499 C 470.3677 139.5498 470.4548 139.76 470.3969 139.9556 C 470.3327 140.1742 470.1042 140.3426 470.04 140.5612 C 469.9822 140.7568 470.04 140.9652 470.04 141.1668 C 470.04 141.3685 470.0978 141.5768 470.04 141.7725 C 469.9757 141.9911 469.7473 142.1595 469.683 142.3781 C 469.6252 142.5737 469.7094 142.7832 469.683 142.9837 C 469.6495 143.2393 469.5702 143.49 469.5046 143.7407 C 469.4517 143.9436 469.3568 144.1399 469.3261 144.3464 C 469.2968 144.5462 469.3554 144.7521 469.3261 144.952 C 469.2954 145.1585 469.234 145.3632 469.1476 145.5576 C 469.0541 145.769 468.7528 145.9398 468.7907 146.1633 C 468.8264 146.3752 469.2269 146.4206 469.3261 146.6175 C 469.4196 146.8028 469.3525 147.0226 469.3261 147.2231 C 469.2925 147.4787 469.1812 147.7246 469.1476 147.9801 C 469.1212 148.1806 469.2054 148.3901 469.1476 148.5858 C 469.0834 148.8044 468.8842 148.98 468.7907 149.1914 C 468.7043 149.3858 468.6986 149.6026 468.6122 149.797 C 468.5187 150.0084 468.3738 150.201 468.2553 150.4026 C 468.1367 150.6043 468.0525 150.8248 467.8983 151.0083 C 467.752 151.1821 467.4757 151.2711 467.3629 151.4625 C 467.2272 151.6926 467.2501 151.9688 467.1844 152.2195 C 467.1316 152.4224 467.0923 152.6307 467.0059 152.8252 C 466.9124 153.0365 466.5648 153.217 466.649 153.4308 C 466.7332 153.6446 467.1052 153.6791 467.3629 153.7336 C 467.5935 153.7826 467.8412 153.7088 468.0768 153.7336 C 468.3202 153.7596 468.5472 153.859 468.7907 153.885 C 469.0263 153.9098 469.274 153.8359 469.5046 153.885 C 469.7623 153.9395 469.9607 154.1333 470.2185 154.1878 C 470.449 154.2369 470.6968 154.163 470.9323 154.1878 C 471.1758 154.2139 471.4028 154.3162 471.6462 154.3392 C 471.9418 154.3671 472.2431 154.3114 472.5386 154.3392 C 472.782 154.3622 473.0091 154.4646 473.2525 154.4906 C 473.4881 154.5155 473.7308 154.4658 473.9664 154.4906 C 474.2098 154.5167 474.4426 154.5918 474.6803 154.642 C 474.918 154.6923 475.1507 154.7674 475.3942 154.7934 C 475.6298 154.8183 475.8775 154.7444 476.1081 154.7934 C 476.3658 154.8479 476.5642 155.0417 476.822 155.0963 C 477.0525 155.1453 477.2981 155.0963 477.5358 155.0963 C 477.7736 155.0963 478.012 155.0963 478.2497 155.0963 C 478.4875 155.0963 478.7259 155.0963 478.9636 155.0963 C 479.2014 155.0963 479.4398 155.0963 479.6775 155.0963 C 479.9745 155.0963 480.2729 155.0963 480.5699 155.0963 C 480.8076 155.0963 481.0461 155.0963 481.2838 155.0963 C 481.5808 155.0963 481.8792 155.0963 482.1761 155.0963 C 482.4731 155.0963 482.8108 155.2216 483.0685 155.0963 C 483.2991 154.9842 483.3612 154.7093 483.4255 154.4906 C 483.4833 154.295 483.4519 154.0855 483.4255 153.885 C 483.3919 153.6294 483.3062 153.3799 483.247 153.128 C 483.1877 152.876 483.1342 152.6217 483.0685 152.3709 C 483.0157 152.168 482.9207 151.9718 482.89 151.7653 C 482.8608 151.5654 482.9414 151.3565 482.89 151.1597 C 482.8208 150.8944 482.6345 150.66 482.5331 150.4026 C 482.4553 150.2052 482.4139 149.9987 482.3546 149.797 C 482.2954 149.5953 482.2354 149.3931 482.1761 149.1914 C 482.1169 148.9897 482.0841 148.7802 481.9977 148.5858 C 481.9042 148.3744 481.5465 148.14 481.6407 147.9801 C 481.725 147.8372 482.2226 148.1291 482.3546 147.9801 C 482.4903 147.8263 482.2975 147.555 482.1761 147.3745 C 482.0512 147.1886 481.7657 147.1062 481.6407 146.9203 C 481.5194 146.7398 481.5615 146.5048 481.4623 146.3147 C 481.3216 146.0458 481.0675 145.8265 480.9268 145.5576 C 480.8276 145.3675 480.8347 145.1464 480.7484 144.952 C 480.6548 144.7406 480.4849 144.5577 480.3914 144.3464 C 480.305 144.152 480.2908 143.9382 480.2129 143.7407 C 480.1116 143.4834 479.9252 143.249 479.856 142.9837 C 479.8046 142.7869 479.6875 142.4495 479.856 142.3781 C 480.0445 142.2981 480.3207 142.6016 480.5699 142.6809 C 480.7991 142.7542 481.0646 142.9256 481.2838 142.8323 C 481.5215 142.7318 481.5765 142.4453 481.6407 142.2267 C 481.6986 142.0311 481.6986 141.8167 481.6407 141.621 C 481.5765 141.4024 481.438 141.1989 481.2838 141.0154 C 481.1374 140.8416 480.8947 140.735 480.7484 140.5612 C 480.5942 140.3777 480.5321 140.147 480.3914 139.9556 C 480.2336 139.7418 479.9888 139.5752 479.856 139.3499 C 479.7461 139.164 479.7875 138.9302 479.6775 138.7443 C 479.5447 138.519 479.2628 138.3688 479.1421 138.1387 C 479.0193 137.9037 479.0593 137.6257 478.9636 137.3817 C 478.8794 137.1679 478.7002 136.9874 478.6067 136.776 C 478.5203 136.5816 478.2754 136.3327 478.4282 136.1704 C 478.6174 135.9699 479.0193 136.0475 479.3206 136.019 C 479.5569 135.9966 479.7967 136.019 480.0345 136.019 C 480.2722 136.019 480.6163 136.1868 480.7484 136.019 C 480.9461 135.7671 480.8069 135.4091 480.7484 135.1106 C 480.6863 134.7962 480.4992 134.5074 480.3914 134.2021 C 480.3207 134.0029 480.2993 133.7909 480.2129 133.5965 C 480.1194 133.3851 479.9202 133.2095 479.856 132.9909 C 479.7982 132.7952 479.856 132.5869 479.856 132.3852 C 479.856 132.1836 479.9074 131.9764 479.856 131.7796 C 479.7868 131.5143 479.6176 131.2745 479.4991 131.0226 C 479.3805 130.7706 479.2606 130.5175 479.1421 130.2655 C 479.0236 130.0136 478.8865 129.7659 478.7852 129.5085 C 478.7073 129.3111 478.6659 129.1046 478.6067 128.9029 C 478.5474 128.7012 478.4875 128.4989 478.4282 128.2972 C 478.369 128.0956 478.309 127.8933 478.2497 127.6916 C 478.1905 127.4899 478.1305 127.2877 478.0713 127.086 C 478.012 126.8843 477.952 126.682 477.8928 126.4804 C 477.8335 126.2787 477.7736 126.0764 477.7143 125.8747 C 477.6551 125.6731 477.6222 125.4635 477.5358 125.2691 C 477.4423 125.0577 477.2974 124.8652 477.1789 124.6635 C 477.0604 124.4618 476.9762 124.2414 476.822 124.0579 C 476.6756 123.884 476.4115 123.7896 476.2865 123.6036 C 476.1652 123.4232 476.1987 123.1912 476.1081 122.998 C 476.0767 122.932 475.9838 122.7321 475.9296 122.8466 Z "/>
    <path id="ID0.8145076674409211" fill="#287A7F" stroke="none" d="M 473.2511 150.8358 L 476.6421 150.8358 L 476.6421 164.7567 L 473.2511 164.7567 L 473.2511 150.8358 Z " stroke-width="0.7138921618461609"/>
  </g>
  <path id="ID0.6887619853951037" fill="#287A7F" stroke="#287A7F" stroke-width="2" stroke-linecap="round" d="M 344.85 147.5 C 345.676 147.441 345.234 146.297 345.35 145.25 C 345.428 144.548 346.201 144.028 346.85 143.75 C 347.462 143.488 348.296 144.119 348.85 143.75 C 349.47 143.337 349.417 142.356 349.85 141.75 C 350.261 141.175 351 140.863 351.35 140.25 C 351.691 139.654 351.438 138.799 351.85 138.25 C 352.253 137.713 353.035 137.613 353.6 137.25 C 354.202 136.863 354.767 136.416 355.35 136 C 355.933 135.584 356.394 134.632 357.1 134.75 C 357.806 134.868 357.666 136.289 358.35 136.5 C 359.03 136.709 359.705 136.051 360.35 135.75 C 360.958 135.466 361.526 134.463 362.1 134.75 C 362.776 135.088 362.627 136.242 362.85 137 C 363.044 137.659 362.878 138.941 363.35 139 C 363.878 139.066 364.489 137.927 364.85 137.25 C 365.173 136.644 364.747 135.579 365.35 135.25 C 366.024 134.882 366.954 135.335 367.6 135.75 C 368.202 136.137 368.905 136.786 368.85 137.5 C 368.796 138.204 367.181 138.379 367.35 139 C 367.556 139.754 368.801 139.939 369.6 140.25 C 370.315 140.528 371.284 140.231 371.85 140.75 C 372.432 141.284 372.463 142.222 372.6 143 C 372.716 143.656 372.108 144.631 372.6 145 C 373.108 145.381 373.915 144.457 374.6 144.5 C 375.31 144.544 376.054 144.795 376.6 145.25 C 377.116 145.68 377.468 146.342 377.6 147 C 377.732 147.658 377.849 148.551 377.35 149 C 376.79 149.504 375.85 149.171 375.1 149.25 C 374.268 149.338 373.434 149.436 372.6 149.5 C 371.269 149.602 369.924 149.584 368.6 149.75 C 367.919 149.835 367.282 150.326 366.6 150.25 C 364.974 150.069 363.458 149.298 361.85 149 C 361.195 148.879 360.505 149.123 359.85 149 C 359.151 148.869 358.54 148.423 357.85 148.25 C 357.199 148.087 356.516 148.083 355.85 148 C 355.184 147.917 354.52 147.792 353.85 147.75 C 353.185 147.708 352.516 147.75 351.85 147.75 C 351.184 147.75 350.511 147.667 349.85 147.75 C 349.169 147.835 348.53 148.153 347.85 148.25 C 347.356 148.321 346.67 148.634 346.35 148.25 Z "/>
  <path id="ID0.03321666643023491" fill="url(#grad_2-,0,0,1,19,0)" stroke="none" d="M 19 167.5 L 499 167.5 L 499 360 L 19 360 L 19 167.5 Z " stroke-width="1"/>
  <path id="ID0.7998434491455555" fill="url(#grad_3-,0,0,1.153571367263794,19,-55.25)" stroke="none" stroke-linecap="round" d="M 0 206.6107 L 316.5 198.5357 L 505.5 209.4946 L 499 360.0357 L 19 360.0357 L 0 206.6107 Z " stroke-width="1.0795200089324095"/>
  <path id="ID0.6556480447761714" fill="#2B673E" stroke="#2B673E" stroke-width="2" stroke-linecap="round" d="M 261.75 167.95 C 263.247 167.513 264.851 166.841 265.5 165.55 C 265.868 164.782 264.25 164.435 263.8 163.8 C 263.161 162.905 262.604 161.883 262.4 160.8 C 262.256 160.036 263.154 158.533 262.8 158.5 C 262.434 158.466 261.307 160.828 260.8 160.65 C 260.307 160.478 261.189 158.665 260.8 157.8 C 260.508 157.151 259.709 156.703 259 156.65 C 258.217 156.591 257.363 156.953 256.8 157.5 C 256.084 158.196 256.028 159.96 255.4 160.15 C 254.953 160.285 255.31 158.414 254.65 158.15 C 253.71 157.774 252.613 158.337 251.65 158.65 C 250.545 159.009 249.52 159.593 248.5 160.15 C 247.9 160.478 247.38 161.51 246.8 161.3 C 246.205 161.085 246.747 159.667 246.15 159.3 C 245.34 158.803 244.231 158.959 243.3 159.15 C 242.388 159.337 241.717 160.557 240.8 160.4 C 240.044 160.271 240.186 158.843 239.5 158.5 C 238.695 158.098 237.596 157.98 236.8 158.4 C 236.154 158.741 236.188 160.455 235.9 160.4 C 235.612 160.345 236.095 158.52 235.5 158.15 C 234.97 157.82 234.107 158.499 233.65 159 C 233.171 159.525 233.535 161.039 232.9 161 C 231.91 160.939 231.427 159.218 230.4 158.8 C 229.506 158.436 228.436 158.563 227.5 158.8 C 226.788 158.98 226.323 160.294 225.65 160 C 224.085 159.317 223.586 157.031 222 156.4 C 221.376 156.152 221.229 157.519 221 158.15 C 220.691 159 220.964 160.572 220.4 160.8 C 219.914 160.997 219.537 159.45 218.9 159 C 218.246 158.538 217.447 158.075 216.65 158.15 C 215.868 158.224 215.272 158.921 214.65 159.4 C 213.819 160.04 213.265 161.088 212.3 161.5 C 211.221 161.961 209.82 161.32 208.8 161.9 C 208.139 162.276 207.608 163.363 207.9 164 C 208.158 164.563 209.94 163.902 209.9 164.3 C 207.899 166.003 207.455 167.125 207.95 168 C 208.372 168.691 209.731 168.163 210.8 168.15 C 216.578 167.798 220.705 167.886 225.15 167.8 C 226.331 167.778 227.483 167.65 228.65 167.65 C 230.699 167.65 232.759 167.62 234.8 167.8 C 235.605 167.871 236.354 168.261 237.15 168.4 C 237.974 168.544 238.814 168.669 239.65 168.65 C 242.435 168.586 245.218 168.281 248 168.15 C 248.765 168.114 249.534 168.175 250.3 168.15 C 251.084 168.125 251.866 167.975 252.65 168 C 253.438 168.025 254.211 168.311 255 168.3 C 257.238 168.266 259.59 168.561 261.75 167.95 Z "/>
  <path id="ID0.8410096536390483" fill="#2B673E" stroke="#2B673E" stroke-width="1.5980629920959473" stroke-linecap="round" d="M 201.3891 168.8263 C 202.1546 168.4332 202.8801 167.8706 203.4266 167.1084 C 203.7399 166.6705 203.9628 165.9593 203.6663 165.5103 C 203.3715 165.0636 202.642 165.062 202.1082 165.1108 C 201.5689 165.1603 201.0775 166.0329 200.63 165.79 C 200.1586 165.5335 200.4974 164.637 200.2705 164.112 C 200.0228 163.5399 199.8166 162.7688 199.2317 162.5539 C 198.6788 162.3509 198.1418 163.1396 197.5538 163.1132 C 196.897 163.0836 196.177 162.8623 195.716 162.3941 C 195.2941 161.965 195.3668 161.2395 195.1567 160.6762 C 194.9545 160.1344 194.9233 159.4456 194.4775 159.0781 C 194.0604 158.7345 193.39 158.6226 192.8794 158.7984 C 192.3712 158.9726 192.0732 159.5343 191.8007 159.997 C 191.5299 160.4572 191.6257 161.4856 191.2814 161.5151 C 190.9266 161.5455 190.7148 160.5691 190.4024 160.1168 C 190.0892 159.6638 189.9246 158.9774 189.4036 158.7984 C 188.8939 158.6234 188.2778 158.9159 187.8455 159.2379 C 187.3845 159.5823 187.3709 160.3653 186.8867 160.6762 C 186.3993 160.9894 185.7361 161.0733 185.1688 160.9558 C 184.4464 160.8064 183.9207 160.1208 183.2111 159.9171 C 182.6358 159.7517 181.9503 159.6126 181.4133 159.8771 C 180.8836 160.1384 180.9123 161.0701 180.3746 161.3154 C 179.8624 161.5487 179.2216 160.9135 178.6966 161.1156 C 177.6802 161.5071 176.9939 162.5067 176.0199 162.9933 C 175.3966 163.305 174.6631 163.3233 173.9823 163.4728 C 173.4526 163.5894 172.5561 163.3449 172.3843 163.7924 C 172.1965 164.2838 172.7758 165.0077 173.2632 165.3505 C 173.8097 165.7348 175.0195 165.3241 175.2208 165.79 C 175.399 166.2031 174.3019 166.585 174.0223 167.1084 C 173.765 167.5894 173.3751 168.243 173.6627 168.7064 C 173.952 169.1723 174.719 169.0204 175.2608 169.1059 C 175.8137 169.1938 176.3802 169.1826 176.9387 169.2258 C 177.5908 169.2761 178.2428 169.4144 178.8964 169.3856 C 180.3394 169.3209 181.7697 169.0396 183.2111 168.9461 C 184.0341 168.8926 184.8635 168.9597 185.6881 168.9461 C 187.2582 168.9198 188.8323 168.8359 190.4024 168.8263 C 190.9617 168.8231 191.5211 168.887 192.0804 168.9062 C 192.7052 168.927 193.3325 168.9397 193.9581 168.9461 C 194.6501 168.9533 195.3444 168.9174 196.0356 168.9461 C 196.6229 168.9709 197.207 169.0708 197.7935 169.1059 C 198.3248 169.1379 198.8602 169.1786 199.3915 169.1459 C 200.014 169.1059 200.7619 169.1363 201.3891 168.8263 Z "/>
  <path id="ID0.8410096536390483" fill="#2B673E" stroke="#2B673E" stroke-width="1.5980629920959473" stroke-linecap="round" d="M 172.5891 168.6763 C 173.3546 168.2832 174.0801 167.7206 174.6266 166.9584 C 174.9399 166.5205 175.1628 165.8093 174.8663 165.3603 C 174.5715 164.9136 173.842 164.912 173.3082 164.9608 C 172.7689 165.0103 172.2775 165.8829 171.83 165.64 C 171.3586 165.3835 171.6974 164.487 171.4705 163.962 C 171.2228 163.3899 171.0166 162.6188 170.4317 162.4039 C 169.8788 162.2009 169.3418 162.9896 168.7538 162.9632 C 168.097 162.9336 167.377 162.7123 166.916 162.2441 C 166.4941 161.815 166.5668 161.0895 166.3567 160.5262 C 166.1545 159.9844 166.1233 159.2956 165.6775 158.9281 C 165.2604 158.5845 164.59 158.4726 164.0794 158.6484 C 163.5712 158.8226 163.2732 159.3843 163.0007 159.847 C 162.7299 160.3072 162.8257 161.3356 162.4814 161.3651 C 162.1266 161.3955 161.9148 160.4191 161.6024 159.9668 C 161.2892 159.5138 161.1246 158.8274 160.6036 158.6484 C 160.0939 158.4734 159.4778 158.7659 159.0455 159.0879 C 158.5845 159.4323 158.5709 160.2153 158.0867 160.5262 C 157.5993 160.8394 156.9361 160.9233 156.3688 160.8058 C 155.6464 160.6564 155.1207 159.9708 154.4111 159.7671 C 153.8358 159.6017 153.1503 159.4626 152.6133 159.7271 C 152.0836 159.9884 152.1123 160.9201 151.5746 161.1654 C 151.0624 161.3987 150.4216 160.7635 149.8966 160.9656 C 148.8802 161.3571 148.1939 162.3567 147.2199 162.8433 C 146.5966 163.155 145.8631 163.1733 145.1823 163.3228 C 144.6526 163.4394 143.7561 163.1949 143.5843 163.6424 C 143.3965 164.1338 143.9758 164.8577 144.4632 165.2005 C 145.0097 165.5848 146.2195 165.1741 146.4208 165.64 C 146.599 166.0531 145.5019 166.435 145.2223 166.9584 C 144.965 167.4394 144.5751 168.093 144.8627 168.5564 C 145.152 169.0223 145.919 168.8704 146.4608 168.9559 C 147.0137 169.0438 147.5802 169.0326 148.1387 169.0758 C 148.7908 169.1261 149.4428 169.2644 150.0964 169.2356 C 151.5394 169.1709 152.9697 168.8896 154.4111 168.7961 C 155.2341 168.7426 156.0635 168.8097 156.8881 168.7961 C 158.4582 168.7698 160.0323 168.6859 161.6024 168.6763 C 162.1617 168.6731 162.7211 168.737 163.2804 168.7562 C 163.9052 168.777 164.5325 168.7897 165.1581 168.7961 C 165.8501 168.8033 166.5444 168.7674 167.2356 168.7961 C 167.8229 168.8209 168.407 168.9208 168.9935 168.9559 C 169.5248 168.9879 170.0602 169.0286 170.5915 168.9959 C 171.214 168.9559 171.9619 168.9863 172.5891 168.6763 Z "/>
  <path id="ID0.6556480447761714" fill="#2B673E" stroke="#2B673E" stroke-width="2" stroke-linecap="round" d="M 130.7 169.95 C 132.197 169.513 133.801 168.841 134.45 167.55 C 134.818 166.782 133.2 166.435 132.75 165.8 C 132.111 164.905 131.554 163.883 131.35 162.8 C 131.206 162.036 132.104 160.533 131.75 160.5 C 131.384 160.466 130.257 162.828 129.75 162.65 C 129.257 162.478 130.139 160.665 129.75 159.8 C 129.458 159.151 128.659 158.703 127.95 158.65 C 127.167 158.591 126.313 158.953 125.75 159.5 C 125.034 160.196 124.978 161.96 124.35 162.15 C 123.903 162.285 124.26 160.414 123.6 160.15 C 122.66 159.774 121.563 160.337 120.6 160.65 C 119.495 161.009 118.47 161.593 117.45 162.15 C 116.85 162.478 116.33 163.51 115.75 163.3 C 115.155 163.085 115.697 161.667 115.1 161.3 C 114.29 160.803 113.181 160.959 112.25 161.15 C 111.338 161.337 110.667 162.557 109.75 162.4 C 108.994 162.271 109.136 160.843 108.45 160.5 C 107.645 160.098 106.546 159.98 105.75 160.4 C 105.104 160.741 105.138 162.455 104.85 162.4 C 104.562 162.345 105.045 160.52 104.45 160.15 C 103.92 159.82 103.057 160.499 102.6 161 C 102.121 161.525 102.485 163.039 101.85 163 C 100.86 162.939 100.377 161.218 99.35 160.8 C 98.456 160.436 97.386 160.563 96.45 160.8 C 95.738 160.98 95.273 162.294 94.6 162 C 93.035 161.317 92.536 159.031 90.95 158.4 C 90.326 158.152 90.179 159.519 89.95 160.15 C 89.641 161 89.914 162.572 89.35 162.8 C 88.864 162.997 88.487 161.45 87.85 161 C 87.196 160.538 86.397 160.075 85.6 160.15 C 84.818 160.224 84.222 160.921 83.6 161.4 C 82.769 162.04 82.215 163.088 81.25 163.5 C 80.171 163.961 78.77 163.32 77.75 163.9 C 77.089 164.276 76.558 165.363 76.85 166 C 77.108 166.563 78.89 165.902 78.85 166.3 C 76.849 168.003 76.405 169.125 76.9 170 C 77.322 170.691 78.681 170.163 79.75 170.15 C 85.528 169.798 89.655 169.886 94.1 169.8 C 95.281 169.778 96.433 169.65 97.6 169.65 C 99.649 169.65 101.709 169.62 103.75 169.8 C 104.555 169.871 105.304 170.261 106.1 170.4 C 106.924 170.544 107.764 170.669 108.6 170.65 C 111.385 170.586 114.168 170.281 116.95 170.15 C 117.715 170.114 118.484 170.175 119.25 170.15 C 120.034 170.125 120.816 169.975 121.6 170 C 122.388 170.025 123.161 170.311 123.95 170.3 C 126.188 170.266 128.54 170.561 130.7 169.95 Z "/>
  <path id="ID0.6556480447761714" fill="#2B673E" stroke="#2B673E" stroke-width="2" stroke-linecap="round" d="M 56.25 169.45 C 57.747 169.013 59.351 168.341 60 167.05 C 60.368 166.282 58.75 165.935 58.3 165.3 C 57.661 164.405 57.104 163.383 56.9 162.3 C 56.756 161.536 57.654 160.033 57.3 160 C 56.934 159.966 55.807 162.328 55.3 162.15 C 54.807 161.978 55.689 160.165 55.3 159.3 C 55.008 158.651 54.209 158.203 53.5 158.15 C 52.717 158.091 51.863 158.453 51.3 159 C 50.584 159.696 50.528 161.46 49.9 161.65 C 49.453 161.785 49.81 159.914 49.15 159.65 C 48.21 159.274 47.113 159.837 46.15 160.15 C 45.045 160.509 44.02 161.093 43 161.65 C 42.4 161.978 41.88 163.01 41.3 162.8 C 40.705 162.585 41.247 161.167 40.65 160.8 C 39.84 160.303 38.731 160.459 37.8 160.65 C 36.888 160.837 36.217 162.057 35.3 161.9 C 34.544 161.771 34.686 160.343 34 160 C 33.195 159.598 32.096 159.48 31.3 159.9 C 30.654 160.241 30.688 161.955 30.4 161.9 C 30.112 161.845 30.595 160.02 30 159.65 C 29.47 159.32 28.607 159.999 28.15 160.5 C 27.671 161.025 28.035 162.539 27.4 162.5 C 26.41 162.439 25.927 160.718 24.9 160.3 C 24.006 159.936 22.936 160.063 22 160.3 C 21.288 160.48 20.823 161.794 20.15 161.5 C 18.585 160.817 18.086 158.531 16.5 157.9 C 15.876 157.652 15.729 159.019 15.5 159.65 C 15.191 160.5 15.464 162.072 14.9 162.3 C 14.414 162.497 14.037 160.95 13.4 160.5 C 12.746 160.038 11.947 159.575 11.15 159.65 C 10.368 159.724 9.772 160.421 9.15 160.9 C 8.319 161.54 7.765 162.588 6.8 163 C 5.721 163.461 4.32 162.82 3.3 163.4 C 2.639 163.776 2.108 164.863 2.4 165.5 C 2.658 166.063 4.44 165.402 4.4 165.8 C 2.399 167.503 1.955 168.625 2.45 169.5 C 2.872 170.191 4.231 169.663 5.3 169.65 C 11.078 169.298 15.205 169.386 19.65 169.3 C 20.831 169.278 21.983 169.15 23.15 169.15 C 25.199 169.15 27.259 169.12 29.3 169.3 C 30.105 169.371 30.854 169.761 31.65 169.9 C 32.474 170.044 33.314 170.169 34.15 170.15 C 36.935 170.086 39.718 169.781 42.5 169.65 C 43.265 169.614 44.034 169.675 44.8 169.65 C 45.584 169.625 46.366 169.475 47.15 169.5 C 47.938 169.525 48.711 169.811 49.5 169.8 C 51.738 169.766 54.09 170.061 56.25 169.45 Z "/>
  <path id="ID0.6556480447761714" fill="#2B673E" stroke="#2B673E" stroke-width="2" stroke-linecap="round" d="M 335.65 168.45 C 337.147 168.013 338.751 167.341 339.4 166.05 C 339.768 165.282 338.15 164.935 337.7 164.3 C 337.061 163.405 336.504 162.383 336.3 161.3 C 336.156 160.536 337.054 159.033 336.7 159 C 336.334 158.966 335.207 161.328 334.7 161.15 C 334.207 160.978 335.089 159.165 334.7 158.3 C 334.408 157.651 333.609 157.203 332.9 157.15 C 332.117 157.091 331.263 157.453 330.7 158 C 329.984 158.696 329.928 160.46 329.3 160.65 C 328.853 160.785 329.21 158.914 328.55 158.65 C 327.61 158.274 326.513 158.837 325.55 159.15 C 324.445 159.509 323.42 160.093 322.4 160.65 C 321.8 160.978 321.28 162.01 320.7 161.8 C 320.105 161.585 320.647 160.167 320.05 159.8 C 319.24 159.303 318.131 159.459 317.2 159.65 C 316.288 159.837 315.617 161.057 314.7 160.9 C 313.944 160.771 314.086 159.343 313.4 159 C 312.595 158.598 311.496 158.48 310.7 158.9 C 310.054 159.241 310.088 160.955 309.8 160.9 C 309.512 160.845 309.995 159.02 309.4 158.65 C 308.87 158.32 308.007 158.999 307.55 159.5 C 307.071 160.025 307.435 161.539 306.8 161.5 C 305.81 161.439 305.327 159.718 304.3 159.3 C 303.406 158.936 302.336 159.063 301.4 159.3 C 300.688 159.48 300.223 160.794 299.55 160.5 C 297.985 159.817 297.486 157.531 295.9 156.9 C 295.276 156.652 295.129 158.019 294.9 158.65 C 294.591 159.5 294.864 161.072 294.3 161.3 C 293.814 161.497 293.437 159.95 292.8 159.5 C 292.146 159.038 291.347 158.575 290.55 158.65 C 289.768 158.724 289.172 159.421 288.55 159.9 C 287.719 160.54 287.165 161.588 286.2 162 C 285.121 162.461 283.72 161.82 282.7 162.4 C 282.039 162.776 281.508 163.863 281.8 164.5 C 282.058 165.063 283.84 164.402 283.8 164.8 C 281.799 166.503 281.355 167.625 281.85 168.5 C 282.272 169.191 283.631 168.663 284.7 168.65 C 290.478 168.298 294.605 168.386 299.05 168.3 C 300.231 168.278 301.383 168.15 302.55 168.15 C 304.599 168.15 306.659 168.12 308.7 168.3 C 309.505 168.371 310.254 168.761 311.05 168.9 C 311.874 169.044 312.714 169.169 313.55 169.15 C 316.335 169.086 319.118 168.781 321.9 168.65 C 322.665 168.614 323.434 168.675 324.2 168.65 C 324.984 168.625 325.766 168.475 326.55 168.5 C 327.338 168.525 328.111 168.811 328.9 168.8 C 331.138 168.766 333.49 169.061 335.65 168.45 Z "/>
  <path id="ID0.6556480447761714" fill="#2B673E" stroke="#2B673E" stroke-width="2" stroke-linecap="round" d="M 394.05 167.45 C 395.547 167.013 397.151 166.341 397.8 165.05 C 398.168 164.282 396.55 163.935 396.1 163.3 C 395.461 162.405 394.904 161.383 394.7 160.3 C 394.556 159.536 395.454 158.033 395.1 158 C 394.734 157.966 393.607 160.328 393.1 160.15 C 392.607 159.978 393.489 158.165 393.1 157.3 C 392.808 156.651 392.009 156.203 391.3 156.15 C 390.517 156.091 389.663 156.453 389.1 157 C 388.384 157.696 388.328 159.46 387.7 159.65 C 387.253 159.785 387.61 157.914 386.95 157.65 C 386.01 157.274 384.913 157.837 383.95 158.15 C 382.845 158.509 381.82 159.093 380.8 159.65 C 380.2 159.978 379.68 161.01 379.1 160.8 C 378.505 160.585 379.047 159.167 378.45 158.8 C 377.64 158.303 376.531 158.459 375.6 158.65 C 374.688 158.837 374.017 160.057 373.1 159.9 C 372.344 159.771 372.486 158.343 371.8 158 C 370.995 157.598 369.896 157.48 369.1 157.9 C 368.454 158.241 368.488 159.955 368.2 159.9 C 367.912 159.845 368.395 158.02 367.8 157.65 C 367.27 157.32 366.407 157.999 365.95 158.5 C 365.471 159.025 365.835 160.539 365.2 160.5 C 364.21 160.439 363.727 158.718 362.7 158.3 C 361.806 157.936 360.736 158.063 359.8 158.3 C 359.088 158.48 358.623 159.794 357.95 159.5 C 356.385 158.817 355.886 156.531 354.3 155.9 C 353.676 155.652 353.529 157.019 353.3 157.65 C 352.991 158.5 353.264 160.072 352.7 160.3 C 352.214 160.497 351.837 158.95 351.2 158.5 C 350.546 158.038 349.747 157.575 348.95 157.65 C 348.168 157.724 347.572 158.421 346.95 158.9 C 346.119 159.54 345.565 160.588 344.6 161 C 343.521 161.461 342.12 160.82 341.1 161.4 C 340.439 161.776 339.908 162.863 340.2 163.5 C 340.458 164.063 342.24 163.402 342.2 163.8 C 340.199 165.503 339.755 166.625 340.25 167.5 C 340.672 168.191 342.031 167.663 343.1 167.65 C 348.878 167.298 353.005 167.386 357.45 167.3 C 358.631 167.278 359.783 167.15 360.95 167.15 C 362.999 167.15 365.059 167.12 367.1 167.3 C 367.905 167.371 368.654 167.761 369.45 167.9 C 370.274 168.044 371.114 168.169 371.95 168.15 C 374.735 168.086 377.518 167.781 380.3 167.65 C 381.065 167.614 381.834 167.675 382.6 167.65 C 383.384 167.625 384.166 167.475 384.95 167.5 C 385.738 167.525 386.511 167.811 387.3 167.8 C 389.538 167.766 391.89 168.061 394.05 167.45 Z "/>
  <path id="ID0.6556480447761714" fill="#2B673E" stroke="#2B673E" stroke-width="2" stroke-linecap="round" d="M 516.05 168.45 C 517.547 168.013 519.151 167.341 519.8 166.05 C 520.168 165.282 518.55 164.935 518.1 164.3 C 517.461 163.405 516.904 162.383 516.7 161.3 C 516.556 160.536 517.454 159.033 517.1 159 C 516.734 158.966 515.607 161.328 515.1 161.15 C 514.607 160.978 515.489 159.165 515.1 158.3 C 514.808 157.651 514.009 157.203 513.3 157.15 C 512.517 157.091 511.663 157.453 511.1 158 C 510.384 158.696 510.328 160.46 509.7 160.65 C 509.253 160.785 509.61 158.914 508.95 158.65 C 508.01 158.274 506.913 158.837 505.95 159.15 C 504.845 159.509 503.82 160.093 502.8 160.65 C 502.2 160.978 501.68 162.01 501.1 161.8 C 500.505 161.585 501.047 160.167 500.45 159.8 C 499.64 159.303 498.531 159.459 497.6 159.65 C 496.688 159.837 496.017 161.057 495.1 160.9 C 494.344 160.771 494.486 159.343 493.8 159 C 492.995 158.598 491.896 158.48 491.1 158.9 C 490.454 159.241 490.488 160.955 490.2 160.9 C 489.912 160.845 490.395 159.02 489.8 158.65 C 489.27 158.32 488.407 158.999 487.95 159.5 C 487.471 160.025 487.835 161.539 487.2 161.5 C 486.21 161.439 485.727 159.718 484.7 159.3 C 483.806 158.936 482.736 159.063 481.8 159.3 C 481.088 159.48 480.623 160.794 479.95 160.5 C 478.385 159.817 477.886 157.531 476.3 156.9 C 475.676 156.652 475.529 158.019 475.3 158.65 C 474.991 159.5 475.264 161.072 474.7 161.3 C 474.214 161.497 473.837 159.95 473.2 159.5 C 472.546 159.038 471.747 158.575 470.95 158.65 C 470.168 158.724 469.572 159.421 468.95 159.9 C 468.119 160.54 467.565 161.588 466.6 162 C 465.521 162.461 464.12 161.82 463.1 162.4 C 462.439 162.776 461.908 163.863 462.2 164.5 C 462.458 165.063 464.24 164.402 464.2 164.8 C 462.199 166.503 461.755 167.625 462.25 168.5 C 462.672 169.191 464.031 168.663 465.1 168.65 C 470.878 168.298 475.005 168.386 479.45 168.3 C 480.631 168.278 481.783 168.15 482.95 168.15 C 484.999 168.15 487.059 168.12 489.1 168.3 C 489.905 168.371 490.654 168.761 491.45 168.9 C 492.274 169.044 493.114 169.169 493.95 169.15 C 496.735 169.086 499.518 168.781 502.3 168.65 C 503.065 168.614 503.834 168.675 504.6 168.65 C 505.384 168.625 506.166 168.475 506.95 168.5 C 507.738 168.525 508.511 168.811 509.3 168.8 C 511.538 168.766 513.89 169.061 516.05 168.45 Z "/>
  <path id="ID0.8410096536390483" fill="#2B673E" stroke="#2B673E" stroke-width="1.5980629920959473" stroke-linecap="round" d="M 445.5891 170.0263 C 446.3546 169.6332 447.0801 169.0706 447.6266 168.3084 C 447.9399 167.8705 448.1628 167.1593 447.8663 166.7103 C 447.5715 166.2636 446.842 166.262 446.3082 166.3108 C 445.7689 166.3603 445.2775 167.2329 444.83 166.99 C 444.3586 166.7335 444.6974 165.837 444.4705 165.312 C 444.2228 164.7399 444.0166 163.9688 443.4317 163.7539 C 442.8788 163.5509 442.3418 164.3396 441.7538 164.3132 C 441.097 164.2836 440.377 164.0623 439.916 163.5941 C 439.4941 163.165 439.5668 162.4395 439.3567 161.8762 C 439.1545 161.3344 439.1233 160.6456 438.6775 160.2781 C 438.2604 159.9345 437.59 159.8226 437.0794 159.9984 C 436.5712 160.1726 436.2732 160.7343 436.0007 161.197 C 435.7299 161.6572 435.8257 162.6856 435.4814 162.7151 C 435.1266 162.7455 434.9148 161.7691 434.6024 161.3168 C 434.2892 160.8638 434.1246 160.1774 433.6036 159.9984 C 433.0939 159.8234 432.4778 160.1159 432.0455 160.4379 C 431.5845 160.7823 431.5709 161.5653 431.0867 161.8762 C 430.5993 162.1894 429.9361 162.2733 429.3688 162.1558 C 428.6464 162.0064 428.1207 161.3208 427.4111 161.1171 C 426.8358 160.9517 426.1503 160.8126 425.6133 161.0771 C 425.0836 161.3384 425.1123 162.2701 424.5746 162.5154 C 424.0624 162.7487 423.4216 162.1135 422.8966 162.3156 C 421.8802 162.7071 421.1939 163.7067 420.2199 164.1933 C 419.5966 164.505 418.8631 164.5233 418.1823 164.6728 C 417.6526 164.7894 416.7561 164.5449 416.5843 164.9924 C 416.3965 165.4838 416.9758 166.2077 417.4632 166.5505 C 418.0097 166.9348 419.2195 166.5241 419.4208 166.99 C 419.599 167.4031 418.5019 167.785 418.2223 168.3084 C 417.965 168.7894 417.5751 169.443 417.8627 169.9064 C 418.152 170.3723 418.919 170.2204 419.4608 170.3059 C 420.0137 170.3938 420.5802 170.3826 421.1387 170.4258 C 421.7908 170.4761 422.4428 170.6144 423.0964 170.5856 C 424.5394 170.5209 425.9697 170.2396 427.4111 170.1461 C 428.2341 170.0926 429.0635 170.1597 429.8881 170.1461 C 431.4582 170.1198 433.0323 170.0359 434.6024 170.0263 C 435.1617 170.0231 435.7211 170.087 436.2804 170.1062 C 436.9052 170.127 437.5325 170.1397 438.1581 170.1461 C 438.8501 170.1533 439.5444 170.1174 440.2356 170.1461 C 440.8229 170.1709 441.407 170.2708 441.9935 170.3059 C 442.5248 170.3379 443.0602 170.3786 443.5915 170.3459 C 444.214 170.3059 444.9619 170.3363 445.5891 170.0263 Z "/>
  <path id="ID0.7388805532827973" fill="#FF8002" stroke="none" stroke-linecap="round" d="M 236.9698 192.7665 L 238.1573 187.2634 L 239.2579 187.2634 L 240.5034 192.9113 L 241.2854 193.0851 L 241.2274 193.8671 L 236.5933 193.7802 L 236.5354 192.7954 L 236.9698 192.7665 Z " stroke-width="0.5792682766914368"/>
  <path id="ID0.7388805532827973" fill="#FF8002" stroke="none" stroke-linecap="round" d="M 482.6512 200.2902 L 484.3012 192.6439 L 485.8305 192.6439 L 487.561 200.4915 L 488.6476 200.7329 L 488.5671 201.8195 L 482.1281 201.6988 L 482.0476 200.3305 L 482.6512 200.2902 Z " stroke-width="0.8048780560493469"/>
</svg>