<svg xmlns="http://www.w3.org/2000/svg" xmlns:xlink="http://www.w3.org/1999/xlink" version="1.1" width="739.7450318336487" height="365.6304078102112" viewBox="-0.7813420295715332 -2.815203905105591 739.7450318336487 365.6304078102112">
  <defs>
    <linearGradient id="grad_1" y2="1" x2="0">
      <stop offset="0" stop-color="#4789CC" stop-opacity="1"/>
      <stop offset="1" stop-color="#7BC6CC" stop-opacity="1"/>
    </linearGradient>
    <linearGradient id="grad_2" y2="1" x2="0">
      <stop offset="0" stop-color="#2D9071" stop-opacity="1"/>
      <stop offset="1" stop-color="#A4C97F" stop-opacity="1"/>
    </linearGradient>
    <linearGradient id="grad_3" y2="1" x2="0">
      <stop offset="0" stop-color="#3EA865" stop-opacity="1"/>
      <stop offset="1" stop-color="#A4C97F" stop-opacity="1"/>
    </linearGradient>
  <linearGradient id="grad_1-,0,0,1,181,0" y2="360" x2="181" x1="181" y1="0" gradientUnits="userSpaceOnUse">
      <stop offset="0" stop-color="#4789CC" stop-opacity="1"/>
      <stop offset="1" stop-color="#7BC6CC" stop-opacity="1"/>
    </linearGradient><linearGradient id="grad_2-,0,0,1,181,-71" y2="289" x2="181" x1="181" y1="96.5" gradientUnits="userSpaceOnUse">
      <stop offset="0" stop-color="#2D9071" stop-opacity="1"/>
      <stop offset="1" stop-color="#A4C97F" stop-opacity="1"/>
    </linearGradient><linearGradient id="grad_3-,0,0,1.153571367263794,182,-103.25" y2="312.0357" x2="163" x1="163" y1="150.5357" gradientUnits="userSpaceOnUse">
      <stop offset="0" stop-color="#3EA865" stop-opacity="1"/>
      <stop offset="1" stop-color="#A4C97F" stop-opacity="1"/>
    </linearGradient></defs>
  <!-- Exported by Scratch - http://scratch.mit.edu/ -->
  <path id="ID0.6388234607875347" fill="url(#grad_1-,0,0,1,181,0)" stroke="none" d="M 181 0 L 661 0 L 661 360 L 181 360 L 181 0 Z " stroke-width="1"/>
  <path id="ID0.03321666643023491" fill="url(#grad_2-,0,0,1,181,-71)" stroke="none" d="M 181 96.5 L 661 96.5 L 661 289 L 181 289 L 181 96.5 Z " stroke-width="1"/>
  <path id="ID0.7998434491455555" fill="url(#grad_3-,0,0,1.153571367263794,182,-103.25)" stroke="none" stroke-linecap="round" d="M 163 158.6107 L 479.5 150.5357 L 668.5 161.4946 L 662 312.0357 L 182 312.0357 L 163 158.6107 Z " stroke-width="1.0795200089324095"/>
  <g id="ID0.3975421995855868">
    <path id="ID0.5004307264462113" fill="#15213A" stroke="none" d="M 23.55 61.2181 L 105.8947 74.5903 L 207.2421 67.5523 L 265.6575 78.1093 L 352.2251 66.1447 L 441.6078 73.8865 L 478.9092 59.1067 L 627.4112 69.6637 L 704.8293 58.4029 L 699.1989 100.6309 L 23.55 100.6309 L 23.55 61.2181 Z " stroke-width="1.4076019525527954"/>
    <g id="ID0.7524295561015606">
      <path id="ID0.6570757920853794" fill="#15213A" stroke="#15213A" stroke-width="2.815203905105591" stroke-linecap="round" d="M 439.4964 47.1421 C 439.0783 46.5776 440.6647 45.7176 442.3116 45.0307 C 443.4771 44.545 444.5989 43.8975 445.8306 43.623 C 446.7455 43.4204 448.871 44.3001 448.6458 43.623 C 448.1672 42.1887 445.162 41.247 444.423 39.4002 C 444.0331 38.4276 445.2746 37.4732 445.8306 36.585 C 446.4513 35.5913 447.1791 34.6594 447.942 33.7698 C 448.5895 33.0154 450.2322 32.3721 450.0534 31.6584 C 449.8803 30.9645 448.1968 31.0743 447.2382 30.9546 C 446.3078 30.8378 445.2366 31.4191 444.423 30.9546 C 443.4053 30.3733 442.8352 29.1881 442.3116 28.1394 C 441.8794 27.2752 442.2905 26.0069 441.6078 25.3242 C 440.9251 24.6415 439.7512 24.7401 438.7926 24.6204 C 437.8622 24.5036 436.6404 25.2834 435.9774 24.6204 C 435.3144 23.9574 436.6404 22.4682 435.9774 21.8052 C 435.1328 20.9607 433.6464 20.9691 432.4584 21.1014 C 431.4167 21.2168 430.6806 22.6568 429.6432 22.509 C 428.6592 22.3683 428.3411 20.9761 427.5318 20.3976 C 426.6788 19.7881 425.7568 19.1195 424.7166 18.99 C 423.758 18.8704 422.798 19.3349 421.9014 19.6938 C 420.4417 20.278 419.1382 21.2211 417.6785 21.8052 C 416.7819 22.1642 415.8008 22.7427 414.8633 22.509 C 413.726 22.2247 413.1447 20.8086 412.0481 20.3976 C 411.1698 20.0682 410.1704 20.3976 409.2329 20.3976 C 406.4205 20.3976 403.5997 20.3976 400.7873 20.3976 C 398.9124 20.3976 397.0248 20.2414 395.1569 20.3976 C 394.1941 20.4779 393.2468 20.7622 392.3417 21.1014 C 391.3606 21.4688 390.1979 21.7039 389.5265 22.509 C 388.9086 23.2508 389.5645 24.7063 388.8227 25.3242 C 387.905 26.09 386.4973 25.9802 385.3037 26.028 C 380.6206 26.2152 375.915 26.028 371.2277 26.028 C 370.0566 26.028 369.2739 25.6592 368.4125 26.028 C 367.4989 26.4193 366.7937 27.2766 366.3011 28.1394 C 365.8211 28.9784 366.0773 30.1157 365.5973 30.9546 C 365.1046 31.8175 363.8772 32.1525 363.4859 33.066 C 363.1171 33.9275 363.1171 35.0198 363.4859 35.8812 C 363.8772 36.7948 364.8484 37.3381 365.5973 37.9926 C 366.7262 38.9808 367.7453 40.1984 369.1163 40.8078 C 369.9735 41.1879 370.994 40.8078 371.9315 40.8078 C 372.8689 40.8078 374.7467 40.3391 374.7467 40.8078 C 374.7467 41.3357 372.9801 42.3956 371.9315 42.9192 C 371.0672 43.3514 369.2894 42.9291 369.1163 43.623 C 368.9375 44.3367 370.735 44.8716 371.2277 45.7345 C 371.7077 46.5734 371.0869 48.0809 371.9315 48.5497 C 373.5826 49.4674 375.6729 49.2535 377.5619 49.2535 C 378.5275 49.2535 379.4185 48.43 380.3771 48.5497 C 381.4173 48.6792 382.1521 49.8278 383.1923 49.9573 C 384.1509 50.0769 385.1024 49.5927 386.0075 49.2535 C 386.9886 48.8861 387.9078 47.4799 388.8227 47.8459 C 389.6673 48.1837 388.5707 50.5147 389.5265 50.6611 C 392.3445 51.0946 395.1428 49.6068 397.9721 49.2535 C 398.9025 49.1366 399.9259 48.8847 400.7873 49.2535 C 401.7009 49.6448 402.0894 50.7863 402.8987 51.3649 C 403.7517 51.9744 404.6765 52.9203 405.7139 52.7725 C 406.6978 52.6317 407.3327 51.5239 407.8253 50.6611 C 408.3053 49.8221 407.7747 48.4497 408.5291 47.8459 C 409.2611 47.2603 410.6814 47.1829 411.3443 47.8459 C 412.0073 48.5088 410.6391 50.0431 411.3443 50.6611 C 412.8519 51.98 414.99 53.0371 416.9747 52.7725 C 418.9735 52.5064 420.4755 50.6794 421.9014 49.2535 C 422.6432 48.5117 422.4785 46.4383 423.309 46.4383 C 424.238 46.4383 424.7996 48.2597 425.4204 49.2535 C 425.9764 50.1417 426.0228 51.3972 426.828 52.0687 C 427.5698 52.6866 428.7789 53.2046 429.6432 52.7725 C 430.5806 52.3037 430.6834 50.9384 431.0508 49.9573 C 431.39 49.0522 431.2746 47.981 431.7546 47.1421 C 432.2472 46.2792 432.8722 45.0307 433.866 45.0307 C 434.8597 45.0307 435.1244 46.6311 435.9774 47.1421 C 436.3799 47.3828 436.9402 47.2899 437.385 47.1421 Z "/>
      <path id="ID0.30618046782910824" fill="none" stroke="#15213A" stroke-width="5.630407810211182" stroke-linecap="round" d="M 383.1923 45.0307 C 383.1923 45.0307 385.8316 49.3858 387.4151 51.3649 C 388.658 52.9174 390.1768 54.2392 391.6379 55.5877 C 393.2257 57.053 395.0373 58.2832 396.5645 59.8105 C 398.0918 61.3377 399.5895 62.9396 400.7873 64.7371 C 401.95 66.4811 402.5243 68.57 403.6025 70.3675 C 404.6399 72.096 406.3389 73.4361 407.1215 75.2941 C 408.2462 77.9657 409.2329 83.7397 409.2329 83.7397 "/>
      <path id="ID0.8843724299222231" fill="none" stroke="#15213A" stroke-width="5.630407810211182" stroke-linecap="round" d="M 414.8633 81.6283 C 414.8633 81.6283 414.3299 71.7723 414.1595 66.8485 C 414.0948 64.975 414.3791 63.0803 414.1595 61.2181 C 413.9076 59.0715 413.094 57.0178 412.7519 54.8839 C 412.1551 51.1523 411.7202 47.3828 411.3443 43.623 C 411.25 42.6828 411.3443 40.8078 411.3443 40.8078 "/>
      <path id="ID0.13546682987362146" fill="none" stroke="#15213A" stroke-width="5.630407810211182" stroke-linecap="round" d="M 416.9747 62.6257 C 416.9747 62.6257 420.3136 59.8682 421.9014 58.4029 C 423.3624 57.0544 425.0488 55.8523 426.1242 54.1801 C 427.2066 52.4952 427.6599 50.4682 428.2356 48.5497 C 428.3791 48.0697 428.2356 47.1421 428.2356 47.1421 "/>
    </g>
    <g id="ID0.7524295561015606">
      <path id="ID0.6570757920853794" fill="#15213A" stroke="#15213A" stroke-width="2.3047547919141635" stroke-linecap="round" d="M 639.5994 47.6981 C 639.2571 47.236 640.5558 46.5319 641.9041 45.9696 C 642.8583 45.572 643.7767 45.0419 644.7851 44.8172 C 645.5341 44.6512 647.2742 45.3715 647.0898 44.8172 C 646.698 43.6429 644.2377 42.872 643.6327 41.3601 C 643.3135 40.5638 644.3299 39.7825 644.7851 39.0553 C 645.2933 38.2417 645.889 37.4788 646.5136 36.7505 C 647.0437 36.1329 648.3885 35.6062 648.2422 35.022 C 648.1005 34.4539 646.7222 34.5437 645.9374 34.4458 C 645.1757 34.3501 644.2988 34.8261 643.6327 34.4458 C 642.7995 33.9699 642.3328 32.9996 641.9041 32.141 C 641.5503 31.4335 641.8868 30.3952 641.3279 29.8363 C 640.769 29.2774 639.8079 29.358 639.0232 29.2601 C 638.2615 29.1644 637.2612 29.8029 636.7184 29.2601 C 636.1757 28.7173 637.2612 27.4981 636.7184 26.9553 C 636.027 26.2639 634.8101 26.2708 633.8375 26.3791 C 632.9847 26.4736 632.382 27.6525 631.5327 27.5315 C 630.7272 27.4163 630.4668 26.2766 629.8042 25.803 C 629.1058 25.304 628.351 24.7566 627.4994 24.6506 C 626.7146 24.5526 625.9287 24.9329 625.1946 25.2268 C 623.9996 25.705 622.9325 26.4771 621.7375 26.9553 C 621.0035 27.2492 620.2002 27.7228 619.4328 27.5315 C 618.5016 27.2987 618.0257 26.1395 617.128 25.803 C 616.4089 25.5333 615.5907 25.803 614.8233 25.803 C 612.5208 25.803 610.2114 25.803 607.909 25.803 C 606.374 25.803 604.8287 25.675 603.2995 25.803 C 602.5113 25.8686 601.7357 26.1014 600.9947 26.3791 C 600.1915 26.6799 599.2397 26.8724 598.69 27.5315 C 598.1841 28.1388 598.7211 29.3304 598.1138 29.8363 C 597.3624 30.4632 596.2101 30.3733 595.2328 30.4125 C 591.3989 30.5657 587.5465 30.4125 583.7091 30.4125 C 582.7503 30.4125 582.1096 30.1105 581.4043 30.4125 C 580.6564 30.7328 580.0791 31.4346 579.6757 32.141 C 579.2828 32.8279 579.4925 33.759 579.0996 34.4458 C 578.6962 35.1522 577.6913 35.4265 577.371 36.1744 C 577.0691 36.8796 577.0691 37.7739 577.371 38.4791 C 577.6913 39.227 578.4865 39.6718 579.0996 40.2077 C 580.0238 41.0166 580.8581 42.0135 581.9805 42.5124 C 582.6823 42.8236 583.5178 42.5124 584.2853 42.5124 C 585.0527 42.5124 586.59 42.1287 586.59 42.5124 C 586.59 42.9446 585.1438 43.8123 584.2853 44.241 C 583.5777 44.5948 582.1222 44.2491 581.9805 44.8172 C 581.8341 45.4014 583.3057 45.8393 583.7091 46.5458 C 584.102 47.2326 583.5938 48.4668 584.2853 48.8505 C 585.637 49.6019 587.3483 49.4267 588.8948 49.4267 C 589.6853 49.4267 590.4147 48.7526 591.1995 48.8505 C 592.0511 48.9565 592.6527 49.8969 593.5043 50.0029 C 594.289 50.1008 595.068 49.7044 595.809 49.4267 C 596.6122 49.1259 597.3647 47.9747 598.1138 48.2743 C 598.8052 48.5509 597.9075 50.4592 598.69 50.5791 C 600.997 50.934 603.288 49.7159 605.6042 49.4267 C 606.366 49.3311 607.2037 49.1248 607.909 49.4267 C 608.6569 49.7471 608.9749 50.6816 609.6376 51.1553 C 610.3359 51.6542 611.093 52.4286 611.9423 52.3076 C 612.7478 52.1924 613.2675 51.2855 613.6709 50.5791 C 614.0638 49.8923 613.6294 48.7687 614.2471 48.2743 C 614.8463 47.7949 616.009 47.7316 616.5518 48.2743 C 617.0946 48.8171 615.9745 50.0732 616.5518 50.5791 C 617.786 51.6589 619.5365 52.5243 621.1613 52.3076 C 622.7977 52.0898 624.0273 50.5941 625.1946 49.4267 C 625.802 48.8194 625.6671 47.1219 626.347 47.1219 C 627.1076 47.1219 627.5674 48.6131 628.0756 49.4267 C 628.5308 50.1538 628.5688 51.1818 629.228 51.7315 C 629.8353 52.2373 630.8252 52.6614 631.5327 52.3076 C 632.3002 51.9239 632.3843 50.8061 632.6851 50.0029 C 632.9628 49.2619 632.8683 48.3849 633.2613 47.6981 C 633.6646 46.9917 634.1763 45.9696 634.9899 45.9696 C 635.8034 45.9696 636.0201 47.2798 636.7184 47.6981 C 637.048 47.8952 637.5066 47.8191 637.8708 47.6981 Z "/>
      <path id="ID0.30618046782910824" fill="none" stroke="#15213A" stroke-width="4.609509583828327" stroke-linecap="round" d="M 593.5205 46.0299 C 593.5205 46.0299 595.6812 49.5953 596.9776 51.2156 C 597.9952 52.4867 599.2386 53.5687 600.4348 54.6727 C 601.7347 55.8723 603.2178 56.8795 604.4681 58.1299 C 605.7184 59.3802 606.9446 60.6916 607.9252 62.1632 C 608.8771 63.591 609.3473 65.3011 610.23 66.7727 C 611.0793 68.1878 612.4702 69.2849 613.1109 70.806 C 614.0317 72.9932 614.8395 77.7203 614.8395 77.7203 "/>
      <path id="ID0.8843724299222231" fill="none" stroke="#15213A" stroke-width="4.609509583828327" stroke-linecap="round" d="M 619.449 75.9917 C 619.449 75.9917 619.0122 67.9228 618.8728 63.8917 C 618.8198 62.3579 619.0526 60.8068 618.8728 59.2822 C 618.6665 57.5249 618.0005 55.8435 617.7204 54.0965 C 617.2318 51.0416 616.8757 47.9555 616.5681 44.8775 C 616.4908 44.1077 616.5681 42.5728 616.5681 42.5728 "/>
      <path id="ID0.13546682987362146" fill="none" stroke="#15213A" stroke-width="4.609509583828327" stroke-linecap="round" d="M 621.1776 60.4346 C 621.1776 60.4346 623.911 58.1771 625.2109 56.9775 C 626.4071 55.8735 627.7876 54.8894 628.668 53.5203 C 629.5542 52.1409 629.9253 50.4815 630.3966 48.9108 C 630.5141 48.5179 630.3966 47.7585 630.3966 47.7585 "/>
    </g>
    <g id="ID0.03272360377013683">
      <path id="ID0.18419262021780014" fill="#15213A" stroke="#15213A" stroke-width="1.8635994636250832" stroke-linecap="round" d="M 310.3906 36.5218 C 310.0861 36.0682 310.0007 36.902 309.6369 37.5874 C 309.4872 37.8593 309.0591 37.965 308.8832 38.2267 C 308.7124 38.4808 308.7536 38.8056 308.632 39.0792 C 308.5004 39.3767 308.2813 39.6418 308.1296 39.9317 C 307.9467 40.2812 307.8593 40.6699 307.6271 40.9973 C 307.3518 41.3869 306.8976 41.6733 306.6223 42.0629 C 306.3901 42.3902 306.359 42.8046 306.1198 43.1285 C 305.9319 43.3842 305.5722 43.5232 305.3662 43.7679 C 305.1491 44.0262 305.0305 44.3365 304.8637 44.6203 C 304.6969 44.9042 304.4799 45.1719 304.3613 45.4728 C 304.2266 45.8164 304.2357 46.1923 304.1101 46.5384 C 303.9001 47.1181 303.6318 47.6833 303.3564 48.2434 C 303.2127 48.5366 302.9354 48.7864 302.854 49.0959 C 302.7635 49.442 302.9444 49.8154 302.854 50.1615 C 302.7726 50.4709 302.4832 50.7164 302.3515 51.014 C 302.23 51.2876 301.9456 51.6047 302.1003 51.8664 C 302.2671 52.1503 302.8007 52.1085 303.1052 52.2927 C 303.3936 52.4674 303.7192 52.655 303.8589 52.932 C 303.9905 53.1929 303.9001 53.5032 303.8589 53.7845 C 303.8156 54.0752 303.691 54.3531 303.6076 54.637 C 303.5242 54.9209 303.4308 55.2039 303.3564 55.4895 C 303.264 55.8424 303.1886 56.2005 303.1052 56.5551 C 303.0218 56.9097 302.9464 57.2678 302.854 57.6207 C 302.7796 57.9063 302.646 58.1825 302.6028 58.4732 C 302.5616 58.7545 302.6842 59.0503 302.6028 59.3257 C 302.5123 59.6334 302.1908 59.8704 302.1003 60.1781 C 302.0189 60.4535 302.1003 60.7467 302.1003 61.0306 C 302.1003 61.3145 302.1817 61.6078 302.1003 61.8831 C 302.0099 62.1908 301.6883 62.4278 301.5979 62.7356 C 301.5165 63.0109 301.6351 63.3059 301.5979 63.5881 C 301.5507 63.9478 301.4391 64.3007 301.3467 64.6537 C 301.2723 64.9393 301.1387 65.2155 301.0954 65.5062 C 301.0542 65.7875 301.1366 66.0773 301.0954 66.3586 C 301.0522 66.6493 300.9658 66.9375 300.8442 67.2111 C 300.7126 67.5086 300.2885 67.749 300.3418 68.0636 C 300.392 68.362 300.9558 68.4259 301.0954 68.703 C 301.2271 68.9638 301.1326 69.2733 301.0954 69.5554 C 301.0482 69.9152 300.8915 70.2613 300.8442 70.621 C 300.807 70.9032 300.9256 71.1982 300.8442 71.4735 C 300.7538 71.7813 300.4734 72.0285 300.3418 72.326 C 300.2202 72.5997 300.2122 72.9048 300.0906 73.1785 C 299.9589 73.476 299.7549 73.7471 299.5881 74.031 C 299.4213 74.3148 299.3028 74.6252 299.0857 74.8835 C 298.8797 75.1281 298.4908 75.2534 298.332 75.5228 C 298.1411 75.8468 298.1733 76.2355 298.0808 76.5884 C 298.0065 76.874 297.9512 77.1673 297.8296 77.4409 C 297.698 77.7384 297.2086 77.9925 297.3272 78.2934 C 297.4457 78.5943 297.9693 78.6429 298.332 78.7196 C 298.6566 78.7887 299.0053 78.6847 299.3369 78.7196 C 299.6796 78.7563 299.9991 78.8961 300.3418 78.9327 C 300.6734 78.9677 301.0221 78.8637 301.3467 78.9327 C 301.7094 79.0095 301.9888 79.2823 302.3515 79.359 C 302.6761 79.428 303.0248 79.324 303.3564 79.359 C 303.6991 79.3956 304.0186 79.5397 304.3613 79.5721 C 304.7773 79.6113 305.2014 79.5329 305.6174 79.5721 C 305.9601 79.6045 306.2796 79.7486 306.6223 79.7852 C 306.9539 79.8202 307.2955 79.7503 307.6271 79.7852 C 307.9698 79.8219 308.2974 79.9276 308.632 79.9983 C 308.9666 80.0691 309.2942 80.1748 309.6369 80.2115 C 309.9685 80.2464 310.3172 80.1424 310.6418 80.2115 C 311.0045 80.2882 311.2839 80.561 311.6466 80.6377 C 311.9712 80.7068 312.3169 80.6377 312.6515 80.6377 C 312.9861 80.6377 313.3218 80.6377 313.6564 80.6377 C 313.991 80.6377 314.3267 80.6377 314.6613 80.6377 C 314.9959 80.6377 315.3315 80.6377 315.6662 80.6377 C 316.0842 80.6377 316.5042 80.6377 316.9222 80.6377 C 317.2569 80.6377 317.5925 80.6377 317.9271 80.6377 C 318.3452 80.6377 318.7652 80.6377 319.1832 80.6377 C 319.6012 80.6377 320.0766 80.8142 320.4393 80.6377 C 320.7639 80.48 320.8513 80.093 320.9418 79.7852 C 321.0231 79.5099 320.9789 79.2149 320.9418 78.9327 C 320.8945 78.573 320.7739 78.2218 320.6905 77.8671 C 320.6071 77.5125 320.5318 77.1545 320.4393 76.8015 C 320.365 76.516 320.2313 76.2398 320.1881 75.9491 C 320.1469 75.6677 320.2604 75.3736 320.1881 75.0966 C 320.0906 74.7232 319.8283 74.3933 319.6857 74.031 C 319.5761 73.7531 319.5178 73.4624 319.4344 73.1785 C 319.351 72.8946 319.2666 72.6099 319.1832 72.326 C 319.0998 72.0421 319.0536 71.7472 318.932 71.4735 C 318.8004 71.176 318.2969 70.8461 318.4296 70.621 C 318.5481 70.4199 319.2485 70.8308 319.4344 70.621 C 319.6254 70.4045 319.354 70.0226 319.1832 69.7686 C 319.0074 69.5069 318.6054 69.3909 318.4296 69.1292 C 318.2587 68.8752 318.318 68.5444 318.1783 68.2767 C 317.9804 67.8982 317.6226 67.5896 317.4247 67.2111 C 317.285 66.9434 317.2951 66.6323 317.1735 66.3586 C 317.0418 66.0611 316.8027 65.8037 316.671 65.5062 C 316.5494 65.2325 316.5293 64.9316 316.4198 64.6537 C 316.2771 64.2914 316.0148 63.9615 315.9174 63.5881 C 315.845 63.311 315.6802 62.8362 315.9174 62.7356 C 316.1827 62.6231 316.5715 63.0502 316.9222 63.1618 C 317.2448 63.265 317.6186 63.5062 317.9271 63.3749 C 318.2617 63.2334 318.3391 62.8302 318.4296 62.5225 C 318.511 62.2471 318.511 61.9453 318.4296 61.67 C 318.3391 61.3622 318.1442 61.0758 317.9271 60.8175 C 317.7211 60.5728 317.3795 60.4228 317.1735 60.1781 C 316.9564 59.9198 316.869 59.595 316.671 59.3257 C 316.4489 59.0247 316.1043 58.7903 315.9174 58.4732 C 315.7626 58.2115 315.8209 57.8824 315.6662 57.6207 C 315.4792 57.3036 315.0823 57.0922 314.9125 56.7682 C 314.7397 56.4374 314.7959 56.0462 314.6613 55.7026 C 314.5427 55.4017 314.2905 55.1476 314.1588 54.8501 C 314.0372 54.5765 313.6926 54.2261 313.9076 53.9976 C 314.1739 53.7155 314.7397 53.8246 315.1637 53.7845 C 315.4963 53.753 315.834 53.7845 316.1686 53.7845 C 316.5032 53.7845 316.9876 54.0207 317.1735 53.7845 C 317.4518 53.4299 317.2559 52.9261 317.1735 52.5058 C 317.086 52.0634 316.8228 51.6567 316.671 51.2271 C 316.5715 50.9466 316.5414 50.6482 316.4198 50.3746 C 316.2882 50.0771 316.0078 49.8299 315.9174 49.5221 C 315.836 49.2468 315.9174 48.9535 315.9174 48.6696 C 315.9174 48.3858 315.9897 48.0942 315.9174 47.8171 C 315.8199 47.4438 315.5817 47.1062 315.4149 46.7515 C 315.2481 46.3969 315.0793 46.0406 314.9125 45.6859 C 314.7457 45.3313 314.5527 44.9826 314.4101 44.6203 C 314.3005 44.3424 314.2422 44.0517 314.1588 43.7679 C 314.0754 43.484 313.991 43.1993 313.9076 42.9154 C 313.8242 42.6315 313.7398 42.3468 313.6564 42.0629 C 313.573 41.779 313.4886 41.4943 313.4052 41.2104 C 313.3218 40.9265 313.2374 40.6418 313.154 40.3579 C 313.0706 40.0741 312.9861 39.7893 312.9027 39.5054 C 312.8193 39.2216 312.7731 38.9266 312.6515 38.653 C 312.5199 38.3554 312.3159 38.0844 312.1491 37.8005 C 311.9823 37.5166 311.8637 37.2063 311.6466 36.948 C 311.4406 36.7033 311.0688 36.5704 310.893 36.3086 C 310.7222 36.0546 310.7694 35.7281 310.6418 35.4562 C 310.5976 35.3632 310.4669 35.0819 310.3906 35.243 Z "/>
      <path id="ID0.8145076674409211" fill="#15213A" stroke="none" d="M 306.6203 74.6407 L 311.3935 74.6407 L 311.3935 94.2358 L 306.6203 94.2358 L 306.6203 74.6407 Z " stroke-width="1.0048760009267923"/>
    </g>
    <path id="ID0.7322682659141719" fill="#15213A" stroke="#15213A" stroke-width="2.815203905105591" stroke-linecap="round" d="M 595.0364 71.7751 C 594.2524 67.7142 594.8309 68.4391 594.6845 68.2561 C 594.1271 67.5593 593.4866 66.536 592.5731 66.1447 C 591.7116 65.7759 590.4546 66.7725 589.7579 66.1447 C 588.9556 65.4226 589.3018 64.0291 589.0541 62.9776 C 588.8331 62.0373 589.0682 60.8085 588.3503 60.1624 C 587.6479 59.5304 586.4725 59.9273 585.5351 59.8105 C 584.5976 59.6936 583.2618 60.2328 582.7199 59.4586 C 581.3812 57.5456 581.9035 54.715 580.6085 52.7725 C 580.0722 51.9687 578.7589 52.0687 577.7933 52.0687 C 576.5982 52.0687 575.4257 52.4529 574.2743 52.7725 C 573.3101 53.0399 572.3177 53.313 571.4591 53.8282 C 570.5329 54.3842 570.0655 55.7861 568.9958 55.9396 C 568.0611 56.0733 567.3531 55.0007 566.5325 54.532 C 565.7118 54.0632 564.9461 53.4749 564.0691 53.1244 C 563.1725 52.7654 562.2125 52.3009 561.2539 52.4206 C 560.2137 52.5501 559.0679 52.9892 558.4387 53.8282 C 557.8715 54.584 558.7935 56.0156 558.0868 56.6434 C 557.3859 57.2655 556.1936 56.4702 555.2716 56.6434 C 554.2877 56.8278 553.2897 57.1431 552.4564 57.6991 C 550.7955 58.8054 549.3301 60.1976 547.8817 61.57 C 547.0977 62.3132 546.3981 63.1535 545.7703 64.0333 C 545.2214 64.8018 544.9384 65.7477 544.3627 66.4966 C 543.756 67.2848 542.4596 67.6353 542.2513 68.608 C 542.0416 69.5863 542.5807 70.7349 543.307 71.4232 C 544.9117 72.9434 547.0273 73.8288 548.9374 74.9422 C 549.8425 75.47 550.7321 76.1091 551.7526 76.3498 C 552.7788 76.5919 553.308 76.3498 554.9197 76.3498 C 561.3651 76.3498 567.8303 76.4526 574.2743 76.3498 C 575.886 76.3245 576.1802 76.2527 577.0895 75.9979 C 579.1235 75.4278 581.0842 74.6016 583.0718 73.8865 C 584.0135 73.5473 584.9312 73.1292 585.887 72.8308 C 586.809 72.5422 587.8055 72.4859 588.7022 72.127 C 589.5791 71.7765 590.4279 71.3092 591.1655 70.7194 C 592.2001 69.8917 592.894 68.6643 593.9807 67.9042 Z "/>
    <path id="ID0.7322682659141719" fill="#15213A" stroke="#15213A" stroke-width="2.815203905105591" stroke-linecap="round" d="M 461.6661 83.8101 C 460.8821 79.7492 461.4606 80.4741 461.3142 80.2911 C 460.7568 79.5943 460.1163 78.571 459.2028 78.1797 C 458.3414 77.8109 457.0844 78.8075 456.3876 78.1797 C 455.5853 77.4576 455.9315 76.0641 455.6838 75.0126 C 455.4628 74.0723 455.6979 72.8435 454.98 72.1974 C 454.2776 71.5654 453.1023 71.9623 452.1648 71.8455 C 451.2273 71.7286 449.8915 72.2677 449.3496 71.4936 C 448.011 69.5806 448.5332 66.75 447.2382 64.8075 C 446.7019 64.0037 445.3886 64.1037 444.423 64.1037 C 443.2279 64.1037 442.0554 64.4879 440.904 64.8075 C 439.9398 65.0749 438.9474 65.348 438.0888 65.8632 C 437.1626 66.4192 436.6952 67.8211 435.6255 67.9746 C 434.6908 68.1083 433.9828 67.0357 433.1622 66.567 C 432.3415 66.0982 431.5758 65.5099 430.6989 65.1594 C 429.8022 64.8004 428.8422 64.3359 427.8837 64.4556 C 426.8434 64.5851 425.6977 65.0242 425.0685 65.8632 C 424.5012 66.619 425.4232 68.0506 424.7166 68.6784 C 424.0156 69.3005 422.8233 68.5052 421.9014 68.6784 C 420.9174 68.8628 419.9194 69.1781 419.0861 69.7341 C 417.4252 70.8404 415.9599 72.2326 414.5114 73.605 C 413.7274 74.3482 413.0278 75.1885 412.4 76.0683 C 411.8511 76.8368 411.5681 77.7827 410.9924 78.5316 C 410.3858 79.3198 409.0894 79.6703 408.881 80.643 C 408.6713 81.6213 409.2104 82.7699 409.9367 83.4582 C 411.5414 84.9784 413.657 85.8638 415.5671 86.9772 C 416.4722 87.505 417.3618 88.1441 418.3823 88.3848 C 419.4085 88.6269 419.9377 88.3848 421.5495 88.3848 C 427.9949 88.3848 434.46 88.4875 440.904 88.3848 C 442.5157 88.3595 442.8099 88.2877 443.7192 88.0329 C 445.7532 87.4628 447.714 86.6366 449.7015 85.9215 C 450.6432 85.5823 451.5609 85.1642 452.5167 84.8658 C 453.4387 84.5772 454.4353 84.5209 455.3319 84.162 C 456.2088 83.8115 457.0576 83.3442 457.7952 82.7544 C 458.8298 81.9267 459.5237 80.6993 460.6104 79.9392 Z "/>
    <path id="ID0.7322682659141719" fill="#15213A" stroke="#15213A" stroke-width="2.815203905105591" stroke-linecap="round" d="M 295.5691 80.0799 C 294.785 76.019 295.3636 76.7439 295.2172 76.5609 C 294.6598 75.8642 294.0193 74.8408 293.1058 74.4495 C 292.2443 74.0807 290.9873 75.0773 290.2906 74.4495 C 289.4882 73.7274 289.8345 72.3339 289.5868 71.2824 C 289.3658 70.3422 289.6008 69.1133 288.883 68.4672 C 288.1806 67.8352 287.0052 68.2322 286.0678 68.1153 C 285.1303 67.9985 283.7945 68.5376 283.2526 67.7634 C 281.9139 65.8505 282.4362 63.0198 281.1412 61.0773 C 280.6049 60.2736 279.2916 60.3735 278.326 60.3735 C 277.1309 60.3735 275.9584 60.7578 274.8069 61.0773 C 273.8427 61.3448 272.8504 61.6178 271.9917 62.133 C 271.0655 62.689 270.5982 64.091 269.5284 64.2444 C 268.5938 64.3781 267.8858 63.3055 267.0651 62.8368 C 266.2445 62.3681 265.4788 61.7797 264.6018 61.4292 C 263.7052 61.0703 262.7452 60.6058 261.7866 60.7254 C 260.7464 60.8549 259.6006 61.2941 258.9714 62.133 C 258.4042 62.8889 259.3261 64.3204 258.6195 64.9482 C 257.9185 65.5704 256.7263 64.7751 255.8043 64.9482 C 254.8204 65.1326 253.8224 65.4479 252.9891 66.0039 C 251.3281 67.1103 249.8628 68.5024 248.4144 69.8748 C 247.6304 70.618 246.9308 71.4584 246.303 72.3381 C 245.754 73.1067 245.4711 74.0526 244.8954 74.8014 C 244.2887 75.5897 242.9923 75.9402 242.784 76.9128 C 242.5743 77.8911 243.1134 79.0397 243.8397 79.728 C 245.4444 81.2483 247.56 82.1336 249.4701 83.247 C 250.3752 83.7749 251.2648 84.4139 252.2853 84.6546 C 253.3115 84.8968 253.8407 84.6546 255.4524 84.6546 C 261.8978 84.6546 268.3629 84.7574 274.8069 84.6546 C 276.4187 84.6293 276.7128 84.5575 277.6222 84.3027 C 279.6561 83.7327 281.6169 82.9064 283.6045 82.1913 C 284.5461 81.8521 285.4639 81.4341 286.4197 81.1356 C 287.3416 80.8471 288.3382 80.7908 289.2349 80.4318 C 290.1118 80.0813 290.9606 79.614 291.6982 79.0242 C 292.7328 78.1966 293.4267 76.9691 294.5134 76.209 Z "/>
    <path id="ID0.7322682659141719" fill="#15213A" stroke="#15213A" stroke-width="2.815203905105591" stroke-linecap="round" d="M 320.2021 80.3615 C 320.9861 76.3005 320.4076 77.0254 320.554 76.8425 C 321.1114 76.1457 321.7519 75.1224 322.6654 74.7311 C 323.5269 74.3623 324.7839 75.3588 325.4806 74.7311 C 326.283 74.009 325.9367 72.6154 326.1844 71.5639 C 326.4054 70.6237 326.1703 69.3948 326.8882 68.7487 C 327.5906 68.1167 328.766 68.5137 329.7034 68.3968 C 330.6409 68.28 331.9767 68.8191 332.5186 68.0449 C 333.8573 66.132 333.335 63.3013 334.63 61.3588 C 335.1663 60.5551 336.4796 60.655 337.4452 60.655 C 338.6403 60.655 339.8128 61.0393 340.9642 61.3588 C 341.9284 61.6263 342.9208 61.8994 343.7794 62.4145 C 344.7056 62.9705 345.173 64.3725 346.2427 64.5259 C 347.1774 64.6597 347.8854 63.5871 348.7061 63.1183 C 349.5267 62.6496 350.2924 62.0612 351.1694 61.7107 C 352.066 61.3518 353.026 60.8873 353.9846 61.0069 C 355.0248 61.1364 356.1706 61.5756 356.7998 62.4145 C 357.367 63.1704 356.445 64.6019 357.1517 65.2297 C 357.8526 65.8519 359.0449 65.0566 359.9669 65.2297 C 360.9508 65.4141 361.9488 65.7294 362.7821 66.2854 C 364.443 67.3918 365.9084 68.7839 367.3568 70.1563 C 368.1408 70.8996 368.8404 71.7399 369.4682 72.6197 C 370.0171 73.3882 370.3001 74.3341 370.8758 75.083 C 371.4825 75.8712 372.7789 76.2217 372.9872 77.1944 C 373.1969 78.1726 372.6578 79.3212 371.9315 80.0096 C 370.3268 81.5298 368.2112 82.4152 366.3011 83.5286 C 365.396 84.0564 364.5064 84.6955 363.4859 84.9362 C 362.4597 85.1783 361.9305 84.9362 360.3188 84.9362 C 353.8734 84.9362 347.4082 85.0389 340.9642 84.9362 C 339.3525 84.9108 339.0583 84.839 338.149 84.5843 C 336.1151 84.0142 334.1543 83.1879 332.1667 82.4729 C 331.225 82.1336 330.3073 81.7156 329.3515 81.4172 C 328.4295 81.1286 327.433 81.0723 326.5363 80.7134 C 325.6594 80.3629 324.8106 79.8955 324.073 79.3058 C 323.0384 78.4781 322.3445 77.2507 321.2578 76.4906 Z "/>
    <path id="ID0.7322682659141719" fill="#15213A" stroke="#15213A" stroke-width="2.815203905105591" stroke-linecap="round" d="M 105.8947 77.5463 C 105.1107 73.4853 105.6892 74.2102 105.5428 74.0273 C 104.9854 73.3305 104.3449 72.3072 103.4314 71.9158 C 102.57 71.5471 101.313 72.5436 100.6162 71.9158 C 99.8139 71.1937 100.1601 69.8002 99.9124 68.7487 C 99.6914 67.8085 99.9265 66.5796 99.2086 65.9335 C 98.5062 65.3015 97.3309 65.6985 96.3934 65.5816 C 95.4559 65.4648 94.1201 66.0039 93.5782 65.2297 C 92.2396 63.3168 92.7618 60.4861 91.4668 58.5436 C 90.9305 57.7399 89.6172 57.8398 88.6516 57.8398 C 87.4565 57.8398 86.284 58.2241 85.1326 58.5436 C 84.1684 58.8111 83.176 59.0841 82.3174 59.5993 C 81.3912 60.1553 80.9239 61.5573 79.8541 61.7107 C 78.9194 61.8445 78.2114 60.7719 77.3908 60.3031 C 76.5701 59.8344 75.8044 59.246 74.9275 58.8955 C 74.0308 58.5366 73.0708 58.0721 72.1123 58.1917 C 71.072 58.3212 69.9263 58.7604 69.2971 59.5993 C 68.7298 60.3552 69.6518 61.7867 68.9452 62.4145 C 68.2442 63.0367 67.0519 62.2414 66.13 62.4145 C 65.146 62.5989 64.1481 62.9142 63.3148 63.4702 C 61.6538 64.5766 60.1885 65.9687 58.74 67.3411 C 57.956 68.0844 57.2564 68.9247 56.6286 69.8044 C 56.0797 70.573 55.7968 71.5189 55.221 72.2677 C 54.6144 73.056 53.318 73.4065 53.1096 74.3792 C 52.8999 75.3574 53.439 76.506 54.1653 77.1944 C 55.77 78.7146 57.8856 79.5999 59.7958 80.7134 C 60.7008 81.2412 61.5904 81.8803 62.611 82.121 C 63.6371 82.3631 64.1664 82.121 65.7781 82.121 C 72.2235 82.121 78.6886 82.2237 85.1326 82.121 C 86.7443 82.0956 87.0385 82.0238 87.9478 81.7691 C 89.9818 81.199 91.9426 80.3727 93.9301 79.6577 C 94.8718 79.3184 95.7895 78.9004 96.7453 78.602 C 97.6673 78.3134 98.6639 78.2571 99.5605 77.8982 C 100.4374 77.5477 101.2862 77.0803 102.0238 76.4906 C 103.0584 75.6629 103.7523 74.4355 104.839 73.6754 Z "/>
    <path id="ID0.7322682659141719" fill="#15213A" stroke="#15213A" stroke-width="2.815203905105591" stroke-linecap="round" d="M 736.1485 66.4262 C 735.3645 62.3653 735.943 63.0902 735.7966 62.9072 C 735.2392 62.2104 734.5987 61.1871 733.6852 60.7958 C 732.8237 60.427 731.5667 61.4236 730.87 60.7958 C 730.0676 60.0737 730.4139 58.6802 730.1662 57.6287 C 729.9452 56.6884 730.1803 55.4596 729.4624 54.8135 C 728.76 54.1815 727.5846 54.5784 726.6472 54.4616 C 725.7097 54.3448 724.3739 54.8839 723.832 54.1097 C 722.4933 52.1968 723.0156 49.3661 721.7206 47.4236 C 721.1843 46.6198 719.871 46.7198 718.9054 46.7198 C 717.7103 46.7198 716.5378 47.104 715.3864 47.4236 C 714.4222 47.691 713.4298 47.9641 712.5712 48.4793 C 711.645 49.0353 711.1776 50.4373 710.1079 50.5907 C 709.1732 50.7244 708.4652 49.6518 707.6445 49.1831 C 706.8239 48.7143 706.0582 48.126 705.1812 47.7755 C 704.2846 47.4165 703.3246 46.952 702.366 47.0717 C 701.3258 47.2012 700.18 47.6403 699.5508 48.4793 C 698.9836 49.2352 699.9056 50.6667 699.1989 51.2945 C 698.498 51.9166 697.3057 51.1213 696.3837 51.2945 C 695.3998 51.4789 694.4018 51.7942 693.5685 52.3502 C 691.9076 53.4566 690.4422 54.8487 688.9938 56.2211 C 688.2098 56.9643 687.5102 57.8046 686.8824 58.6844 C 686.3335 59.4529 686.0505 60.3988 685.4748 61.1477 C 684.8681 61.936 683.5717 62.2864 683.3634 63.2591 C 683.1537 64.2374 683.6928 65.386 684.4191 66.0743 C 686.0238 67.5945 688.1394 68.4799 690.0495 69.5933 C 690.9546 70.1212 691.8442 70.7602 692.8647 71.0009 C 693.8909 71.243 694.4201 71.0009 696.0318 71.0009 C 702.4772 71.0009 708.9424 71.1037 715.3864 71.0009 C 716.9981 70.9756 717.2923 70.9038 718.2016 70.649 C 720.2355 70.0789 722.1963 69.2527 724.1839 68.5376 C 725.1256 68.1984 726.0433 67.7803 726.9991 67.4819 C 727.9211 67.1933 728.9176 67.137 729.8143 66.7781 C 730.6912 66.4276 731.54 65.9603 732.2776 65.3705 C 733.3122 64.5428 734.0061 63.3154 735.0928 62.5553 Z "/>
    <g id="ID0.7524295561015606">
      <path id="ID0.6570757920853794" fill="#15213A" stroke="#15213A" stroke-width="2.077152085858444" stroke-linecap="round" d="M 105.1404 63.675 C 105.4489 63.2585 104.2784 62.6239 103.0633 62.1171 C 102.2033 61.7588 101.3756 61.2811 100.4668 61.0785 C 99.7917 60.929 98.2235 61.5781 98.3897 61.0785 C 98.7428 60.0202 100.9601 59.3254 101.5054 57.9628 C 101.7931 57.2451 100.8771 56.541 100.4668 55.8857 C 100.0088 55.1524 99.4719 54.4649 98.909 53.8085 C 98.4312 53.2518 97.2192 52.7772 97.3511 52.2506 C 97.4788 51.7386 98.721 51.8196 99.4282 51.7313 C 100.1147 51.6451 100.9051 52.0741 101.5054 51.7313 C 102.2563 51.3024 102.6769 50.4279 103.0633 49.6542 C 103.3821 49.0165 103.0788 48.0808 103.5826 47.577 C 104.0863 47.0733 104.9524 47.146 105.6597 47.0578 C 106.3462 46.9716 107.2477 47.5469 107.7369 47.0578 C 108.226 46.5686 107.2477 45.4698 107.7369 44.9806 C 108.36 44.3575 109.4567 44.3637 110.3333 44.4613 C 111.1018 44.5465 111.645 45.6089 112.4104 45.4999 C 113.1364 45.396 113.3711 44.3689 113.9683 43.942 C 114.5977 43.4923 115.278 42.999 116.0455 42.9035 C 116.7527 42.8152 117.461 43.1579 118.1226 43.4227 C 119.1996 43.8537 120.1613 44.5496 121.2383 44.9806 C 121.8999 45.2454 122.6238 45.6723 123.3155 45.4999 C 124.1547 45.2901 124.5836 44.2453 125.3926 43.942 C 126.0407 43.699 126.7781 43.942 127.4698 43.942 C 129.5449 43.942 131.6262 43.942 133.7013 43.942 C 135.0846 43.942 136.4774 43.8267 137.8556 43.942 C 138.5659 44.0012 139.2649 44.211 139.9327 44.4613 C 140.6566 44.7324 141.5145 44.9058 142.0099 45.4999 C 142.4658 46.0472 141.9818 47.1211 142.5292 47.577 C 143.2063 48.142 144.2449 48.061 145.1256 48.0963 C 148.5809 48.2345 152.0529 48.0963 155.5114 48.0963 C 156.3754 48.0963 156.9529 47.8242 157.5885 48.0963 C 158.2625 48.3851 158.7829 49.0175 159.1464 49.6542 C 159.5005 50.2732 159.3115 51.1124 159.6657 51.7313 C 160.0292 52.368 160.9348 52.6152 161.2235 53.2892 C 161.4956 53.9248 161.4956 54.7308 161.2235 55.3664 C 160.9348 56.0404 160.2182 56.4413 159.6657 56.9242 C 158.8327 57.6533 158.0808 58.5517 157.0692 59.0014 C 156.4367 59.2818 155.6838 59.0014 154.9921 59.0014 C 154.3004 59.0014 152.9149 58.6555 152.9149 59.0014 C 152.9149 59.3908 154.2183 60.1729 154.9921 60.5592 C 155.6298 60.8781 156.9415 60.5665 157.0692 61.0785 C 157.2011 61.6051 155.8749 61.9998 155.5114 62.6364 C 155.1572 63.2554 155.6152 64.3677 154.9921 64.7135 C 153.7738 65.3907 152.2315 65.2328 150.8378 65.2328 C 150.1253 65.2328 149.4679 64.6253 148.7606 64.7135 C 147.9931 64.8091 147.451 65.6566 146.6835 65.7521 C 145.9762 65.8404 145.2741 65.4831 144.6063 65.2328 C 143.8824 64.9618 143.2042 63.9242 142.5292 64.1943 C 141.906 64.4435 142.7151 66.1634 142.0099 66.2714 C 139.9306 66.5913 137.8659 65.4935 135.7784 65.2328 C 135.0919 65.1466 134.3369 64.9607 133.7013 65.2328 C 133.0272 65.5216 132.7406 66.3638 132.1434 66.7907 C 131.514 67.2404 130.8317 67.9383 130.0662 67.8293 C 129.3403 67.7254 128.8719 66.9081 128.5084 66.2714 C 128.1542 65.6524 128.5458 64.6398 127.9891 64.1943 C 127.449 63.7622 126.4011 63.7051 125.9119 64.1943 C 125.4228 64.6834 126.4323 65.8155 125.9119 66.2714 C 124.7996 67.2446 123.222 68.0245 121.7576 67.8293 C 120.2829 67.633 119.1747 66.2849 118.1226 65.2328 C 117.5753 64.6855 117.6968 63.1557 117.084 63.1557 C 116.3986 63.1557 115.9842 64.4996 115.5262 65.2328 C 115.1159 65.8882 115.0817 66.8146 114.4876 67.31 C 113.9403 67.7659 113.0481 68.1481 112.4104 67.8293 C 111.7188 67.4834 111.6429 66.476 111.3719 65.7521 C 111.1216 65.0843 111.2067 64.294 110.8526 63.675 C 110.4891 63.0383 110.028 62.1171 109.2947 62.1171 C 108.5615 62.1171 108.3662 63.298 107.7369 63.675 C 107.4398 63.8526 107.0265 63.784 106.6983 63.675 Z "/>
      <path id="ID0.30618046782910824" fill="none" stroke="#15213A" stroke-width="4.154304171716888" stroke-linecap="round" d="M 146.692 62.176 C 146.692 62.176 144.7446 65.3894 143.5762 66.8496 C 142.6592 67.9951 141.5385 68.9704 140.4605 69.9653 C 139.289 71.0465 137.9523 71.9542 136.8255 73.081 C 135.6986 74.2079 134.5936 75.3898 133.7098 76.7161 C 132.8519 78.0029 132.4282 79.5441 131.6326 80.8704 C 130.8672 82.1457 129.6136 83.1345 129.0362 84.5054 C 128.2063 86.4766 127.4783 90.7368 127.4783 90.7368 "/>
      <path id="ID0.8843724299222231" fill="none" stroke="#15213A" stroke-width="4.154304171716888" stroke-linecap="round" d="M 123.324 89.179 C 123.324 89.179 123.7176 81.9069 123.8433 78.2739 C 123.8911 76.8916 123.6813 75.4937 123.8433 74.1196 C 124.0292 72.5358 124.6295 71.0205 124.8819 69.446 C 125.3222 66.6928 125.6431 63.9115 125.9204 61.1374 C 125.99 60.4437 125.9204 59.0603 125.9204 59.0603 "/>
      <path id="ID0.13546682987362146" fill="none" stroke="#15213A" stroke-width="4.154304171716888" stroke-linecap="round" d="M 121.7661 75.1582 C 121.7661 75.1582 119.3026 73.1236 118.1311 72.0425 C 117.0531 71.0475 115.8089 70.1606 115.0154 68.9267 C 114.2167 67.6836 113.8823 66.188 113.4575 64.7724 C 113.3516 64.4183 113.4575 63.7339 113.4575 63.7339 "/>
    </g>
    <path id="ID0.6887619853951037" fill="#15213A" stroke="#15213A" stroke-width="2.815203905105591" stroke-linecap="round" d="M 178.0343 69.3118 C 179.197 69.2287 178.5748 67.6184 178.7381 66.1447 C 178.8479 65.1565 179.936 64.4246 180.8495 64.0333 C 181.711 63.6645 182.8849 64.5527 183.6647 64.0333 C 184.5374 63.4519 184.4628 62.0711 185.0723 61.2181 C 185.6508 60.4087 186.6911 59.9695 187.1837 59.1067 C 187.6637 58.2677 187.3076 57.0642 187.8875 56.2915 C 188.4548 55.5356 189.5555 55.3948 190.3508 54.8839 C 191.1982 54.3391 191.9935 53.7099 192.8141 53.1244 C 193.6348 52.5388 194.2837 51.1988 195.2774 51.3649 C 196.2712 51.531 196.0741 53.5312 197.0369 53.8282 C 197.9941 54.1224 198.9442 53.1962 199.8521 52.7725 C 200.708 52.3727 201.5075 50.9609 202.3154 51.3649 C 203.267 51.8406 203.0573 53.465 203.3711 54.532 C 203.6442 55.4596 203.4106 57.2641 204.075 57.3472 C 204.8182 57.4401 205.6782 55.8368 206.1864 54.8839 C 206.641 54.0309 206.0414 52.5318 206.8902 52.0687 C 207.8389 51.5507 209.1479 52.1883 210.0573 52.7725 C 210.9046 53.3172 211.8942 54.2307 211.8168 55.2358 C 211.7408 56.2267 209.4675 56.473 209.7054 57.3472 C 209.9953 58.4085 211.7478 58.6689 212.8725 59.1067 C 213.8789 59.498 215.2429 59.0799 216.0396 59.8105 C 216.8588 60.5621 216.9024 61.8825 217.0953 62.9776 C 217.2586 63.901 216.4027 65.2734 217.0953 65.7928 C 217.8103 66.3291 218.9463 65.0285 219.9105 65.089 C 220.9099 65.1509 221.9571 65.5042 222.7257 66.1447 C 223.452 66.75 223.9475 67.6818 224.1333 68.608 C 224.3191 69.5342 224.4838 70.7912 223.7814 71.4232 C 222.9931 72.1326 221.67 71.6639 220.6143 71.7751 C 219.4431 71.899 218.2692 72.0369 217.0953 72.127 C 215.2218 72.2706 213.3285 72.2452 211.4649 72.4789 C 210.5063 72.5985 209.6096 73.2897 208.6497 73.1827 C 206.3609 72.9279 204.227 71.8427 201.9635 71.4232 C 201.0416 71.2529 200.0703 71.5963 199.1483 71.4232 C 198.1644 71.2388 197.3044 70.611 196.3331 70.3675 C 195.4168 70.138 194.4554 70.1324 193.5179 70.0156 C 192.5805 69.8988 191.6458 69.7228 190.7027 69.6637 C 189.7667 69.6046 188.825 69.6637 187.8875 69.6637 C 186.9501 69.6637 186.0027 69.5469 185.0723 69.6637 C 184.1137 69.7833 183.2143 70.2309 182.2571 70.3675 C 181.5618 70.4674 180.5961 70.908 180.1457 70.3675 Z "/>
    <g id="ID0.03272360377013683">
      <path id="ID0.18419262021780014" fill="#15213A" stroke="#15213A" stroke-width="1.8635994636250832" stroke-linecap="round" d="M 666.725 37.6478 C 666.4205 37.1943 666.3351 38.028 665.9713 38.7134 C 665.8216 38.9854 665.3935 39.0911 665.2177 39.3528 C 665.0468 39.6068 665.088 39.9316 664.9665 40.2053 C 664.8348 40.5028 664.6158 40.7679 664.464 41.0578 C 664.2811 41.4073 664.1937 41.796 663.9616 42.1234 C 663.6862 42.513 663.232 42.7994 662.9567 43.189 C 662.7246 43.5163 662.6934 43.9306 662.4543 44.2546 C 662.2664 44.5103 661.9066 44.6493 661.7006 44.8939 C 661.4836 45.1522 661.365 45.4625 661.1982 45.7464 C 661.0314 46.0303 660.8143 46.298 660.6957 46.5989 C 660.5611 46.9425 660.5701 47.3184 660.4445 47.6645 C 660.2345 48.2442 659.9662 48.8094 659.6909 49.3695 C 659.5472 49.6627 659.2698 49.9125 659.1884 50.222 C 659.098 50.5681 659.2789 50.9414 659.1884 51.2876 C 659.107 51.597 658.8176 51.8425 658.686 52.14 C 658.5644 52.4137 658.28 52.7308 658.4348 52.9925 C 658.6016 53.2764 659.1352 53.2346 659.4396 53.4188 C 659.728 53.5935 660.0536 53.7811 660.1933 54.0581 C 660.3249 54.319 660.2345 54.6293 660.1933 54.9106 C 660.1501 55.2013 660.0255 55.4792 659.9421 55.7631 C 659.8587 56.047 659.7652 56.33 659.6909 56.6156 C 659.5984 56.9685 659.523 57.3265 659.4396 57.6812 C 659.3562 58.0358 659.2809 58.3938 659.1884 58.7468 C 659.1141 59.0324 658.9804 59.3086 658.9372 59.5993 C 658.896 59.8806 659.0186 60.1764 658.9372 60.4517 C 658.8468 60.7595 658.5252 60.9965 658.4348 61.3042 C 658.3534 61.5796 658.4348 61.8728 658.4348 62.1567 C 658.4348 62.4406 658.5162 62.7338 658.4348 63.0092 C 658.3443 63.3169 658.0228 63.5539 657.9323 63.8617 C 657.8509 64.137 657.9695 64.432 657.9323 64.7141 C 657.8851 65.0739 657.7736 65.4268 657.6811 65.7798 C 657.6067 66.0653 657.4731 66.3415 657.4299 66.6322 C 657.3887 66.9136 657.4711 67.2034 657.4299 67.4847 C 657.3867 67.7754 657.3003 68.0636 657.1787 68.3372 C 657.047 68.6347 656.623 68.8751 656.6762 69.1897 C 656.7265 69.488 657.2902 69.552 657.4299 69.829 C 657.5615 70.0899 657.4671 70.3994 657.4299 70.6815 C 657.3827 71.0413 657.2259 71.3874 657.1787 71.7471 C 657.1415 72.0293 657.2601 72.3243 657.1787 72.5996 C 657.0882 72.9074 656.8079 73.1546 656.6762 73.4521 C 656.5546 73.7257 656.5466 74.0309 656.425 74.3046 C 656.2934 74.6021 656.0894 74.8732 655.9226 75.1571 C 655.7558 75.4409 655.6372 75.7512 655.4201 76.0095 C 655.2141 76.2542 654.8252 76.3795 654.6665 76.6489 C 654.4755 76.9728 654.5077 77.3616 654.4153 77.7145 C 654.3409 78.0001 654.2856 78.2933 654.164 78.567 C 654.0324 78.8645 653.543 79.1185 653.6616 79.4195 C 653.7802 79.7204 654.3037 79.769 654.6665 79.8457 C 654.991 79.9148 655.3397 79.8108 655.6714 79.8457 C 656.014 79.8824 656.3336 80.0222 656.6762 80.0588 C 657.0078 80.0938 657.3565 79.9898 657.6811 80.0588 C 658.0439 80.1355 658.3232 80.4083 658.686 80.4851 C 659.0106 80.5541 659.3592 80.4501 659.6909 80.4851 C 660.0335 80.5217 660.3531 80.6658 660.6957 80.6982 C 661.1117 80.7374 661.5358 80.659 661.9518 80.6982 C 662.2945 80.7306 662.614 80.8747 662.9567 80.9113 C 663.2883 80.9463 663.63 80.8764 663.9616 80.9113 C 664.3042 80.948 664.6318 81.0537 664.9665 81.1244 C 665.3011 81.1952 665.6287 81.3009 665.9713 81.3375 C 666.3029 81.3725 666.6516 81.2685 666.9762 81.3375 C 667.339 81.4143 667.6183 81.6871 667.9811 81.7638 C 668.3057 81.8328 668.6513 81.7638 668.986 81.7638 C 669.3206 81.7638 669.6562 81.7638 669.9908 81.7638 C 670.3255 81.7638 670.6611 81.7638 670.9957 81.7638 C 671.3303 81.7638 671.666 81.7638 672.0006 81.7638 C 672.4186 81.7638 672.8387 81.7638 673.2567 81.7638 C 673.5913 81.7638 673.9269 81.7638 674.2616 81.7638 C 674.6796 81.7638 675.0996 81.7638 675.5177 81.7638 C 675.9357 81.7638 676.411 81.9403 676.7737 81.7638 C 677.0983 81.6061 677.1857 81.2191 677.2762 80.9113 C 677.3576 80.636 677.3134 80.341 677.2762 80.0588 C 677.229 79.6991 677.1084 79.3479 677.025 78.9932 C 676.9416 78.6386 676.8662 78.2805 676.7737 77.9276 C 676.6994 77.642 676.5657 77.3658 676.5225 77.0751 C 676.4813 76.7938 676.5949 76.4997 676.5225 76.2227 C 676.4251 75.8493 676.1628 75.5194 676.0201 75.1571 C 675.9106 74.8791 675.8523 74.5884 675.7689 74.3046 C 675.6855 74.0207 675.6011 73.736 675.5177 73.4521 C 675.4342 73.1682 675.388 72.8733 675.2664 72.5996 C 675.1348 72.3021 674.6314 71.9722 674.764 71.7471 C 674.8826 71.5459 675.583 71.9568 675.7689 71.7471 C 675.9598 71.5306 675.6885 71.1487 675.5177 70.8946 C 675.3418 70.6329 674.9398 70.517 674.764 70.2553 C 674.5932 70.0012 674.6525 69.6705 674.5128 69.4028 C 674.3148 69.0243 673.9571 68.7157 673.7591 68.3372 C 673.6194 68.0695 673.6295 67.7584 673.5079 67.4847 C 673.3763 67.1872 673.1371 66.9297 673.0055 66.6322 C 672.8839 66.3586 672.8638 66.0577 672.7542 65.7798 C 672.6116 65.4174 672.3493 65.0875 672.2518 64.7141 C 672.1795 64.4371 672.0147 63.9623 672.2518 63.8617 C 672.5171 63.7491 672.906 64.1762 673.2567 64.2879 C 673.5792 64.3911 673.9531 64.6323 674.2616 64.501 C 674.5962 64.3595 674.6736 63.9563 674.764 63.6485 C 674.8454 63.3732 674.8454 63.0714 674.764 62.7961 C 674.6736 62.4883 674.4786 62.2019 674.2616 61.9436 C 674.0556 61.6989 673.7139 61.5489 673.5079 61.3042 C 673.2908 61.0459 673.2034 60.7211 673.0055 60.4517 C 672.7834 60.1508 672.4387 59.9164 672.2518 59.5993 C 672.0971 59.3375 672.1553 59.0085 672.0006 58.7468 C 671.8137 58.4297 671.4168 58.2182 671.2469 57.8943 C 671.0741 57.5635 671.1304 57.1722 670.9957 56.8287 C 670.8771 56.5278 670.6249 56.2737 670.4933 55.9762 C 670.3717 55.7026 670.027 55.3522 670.2421 55.1237 C 670.5083 54.8416 671.0741 54.9507 671.4981 54.9106 C 671.8308 54.8791 672.1684 54.9106 672.503 54.9106 C 672.8376 54.9106 673.322 55.1467 673.5079 54.9106 C 673.7863 54.556 673.5903 54.0522 673.5079 53.6319 C 673.4205 53.1894 673.1572 52.7828 673.0055 52.3532 C 672.906 52.0727 672.8758 51.7743 672.7542 51.5007 C 672.6226 51.2032 672.3422 50.9559 672.2518 50.6482 C 672.1704 50.3728 672.2518 50.0796 672.2518 49.7957 C 672.2518 49.5118 672.3242 49.2203 672.2518 48.9432 C 672.1543 48.5698 671.9162 48.2323 671.7494 47.8776 C 671.5826 47.523 671.4137 47.1667 671.2469 46.812 C 671.0801 46.4574 670.8872 46.1087 670.7445 45.7464 C 670.635 45.4685 670.5767 45.1778 670.4933 44.8939 C 670.4099 44.6101 670.3255 44.3253 670.2421 44.0415 C 670.1586 43.7576 670.0742 43.4729 669.9908 43.189 C 669.9074 42.9051 669.823 42.6204 669.7396 42.3365 C 669.6562 42.0526 669.5718 41.7679 669.4884 41.484 C 669.405 41.2001 669.3206 40.9154 669.2372 40.6315 C 669.1538 40.3477 669.1075 40.0527 668.986 39.779 C 668.8543 39.4815 668.6503 39.2104 668.4835 38.9266 C 668.3167 38.6427 668.1981 38.3324 667.9811 38.0741 C 667.7751 37.8294 667.4033 37.6964 667.2274 37.4347 C 667.0566 37.1807 667.1038 36.8542 666.9762 36.5822 C 666.932 36.4893 666.8014 36.208 666.725 36.3691 Z "/>
      <path id="ID0.8145076674409211" fill="#15213A" stroke="none" d="M 662.9548 75.7668 L 667.7279 75.7668 L 667.7279 95.3619 L 662.9548 95.3619 L 662.9548 75.7668 Z " stroke-width="1.0048760009267923"/>
    </g>
    <path id="ID0.6887619853951037" fill="#15213A" stroke="#15213A" stroke-width="2.815203905105591" stroke-linecap="round" d="M 482.2171 71.0713 C 483.3798 70.9882 482.7576 69.3779 482.9209 67.9042 C 483.0307 66.916 484.1188 66.1841 485.0323 65.7928 C 485.8938 65.424 487.0677 66.3122 487.8475 65.7928 C 488.7202 65.2114 488.6456 63.8306 489.2551 62.9776 C 489.8336 62.1682 490.8738 61.729 491.3665 60.8662 C 491.8465 60.0272 491.4904 58.8237 492.0703 58.051 C 492.6376 57.2951 493.7383 57.1543 494.5336 56.6434 C 495.381 56.0986 496.1763 55.4694 496.9969 54.8839 C 497.8175 54.2983 498.4665 52.9583 499.4602 53.1244 C 500.454 53.2905 500.2569 55.2907 501.2197 55.5877 C 502.1769 55.8819 503.127 54.9557 504.0349 54.532 C 504.8907 54.1322 505.6903 52.7204 506.4982 53.1244 C 507.4498 53.6001 507.24 55.2245 507.5539 56.2915 C 507.827 57.2191 507.5933 59.0236 508.2577 59.1067 C 509.0009 59.1996 509.861 57.5963 510.3691 56.6434 C 510.8238 55.7904 510.2242 54.2913 511.0729 53.8282 C 512.0217 53.3102 513.3307 53.9478 514.24 54.532 C 515.0874 55.0767 516.077 55.9902 515.9995 56.9953 C 515.9235 57.9862 513.6503 58.2326 513.8881 59.1067 C 514.1781 60.168 515.9306 60.4284 517.0552 60.8662 C 518.0617 61.2575 519.4256 60.8394 520.2223 61.57 C 521.0416 62.3216 521.0852 63.642 521.2781 64.7371 C 521.4413 65.6605 520.5855 67.0329 521.2781 67.5523 C 521.9931 68.0886 523.129 66.788 524.0933 66.8485 C 525.0927 66.9104 526.1399 67.2637 526.9085 67.9042 C 527.6348 68.5095 528.1303 69.4413 528.3161 70.3675 C 528.5019 71.2937 528.6666 72.5507 527.9642 73.1827 C 527.1759 73.8921 525.8528 73.4234 524.7971 73.5346 C 523.6259 73.6585 522.452 73.7964 521.2781 73.8865 C 519.4045 74.0301 517.5113 74.0047 515.6476 74.2384 C 514.6891 74.358 513.7924 75.0492 512.8324 74.9422 C 510.5437 74.6874 508.4098 73.6022 506.1463 73.1827 C 505.2244 73.0124 504.2531 73.3558 503.3311 73.1827 C 502.3472 72.9983 501.4872 72.3705 500.5159 72.127 C 499.5996 71.8976 498.6382 71.8919 497.7007 71.7751 C 496.7633 71.6583 495.8286 71.4823 494.8855 71.4232 C 493.9495 71.3641 493.0078 71.4232 492.0703 71.4232 C 491.1328 71.4232 490.1855 71.3064 489.2551 71.4232 C 488.2965 71.5428 487.3971 71.9905 486.4399 72.127 C 485.7445 72.2269 484.7789 72.6675 484.3285 72.127 Z "/>
    <path id="ID0.6556480447761714" fill="#2B673E" stroke="#2B673E" stroke-width="2.815203905105591" stroke-linecap="round" d="M 367.3568 101.9682 C 369.464 101.353 371.7218 100.4071 372.6353 98.5899 C 373.1533 97.5089 370.8758 97.0204 370.2424 96.1266 C 369.3429 94.8668 368.5589 93.4282 368.2717 91.9038 C 368.069 90.8284 369.3331 88.7128 368.8348 88.6663 C 368.3196 88.6185 366.7332 91.9432 366.0196 91.6927 C 365.3256 91.4505 366.5671 88.8986 366.0196 87.681 C 365.6085 86.7675 364.4839 86.1369 363.4859 86.0622 C 362.3837 85.9792 361.1816 86.4888 360.3891 87.2587 C 359.3813 88.2384 359.3025 90.7214 358.4185 90.9889 C 357.7893 91.1789 358.2918 88.5453 357.3628 88.1737 C 356.0397 87.6444 354.4955 88.4369 353.14 88.8775 C 351.5846 89.3828 350.1418 90.2048 348.7061 90.9889 C 347.8615 91.4505 347.1295 92.9032 346.3131 92.6076 C 345.4756 92.305 346.2385 90.309 345.3982 89.7924 C 344.258 89.0928 342.697 89.3124 341.3865 89.5813 C 340.1028 89.8445 339.1583 91.5617 337.8675 91.3408 C 336.8034 91.1592 337.0032 89.1491 336.0376 88.6663 C 334.9045 88.1005 333.3576 87.9344 332.2371 88.5256 C 331.3278 89.0055 331.3757 91.4182 330.9703 91.3408 C 330.5649 91.2633 331.2447 88.6945 330.4072 88.1737 C 329.6612 87.7091 328.4464 88.6649 327.8032 89.3701 C 327.1289 90.1091 327.6413 92.2402 326.7475 92.1853 C 325.3539 92.0995 324.6741 89.677 323.2285 89.0886 C 321.9701 88.5762 320.4639 88.755 319.1464 89.0886 C 318.1442 89.342 317.4897 91.1916 316.5423 90.7777 C 314.3394 89.8163 313.6371 86.5985 311.4046 85.7103 C 310.5263 85.3613 310.3193 87.2855 309.997 88.1737 C 309.562 89.3701 309.9463 91.5829 309.1524 91.9038 C 308.4683 92.1811 307.9377 90.0035 307.041 89.3701 C 306.1205 88.7198 304.9958 88.0681 303.8739 88.1737 C 302.7732 88.2778 301.9343 89.2589 301.0587 89.9332 C 299.889 90.834 299.1092 92.3092 297.7509 92.8891 C 296.2321 93.538 294.26 92.6357 292.8243 93.4522 C 291.8938 93.9814 291.1464 95.5115 291.5574 96.4081 C 291.9206 97.2006 294.4289 96.2702 294.3726 96.8304 C 291.556 99.2275 290.931 100.8069 291.6278 102.0385 C 292.2218 103.0112 294.1347 102.268 295.6395 102.2497 C 303.7726 101.7542 309.5818 101.8781 315.8385 101.757 C 317.5009 101.726 319.1225 101.5459 320.7652 101.5459 C 323.6493 101.5459 326.549 101.5036 329.4219 101.757 C 330.555 101.857 331.6093 102.4059 332.7298 102.6016 C 333.8896 102.8043 335.072 102.9802 336.2488 102.9535 C 340.1689 102.8634 344.0863 102.4341 348.0023 102.2497 C 349.0791 102.199 350.1615 102.2849 351.2397 102.2497 C 352.3433 102.2145 353.444 102.0033 354.5476 102.0385 C 355.6568 102.0737 356.7449 102.4763 357.8555 102.4608 C 361.0057 102.413 364.3164 102.8282 367.3568 101.9682 Z "/>
    <path id="ID0.8410096536390483" fill="#2B673E" stroke="#2B673E" stroke-width="2.249436587976618" stroke-linecap="round" d="M 282.3223 103.2016 C 283.3998 102.6482 284.421 101.8564 285.1903 100.7835 C 285.6312 100.1671 285.945 99.1661 285.5277 98.534 C 285.1127 97.9053 284.0858 97.903 283.3345 97.9717 C 282.5753 98.0414 281.8836 99.2696 281.2538 98.9277 C 280.5902 98.5666 281.0671 97.3047 280.7477 96.5658 C 280.399 95.7605 280.1088 94.6751 279.2855 94.3726 C 278.5072 94.0869 277.7514 95.197 276.9236 95.1599 C 275.9991 95.1182 274.9857 94.8067 274.3368 94.1476 C 273.7429 93.5436 273.8453 92.5224 273.5495 91.7295 C 273.2649 90.9669 273.2211 89.9974 272.5935 89.48 C 272.0064 88.9964 271.0627 88.8389 270.344 89.0864 C 269.6287 89.3316 269.2092 90.1222 268.8257 90.7735 C 268.4444 91.4213 268.5794 92.8688 268.0946 92.9104 C 267.5952 92.9532 267.2972 91.5788 266.8574 90.9422 C 266.4165 90.3045 266.1848 89.3383 265.4515 89.0864 C 264.7339 88.8401 263.8668 89.2517 263.2583 89.705 C 262.6093 90.1897 262.5902 91.292 261.9086 91.7295 C 261.2226 92.1704 260.2891 92.2885 259.4905 92.1231 C 258.4738 91.9128 257.7337 90.9478 256.7349 90.661 C 255.9251 90.4282 254.9601 90.2325 254.2043 90.6048 C 253.4586 90.9725 253.4991 92.284 252.7422 92.6292 C 252.0213 92.9577 251.1192 92.0635 250.3803 92.3481 C 248.9496 92.8992 247.9835 94.3062 246.6125 94.9912 C 245.7352 95.4298 244.7027 95.4557 243.7444 95.666 C 242.9988 95.8302 241.7368 95.486 241.495 96.1159 C 241.2307 96.8076 242.0461 97.8266 242.7322 98.3091 C 243.5015 98.8501 245.2043 98.272 245.4878 98.9277 C 245.7386 99.5091 244.1943 100.0468 243.8007 100.7835 C 243.4385 101.4605 242.8897 102.3806 243.2946 103.0329 C 243.7017 103.6886 244.7814 103.4749 245.544 103.5952 C 246.3223 103.719 247.1197 103.7032 247.9059 103.764 C 248.8237 103.8348 249.7414 104.0294 250.6615 103.9889 C 252.6927 103.8978 254.706 103.5019 256.7349 103.3703 C 257.8934 103.2949 259.0609 103.3894 260.2216 103.3703 C 262.4316 103.3332 264.6473 103.2151 266.8574 103.2016 C 267.6447 103.1971 268.432 103.2871 269.2193 103.3141 C 270.0988 103.3433 270.9818 103.3613 271.8624 103.3703 C 272.8364 103.3804 273.8138 103.3298 274.7867 103.3703 C 275.6133 103.4052 276.4355 103.5458 277.2611 103.5952 C 278.009 103.6402 278.7626 103.6976 279.5105 103.6515 C 280.3866 103.5952 281.4394 103.638 282.3223 103.2016 Z "/>
    <path id="ID0.8410096536390483" fill="#2B673E" stroke="#2B673E" stroke-width="2.249436587976618" stroke-linecap="round" d="M 241.713 102.9905 C 242.7905 102.4371 243.8117 101.6453 244.581 100.5723 C 245.0219 99.956 245.3357 98.955 244.9184 98.3229 C 244.5034 97.6942 243.4765 97.6919 242.7252 97.7605 C 241.966 97.8302 241.2743 99.0584 240.6445 98.7165 C 239.9809 98.3555 240.4578 97.0936 240.1384 96.3546 C 239.7897 95.5493 239.4995 94.464 238.6762 94.1614 C 237.8979 93.8757 237.1421 94.9858 236.3143 94.9487 C 235.3898 94.9071 234.3764 94.5956 233.7275 93.9365 C 233.1336 93.3325 233.236 92.3113 232.9402 91.5183 C 232.6556 90.7558 232.6117 89.7863 231.9842 89.2689 C 231.3971 88.7853 230.4534 88.6278 229.7347 88.8752 C 229.0194 89.1204 228.5999 89.9111 228.2164 90.5623 C 227.8351 91.2102 227.97 92.6577 227.4853 92.6993 C 226.9859 92.742 226.6879 91.3676 226.2481 90.731 C 225.8072 90.0933 225.5755 89.1272 224.8422 88.8752 C 224.1246 88.6289 223.2575 89.0406 222.649 89.4938 C 222 89.9786 221.9809 91.0808 221.2993 91.5183 C 220.6133 91.9592 219.6797 92.0773 218.8812 91.912 C 217.8644 91.7017 217.1244 90.7367 216.1256 90.4498 C 215.3158 90.217 214.3508 90.0213 213.595 90.3936 C 212.8493 90.7614 212.8898 92.0728 212.1329 92.4181 C 211.4119 92.7465 210.5099 91.8524 209.771 92.1369 C 208.3403 92.688 207.3742 94.0951 206.0032 94.78 C 205.1259 95.2187 204.0934 95.2445 203.1351 95.4548 C 202.3894 95.6191 201.1275 95.2749 200.8857 95.9047 C 200.6214 96.5964 201.4368 97.6154 202.1229 98.0979 C 202.8922 98.6389 204.595 98.0608 204.8784 98.7165 C 205.1293 99.298 203.585 99.8356 203.1914 100.5723 C 202.8292 101.2494 202.2803 102.1694 202.6852 102.8217 C 203.0924 103.4775 204.1721 103.2638 204.9347 103.3841 C 205.713 103.5078 206.5104 103.4921 207.2966 103.5528 C 208.2144 103.6237 209.1321 103.8182 210.0522 103.7778 C 212.0834 103.6867 214.0966 103.2908 216.1256 103.1592 C 217.2841 103.0838 218.4515 103.1783 219.6123 103.1592 C 221.8223 103.122 224.038 103.004 226.2481 102.9905 C 227.0354 102.986 227.8227 103.0759 228.61 103.1029 C 229.4895 103.1322 230.3724 103.1502 231.2531 103.1592 C 232.2271 103.1693 233.2045 103.1187 234.1774 103.1592 C 235.004 103.194 235.8262 103.3346 236.6517 103.3841 C 237.3997 103.4291 238.1532 103.4865 238.9012 103.4403 C 239.7773 103.3841 240.8301 103.4268 241.713 102.9905 Z "/>
    <path id="ID0.6556480447761714" fill="#2B673E" stroke="#2B673E" stroke-width="2.815203905105591" stroke-linecap="round" d="M 182.8202 104.7834 C 184.9273 104.1682 187.1851 103.2223 188.0987 101.4051 C 188.6167 100.3241 186.3392 99.8356 185.7057 98.9418 C 184.8063 97.682 184.0223 96.2434 183.7351 94.719 C 183.5324 93.6436 184.7964 91.528 184.2981 91.4815 C 183.783 91.4337 182.1966 94.7584 181.4829 94.5079 C 180.789 94.2658 182.0305 91.7138 181.4829 90.4962 C 181.0719 89.5827 179.9472 88.9521 178.9493 88.8775 C 177.8471 88.7944 176.645 89.304 175.8525 90.0739 C 174.8447 91.0536 174.7659 93.5366 173.8819 93.8041 C 173.2527 93.9941 173.7552 91.3605 172.8262 90.9889 C 171.503 90.4596 169.9589 91.2521 168.6034 91.6927 C 167.048 92.198 165.6052 93.02 164.1694 93.8041 C 163.3249 94.2658 162.5929 95.7184 161.7765 95.4228 C 160.939 95.1202 161.7019 93.1242 160.8616 92.6076 C 159.7214 91.908 158.1604 92.1276 156.8499 92.3965 C 155.5662 92.6597 154.6217 94.377 153.3309 94.156 C 152.2668 93.9744 152.4666 91.9643 151.501 91.4815 C 150.3679 90.9157 148.8209 90.7496 147.7005 91.3408 C 146.7912 91.8207 146.839 94.2334 146.4337 94.156 C 146.0283 94.0785 146.7081 91.5097 145.8706 90.9889 C 145.1246 90.5243 143.9098 91.4801 143.2665 92.1853 C 142.5923 92.9243 143.1047 95.0554 142.2108 95.0005 C 140.8173 94.9147 140.1374 92.4922 138.6918 91.9038 C 137.4334 91.3914 135.9273 91.5702 134.6098 91.9038 C 133.6076 92.1572 132.953 94.0068 132.0057 93.5929 C 129.8028 92.6315 129.1004 89.4137 126.868 88.5256 C 125.9896 88.1765 125.7827 90.1007 125.4604 90.9889 C 125.0254 92.1853 125.4097 94.3981 124.6158 94.719 C 123.9317 94.9963 123.4011 92.8187 122.5044 92.1853 C 121.5838 91.535 120.4592 90.8833 119.3373 90.9889 C 118.2366 91.093 117.3976 92.0741 116.5221 92.7484 C 115.3524 93.6492 114.5726 95.1244 113.2142 95.7043 C 111.6954 96.3532 109.7234 95.451 108.2876 96.2674 C 107.3572 96.7966 106.6098 98.3267 107.0208 99.2233 C 107.384 100.0158 109.8923 99.0854 109.836 99.6456 C 107.0194 102.0428 106.3944 103.6221 107.0912 104.8537 C 107.6852 105.8264 109.5981 105.0832 111.1028 105.0649 C 119.236 104.5694 125.0451 104.6933 131.3019 104.5722 C 132.9643 104.5412 134.5859 104.3611 136.2285 104.3611 C 139.1127 104.3611 142.0124 104.3188 144.8853 104.5722 C 146.0184 104.6722 147.0727 105.2211 148.1932 105.4168 C 149.353 105.6195 150.5354 105.7954 151.7122 105.7687 C 155.6323 105.6786 159.5497 105.2493 163.4656 105.0649 C 164.5424 105.0142 165.6249 105.1001 166.7031 105.0649 C 167.8067 105.0297 168.9074 104.8185 170.011 104.8537 C 171.1202 104.8889 172.2082 105.2915 173.3188 105.276 C 176.4691 105.2282 179.7797 105.6434 182.8202 104.7834 Z "/>
    <path id="ID0.6556480447761714" fill="#2B673E" stroke="#2B673E" stroke-width="2.815203905105591" stroke-linecap="round" d="M 78.0242 104.0796 C 80.1314 103.4644 82.3892 102.5185 83.3027 100.7013 C 83.8207 99.6203 81.5432 99.1318 80.9098 98.238 C 80.0103 96.9782 79.2263 95.5396 78.9391 94.0152 C 78.7364 92.9398 80.0005 90.8242 79.5022 90.7777 C 78.987 90.7299 77.4006 94.0546 76.687 93.8041 C 75.993 93.562 77.2345 91.01 76.687 89.7924 C 76.276 88.8789 75.1513 88.2483 74.1533 88.1737 C 73.0511 88.0906 71.849 88.6002 71.0566 89.3701 C 70.0487 90.3498 69.9699 92.8328 69.0859 93.1003 C 68.4567 93.2903 68.9592 90.6567 68.0302 90.2851 C 66.7071 89.7558 65.1629 90.5483 63.8074 90.9889 C 62.252 91.4942 60.8092 92.3162 59.3735 93.1003 C 58.5289 93.562 57.797 95.0146 56.9805 94.719 C 56.143 94.4164 56.9059 92.4204 56.0656 91.9038 C 54.9254 91.2042 53.3644 91.4238 52.0539 91.6927 C 50.7702 91.9559 49.8257 93.6732 48.5349 93.4522 C 47.4708 93.2706 47.6707 91.2605 46.7051 90.7777 C 45.5719 90.2119 44.025 90.0458 42.9045 90.637 C 41.9952 91.1169 42.0431 93.5296 41.6377 93.4522 C 41.2323 93.3747 41.9122 90.8059 41.0746 90.2851 C 40.3286 89.8205 39.1139 90.7763 38.4706 91.4815 C 37.7963 92.2205 38.3087 94.3516 37.4149 94.2967 C 36.0214 94.2109 35.3415 91.7884 33.8959 91.2 C 32.6375 90.6876 31.1313 90.8664 29.8138 91.2 C 28.8116 91.4534 28.1571 93.303 27.2098 92.8891 C 25.0069 91.9277 24.3045 88.7099 22.072 87.8218 C 21.1937 87.4727 20.9868 89.3969 20.6644 90.2851 C 20.2295 91.4815 20.6137 93.6943 19.8199 94.0152 C 19.1358 94.2925 18.6051 92.1149 17.7085 91.4815 C 16.7879 90.8312 15.6632 90.1795 14.5413 90.2851 C 13.4406 90.3892 12.6017 91.3703 11.7261 92.0446 C 10.5564 92.9454 9.7766 94.4206 8.4183 95.0005 C 6.8995 95.6494 4.9274 94.7472 3.4917 95.5636 C 2.5612 96.0928 1.8138 97.6229 2.2248 98.5195 C 2.588 99.312 5.0963 98.3816 5.04 98.9418 C 2.2234 101.339 1.5984 102.9183 2.2952 104.1499 C 2.8892 105.1226 4.8021 104.3794 6.3069 104.3611 C 14.44 103.8656 20.2492 103.9895 26.506 103.8684 C 28.1683 103.8374 29.7899 103.6573 31.4326 103.6573 C 34.3167 103.6573 37.2164 103.615 40.0893 103.8684 C 41.2224 103.9684 42.2767 104.5173 43.3972 104.713 C 44.5571 104.9157 45.7394 105.0916 46.9162 105.0649 C 50.8364 104.9748 54.7537 104.5455 58.6697 104.3611 C 59.7465 104.3104 60.8289 104.3963 61.9072 104.3611 C 63.0107 104.3259 64.1115 104.1147 65.215 104.1499 C 66.3242 104.1851 67.4123 104.5877 68.5229 104.5722 C 71.6731 104.5244 74.9838 104.9396 78.0242 104.0796 Z "/>
    <path id="ID0.6556480447761714" fill="#2B673E" stroke="#2B673E" stroke-width="2.815203905105591" stroke-linecap="round" d="M 471.3082 102.672 C 473.4154 102.0568 475.6732 101.1109 476.5867 99.2937 C 477.1047 98.2127 474.8272 97.7242 474.1938 96.8304 C 473.2943 95.5706 472.5103 94.132 472.2231 92.6076 C 472.0204 91.5322 473.2845 89.4166 472.7862 89.3701 C 472.271 89.3223 470.6846 92.647 469.971 92.3965 C 469.277 92.1544 470.5185 89.6024 469.971 88.3848 C 469.5599 87.4713 468.4353 86.8407 467.4373 86.766 C 466.3351 86.683 465.133 87.1926 464.3406 87.9625 C 463.3327 88.9422 463.2539 91.4252 462.3699 91.6927 C 461.7407 91.8827 462.2432 89.2491 461.3142 88.8775 C 459.9911 88.3482 458.4469 89.1407 457.0914 89.5813 C 455.536 90.0866 454.0932 90.9086 452.6575 91.6927 C 451.8129 92.1544 451.0809 93.607 450.2645 93.3114 C 449.427 93.0088 450.1899 91.0128 449.3496 90.4962 C 448.2094 89.7966 446.6484 90.0162 445.3379 90.2851 C 444.0542 90.5483 443.1097 92.2656 441.8189 92.0446 C 440.7548 91.863 440.9547 89.8529 439.989 89.3701 C 438.8559 88.8043 437.309 88.6382 436.1885 89.2294 C 435.2792 89.7093 435.3271 92.122 434.9217 92.0446 C 434.5163 91.9671 435.1962 89.3983 434.3586 88.8775 C 433.6126 88.4129 432.3978 89.3687 431.7546 90.0739 C 431.0803 90.8129 431.5927 92.944 430.6989 92.8891 C 429.3053 92.8033 428.6255 90.3808 427.1799 89.7924 C 425.9215 89.28 424.4153 89.4588 423.0978 89.7924 C 422.0956 90.0458 421.4411 91.8954 420.4938 91.4815 C 418.2909 90.5201 417.5885 87.3023 415.356 86.4141 C 414.4777 86.0651 414.2707 87.9893 413.9484 88.8775 C 413.5135 90.0739 413.8977 92.2867 413.1038 92.6076 C 412.4197 92.8849 411.8891 90.7073 410.9924 90.0739 C 410.0719 89.4236 408.9472 88.7719 407.8253 88.8775 C 406.7246 88.9816 405.8857 89.9627 405.0101 90.637 C 403.8404 91.5378 403.0606 93.013 401.7023 93.5929 C 400.1835 94.2418 398.2114 93.3396 396.7757 94.156 C 395.8452 94.6852 395.0978 96.2153 395.5088 97.1119 C 395.872 97.9044 398.3803 96.974 398.324 97.5342 C 395.5074 99.9314 394.8824 101.5107 395.5792 102.7423 C 396.1732 103.715 398.0861 102.9718 399.5909 102.9535 C 407.724 102.458 413.5332 102.5819 419.7899 102.4608 C 421.4523 102.4298 423.0739 102.2497 424.7166 102.2497 C 427.6007 102.2497 430.5004 102.2074 433.3733 102.4608 C 434.5064 102.5608 435.5607 103.1097 436.6812 103.3054 C 437.841 103.5081 439.0234 103.684 440.2002 103.6573 C 444.1203 103.5672 448.0377 103.1379 451.9537 102.9535 C 453.0305 102.9028 454.1129 102.9887 455.1911 102.9535 C 456.2947 102.9183 457.3954 102.7071 458.499 102.7423 C 459.6082 102.7775 460.6963 103.1801 461.8069 103.1646 C 464.9571 103.1168 468.2678 103.532 471.3082 102.672 Z "/>
    <path id="ID0.6556480447761714" fill="#2B673E" stroke="#2B673E" stroke-width="2.815203905105591" stroke-linecap="round" d="M 553.5121 101.2643 C 555.6193 100.6492 557.8771 99.7033 558.7906 97.8861 C 559.3086 96.8051 557.0311 96.3166 556.3977 95.4228 C 555.4983 94.163 554.7142 92.7244 554.4271 91.2 C 554.2244 90.1246 555.4884 88.009 554.9901 87.9625 C 554.4749 87.9147 552.8886 91.2394 552.1749 90.9889 C 551.481 90.7467 552.7225 88.1948 552.1749 86.9772 C 551.7639 86.0637 550.6392 85.4331 549.6412 85.3584 C 548.5391 85.2754 547.337 85.785 546.5445 86.5549 C 545.5367 87.5346 545.4578 90.0176 544.5739 90.2851 C 543.9447 90.4751 544.4472 87.8415 543.5182 87.4699 C 542.195 86.9406 540.6509 87.7331 539.2954 88.1737 C 537.74 88.679 536.2972 89.501 534.8614 90.2851 C 534.0168 90.7467 533.2849 92.1994 532.4685 91.9038 C 531.631 91.6012 532.3939 89.6052 531.5535 89.0886 C 530.4134 88.389 528.8524 88.6086 527.5419 88.8775 C 526.2581 89.1407 525.3136 90.8579 524.0229 90.637 C 522.9587 90.4554 523.1586 88.4453 522.193 87.9625 C 521.0599 87.3967 519.5129 87.2306 518.3925 87.8218 C 517.4832 88.3017 517.531 90.7144 517.1256 90.637 C 516.7202 90.5595 517.4001 87.9907 516.5626 87.4699 C 515.8166 87.0053 514.6018 87.9611 513.9585 88.6663 C 513.2843 89.4053 513.7966 91.5364 512.9028 91.4815 C 511.5093 91.3957 510.8294 88.9732 509.3838 88.3848 C 508.1254 87.8724 506.6193 88.0512 505.3018 88.3848 C 504.2996 88.6382 503.645 90.4877 502.6977 90.0739 C 500.4948 89.1125 499.7924 85.8947 497.56 85.0065 C 496.6816 84.6575 496.4747 86.5817 496.1524 87.4699 C 495.7174 88.6663 496.1017 90.8791 495.3078 91.2 C 494.6237 91.4773 494.093 89.2997 493.1964 88.6663 C 492.2758 88.016 491.1511 87.3643 490.0293 87.4699 C 488.9285 87.574 488.0896 88.5551 487.2141 89.2294 C 486.0444 90.1302 485.2646 91.6054 483.9062 92.1853 C 482.3874 92.8342 480.4154 91.9319 478.9796 92.7484 C 478.0492 93.2776 477.3018 94.8077 477.7128 95.7043 C 478.0759 96.4968 480.5843 95.5664 480.528 96.1266 C 477.7114 98.5237 477.0864 100.1031 477.7832 101.3347 C 478.3772 102.3074 480.2901 101.5642 481.7948 101.5459 C 489.9279 101.0504 495.7371 101.1743 501.9939 101.0532 C 503.6563 101.0222 505.2778 100.8421 506.9205 100.8421 C 509.8047 100.8421 512.7043 100.7998 515.5773 101.0532 C 516.7104 101.1531 517.7647 101.7021 518.8851 101.8978 C 520.045 102.1005 521.2274 102.2764 522.4041 102.2497 C 526.3243 102.1596 530.2417 101.7303 534.1576 101.5459 C 535.2344 101.4952 536.3169 101.5811 537.3951 101.5459 C 538.4987 101.5107 539.5994 101.2995 540.703 101.3347 C 541.8121 101.3699 542.9002 101.7725 544.0108 101.757 C 547.161 101.7092 550.4717 102.1244 553.5121 101.2643 Z "/>
    <path id="ID0.6556480447761714" fill="#2B673E" stroke="#2B673E" stroke-width="2.815203905105591" stroke-linecap="round" d="M 725.2396 102.672 C 727.3468 102.0568 729.6045 101.1109 730.5181 99.2937 C 731.0361 98.2127 728.7586 97.7242 728.1252 96.8304 C 727.2257 95.5706 726.4417 94.132 726.1545 92.6076 C 725.9518 91.5322 727.2158 89.4166 726.7176 89.3701 C 726.2024 89.3223 724.616 92.647 723.9024 92.3965 C 723.2084 92.1544 724.4499 89.6024 723.9024 88.3848 C 723.4913 87.4713 722.3667 86.8407 721.3687 86.766 C 720.2665 86.683 719.0644 87.1926 718.2719 87.9625 C 717.2641 88.9422 717.1853 91.4252 716.3013 91.6927 C 715.6721 91.8827 716.1746 89.2491 715.2456 88.8775 C 713.9225 88.3482 712.3783 89.1407 711.0228 89.5813 C 709.4674 90.0866 708.0246 90.9086 706.5888 91.6927 C 705.7443 92.1544 705.0123 93.607 704.1959 93.3114 C 703.3584 93.0088 704.1213 91.0128 703.281 90.4962 C 702.1408 89.7966 700.5798 90.0162 699.2693 90.2851 C 697.9856 90.5483 697.0411 92.2656 695.7503 92.0446 C 694.6862 91.863 694.886 89.8529 693.9204 89.3701 C 692.7873 88.8043 691.2404 88.6382 690.1199 89.2294 C 689.2106 89.7093 689.2585 92.122 688.8531 92.0446 C 688.4477 91.9671 689.1275 89.3983 688.29 88.8775 C 687.544 88.4129 686.3292 89.3687 685.686 90.0739 C 685.0117 90.8129 685.5241 92.944 684.6303 92.8891 C 683.2367 92.8033 682.5569 90.3808 681.1113 89.7924 C 679.8529 89.28 678.3467 89.4588 677.0292 89.7924 C 676.027 90.0458 675.3725 91.8954 674.4251 91.4815 C 672.2222 90.5201 671.5199 87.3023 669.2874 86.4141 C 668.4091 86.0651 668.2021 87.9893 667.8798 88.8775 C 667.4448 90.0739 667.8291 92.2867 667.0352 92.6076 C 666.3511 92.8849 665.8205 90.7073 664.9238 90.0739 C 664.0033 89.4236 662.8786 88.7719 661.7567 88.8775 C 660.656 88.9816 659.817 89.9627 658.9415 90.637 C 657.7718 91.5378 656.992 93.013 655.6337 93.5929 C 654.1149 94.2418 652.1428 93.3396 650.707 94.156 C 649.7766 94.6852 649.0292 96.2153 649.4402 97.1119 C 649.8034 97.9044 652.3117 96.974 652.2554 97.5342 C 649.4388 99.9314 648.8138 101.5107 649.5106 102.7423 C 650.1046 103.715 652.0175 102.9718 653.5223 102.9535 C 661.6554 102.458 667.4646 102.5819 673.7213 102.4608 C 675.3837 102.4298 677.0053 102.2497 678.6479 102.2497 C 681.5321 102.2497 684.4318 102.2074 687.3047 102.4608 C 688.4378 102.5608 689.4921 103.1097 690.6126 103.3054 C 691.7724 103.5081 692.9548 103.684 694.1316 103.6573 C 698.0517 103.5672 701.9691 103.1379 705.885 102.9535 C 706.9619 102.9028 708.0443 102.9887 709.1225 102.9535 C 710.2261 102.9183 711.3268 102.7071 712.4304 102.7423 C 713.5396 102.7775 714.6277 103.1801 715.7383 103.1646 C 718.8885 103.1168 722.1992 103.532 725.2396 102.672 Z "/>
    <path id="ID0.8410096536390483" fill="#2B673E" stroke="#2B673E" stroke-width="2.249436587976618" stroke-linecap="round" d="M 626.0587 104.8907 C 627.1362 104.3374 628.1574 103.5456 628.9267 102.4726 C 629.3676 101.8562 629.6814 100.8552 629.2641 100.2231 C 628.8491 99.5944 627.8222 99.5922 627.0709 99.6608 C 626.3117 99.7305 625.62 100.9587 624.9902 100.6168 C 624.3266 100.2558 624.8035 98.9938 624.4841 98.2549 C 624.1354 97.4496 623.8452 96.3642 623.0219 96.0617 C 622.2436 95.776 621.4878 96.8861 620.66 96.849 C 619.7355 96.8074 618.7221 96.4958 618.0732 95.8367 C 617.4793 95.2328 617.5817 94.2115 617.2859 93.4186 C 617.0013 92.656 616.9575 91.6865 616.3299 91.1692 C 615.7428 90.6855 614.7991 90.5281 614.0804 90.7755 C 613.3651 91.0207 612.9456 91.8114 612.5621 92.4626 C 612.1808 93.1104 612.3158 94.5579 611.831 94.5995 C 611.3316 94.6423 611.0336 93.2679 610.5938 92.6313 C 610.1529 91.9936 609.9212 91.0274 609.1879 90.7755 C 608.4703 90.5292 607.6032 90.9408 606.9947 91.3941 C 606.3457 91.8789 606.3266 92.9811 605.645 93.4186 C 604.959 93.8595 604.0255 93.9776 603.2269 93.8122 C 602.2102 93.6019 601.4701 92.6369 600.4713 92.3501 C 599.6615 92.1173 598.6965 91.9216 597.9407 92.2939 C 597.195 92.6617 597.2355 93.9731 596.4786 94.3184 C 595.7576 94.6468 594.8556 93.7526 594.1167 94.0372 C 592.686 94.5883 591.7199 95.9953 590.3489 96.6803 C 589.4716 97.1189 588.4391 97.1448 587.4808 97.3551 C 586.7352 97.5193 585.4732 97.1752 585.2314 97.805 C 584.9671 98.4967 585.7825 99.5157 586.4686 99.9982 C 587.2379 100.5392 588.9407 99.9611 589.2242 100.6168 C 589.475 101.1983 587.9307 101.7359 587.5371 102.4726 C 587.1749 103.1497 586.6261 104.0697 587.031 104.722 C 587.4381 105.3777 588.5178 105.164 589.2804 105.2844 C 590.0587 105.4081 590.8561 105.3923 591.6423 105.4531 C 592.5601 105.5239 593.4778 105.7185 594.3979 105.678 C 596.4291 105.5869 598.4424 105.191 600.4713 105.0594 C 601.6298 104.9841 602.7973 105.0785 603.958 105.0594 C 606.168 105.0223 608.3837 104.9042 610.5938 104.8907 C 611.3811 104.8862 612.1684 104.9762 612.9557 105.0032 C 613.8352 105.0324 614.7181 105.0504 615.5988 105.0594 C 616.5728 105.0695 617.5502 105.0189 618.5231 105.0594 C 619.3497 105.0943 620.1719 105.2349 620.9975 105.2844 C 621.7454 105.3294 622.499 105.3867 623.2469 105.3406 C 624.123 105.2844 625.1758 105.3271 626.0587 104.8907 Z "/>
  </g>
</svg>