<svg xmlns="http://www.w3.org/2000/svg" xmlns:xlink="http://www.w3.org/1999/xlink" version="1.1" width="475.2631200205898" height="151.60882314558975" viewBox="-0.3443590825605054 -0.5943590825605054 475.2631200205898 151.60882314558975">
  <!-- Exported by Scratch - http://scratch.mit.edu/ -->
  <path id="ID0.6950879245996475" fill="none" stroke="#000000" stroke-width="2" stroke-linecap="round" d="M 1.5 105.5 L 419 106 "/>
  <path id="ID0.3887670743279159" fill="#333640" stroke="#000000" stroke-width="1.6587940426754504" d="M 473.0744 84.9416 L 379.8597 84.9416 L 379.8597 149.1701 L 473.0744 149.1701 L 473.0744 84.9416 Z "/>
  <path id="ID0.7782022436149418" fill="#FFCEA8" stroke="#000000" stroke-width="3.688718165121011" d="M 358.4316 8.4038 C 343.9634 8.4038 330.8532 14.4101 321.36 24.1137 C 311.8668 33.8173 305.9907 47.2182 305.9907 62.0071 C 305.9907 76.796 311.8668 90.1968 321.36 99.9004 C 330.8532 109.604 345.2503 113.3758 358.4316 115.6104 C 364.367 116.606 369.6677 112.1817 374.9847 110.1568 C 382.0401 106.9378 390.9487 105.8975 395.5033 99.9004 C 403.6968 89.1117 410.8726 76.796 410.8726 62.0071 C 410.8726 47.2182 404.9965 33.8173 395.5033 24.1137 C 386.0101 14.4101 372.8999 8.4038 358.4316 8.4038 Z "/>
  <path id="ID0.3346423259936273" fill="#000000" stroke="none" d="M 313.3877 55.1066 C 312.0459 55.1066 310.83 55.7777 309.9494 56.8625 C 309.0687 57.9473 308.524 59.4451 308.524 61.0979 C 308.524 62.7507 309.0687 64.2485 309.9494 65.3333 C 310.83 66.4181 312.0459 67.0891 313.3877 67.0891 C 314.7294 67.0891 315.9453 66.4181 316.8259 65.3333 C 317.7066 64.2485 318.2513 62.7507 318.2513 61.0979 C 318.2513 59.4451 317.7066 57.9473 316.8259 56.8625 C 315.9453 55.7777 314.7294 55.1066 313.3877 55.1066 Z " stroke-width="0.7275529701179053"/>
  <path id="ID0.16971953120082617" fill="#5B5341" stroke="#000000" stroke-width="2" stroke-linecap="round" d="M 368 6 C 366.425 6.216 366.623 4.785 366 3.75 C 365.437 2.833 364.211 2.506 363.25 2 C 362.621 1.669 361.961 1.25 361.25 1.25 C 360.46 1.25 359.651 1.553 359 2 C 358.271 2.501 357.941 3.447 357.25 4 C 356.669 4.465 355.995 5 355.25 5 C 354.579 5 354.161 4.117 353.5 4 C 352.676 3.855 351.806 4.026 351 4.25 C 350.283 4.449 349.743 5.204 349 5.25 C 348.29 5.294 347.685 4.69 347 4.5 C 346.182 4.273 345.34 3.874 344.5 4 C 343.58 4.138 342.867 4.913 342 5.25 C 341.36 5.499 340.683 5.685 340 5.75 C 338.923 5.853 337.832 5.75 336.75 5.75 C 336.084 5.75 335.394 5.581 334.75 5.75 C 333.777 6.006 332.794 6.382 332 7 C 331.251 7.583 330.946 8.604 330.25 9.25 C 329.758 9.707 329.117 9.986 328.5 10.25 C 327.362 10.738 326.184 11.14 325 11.5 C 324.266 11.723 323.381 11.563 322.75 12 C 322.198 12.382 321.921 13.101 321.75 13.75 C 321.495 14.719 321.546 15.749 321.5 16.75 C 321.462 17.582 321.208 18.471 321.5 19.25 C 321.748 19.911 323.23 20.406 323 20.75 C 322.73 21.156 321.325 20.638 320.5 20.75 C 319.48 20.889 318.472 21.16 317.5 21.5 C 316.797 21.746 316.07 22.02 315.5 22.5 C 314.463 23.373 313.563 24.416 312.75 25.5 C 312.303 26.096 312.238 26.937 311.75 27.5 C 311.128 28.217 310.148 28.556 309.5 29.25 C 308.964 29.824 308.386 30.477 308.25 31.25 C 308.117 32.006 308.495 32.776 308.75 33.5 C 308.998 34.202 309.337 34.88 309.75 35.5 C 310.176 36.139 311.141 36.49 311.25 37.25 C 311.345 37.914 309.849 38.599 310.25 39 C 310.849 39.599 312.251 39.33 313.25 39.25 C 314.357 39.161 315.452 38.867 316.5 38.5 C 317.134 38.278 317.676 37.213 318.25 37.5 C 318.926 37.838 318.819 38.981 319 39.75 C 319.154 40.403 319.213 41.08 319.25 41.75 C 319.296 42.581 318.537 43.945 319.25 44.25 C 320.287 44.695 321.684 43.827 322.75 43.25 C 323.735 42.717 324.403 40.805 325.25 41 C 326.028 41.18 326.047 42.971 326 44 C 325.959 44.896 325.16 45.618 325 46.5 C 324.821 47.483 325.04 48.502 325 49.5 C 324.957 50.585 324.837 51.668 324.75 52.75 C 324.67 53.749 324.542 54.748 324.5 55.75 C 324.458 56.748 324.55 57.752 324.5 58.75 C 324.466 59.42 324.292 60.08 324.25 60.75 C 324.208 61.415 324.289 62.085 324.25 62.75 C 324.206 63.503 324.036 64.247 324 65 C 323.952 65.998 324 67.001 324 68 C 324 68.666 324 69.334 324 70 C 324 70.666 323.593 71.884 324 72 C 324.468 72.134 325.25 71.083 325.75 70.5 C 326.261 69.904 326.529 69.128 327 68.5 C 327.531 67.792 328.148 67.148 328.75 66.5 C 329.231 65.982 329.769 65.518 330.25 65 C 330.852 64.352 331.398 63.648 332 63 C 332.481 62.482 333.376 61.047 333.5 61.5 C 333.749 62.414 333.002 64.335 332.75 65.75 C 332.336 68.081 331.882 70.413 331.5 72.75 C 331.215 74.493 330.905 76.241 330.75 78 C 330.655 79.078 330.75 80.168 330.75 81.25 C 330.75 82.416 330.75 83.584 330.75 84.75 C 330.75 86.082 330.661 87.421 330.75 88.75 C 330.828 89.925 331.148 91.077 331.25 92.25 C 331.315 92.996 331.211 93.752 331.25 94.5 C 331.294 95.335 331.319 96.91 331.5 97 C 331.681 97.09 331.932 95.636 332.25 95 C 333.266 92.968 334.439 91.01 335.5 89 C 336.021 88.012 336.435 86.964 337 86 C 337.852 84.546 338.797 83.14 339.75 81.75 C 340.795 80.226 341.463 78.019 343 77.25 C 343.713 76.894 344.175 78.646 344.25 79.5 C 344.434 81.58 343.837 83.664 343.75 85.75 C 343.67 87.663 343.75 89.585 343.75 91.5 C 343.75 92.582 343.75 93.668 343.75 94.75 C 343.75 95.749 343.75 96.751 343.75 97.75 C 343.75 98.499 343.75 99.251 343.75 100 C 343.75 100.666 343.255 101.951 343.75 102 C 344.505 102.076 345.394 100.798 346.25 100.25 C 347.477 99.465 348.782 98.799 350 98 C 351.448 97.05 352.864 96.039 354.25 95 C 355.529 94.04 356.707 92.941 358 92 C 358.543 91.605 359.186 91.365 359.75 91 C 360.603 90.448 361.728 88.728 362.25 89.25 C 362.978 89.978 362.25 92.085 362.25 93.5 C 362.25 94.832 362.199 96.169 362.25 97.5 C 362.282 98.336 362.458 99.164 362.5 100 C 362.542 100.831 361.838 102.169 362.5 102.5 C 363.338 102.919 364.586 102.022 365.5 101.5 C 366.37 101.003 366.943 100.095 367.75 99.5 C 368.532 98.924 369.351 98.368 370.25 98 C 371.203 97.61 372.265 97.55 373.25 97.25 C 374.182 96.966 375.049 96.039 376 96.25 C 376.864 96.442 377.17 97.581 377.75 98.25 C 378.253 98.83 378.686 99.479 379.25 100 C 379.776 100.486 380.297 101.384 381 101.25 C 382.361 100.991 383.438 99.89 384.5 99 C 386.034 97.714 387.335 96.165 388.75 94.75 C 389.749 93.751 390.632 92.614 391.75 91.75 C 392.486 91.181 393.362 90.222 394.25 90.5 C 395.177 90.79 395.431 92.083 395.75 93 C 396.11 94.034 396.095 95.166 396.25 96.25 C 396.345 96.914 396.032 98.344 396.5 98.25 C 397.282 98.094 397.995 96.577 398.75 95.75 C 399.743 94.662 400.759 93.59 401.75 92.5 C 402.424 91.758 403.141 91.046 403.75 90.25 C 404.227 89.626 404.615 88.935 405 88.25 C 405.365 87.601 405.698 86.93 406 86.25 C 406.364 85.431 406.629 84.566 407 83.75 C 407.462 82.733 408 81.749 408.5 80.75 C 408.916 79.918 409.092 78.908 409.75 78.25 C 410.253 77.747 411.397 78.118 411.75 77.5 C 412.512 76.167 412.354 74.483 412.75 73 C 413.021 71.983 413.443 71.007 413.75 70 C 414.026 69.092 414.33 68.184 414.5 67.25 C 414.664 66.345 414.631 65.412 414.75 64.5 C 414.881 63.496 415.172 62.51 415.25 61.5 C 415.339 60.338 415.25 59.166 415.25 58 C 415.25 56.918 415.25 55.832 415.25 54.75 C 415.25 53.584 415.293 52.415 415.25 51.25 C 415.21 50.165 415.139 49.077 415 48 C 414.806 46.493 414.58 44.983 414.25 43.5 C 414.079 42.729 413.649 42.026 413.5 41.25 C 413.231 39.851 413.234 38.406 413 37 C 412.817 35.904 412.539 34.823 412.25 33.75 C 411.956 32.657 411.71 31.535 411.25 30.5 C 410.705 29.273 410.006 28.109 409.25 27 C 408.751 26.269 408.041 25.7 407.5 25 C 406.624 23.867 406.013 22.513 405 21.5 C 404.314 20.814 403.361 20.448 402.5 20 C 401.277 19.364 399.952 18.923 398.75 18.25 C 397.863 17.753 397.145 16.982 396.25 16.5 C 394.97 15.811 393.55 15.4 392.25 14.75 C 391.548 14.399 390.952 13.851 390.25 13.5 C 389.282 13.016 388.228 12.713 387.25 12.25 C 386.643 11.963 386.058 11.622 385.5 11.25 C 384.807 10.788 384.166 10.25 383.5 9.75 C 382.501 9.001 381.531 8.205 380.5 7.5 C 379.946 7.121 379.373 6.749 378.75 6.5 C 378.113 6.245 377.425 6.127 376.75 6 C 376.09 5.876 375.417 5.68 374.75 5.75 C 373.806 5.849 372.929 6.304 372 6.5 C 371.343 6.638 370.661 6.635 370 6.75 C 368.745 6.968 367.499 7.25 366.25 7.5 C 365.938 7.562 366.268 7.768 366.25 7.5 Z "/>
</svg>