<svg xmlns="http://www.w3.org/2000/svg" xmlns:xlink="http://www.w3.org/1999/xlink" version="1.1" width="563.9844334971523" height="288.32079824324603" viewBox="-0.06565908847328616 -0.35635916648384525 563.9844334971523 288.32079824324603">
  <!-- Exported by Scratch - http://scratch.mit.edu/ -->
  <g id="ID0.8378670467063785">
    <path id="ID0.7782022436149418" fill="#FFCEA8" stroke="#000000" stroke-width="2.948816404671783" d="M 495.5916 37.0871 C 484.0255 37.0871 473.545 41.8887 465.956 49.6459 C 458.367 57.4031 453.6695 68.1159 453.6695 79.9384 C 453.6695 91.7609 458.367 102.4737 465.956 110.2309 C 473.545 117.9881 485.0542 121.0034 495.5916 122.7897 C 500.3365 123.5856 504.5739 120.0487 508.8244 118.43 C 514.4646 115.8567 521.5862 115.025 525.2272 110.2309 C 531.7773 101.6062 537.5137 91.7609 537.5137 79.9384 C 537.5137 68.1159 532.8162 57.4031 525.2272 49.6459 C 517.6382 41.8887 507.1577 37.0871 495.5916 37.0871 Z "/>
    <path id="ID0.3346423259936273" fill="#000000" stroke="none" d="M 459.6134 74.488 C 458.5408 74.488 457.5688 75.0244 456.8648 75.8916 C 456.1608 76.7588 455.7254 77.9562 455.7254 79.2774 C 455.7254 80.5987 456.1608 81.7961 456.8648 82.6633 C 457.5688 83.5305 458.5408 84.0669 459.6134 84.0669 C 460.686 84.0669 461.658 83.5305 462.362 82.6633 C 463.066 81.7961 463.5015 80.5987 463.5015 79.2774 C 463.5015 77.9562 463.066 76.7588 462.362 75.8916 C 461.658 75.0244 460.686 74.488 459.6134 74.488 Z " stroke-width="0.5816167158598449"/>
    <path id="ID0.21914752153679729" fill="#D8B992" stroke="#000000" stroke-width="2" stroke-linecap="round" d="M 514.75 36.25 C 512.663 34.767 510.663 33.713 508.5 33.25 C 507.116 32.953 505.662 33.346 504.25 33.25 C 501.994 33.096 499.729 32.881 497.5 32.5 C 492.897 31.714 488.383 30.329 483.75 29.75 C 482.336 29.573 480.922 30.157 479.5 30.25 C 477.089 30.407 474.665 30.556 472.25 30.5 C 471.073 30.473 469.924 29.912 468.75 30 C 466.552 30.165 464.341 30.553 462.25 31.25 C 461.522 31.493 460.802 32.045 460.5 32.75 C 460.236 33.367 460.527 34.117 460.75 34.75 C 461.035 35.558 461.905 36.148 462 37 C 462.087 37.785 461.567 38.526 461.25 39.25 C 460.981 39.865 460.615 40.436 460.25 41 C 459.698 41.853 459.054 42.648 458.5 43.5 C 457.971 44.314 457.434 45.132 457 46 C 456.682 46.636 456.374 47.3 456.25 48 C 456.12 48.738 455.878 49.599 456.25 50.25 C 456.64 50.932 457.539 51.166 458.25 51.5 C 458.965 51.836 459.734 52.058 460.5 52.25 C 461.403 52.476 462.329 52.618 463.25 52.75 C 464.078 52.868 464.915 52.954 465.75 53 C 466.415 53.037 467.118 52.789 467.75 53 C 468.429 53.226 468.956 53.784 469.5 54.25 C 470.126 54.786 470.864 55.272 471.25 56 C 471.647 56.75 471.544 57.676 471.75 58.5 C 471.961 59.343 472.33 60.148 472.5 61 C 472.664 61.82 472.71 62.664 472.75 63.5 C 472.794 64.415 472.708 65.335 472.75 66.25 C 472.792 67.169 472.967 68.081 473 69 C 473.051 70.414 472.929 71.837 473 73.25 C 473.096 75.17 473.123 77.115 473.5 79 C 473.632 79.658 473.837 80.648 474.5 80.75 C 475.347 80.88 476.181 80.141 476.75 79.5 C 477.567 78.581 478.027 77.385 478.5 76.25 C 478.865 75.374 478.977 74.409 479.25 73.5 C 479.477 72.744 479.49 71.853 480 71.25 C 480.481 70.682 481.311 70.534 482 70.25 C 482.73 69.949 483.509 69.227 484.25 69.5 C 485.355 69.907 486.183 70.968 486.75 72 C 487.153 72.733 486.931 73.666 487 74.5 C 487.097 75.664 487.197 76.833 487.25 78 C 487.28 78.665 487.172 79.339 487.25 80 C 487.34 80.762 487.624 81.493 487.75 82.25 C 487.874 82.994 487.935 83.749 488 84.5 C 488.101 85.664 487.797 86.923 488.25 88 C 488.528 88.66 489.285 89.214 490 89.25 C 491.131 89.307 492.118 88.25 493.25 88.25 C 494.542 88.25 495.864 88.634 497 89.25 C 497.932 89.755 498.311 91.008 499.25 91.5 C 500.147 91.97 501.24 92.081 502.25 92 C 503.379 91.91 504.371 91.084 505.5 91 C 506.674 90.913 507.92 91.031 509 91.5 C 509.919 91.9 510.482 92.855 511.25 93.5 C 512.564 94.604 513.727 95.958 515.25 96.75 C 515.915 97.096 516.768 96.909 517.5 96.75 C 518.709 96.487 519.841 95.935 521 95.5 C 521.84 95.185 522.612 94.621 523.5 94.5 C 524.493 94.365 525.515 94.562 526.5 94.75 C 527.276 94.898 527.981 95.319 528.75 95.5 C 529.403 95.654 530.08 95.715 530.75 95.75 C 531.664 95.798 532.586 95.811 533.5 95.75 C 535.087 95.644 536.952 96.169 538.25 95.25 C 539.324 94.489 539.242 92.791 539.5 91.5 C 539.745 90.273 539.729 89.001 539.75 87.75 C 539.812 84.088 539.698 80.413 539.75 76.75 C 539.782 74.501 540.376 72.218 540 70 C 539.529 67.223 538.261 64.629 537.25 62 C 536.595 60.296 535.906 58.585 535 57 C 534.561 56.232 533.833 55.666 533.25 55 C 532.667 54.334 532.053 53.691 531.5 53 C 530.387 51.609 529.275 50.207 528.25 48.75 C 527.691 47.956 527.346 47.016 526.75 46.25 C 526.172 45.507 525.397 44.935 524.75 44.25 C 523.981 43.436 523.217 42.61 522.5 41.75 C 521.551 40.611 520.744 39.349 519.75 38.25 C 519.156 37.594 518.525 36.926 517.75 36.5 C 516.827 35.993 515.743 35.849 514.75 35.5 Z "/>
  </g>
  <path id="ID0.3887670743279159" fill="#333640" stroke="#000000" stroke-width="1.611038664392381" d="M 1.7787 181.727 L 92.3097 181.727 L 92.3097 244.1065 L 1.7787 244.1065 L 1.7787 181.727 Z "/>
  <path id="ID0.5024464935995638" fill="#FF1B45" stroke="#000000" stroke-width="2.3041659542400015" stroke-linecap="round" d="M 55.9985 69.9067 C 65.96 70.1394 78.3573 70.8287 84.5225 80.0181 C 92.4407 91.896 90.6756 109.4693 92.5007 124.5085 C 94.5539 141.4314 96.2724 158.2313 96.3133 175.6436 C 96.3239 179.9969 96.295 185.5198 93.0302 186.8694 C 81.8063 191.7015 69.3892 192.2099 57.2341 192.3172 C 44.4322 192.4303 31.1657 192.4344 19.002 187.571 C 15.726 186.2066 16.079 179.7897 15.8955 175.6436 C 15.3504 163.3464 16.0741 150.9956 16.4603 138.7059 C 17.0385 126.5795 16.8281 114.2526 18.7902 102.3459 C 20.1712 93.967 20.9465 83.5757 26.7579 78.4729 C 34.7848 71.4263 45.9629 69.6731 55.9985 69.9067 Z "/>
  <path id="ID0.9501931658014655" fill="#E10139" stroke="none" stroke-linecap="round" d="M 74.7753 73.4509 L 84.7488 77.0817 L 85.3461 189.6763 L 74.0586 190.7252 L 74.7753 73.4509 Z " stroke-width="1.0192326347921006"/>
  <path id="ID0.9501931658014655" fill="#E10139" stroke="none" d="M 51.9864 81.289 L 62.4377 81.289 L 61.7211 191.1467 L 51.21 190.4925 L 51.9864 81.289 Z " stroke-width="0.9886695747640091"/>
  <path id="ID0.9501931658014655" fill="#E10139" stroke="none" stroke-linecap="round" d="M 26.6864 79.2152 L 32.9572 74.6162 L 37.1975 73.89 L 36.8391 190.3171 L 26.5073 188.5824 L 26.6864 79.2152 Z " stroke-width="1.0192326347921006"/>
  <path id="ID0.7782022436149418" fill="#C37B50" stroke="#000000" stroke-width="2.8639223694301497" d="M 73.3569 1.488 C 84.59 1.488 94.7688 6.1513 102.1393 13.6852 C 109.5098 21.2191 114.0721 31.6235 114.0721 43.1056 C 114.0721 54.5877 109.5098 64.9922 102.1393 72.526 C 94.7688 80.0599 83.5909 82.9883 73.3569 84.7233 C 68.7486 85.4963 64.6332 82.0612 60.505 80.4891 C 55.0273 77.9899 48.1106 77.1821 44.5744 72.526 C 38.213 64.1497 32.6417 54.5877 32.6417 43.1056 C 32.6417 31.6235 37.2039 21.2191 44.5744 13.6852 C 51.9449 6.1513 62.1237 1.488 73.3569 1.488 Z "/>
  <path id="ID0.3346423259936273" fill="#000000" stroke="none" d="M 91.6004 37.1453 C 92.8558 37.1453 93.9934 37.6663 94.8174 38.5085 C 95.6414 39.3508 96.1511 40.5137 96.1511 41.7969 C 96.1511 43.0801 95.6414 44.243 94.8174 45.0853 C 93.9934 45.9275 92.8558 46.4485 91.6004 46.4485 C 90.345 46.4485 89.2073 45.9275 88.3833 45.0853 C 87.5593 44.243 87.0496 43.0801 87.0496 41.7969 C 87.0496 40.5137 87.5593 39.3508 88.3833 38.5085 C 89.2073 37.6663 90.345 37.1453 91.6004 37.1453 Z " stroke-width="0.6135255574830758"/>
  <path id="ID0.5251190410926938" fill="none" stroke="#000000" stroke-width="2.156925929404255" stroke-linecap="round" d="M 88.0855 60.481 L 109.7726 60.481 "/>
  <path id="ID0.6950879245996475" fill="none" stroke="#000000" stroke-width="2" stroke-linecap="round" d="M 90.5 242.5 L 508 243 "/>
  <path id="ID0.3887670743279159" fill="#333640" stroke="#000000" stroke-width="1.6587940426754504" d="M 562.0744 221.8916 L 468.8597 221.8916 L 468.8597 286.1201 L 562.0744 286.1201 L 562.0744 221.8916 Z "/>
  <path id="ID0.5024464935995638" fill="#FF1B45" stroke="#000000" stroke-width="2.3724673088995107" stroke-linecap="round" d="M 506.261 106.7154 C 496.0042 106.955 483.2394 107.6647 476.8915 117.1265 C 468.7386 129.3565 470.556 147.4507 468.6768 162.9358 C 466.5628 180.3603 464.7933 197.6582 464.7511 215.5866 C 464.7402 220.069 464.77 225.7556 468.1315 227.1452 C 479.6882 232.1205 492.4733 232.644 504.9888 232.7545 C 518.1702 232.8709 531.8299 232.8752 544.3541 227.8676 C 547.7273 226.4627 547.3638 219.8557 547.5528 215.5866 C 548.114 202.9249 547.3689 190.208 546.9712 177.5539 C 546.3758 165.0682 546.5925 152.3759 544.5722 140.1162 C 543.1503 131.4889 542.3521 120.7896 536.3684 115.5355 C 528.1035 108.28 516.5941 106.4748 506.261 106.7154 Z "/>
  <path id="ID0.9501931658014655" fill="#E10139" stroke="none" stroke-linecap="round" d="M 487.2771 112.0251 L 477.9917 117.7573 L 476.024 230.0342 L 487.646 231.1142 L 487.2771 112.0251 Z " stroke-width="1.0494453516345517"/>
  <path id="ID0.9501931658014655" fill="#E10139" stroke="none" d="M 509.7277 108.2834 L 499.028 108.0215 L 500.3809 231.5753 L 511.2035 230.9017 L 509.7277 108.2834 Z " stroke-width="1.01797631458326"/>
  <path id="ID0.9501931658014655" fill="#E10139" stroke="none" stroke-linecap="round" d="M 536.4541 116.3628 L 529.9974 111.6274 L 525.6315 110.8798 L 526.0004 230.7581 L 536.6386 228.9719 L 536.4541 116.3628 Z " stroke-width="1.0494453516345517"/>
  <g id="ID0.7866862644441426">
    <path id="ID0.11782124871388078" fill="#FFCEA8" stroke="#000000" stroke-width="1.9562476750398694" stroke-linecap="round" d="M 461.8323 152.0056 L 479.3269 151.5156 L 476.3214 184.485 L 475.6251 217.3211 L 475.3668 228.4566 L 474.9306 231.1636 L 472.3856 232.0038 L 470.3246 229.1824 L 469.5704 223.2631 L 468.7938 233.7529 L 464.7505 234.5245 L 462.6109 232.2735 L 463.8629 222.2839 L 462.6228 232.0349 L 460.5653 233.1366 L 457.9621 230.1468 L 458.1075 222.2594 L 458.5865 212.7128 L 459.3344 181.8407 L 461.8323 152.0056 Z "/>
    <path id="ID0.13247013883665204" fill="#E10139" stroke="#000000" stroke-width="1.9562563983398749" stroke-linecap="round" d="M 459.5 145.3624 L 462.25 135.088 L 466.25 128.8756 L 470 126.0083 L 475.5 126.9641 L 479.75 131.7428 L 481.75 137.4774 L 483.5 146.5571 L 482.75 151.5748 L 460 151.8137 L 459.5 145.3624 Z "/>
  </g>
  <path id="ID0.7174010835587978" fill="#D3EFF9" stroke="#D3EFF9" stroke-width="2" stroke-linecap="round" d="M 529 157.25 C 530.191 155.998 532.027 153.693 531.75 152.5 C 531.271 151.784 529.285 153.292 528 153.5 C 526.712 153.687 525.191 153.938 523.75 154 C 523.073 154.002 522.613 153.759 521.25 153.75 C 516.422 153.673 511.56 153.733 506.5 153.75 C 505.235 153.754 504.999 153.78 504.25 153.75 C 502.916 153.697 501.389 152.811 500.25 153.5 C 498.284 154.715 495.413 158.161 495.75 159.5 C 496.027 160.561 499.788 157.298 501.75 158 C 502.941 158.633 502.133 160.935 502.25 162.25 C 502.384 163.741 502.25 165.252 502.25 166.75 C 502.25 167.499 502.307 168.253 502.25 169 C 502.141 170.421 501.893 171.836 501.75 173.25 C 501.665 174.082 501.114 175.406 502 175.75 C 503.357 176.415 505.632 176.814 506.75 175.5 C 508.149 173.843 507.123 171.167 507.25 169 C 507.289 168.335 507.172 167.661 507.25 167 C 507.34 166.238 507.574 165.497 507.75 164.75 C 507.907 164.082 507.935 163.358 508.25 162.75 C 508.722 161.815 508.921 160.16 510 159.75 C 511.899 159.044 514.127 159.429 516.25 159.5 C 516.833 159.598 517.406 160.049 518 160.25 C 518.262 160.353 518.603 159.777 518.75 160 C 519.22 161.321 519.395 162.772 519.5 164 C 519.74 166.821 519.468 169.682 519.75 172.5 C 519.887 173.866 519.472 176.056 520.75 176.5 C 522.347 177.056 524.47 175.873 525.5 174.5 C 526.301 173.432 525.306 171.833 525.25 170.5 C 525.222 169.835 525.3 169.188 525.25 168.5 C 525.049 165.749 524.178 162.99 524.5 160.25 C 524.595 159.45 525.754 159.062 526.5 158.5 C 527.26 158.06 528.347 157.928 529 157.25 Z "/>
  <path id="ID0.8753642407245934" fill="none" stroke="#000000" stroke-width="2" stroke-linecap="round" d="M 458.25 98 L 464 96.5 "/>
  <path id="ID0.47636797465384007" fill="none" stroke="#000000" stroke-width="2" stroke-linecap="round" d="M 466.5 86.5 L 454 88.75 L 453 71 L 482.5 68.75 L 466.5 69.75 L 466.5 86.5 Z "/>
  <path id="ID0.7782022436149418" fill="#FFCEA8" stroke="#000000" stroke-width="3.688718165121011" d="M 447.4316 145.3538 C 432.9634 145.3538 419.8532 151.3601 410.36 161.0637 C 400.8668 170.7673 394.9907 184.1682 394.9907 198.9571 C 394.9907 213.746 400.8668 227.1468 410.36 236.8504 C 419.8532 246.554 434.2503 250.3258 447.4316 252.5604 C 453.367 253.556 458.6677 249.1317 463.9847 247.1068 C 471.0401 243.8878 479.9487 242.8475 484.5033 236.8504 C 492.6968 226.0617 499.8726 213.746 499.8726 198.9571 C 499.8726 184.1682 493.9965 170.7673 484.5033 161.0637 C 475.0101 151.3601 461.8999 145.3538 447.4316 145.3538 Z "/>
  <path id="ID0.3346423259936273" fill="#000000" stroke="none" d="M 402.3877 192.1066 C 401.0459 192.1066 399.83 192.7777 398.9494 193.8625 C 398.0687 194.9473 397.524 196.4451 397.524 198.0979 C 397.524 199.7507 398.0687 201.2485 398.9494 202.3333 C 399.83 203.4181 401.0459 204.0891 402.3877 204.0891 C 403.7294 204.0891 404.9453 203.4181 405.8259 202.3333 C 406.7066 201.2485 407.2513 199.7507 407.2513 198.0979 C 407.2513 196.4451 406.7066 194.9473 405.8259 193.8625 C 404.9453 192.7777 403.7294 192.1066 402.3877 192.1066 Z " stroke-width="0.7275529701179053"/>
  <path id="ID0.7782022436149418" fill="#FFCEA8" stroke="#000000" stroke-width="3.688718165121011" d="M 114.7184 135.2038 C 129.1866 135.2038 142.2968 141.2101 151.79 150.9137 C 161.2832 160.6173 167.1593 174.0182 167.1593 188.8071 C 167.1593 203.596 161.2832 216.9968 151.79 226.7004 C 142.2968 236.404 127.8997 240.1758 114.7184 242.4104 C 108.783 243.406 103.4823 238.9817 98.1653 236.9568 C 91.1099 233.7378 82.2013 232.6975 77.6467 226.7004 C 69.4532 215.9117 62.2774 203.596 62.2774 188.8071 C 62.2774 174.0182 68.1535 160.6173 77.6467 150.9137 C 87.1399 141.2101 100.2501 135.2038 114.7184 135.2038 Z "/>
  <path id="ID0.16971953120082617" fill="#5B5341" stroke="#000000" stroke-width="2" stroke-linecap="round" d="M 457 143 C 455.425 143.216 455.623 141.785 455 140.75 C 454.437 139.833 453.211 139.506 452.25 139 C 451.621 138.669 450.961 138.25 450.25 138.25 C 449.46 138.25 448.651 138.553 448 139 C 447.271 139.501 446.941 140.447 446.25 141 C 445.669 141.465 444.995 142 444.25 142 C 443.579 142 443.161 141.117 442.5 141 C 441.676 140.855 440.806 141.026 440 141.25 C 439.283 141.449 438.743 142.204 438 142.25 C 437.29 142.294 436.685 141.69 436 141.5 C 435.182 141.273 434.34 140.874 433.5 141 C 432.58 141.138 431.867 141.913 431 142.25 C 430.36 142.499 429.683 142.685 429 142.75 C 427.923 142.853 426.832 142.75 425.75 142.75 C 425.084 142.75 424.394 142.581 423.75 142.75 C 422.777 143.006 421.794 143.382 421 144 C 420.251 144.583 419.946 145.604 419.25 146.25 C 418.758 146.707 418.117 146.986 417.5 147.25 C 416.362 147.738 415.184 148.14 414 148.5 C 413.266 148.723 412.381 148.563 411.75 149 C 411.198 149.382 410.921 150.101 410.75 150.75 C 410.495 151.719 410.546 152.749 410.5 153.75 C 410.462 154.582 410.208 155.471 410.5 156.25 C 410.748 156.911 412.23 157.406 412 157.75 C 411.73 158.156 410.325 157.638 409.5 157.75 C 408.48 157.889 407.472 158.16 406.5 158.5 C 405.797 158.746 405.07 159.02 404.5 159.5 C 403.463 160.373 402.563 161.416 401.75 162.5 C 401.303 163.096 401.238 163.937 400.75 164.5 C 400.128 165.217 399.148 165.556 398.5 166.25 C 397.964 166.824 397.386 167.477 397.25 168.25 C 397.117 169.006 397.495 169.776 397.75 170.5 C 397.998 171.202 398.337 171.88 398.75 172.5 C 399.176 173.139 400.141 173.49 400.25 174.25 C 400.345 174.914 398.849 175.599 399.25 176 C 399.849 176.599 401.251 176.33 402.25 176.25 C 403.357 176.161 404.452 175.867 405.5 175.5 C 406.134 175.278 406.676 174.213 407.25 174.5 C 407.926 174.838 407.819 175.981 408 176.75 C 408.154 177.403 408.213 178.08 408.25 178.75 C 408.296 179.581 407.537 180.945 408.25 181.25 C 409.287 181.695 410.684 180.827 411.75 180.25 C 412.735 179.717 413.403 177.805 414.25 178 C 415.028 178.18 415.047 179.971 415 181 C 414.959 181.896 414.16 182.618 414 183.5 C 413.821 184.483 414.04 185.502 414 186.5 C 413.957 187.585 413.837 188.668 413.75 189.75 C 413.67 190.749 413.542 191.748 413.5 192.75 C 413.458 193.748 413.55 194.752 413.5 195.75 C 413.466 196.42 413.292 197.08 413.25 197.75 C 413.208 198.415 413.289 199.085 413.25 199.75 C 413.206 200.503 413.036 201.247 413 202 C 412.952 202.998 413 204.001 413 205 C 413 205.666 413 206.334 413 207 C 413 207.666 412.593 208.884 413 209 C 413.468 209.134 414.25 208.083 414.75 207.5 C 415.261 206.904 415.529 206.128 416 205.5 C 416.531 204.792 417.148 204.148 417.75 203.5 C 418.231 202.982 418.769 202.518 419.25 202 C 419.852 201.352 420.398 200.648 421 200 C 421.481 199.482 422.376 198.047 422.5 198.5 C 422.749 199.414 422.002 201.335 421.75 202.75 C 421.336 205.081 420.882 207.413 420.5 209.75 C 420.215 211.493 419.905 213.241 419.75 215 C 419.655 216.078 419.75 217.168 419.75 218.25 C 419.75 219.416 419.75 220.584 419.75 221.75 C 419.75 223.082 419.661 224.421 419.75 225.75 C 419.828 226.925 420.148 228.077 420.25 229.25 C 420.315 229.996 420.211 230.752 420.25 231.5 C 420.294 232.335 420.319 233.91 420.5 234 C 420.681 234.09 420.932 232.636 421.25 232 C 422.266 229.968 423.439 228.01 424.5 226 C 425.021 225.012 425.435 223.964 426 223 C 426.852 221.546 427.797 220.14 428.75 218.75 C 429.795 217.226 430.463 215.019 432 214.25 C 432.713 213.894 433.175 215.646 433.25 216.5 C 433.434 218.58 432.837 220.664 432.75 222.75 C 432.67 224.663 432.75 226.585 432.75 228.5 C 432.75 229.582 432.75 230.668 432.75 231.75 C 432.75 232.749 432.75 233.751 432.75 234.75 C 432.75 235.499 432.75 236.251 432.75 237 C 432.75 237.666 432.255 238.951 432.75 239 C 433.505 239.076 434.394 237.798 435.25 237.25 C 436.477 236.465 437.782 235.799 439 235 C 440.448 234.05 441.864 233.039 443.25 232 C 444.529 231.04 445.707 229.941 447 229 C 447.543 228.605 448.186 228.365 448.75 228 C 449.603 227.448 450.728 225.728 451.25 226.25 C 451.978 226.978 451.25 229.085 451.25 230.5 C 451.25 231.832 451.199 233.169 451.25 234.5 C 451.282 235.336 451.458 236.164 451.5 237 C 451.542 237.831 450.838 239.169 451.5 239.5 C 452.338 239.919 453.586 239.022 454.5 238.5 C 455.37 238.003 455.943 237.095 456.75 236.5 C 457.532 235.924 458.351 235.368 459.25 235 C 460.203 234.61 461.265 234.55 462.25 234.25 C 463.182 233.966 464.049 233.039 465 233.25 C 465.864 233.442 466.17 234.581 466.75 235.25 C 467.253 235.83 467.686 236.479 468.25 237 C 468.776 237.486 469.297 238.384 470 238.25 C 471.361 237.991 472.438 236.89 473.5 236 C 475.034 234.714 476.335 233.165 477.75 231.75 C 478.749 230.751 479.632 229.614 480.75 228.75 C 481.486 228.181 482.362 227.222 483.25 227.5 C 484.177 227.79 484.431 229.083 484.75 230 C 485.11 231.034 485.095 232.166 485.25 233.25 C 485.345 233.914 485.032 235.344 485.5 235.25 C 486.282 235.094 486.995 233.577 487.75 232.75 C 488.743 231.662 489.759 230.59 490.75 229.5 C 491.424 228.758 492.141 228.046 492.75 227.25 C 493.227 226.626 493.615 225.935 494 225.25 C 494.365 224.601 494.698 223.93 495 223.25 C 495.364 222.431 495.629 221.566 496 220.75 C 496.462 219.733 497 218.749 497.5 217.75 C 497.916 216.918 498.092 215.908 498.75 215.25 C 499.253 214.747 500.397 215.118 500.75 214.5 C 501.512 213.167 501.354 211.483 501.75 210 C 502.021 208.983 502.443 208.007 502.75 207 C 503.026 206.092 503.33 205.184 503.5 204.25 C 503.664 203.345 503.631 202.412 503.75 201.5 C 503.881 200.496 504.172 199.51 504.25 198.5 C 504.339 197.338 504.25 196.166 504.25 195 C 504.25 193.918 504.25 192.832 504.25 191.75 C 504.25 190.584 504.293 189.415 504.25 188.25 C 504.21 187.165 504.139 186.077 504 185 C 503.806 183.493 503.58 181.983 503.25 180.5 C 503.079 179.729 502.649 179.026 502.5 178.25 C 502.231 176.851 502.234 175.406 502 174 C 501.817 172.904 501.539 171.823 501.25 170.75 C 500.956 169.657 500.71 168.535 500.25 167.5 C 499.705 166.273 499.006 165.109 498.25 164 C 497.751 163.269 497.041 162.7 496.5 162 C 495.624 160.867 495.013 159.513 494 158.5 C 493.314 157.814 492.361 157.448 491.5 157 C 490.277 156.364 488.952 155.923 487.75 155.25 C 486.863 154.753 486.145 153.982 485.25 153.5 C 483.97 152.811 482.55 152.4 481.25 151.75 C 480.548 151.399 479.952 150.851 479.25 150.5 C 478.282 150.016 477.228 149.713 476.25 149.25 C 475.643 148.963 475.058 148.622 474.5 148.25 C 473.807 147.788 473.166 147.25 472.5 146.75 C 471.501 146.001 470.531 145.205 469.5 144.5 C 468.946 144.121 468.373 143.749 467.75 143.5 C 467.113 143.245 466.425 143.127 465.75 143 C 465.09 142.876 464.417 142.68 463.75 142.75 C 462.806 142.849 461.929 143.304 461 143.5 C 460.343 143.638 459.661 143.635 459 143.75 C 457.745 143.968 456.499 144.25 455.25 144.5 C 454.938 144.562 455.268 144.768 455.25 144.5 Z "/>
</svg>