<svg xmlns="http://www.w3.org/2000/svg" xmlns:xlink="http://www.w3.org/1999/xlink" version="1.1" width="530.6444718837738" height="260.15100264549255" viewBox="-0.1731046438217163 -0.18200266361236572 530.6444718837738 260.15100264549255">
  <!-- Exported by Scratch - http://scratch.mit.edu/ -->
  <g id="ID0.8378670467063785">
    <path id="ID0.7782022436149418" fill="#FFCEA8" stroke="#000000" stroke-width="2.948816404671783" d="M 68.2084 9.0871 C 79.7745 9.0871 90.255 13.8887 97.844 21.6459 C 105.433 29.4031 110.1305 40.1159 110.1305 51.9384 C 110.1305 63.7609 105.433 74.4737 97.844 82.2309 C 90.255 89.9881 78.7458 93.0034 68.2084 94.7897 C 63.4635 95.5856 59.2261 92.0487 54.9756 90.43 C 49.3354 87.8567 42.2138 87.025 38.5728 82.2309 C 32.0227 73.6062 26.2863 63.7609 26.2863 51.9384 C 26.2863 40.1159 30.9838 29.4031 38.5728 21.6459 C 46.1618 13.8887 56.6423 9.0871 68.2084 9.0871 Z "/>
    <path id="ID0.3346423259936273" fill="#000000" stroke="none" d="M 104.1366 46.488 C 105.2092 46.488 106.1812 47.0244 106.8852 47.8916 C 107.5892 48.7588 108.0246 49.9562 108.0246 51.2774 C 108.0246 52.5987 107.5892 53.7961 106.8852 54.6633 C 106.1812 55.5305 105.2092 56.0669 104.1366 56.0669 C 103.064 56.0669 102.092 55.5305 101.388 54.6633 C 100.684 53.7961 100.2485 52.5987 100.2485 51.2774 C 100.2485 49.9562 100.684 48.7588 101.388 47.8916 C 102.092 47.0244 103.064 46.488 104.1366 46.488 Z " stroke-width="0.5816167158598449"/>
    <path id="ID0.21914752153679729" fill="#D8B992" stroke="#000000" stroke-width="2" stroke-linecap="round" d="M 49.05 8.25 C 51.137 6.767 53.137 5.713 55.3 5.25 C 56.684 4.953 58.138 5.346 59.55 5.25 C 61.806 5.096 64.071 4.881 66.3 4.5 C 70.903 3.714 75.417 2.329 80.05 1.75 C 81.464 1.573 82.878 2.157 84.3 2.25 C 86.711 2.407 89.135 2.556 91.55 2.5 C 92.727 2.473 93.876 1.912 95.05 2 C 97.248 2.165 99.459 2.553 101.55 3.25 C 102.278 3.493 102.998 4.045 103.3 4.75 C 103.564 5.367 103.273 6.117 103.05 6.75 C 102.765 7.558 101.895 8.148 101.8 9 C 101.713 9.785 102.233 10.526 102.55 11.25 C 102.819 11.865 103.185 12.436 103.55 13 C 104.102 13.853 104.746 14.648 105.3 15.5 C 105.829 16.314 106.366 17.132 106.8 18 C 107.118 18.636 107.426 19.3 107.55 20 C 107.68 20.738 107.922 21.599 107.55 22.25 C 107.16 22.932 106.261 23.166 105.55 23.5 C 104.835 23.836 104.066 24.058 103.3 24.25 C 102.397 24.476 101.471 24.618 100.55 24.75 C 99.722 24.868 98.885 24.954 98.05 25 C 97.385 25.037 96.682 24.789 96.05 25 C 95.371 25.226 94.844 25.784 94.3 26.25 C 93.674 26.786 92.936 27.272 92.55 28 C 92.153 28.75 92.256 29.676 92.05 30.5 C 91.839 31.343 91.47 32.148 91.3 33 C 91.136 33.82 91.09 34.664 91.05 35.5 C 91.006 36.415 91.092 37.335 91.05 38.25 C 91.008 39.169 90.833 40.081 90.8 41 C 90.749 42.414 90.871 43.837 90.8 45.25 C 90.704 47.17 90.677 49.115 90.3 51 C 90.168 51.658 89.963 52.648 89.3 52.75 C 88.453 52.88 87.619 52.141 87.05 51.5 C 86.233 50.581 85.773 49.385 85.3 48.25 C 84.935 47.374 84.823 46.409 84.55 45.5 C 84.323 44.744 84.31 43.853 83.8 43.25 C 83.319 42.682 82.489 42.534 81.8 42.25 C 81.07 41.949 80.291 41.227 79.55 41.5 C 78.445 41.907 77.617 42.968 77.05 44 C 76.647 44.733 76.869 45.666 76.8 46.5 C 76.703 47.664 76.603 48.833 76.55 50 C 76.52 50.665 76.628 51.339 76.55 52 C 76.46 52.762 76.176 53.493 76.05 54.25 C 75.926 54.994 75.865 55.749 75.8 56.5 C 75.699 57.664 76.003 58.923 75.55 60 C 75.272 60.66 74.515 61.214 73.8 61.25 C 72.669 61.307 71.682 60.25 70.55 60.25 C 69.258 60.25 67.936 60.634 66.8 61.25 C 65.868 61.755 65.489 63.008 64.55 63.5 C 63.653 63.97 62.56 64.081 61.55 64 C 60.421 63.91 59.429 63.084 58.3 63 C 57.126 62.913 55.88 63.031 54.8 63.5 C 53.881 63.9 53.318 64.855 52.55 65.5 C 51.236 66.604 50.073 67.958 48.55 68.75 C 47.885 69.096 47.032 68.909 46.3 68.75 C 45.091 68.487 43.959 67.935 42.8 67.5 C 41.96 67.185 41.188 66.621 40.3 66.5 C 39.307 66.365 38.285 66.562 37.3 66.75 C 36.524 66.898 35.819 67.319 35.05 67.5 C 34.397 67.654 33.72 67.715 33.05 67.75 C 32.136 67.798 31.214 67.811 30.3 67.75 C 28.713 67.644 26.848 68.169 25.55 67.25 C 24.476 66.489 24.558 64.791 24.3 63.5 C 24.055 62.273 24.071 61.001 24.05 59.75 C 23.988 56.088 24.102 52.413 24.05 48.75 C 24.018 46.501 23.424 44.218 23.8 42 C 24.271 39.223 25.539 36.629 26.55 34 C 27.205 32.296 27.894 30.585 28.8 29 C 29.239 28.232 29.967 27.666 30.55 27 C 31.133 26.334 31.747 25.691 32.3 25 C 33.413 23.609 34.525 22.207 35.55 20.75 C 36.109 19.956 36.454 19.016 37.05 18.25 C 37.628 17.507 38.403 16.935 39.05 16.25 C 39.819 15.436 40.583 14.61 41.3 13.75 C 42.249 12.611 43.056 11.349 44.05 10.25 C 44.644 9.594 45.275 8.926 46.05 8.5 C 46.973 7.993 48.057 7.849 49.05 7.5 Z "/>
  </g>
  <path id="ID0.6950879245996475" fill="none" stroke="#000000" stroke-width="2" stroke-linecap="round" d="M 473.3 214.5 L 55.8 215 "/>
  <path id="ID0.3887670743279159" fill="#333640" stroke="#000000" stroke-width="1.6587941600688831" d="M 1.7257 193.8416 L 94.9403 193.8416 L 94.9403 258.0702 L 1.7257 258.0702 L 1.7257 193.8416 Z "/>
  <path id="ID0.5024464935995638" fill="#FF1B45" stroke="#000000" stroke-width="2.3724674871725773" stroke-linecap="round" d="M 57.589 78.7154 C 67.8458 78.955 80.6106 79.6647 86.9585 89.1266 C 95.1114 101.3565 93.294 119.4507 95.1732 134.9358 C 97.2873 152.3603 99.0567 169.6582 99.0989 187.5867 C 99.1098 192.069 99.08 197.7556 95.7185 199.1452 C 84.1619 204.1205 71.3767 204.644 58.8612 204.7545 C 45.6798 204.8709 32.0201 204.8752 19.4959 199.8676 C 16.1227 198.4627 16.4862 191.8557 16.2972 187.5867 C 15.736 174.925 16.4811 162.208 16.8788 149.554 C 17.4742 137.0682 17.2575 124.3759 19.2778 112.1162 C 20.6997 103.4889 21.4979 92.7896 27.4816 87.5356 C 35.7465 80.28 47.2559 78.4749 57.589 78.7154 Z "/>
  <path id="ID0.9501931658014655" fill="#E10139" stroke="none" stroke-linecap="round" d="M 76.5229 83.9751 L 85.8083 89.7073 L 87.776 201.9842 L 76.154 203.0642 L 76.5229 83.9751 Z " stroke-width="1.0494453516345517"/>
  <path id="ID0.9501931658014655" fill="#E10139" stroke="none" d="M 54.0223 80.3334 L 64.722 80.0715 L 63.3691 203.6253 L 52.5465 202.9518 L 54.0223 80.3334 Z " stroke-width="1.017976336492197"/>
  <path id="ID0.9501931658014655" fill="#E10139" stroke="none" stroke-linecap="round" d="M 27.3459 88.3128 L 33.8026 83.5774 L 38.1685 82.8298 L 37.7996 202.7081 L 27.1614 200.9219 L 27.3459 88.3128 Z " stroke-width="1.0494453516345517"/>
  <g id="ID0.7866862644441426">
    <path id="ID0.11782124871388078" fill="#FFCEA8" stroke="#000000" stroke-width="1.9562476750398694" stroke-linecap="round" d="M 101.9677 124.0056 L 84.4731 123.5156 L 87.4786 156.485 L 88.1749 189.3211 L 88.4332 200.4566 L 88.8694 203.1636 L 91.4144 204.0038 L 93.4754 201.1824 L 94.2296 195.2631 L 95.0062 205.7529 L 99.0495 206.5245 L 101.1891 204.2735 L 99.9371 194.2839 L 101.1772 204.0349 L 103.2347 205.1366 L 105.8379 202.1468 L 105.6925 194.2594 L 105.2135 184.7128 L 104.4656 153.8407 L 101.9677 124.0056 Z "/>
    <path id="ID0.13247013883665204" fill="#E10139" stroke="#000000" stroke-width="1.9562563983398749" stroke-linecap="round" d="M 104.3 117.3124 L 101.55 107.038 L 97.55 100.8256 L 93.8 97.9583 L 88.3 98.9141 L 84.05 103.6928 L 82.05 109.4274 L 80.3 118.5071 L 81.05 123.5248 L 103.8 123.7637 L 104.3 117.3124 Z "/>
  </g>
  <path id="ID0.7174010835587978" fill="#D3EFF9" stroke="#D3EFF9" stroke-width="2" stroke-linecap="round" d="M 34.8 129.25 C 33.609 127.998 31.773 125.693 32.05 124.5 C 32.529 123.784 34.515 125.292 35.8 125.5 C 37.088 125.687 38.609 125.938 40.05 126 C 40.727 126.002 41.187 125.759 42.55 125.75 C 47.378 125.673 52.24 125.733 57.3 125.75 C 58.565 125.754 58.801 125.78 59.55 125.75 C 60.884 125.697 62.411 124.811 63.55 125.5 C 65.516 126.715 68.387 130.161 68.05 131.5 C 67.773 132.561 64.012 129.298 62.05 130 C 60.859 130.633 61.667 132.935 61.55 134.25 C 61.416 135.741 61.55 137.252 61.55 138.75 C 61.55 139.499 61.493 140.253 61.55 141 C 61.659 142.421 61.907 143.836 62.05 145.25 C 62.135 146.082 62.686 147.406 61.8 147.75 C 60.443 148.415 58.168 148.814 57.05 147.5 C 55.651 145.843 56.677 143.167 56.55 141 C 56.511 140.335 56.628 139.661 56.55 139 C 56.46 138.238 56.226 137.497 56.05 136.75 C 55.893 136.082 55.865 135.358 55.55 134.75 C 55.078 133.815 54.879 132.16 53.8 131.75 C 51.901 131.044 49.673 131.429 47.55 131.5 C 46.967 131.598 46.394 132.049 45.8 132.25 C 45.538 132.353 45.197 131.777 45.05 132 C 44.58 133.321 44.405 134.772 44.3 136 C 44.06 138.821 44.332 141.682 44.05 144.5 C 43.913 145.866 44.328 148.056 43.05 148.5 C 41.453 149.056 39.33 147.873 38.3 146.5 C 37.499 145.432 38.494 143.833 38.55 142.5 C 38.578 141.835 38.5 141.188 38.55 140.5 C 38.751 137.749 39.622 134.99 39.3 132.25 C 39.205 131.45 38.046 131.062 37.3 130.5 C 36.54 130.06 35.453 129.928 34.8 129.25 Z "/>
  <path id="ID0.8753642407245934" fill="none" stroke="#000000" stroke-width="2" stroke-linecap="round" d="M 105.55 70 L 99.8 68.5 "/>
  <path id="ID0.47636797465384007" fill="none" stroke="#000000" stroke-width="2" stroke-linecap="round" d="M 97.3 58.5 L 109.8 60.75 L 110.8 43 L 81.3 40.75 L 97.3 41.75 L 97.3 58.5 Z "/>
  <path id="ID0.7782022436149418" fill="#FFCEA8" stroke="#000000" stroke-width="3.6887182856297387" d="M 116.4184 117.3038 C 130.8866 117.3038 143.9968 123.3101 153.49 133.0137 C 162.9832 142.7173 168.8593 156.1182 168.8593 170.9071 C 168.8593 185.696 162.9832 199.0968 153.49 208.8004 C 143.9968 218.504 129.5997 222.2759 116.4184 224.5104 C 110.483 225.506 105.1823 221.0817 99.8653 219.0569 C 92.8099 215.8379 83.9013 214.7975 79.3467 208.8004 C 71.1532 198.0117 63.9774 185.696 63.9774 170.9071 C 63.9774 156.1182 69.8535 142.7173 79.3467 133.0137 C 88.8399 123.3101 101.9501 117.3038 116.4184 117.3038 Z "/>
  <path id="ID0.3346423259936273" fill="#000000" stroke="none" d="M 161.3624 164.0066 C 162.7041 164.0066 163.92 164.6777 164.8006 165.7625 C 165.6813 166.8473 166.226 168.3451 166.226 169.9979 C 166.226 171.6507 165.6813 173.1485 164.8006 174.2333 C 163.92 175.3181 162.7041 175.9891 161.3624 175.9891 C 160.0206 175.9891 158.8047 175.3181 157.9241 174.2333 C 157.0434 173.1485 156.4987 171.6507 156.4987 169.9979 C 156.4987 168.3451 157.0434 166.8473 157.9241 165.7625 C 158.8047 164.6777 160.0206 164.0066 161.3624 164.0066 Z " stroke-width="0.7275529966814728"/>
  <path id="ID0.16971953120082617" fill="#5B5341" stroke="#000000" stroke-width="2" stroke-linecap="round" d="M 106.8 115.5 C 108.375 115.716 108.177 114.285 108.8 113.25 C 109.363 112.333 110.589 112.006 111.55 111.5 C 112.179 111.169 112.839 110.75 113.55 110.75 C 114.34 110.75 115.149 111.053 115.8 111.5 C 116.529 112.001 116.859 112.947 117.55 113.5 C 118.131 113.965 118.805 114.5 119.55 114.5 C 120.221 114.5 120.639 113.617 121.3 113.5 C 122.124 113.355 122.994 113.526 123.8 113.75 C 124.517 113.949 125.057 114.704 125.8 114.75 C 126.51 114.794 127.115 114.19 127.8 114 C 128.618 113.773 129.46 113.374 130.3 113.5 C 131.22 113.638 131.933 114.413 132.8 114.75 C 133.44 114.999 134.117 115.185 134.8 115.25 C 135.877 115.353 136.968 115.25 138.05 115.25 C 138.716 115.25 139.406 115.081 140.05 115.25 C 141.023 115.506 142.006 115.882 142.8 116.5 C 143.549 117.083 143.854 118.104 144.55 118.75 C 145.042 119.207 145.683 119.486 146.3 119.75 C 147.438 120.238 148.616 120.64 149.8 121 C 150.534 121.223 151.419 121.063 152.05 121.5 C 152.602 121.882 152.879 122.601 153.05 123.25 C 153.305 124.219 153.254 125.249 153.3 126.25 C 153.338 127.082 153.592 127.971 153.3 128.75 C 153.052 129.411 151.57 129.906 151.8 130.25 C 152.07 130.656 153.475 130.138 154.3 130.25 C 155.32 130.389 156.328 130.66 157.3 131 C 158.003 131.246 158.73 131.52 159.3 132 C 160.337 132.873 161.237 133.916 162.05 135 C 162.497 135.596 162.562 136.437 163.05 137 C 163.672 137.717 164.652 138.056 165.3 138.75 C 165.836 139.324 166.414 139.977 166.55 140.75 C 166.683 141.506 166.305 142.276 166.05 143 C 165.802 143.702 165.463 144.38 165.05 145 C 164.624 145.639 163.659 145.99 163.55 146.75 C 163.455 147.414 164.951 148.099 164.55 148.5 C 163.951 149.099 162.549 148.83 161.55 148.75 C 160.443 148.661 159.348 148.367 158.3 148 C 157.666 147.778 157.124 146.713 156.55 147 C 155.874 147.338 155.981 148.481 155.8 149.25 C 155.646 149.903 155.587 150.58 155.55 151.25 C 155.504 152.081 156.263 153.445 155.55 153.75 C 154.513 154.195 153.116 153.327 152.05 152.75 C 151.065 152.217 150.397 150.305 149.55 150.5 C 148.772 150.68 148.753 152.471 148.8 153.5 C 148.841 154.396 149.64 155.118 149.8 156 C 149.979 156.983 149.76 158.002 149.8 159 C 149.843 160.085 149.963 161.168 150.05 162.25 C 150.13 163.249 150.258 164.248 150.3 165.25 C 150.342 166.248 150.25 167.252 150.3 168.25 C 150.334 168.92 150.508 169.58 150.55 170.25 C 150.592 170.915 150.511 171.585 150.55 172.25 C 150.594 173.003 150.764 173.747 150.8 174.5 C 150.848 175.498 150.8 176.501 150.8 177.5 C 150.8 178.166 150.8 178.834 150.8 179.5 C 150.8 180.166 151.207 181.384 150.8 181.5 C 150.332 181.634 149.55 180.583 149.05 180 C 148.539 179.404 148.271 178.628 147.8 178 C 147.269 177.292 146.652 176.648 146.05 176 C 145.569 175.482 145.031 175.018 144.55 174.5 C 143.948 173.852 143.402 173.148 142.8 172.5 C 142.319 171.982 141.424 170.547 141.3 171 C 141.051 171.914 141.798 173.835 142.05 175.25 C 142.464 177.581 142.918 179.913 143.3 182.25 C 143.585 183.993 143.895 185.741 144.05 187.5 C 144.145 188.578 144.05 189.668 144.05 190.75 C 144.05 191.916 144.05 193.084 144.05 194.25 C 144.05 195.582 144.139 196.921 144.05 198.25 C 143.972 199.425 143.652 200.577 143.55 201.75 C 143.485 202.496 143.589 203.252 143.55 204 C 143.506 204.835 143.481 206.41 143.3 206.5 C 143.119 206.59 142.868 205.136 142.55 204.5 C 141.534 202.468 140.361 200.51 139.3 198.5 C 138.779 197.512 138.365 196.464 137.8 195.5 C 136.948 194.046 136.003 192.64 135.05 191.25 C 134.005 189.726 133.337 187.519 131.8 186.75 C 131.087 186.394 130.625 188.146 130.55 189 C 130.366 191.08 130.963 193.164 131.05 195.25 C 131.13 197.163 131.05 199.085 131.05 201 C 131.05 202.082 131.05 203.168 131.05 204.25 C 131.05 205.249 131.05 206.251 131.05 207.25 C 131.05 207.999 131.05 208.751 131.05 209.5 C 131.05 210.166 131.545 211.451 131.05 211.5 C 130.295 211.576 129.406 210.298 128.55 209.75 C 127.323 208.965 126.018 208.299 124.8 207.5 C 123.352 206.55 121.936 205.539 120.55 204.5 C 119.271 203.54 118.093 202.441 116.8 201.5 C 116.257 201.105 115.614 200.865 115.05 200.5 C 114.197 199.948 113.072 198.228 112.55 198.75 C 111.822 199.478 112.55 201.585 112.55 203 C 112.55 204.332 112.601 205.669 112.55 207 C 112.518 207.836 112.342 208.664 112.3 209.5 C 112.258 210.331 112.962 211.669 112.3 212 C 111.462 212.419 110.214 211.522 109.3 211 C 108.43 210.503 107.857 209.595 107.05 209 C 106.268 208.424 105.449 207.868 104.55 207.5 C 103.597 207.11 102.535 207.05 101.55 206.75 C 100.618 206.466 99.751 205.539 98.8 205.75 C 97.936 205.942 97.63 207.081 97.05 207.75 C 96.547 208.33 96.114 208.979 95.55 209.5 C 95.024 209.986 94.503 210.884 93.8 210.75 C 92.439 210.491 91.362 209.39 90.3 208.5 C 88.766 207.214 87.465 205.665 86.05 204.25 C 85.051 203.251 84.168 202.114 83.05 201.25 C 82.314 200.681 81.438 199.722 80.55 200 C 79.623 200.29 79.369 201.583 79.05 202.5 C 78.69 203.534 78.705 204.666 78.55 205.75 C 78.455 206.414 78.768 207.844 78.3 207.75 C 77.518 207.594 76.805 206.077 76.05 205.25 C 75.057 204.162 74.041 203.09 73.05 202 C 72.376 201.258 71.659 200.546 71.05 199.75 C 70.573 199.126 70.185 198.435 69.8 197.75 C 69.435 197.101 69.102 196.43 68.8 195.75 C 68.436 194.931 68.171 194.066 67.8 193.25 C 67.338 192.233 66.8 191.249 66.3 190.25 C 65.884 189.418 65.708 188.408 65.05 187.75 C 64.547 187.247 63.403 187.618 63.05 187 C 62.288 185.667 62.446 183.983 62.05 182.5 C 61.779 181.483 61.357 180.507 61.05 179.5 C 60.774 178.592 60.47 177.684 60.3 176.75 C 60.136 175.845 60.169 174.912 60.05 174 C 59.919 172.996 59.628 172.01 59.55 171 C 59.461 169.838 59.55 168.666 59.55 167.5 C 59.55 166.418 59.55 165.332 59.55 164.25 C 59.55 163.084 59.507 161.915 59.55 160.75 C 59.59 159.665 59.661 158.577 59.8 157.5 C 59.994 155.993 60.22 154.483 60.55 153 C 60.721 152.229 61.151 151.526 61.3 150.75 C 61.569 149.351 61.566 147.906 61.8 146.5 C 61.983 145.404 62.261 144.323 62.55 143.25 C 62.844 142.157 63.09 141.035 63.55 140 C 64.095 138.773 64.794 137.609 65.55 136.5 C 66.049 135.769 66.759 135.2 67.3 134.5 C 68.176 133.367 68.787 132.013 69.8 131 C 70.486 130.314 71.439 129.948 72.3 129.5 C 73.523 128.864 74.848 128.423 76.05 127.75 C 76.937 127.253 77.655 126.482 78.55 126 C 79.83 125.311 81.25 124.9 82.55 124.25 C 83.252 123.899 83.848 123.351 84.55 123 C 85.518 122.516 86.572 122.213 87.55 121.75 C 88.157 121.463 88.742 121.122 89.3 120.75 C 89.993 120.288 90.634 119.75 91.3 119.25 C 92.299 118.501 93.269 117.705 94.3 117 C 94.854 116.621 95.427 116.249 96.05 116 C 96.687 115.745 97.375 115.627 98.05 115.5 C 98.71 115.376 99.383 115.18 100.05 115.25 C 100.994 115.349 101.871 115.804 102.8 116 C 103.457 116.138 104.139 116.135 104.8 116.25 C 106.055 116.468 107.301 116.75 108.55 117 C 108.862 117.062 108.532 117.268 108.55 117 Z "/>
  <path id="ID0.7782022436149418" fill="#FFCEA8" stroke="#000000" stroke-width="3.6887182856297387" d="M 476.1316 138.1038 C 461.6634 138.1038 448.5532 144.1101 439.06 153.8137 C 429.5668 163.5173 423.6907 176.9182 423.6907 191.7071 C 423.6907 206.496 429.5668 219.8968 439.06 229.6004 C 448.5532 239.304 462.9503 243.0759 476.1316 245.3104 C 482.067 246.306 487.3677 241.8817 492.6847 239.8569 C 499.7401 236.6379 508.6487 235.5975 513.2033 229.6004 C 521.3968 218.8117 528.5726 206.496 528.5726 191.7071 C 528.5726 176.9182 522.6965 163.5173 513.2033 153.8137 C 503.7101 144.1101 490.5999 138.1038 476.1316 138.1038 Z "/>
  <path id="ID0.7782022436149418" fill="#C37B50" stroke="#000000" stroke-width="3.7817372769728235" d="M 357.0928 110.2633 C 342.2598 110.2633 328.8189 116.4212 319.0864 126.3695 C 309.3538 136.3178 303.3295 150.0565 303.3295 165.2184 C 303.3295 180.3803 309.3538 194.119 319.0864 204.0673 C 328.8189 214.0156 343.5791 217.8825 357.0928 220.1734 C 363.1779 221.1942 368.6122 216.6582 374.0634 214.5824 C 381.2966 211.2822 390.4299 210.2156 395.0993 204.0673 C 403.4995 193.0065 410.8562 180.3803 410.8562 165.2184 C 410.8562 150.0565 404.8319 136.3178 395.0993 126.3695 C 385.3668 116.4212 371.9259 110.2633 357.0928 110.2633 Z "/>
  <g id="ID0.9427243960089982">
    <path id="ID0.7782022436149418" fill="#EDC696" stroke="#000000" stroke-width="3.7976090908050537" d="M 234.0145 121.3637 C 249.0758 121.3637 262.7235 127.4807 272.6058 137.3631 C 282.4882 147.2454 288.6052 160.893 288.6052 175.9544 C 288.6052 191.0157 282.4882 204.6633 272.6058 214.5457 C 262.7235 224.428 249.0758 230.545 234.0145 230.545 C 218.9532 230.545 205.3055 224.428 195.4232 214.5457 C 185.5409 204.6633 179.4239 191.0157 179.4239 175.9544 C 179.4239 160.893 185.5409 147.2454 195.4232 137.3631 C 205.3055 127.4807 218.9532 121.3637 234.0145 121.3637 Z "/>
    <path id="ID0.3346423259936273" fill="#000000" stroke="none" d="M 231.0031 166.1917 C 232.6863 166.1917 234.2117 166.8751 235.3165 167.9799 C 236.4213 169.0847 237.1047 170.6101 237.1047 172.2933 C 237.1047 173.9765 236.4213 175.5019 235.3165 176.6067 C 234.2117 177.7115 232.6863 178.3949 231.0031 178.3949 C 229.3199 178.3949 227.7945 177.7115 226.6897 176.6067 C 225.5849 175.5019 224.9015 173.9765 224.9015 172.2933 C 224.9015 170.6101 225.5849 169.0847 226.6897 167.9799 C 227.7945 166.8751 229.3199 166.1917 231.0031 166.1917 Z " stroke-width="0.8135452270507812"/>
    <path id="ID0.3346423259936273" fill="#000000" stroke="none" d="M 273.9531 166.1917 C 275.6363 166.1917 277.1617 166.8751 278.2665 167.9799 C 279.3713 169.0847 280.0547 170.6101 280.0547 172.2933 C 280.0547 173.9765 279.3713 175.5019 278.2665 176.6067 C 277.1617 177.7115 275.6363 178.3949 273.9531 178.3949 C 272.2699 178.3949 270.7445 177.7115 269.6397 176.6067 C 268.5349 175.5019 267.8515 173.9765 267.8515 172.2933 C 267.8515 170.6101 268.5349 169.0847 269.6397 167.9799 C 270.7445 166.8751 272.2699 166.1917 273.9531 166.1917 Z " stroke-width="0.8135452270507812"/>
    <path id="ID0.5251190410926938" fill="none" stroke="#000000" stroke-width="2.860120117664337" stroke-linecap="round" d="M 234.3943 194.0643 L 263.4722 194.0643 "/>
    <path id="ID0.12530163442716002" fill="#000000" stroke="#000000" stroke-width="3.5766313883894743" stroke-linecap="round" d="M 252.8641 145.4932 C 254.6241 145.7499 255.0828 142.1143 256.6875 141.9047 C 260.3723 141.4407 264.1384 143.8649 267.7896 143.1531 C 272.6019 142.2162 278.6199 141.2814 281.222 137.1259 C 283.2572 133.8753 280.214 129.3878 278.5858 125.9151 C 277.5706 123.7505 275.7942 121.6433 273.561 120.7891 C 268.8148 118.9738 263.5892 118.5354 258.5162 118.2412 C 252.3719 117.8847 246.1431 118.0217 240.0444 118.8447 C 229.7207 120.238 219.2823 122.1431 209.3367 125.5364 C 201.6845 127.8867 194.309 131.3812 187.5849 135.9684 C 184.2209 138.2597 181.7593 141.5526 179.5605 145.1931 C 177.5431 148.5132 175.678 151.728 175.0737 155.9758 C 174.5962 159.3473 175.4148 162.8619 176.4044 166.1164 C 177.1497 168.6189 178.2524 171.9883 180.5115 172.0034 C 182.5415 172.4354 184.9382 167.0079 184.9825 167.0105 C 185.0248 167.0204 178.9894 173.5399 180.6379 173.3699 C 184.4939 172.9417 192.3602 170.9677 195.8275 166.6601 C 197.9578 164.0136 192.9159 158.3167 194.1425 156.5965 C 195.0105 155.3796 197.6788 160.2315 200.0168 160.7858 C 201.8922 161.2301 204.4366 160.8063 205.6149 159.3188 C 206.4042 158.323 203.4454 156.9336 203.952 155.8191 C 204.6292 154.3859 206.4846 153.2234 208.1559 152.6894 C 211.1085 152.1669 214.8458 154.6379 217.2321 152.7834 C 220.32 150.3874 218.5486 144.6406 221.2992 141.9615 C 223.3011 140.0351 226.7991 141.4662 229.626 141.3759 C 235.6768 140.8931 241.9147 139.3041 247.9526 140.2423 C 250.2549 140.6062 250.5843 144.9815 252.8641 145.4932 Z "/>
    <path id="ID0.1286077918484807" fill="#000000" stroke="none" stroke-linecap="round" d="M 279 139 C 294.299 145.266 281.074 173.13 275 188.5 C 271.32 199.023 261.408 206.97 251.5 212 C 247.971 213.789 244.46 206.303 240.669 207.083 C 231.811 208.888 224.819 218.176 215.75 218 C 209.07 217.872 204.66 210.943 200.5 206 C 192.253 196.204 180.559 187.088 178 174.5 C 176.735 166.685 183.506 156.993 190.831 154.417 C 218.948 144.527 251.798 127.866 279 139 Z " stroke-width="1"/>
  </g>
</svg>