<svg xmlns="http://www.w3.org/2000/svg" xmlns:xlink="http://www.w3.org/1999/xlink" version="1.1" width="23.328199276258815" height="9.186577209761012" viewBox="0.5858996466148549 0.30259960446245016 23.328199276258815 9.186577209761012">
  <!-- Exported by Scratch - http://scratch.mit.edu/ -->
  <path id="ID0.9204873824492097" fill="#991C1C" stroke="#000000" stroke-width="1.7282008021377218" stroke-linecap="round" d="M 12.25 1.1667 C 15.23 1.1667 17.93 1.6429 19.885 2.412 C 21.84 3.1811 23.05 4.2438 23.05 5.4161 C 23.05 6.5883 21.577 7.9587 19.885 8.4202 C 17.583 9.0383 14.926 8.0423 12.45 7.9798 C 9.823 8.0423 7.019 9.0467 4.615 8.4202 C 2.917 7.9692 1.45 6.5883 1.45 5.4161 C 1.45 4.2438 2.66 3.1811 4.615 2.412 C 6.57 1.6429 9.27 1.1667 12.25 1.1667 Z "/>
  <path id="ID0.5056188963353634" fill="#E10F2A" stroke="none" d="M 8.1957 3.6316 C 9.5819 3.6316 10.8378 3.8331 11.7485 4.1596 C 12.6579 4.4852 13.2207 4.9358 13.2207 5.4328 C 13.2207 5.9299 12.6579 6.3804 11.7485 6.706 C 10.8378 7.0325 9.5819 7.2341 8.1957 7.2341 C 6.8095 7.2341 5.5536 7.0325 4.6428 6.706 C 3.7335 6.3804 3.1707 5.9299 3.1707 5.4328 C 3.1707 4.9358 3.7335 4.4852 4.6428 4.1596 C 5.5536 3.8331 6.8095 3.6316 8.1957 3.6316 Z " stroke-width="1.173318779832713"/>
  <path id="ID0.8832504372112453" fill="#FFFFFF" stroke="none" d="M 12.55 2.2 C 14.109 2.2 15.521 2.276 16.544 2.398 C 17.567 2.52 18.2 2.689 18.2 2.875 C 18.2 3.061 17.567 3.23 16.544 3.352 C 15.521 3.474 14.109 3.55 12.55 3.55 C 10.991 3.55 9.579 3.474 8.556 3.352 C 7.533 3.23 6.9 3.061 6.9 2.875 C 6.9 2.689 7.533 2.52 8.556 2.398 C 9.579 2.276 10.991 2.2 12.55 2.2 Z " stroke-width="1"/>
</svg>