<svg xmlns="http://www.w3.org/2000/svg" xmlns:xlink="http://www.w3.org/1999/xlink" version="1.1" width="23.600000381469727" height="12.618704795837402" viewBox="0.2999999523162842 0.2999999523162842 23.600000381469727 12.618704795837402">
  <!-- Exported by Scratch - http://scratch.mit.edu/ -->
  <path id="ID0.9204873824492097" fill="#991C1C" stroke="#000000" stroke-width="2" stroke-linecap="round" d="M 12.1 1.3 C 15.08 1.3 17.78 1.978 19.735 3.073 C 21.69 4.168 22.9 5.681 22.9 7.35 C 22.9 9.019 21.427 10.97 19.735 11.627 C 17.433 12.507 14.776 11.089 12.3 11 C 9.673 11.089 6.869 12.519 4.465 11.627 C 2.767 10.985 1.3 9.019 1.3 7.35 C 1.3 5.681 2.51 4.168 4.465 3.073 C 6.42 1.978 9.12 1.3 12.1 1.3 Z "/>
  <path id="ID0.5056188963353634" fill="#E10F2A" stroke="none" d="M 6.725 7.2203 C 7.725 7.2203 8.631 7.4273 9.288 7.7626 C 9.944 8.097 10.35 8.5597 10.35 9.0703 C 10.35 9.5808 9.944 10.0435 9.288 10.3779 C 8.631 10.7132 7.725 10.9203 6.725 10.9203 C 5.725 10.9203 4.819 10.7132 4.162 10.3779 C 3.506 10.0435 3.1 9.5808 3.1 9.0703 C 3.1 8.5597 3.506 8.097 4.162 7.7626 C 4.819 7.4273 5.725 7.2203 6.725 7.2203 Z " stroke-width="0.9688713801497619"/>
</svg>