<svg xmlns="http://www.w3.org/2000/svg" xmlns:xlink="http://www.w3.org/1999/xlink" version="1.1" width="25.316737708016646" height="14.517940100594771" viewBox="0.5166306214708032 0.06293115190445797 25.316737708016646 14.517940100594771">
  <!-- Exported by Scratch - http://scratch.mit.edu/ -->
  <path id="ID0.9204873824492097" fill="#991C1C" stroke="#000000" stroke-width="2.0667377080166456" stroke-linecap="round" d="M 13.05 1.0963 C 16.03 1.0963 18.448 1.6569 20.685 2.9858 C 22.501 4.0654 24.736 5.8248 24.8 8.0766 C 24.764 10.2816 22.73 12.4897 20.75 13.2452 C 18.359 14.1564 15.687 12.7177 13.15 12.7124 C 10.502 12.6282 7.672 14.0136 5.2 12.9788 C 3.283 12.1753 1.548 9.835 1.55 7.6504 C 1.639 5.5882 3.673 3.994 5.415 2.9858 C 7.652 1.6931 10.07 1.0963 13.05 1.0963 Z "/>
  <path id="ID0.5056188963353634" fill="#E10F2A" stroke="none" d="M 8.3362 8.0203 C 9.4121 8.0203 10.3868 8.2273 11.0936 8.5626 C 11.7994 8.897 12.2362 9.3597 12.2362 9.8703 C 12.2362 10.3808 11.7994 10.8435 11.0936 11.1779 C 10.3868 11.5132 9.4121 11.7203 8.3362 11.7203 C 7.2603 11.7203 6.2856 11.5132 5.5788 11.1779 C 4.873 10.8435 4.4362 10.3808 4.4362 9.8703 C 4.4362 9.3597 4.873 8.897 5.5788 8.5626 C 6.2856 8.2273 7.2603 8.0203 8.3362 8.0203 Z " stroke-width="1.0086879233187767"/>
</svg>