<svg xmlns="http://www.w3.org/2000/svg" xmlns:xlink="http://www.w3.org/1999/xlink" version="1.1" width="229.63720801472664" height="241.92610266804695" viewBox="-0.4436040073633194 -0.7325040251016617 229.63720801472664 241.92610266804695">
  <!-- Exported by Scratch - http://scratch.mit.edu/ -->
  <path id="ID0.2330573690123856" fill="#EDC696" stroke="#000000" stroke-width="2" stroke-linecap="round" d="M 118 161.5 L 120 146.75 L 116.5 123 L 111.5 123.75 L 107.5 154.5 L 117.5 162.25 Z "/>
  <path id="ID0.24896233575418591" fill="#E10139" stroke="#000000" stroke-width="2" stroke-linecap="round" d="M 104.75 90.5 L 108 124.5 L 117.25 122.75 L 114.5 104.5 L 111.25 95.75 L 107.75 89.75 L 104.75 90.5 Z "/>
  <path id="ID0.3887670743279159" fill="#333640" stroke="#000000" stroke-width="1.615766714042114" d="M 18.3655 169.4166 L 109.8094 169.4166 L 109.8094 231.0588 L 18.3655 231.0588 L 18.3655 169.4166 Z "/>
  <path id="ID0.5024464935995638" fill="#FF1B45" stroke="#000000" stroke-width="2.447005569934845" stroke-linecap="round" d="M 64.0514 72.1395 C 76.1666 72.0375 90.4236 72.4918 99.4637 80.6045 C 108.8977 89.0711 111.3586 103.6699 112.7876 116.2671 C 115.0625 136.2021 111.202 156.4723 110.6261 176.6266 C 110.4499 181.5704 114.3268 187.1022 110.6261 188.413 C 96.3845 193.4587 80.5891 193.1374 65.4788 193.1031 C 49.6883 192.8503 33.3227 192.5672 18.374 187.5566 C 14.6325 186.3037 17.8724 181.6919 17.7215 176.6266 C 17.117 156.3646 13.378 135.8693 15.927 115.7777 C 17.5192 103.2295 20.9531 89.1592 30.2705 80.6045 C 38.8195 72.7545 52.4282 72.0375 64.0514 72.1395 Z "/>
  <path id="ID0.9501931658014655" fill="#E10139" stroke="none" stroke-linecap="round" d="M 84.7657 75.2723 L 95.7319 78.8602 L 96.3886 190.1239 L 83.9777 191.1604 L 84.7657 75.2723 Z " stroke-width="1.0863931118590533"/>
  <path id="ID0.9501931658014655" fill="#E10139" stroke="none" d="M 59.503 83.136 L 70.9946 83.136 L 70.2066 191.6952 L 58.6494 191.0488 L 59.503 83.136 Z " stroke-width="1.0584538348774142"/>
  <path id="ID0.1049648616462946" fill="#EDC696" stroke="#000000" stroke-width="2.2960804003415634" d="M 67.6639 67.3172 C 73.0253 67.3172 77.8839 68.6653 81.4023 70.8429 C 84.9207 73.0206 87.0981 76.0285 87.0981 79.3474 C 87.0981 82.6663 84.9207 85.6742 81.4023 87.8518 C 77.8839 90.0295 73.0253 91.3776 67.6639 91.3776 C 62.3025 91.3776 57.4439 90.0295 53.9255 87.8518 C 50.4071 85.6742 48.2297 82.6663 48.2297 79.3474 C 48.2297 76.0285 50.4071 73.0206 53.9255 70.8429 C 57.4439 68.6653 62.3025 67.3172 67.6639 67.3172 Z "/>
  <path id="ID0.9501931658014655" fill="#E10139" stroke="none" stroke-linecap="round" d="M 31.653 81.0527 L 38.548 76.5081 L 43.2103 75.7905 L 42.8163 190.8414 L 31.456 189.1272 L 31.653 81.0527 Z " stroke-width="1.0863931118590533"/>
  <g id="ID0.757927589584142">
    <path id="ID0.03880475042387843" fill="none" stroke="#D3EFF9" stroke-width="4.387208014726639" stroke-linecap="round" d="M 50.259 114.4664 C 50.259 114.4664 47.0291 113.9194 45.75 114.7101 C 44.4825 115.4935 43.9575 117.1747 43.5563 118.6098 C 43.163 120.0177 42.6965 121.7355 43.4345 122.9971 C 44.1769 124.2664 45.925 124.6491 47.3342 125.0688 C 47.9289 125.2462 49.1622 124.7032 49.1622 124.7032 "/>
    <path id="ID0.3760126787237823" fill="none" stroke="#D3EFF9" stroke-width="4.387208014726639" stroke-linecap="round" d="M 58.3266 126.3118 C 59.4483 126.1958 60.6533 125.4992 61.4464 124.6057 C 62.3297 123.4723 63.0424 122.0163 63.0551 120.5597 C 63.0682 119.0305 62.6607 117.0816 61.3489 116.2944 C 60.0839 115.5354 58.1857 116.0804 56.9617 116.9037 C 55.7084 117.7465 55.0528 119.3488 54.6462 120.8034 C 54.2529 122.2103 53.8799 123.9486 54.6462 125.1907 C 55.26 126.1714 57.0348 126.4283 58.3266 126.3118 Z "/>
    <path id="ID0.2663978422060609" fill="none" stroke="#D3EFF9" stroke-width="4.387208014726639" stroke-linecap="round" d="M 66.1017 127.5061 C 66.1017 127.5061 67.3248 124.6101 67.8079 123.1189 C 68.2597 121.7238 68.3319 120.2039 68.9047 118.8536 C 69.4808 117.495 69.8001 115.4774 71.2201 115.0757 C 72.6874 114.6604 74.3424 115.8932 75.3636 117.0256 C 76.3693 118.1404 76.496 119.8261 76.826 121.2909 C 77.1492 122.725 77.157 124.2167 77.3135 125.6781 C 77.4002 126.4893 77.5572 128.1155 77.5572 128.1155 "/>
    <path id="ID0.9560619830153883" fill="none" stroke="#D3EFF9" stroke-width="4.387208014726639" stroke-linecap="round" d="M 89.1346 116.0506 C 89.1346 116.0506 85.9173 115.2853 84.6255 116.0506 C 83.3605 116.8004 82.6849 118.4855 82.5538 119.9504 C 82.4212 121.4333 82.796 123.2106 83.8943 124.2157 C 84.9984 125.2258 86.7947 125.0191 88.2815 125.1907 C 88.9318 125.2657 90.2314 124.9469 90.2314 124.9469 "/>
    <path id="ID0.4034480722621083" fill="none" stroke="#D3EFF9" stroke-width="4.387208014726639" stroke-linecap="round" d="M 95.7154 127.1405 C 95.9957 120.3179 95.8329 120.6362 95.9591 117.3912 C 95.9957 116.4548 96.2028 114.5882 96.2028 114.5882 "/>
    <path id="ID0.9343968974426389" fill="none" stroke="#D3EFF9" stroke-width="4.387208014726639" stroke-linecap="round" d="M 103.8805 126.4093 C 103.8805 126.4093 103.8717 122.9907 104.0023 121.2909 C 104.1154 119.8202 104.4523 118.37 104.6117 116.9037 C 104.6555 116.5001 104.6117 115.685 104.6117 115.685 "/>
  </g>
  <g id="ID0.9215131159871817">
    <path id="ID0.30071049043908715" fill="#000000" stroke="none" d="M 67.8548 143.6962 C 68.573 143.6962 69.2237 144.0079 69.6956 144.5121 C 70.1667 145.0156 70.4583 145.7115 70.4583 146.4793 C 70.4583 147.2471 70.1667 147.943 69.6956 148.4465 C 69.2237 148.9507 68.573 149.2624 67.8548 149.2624 C 67.1365 149.2624 66.4858 148.9507 66.014 148.4465 C 65.5428 147.943 65.2512 147.2471 65.2512 146.4793 C 65.2512 145.7115 65.5428 145.0156 66.014 144.5121 C 66.4858 144.0079 67.1365 143.6962 67.8548 143.6962 Z " stroke-width="0.7182214260101318"/>
    <path id="ID0.8355377512052655" fill="#000000" stroke="none" d="M 67.9445 147.1078 L 70.4583 147.1078 L 70.4583 153.2126 L 67.9445 153.2126 L 67.9445 147.1078 Z " stroke-width="0.7182214260101318"/>
  </g>
  <path id="ID0.7782022436149418" fill="#FFFFE3" stroke="#000000" stroke-width="2.860919237136841" d="M 69.5279 1.4611 C 80.8743 1.4611 91.1557 6.0693 98.6005 13.5141 C 106.0454 20.9589 110.6536 31.2404 110.6536 42.5868 C 110.6536 53.9332 106.0454 64.2146 98.6005 71.6594 C 91.1557 79.1043 80.8743 83.7125 69.5279 83.7125 C 58.1815 83.7125 47.9 79.1043 40.4552 71.6594 C 33.0104 64.2146 28.4021 53.9332 28.4021 42.5868 C 28.4021 31.2404 33.0104 20.9589 40.4552 13.5141 C 47.9 6.0693 58.1815 1.4611 69.5279 1.4611 Z "/>
  <path id="ID0.29729688772931695" fill="#735A40" stroke="#000000" stroke-width="2" stroke-linecap="round" d="M 103.25 175.75 L 62.75 173.5 L 83 140.75 L 124 142.75 L 103.25 175.75 Z "/>
  <path id="ID0.2946433946490288" fill="#E10139" stroke="#000000" stroke-width="2" stroke-linecap="round" d="M 34 128.5 L 38.5 115.5 L 39 99.5 L 37 89.25 L 30 83.75 L 24.25 84 L 16.25 88 L 11.75 96.25 L 7.75 110 L 5 125.25 L 34 128.5 Z "/>
  <path id="ID0.683351079467684" fill="#EDC696" stroke="#000000" stroke-width="2" stroke-linecap="round" d="M 41.75 154 L 26.25 151.25 L 28.5 142.75 L 32 128.25 L 15.5 126 L 6.25 125.5 L 3.75 142.75 L 1.75 162.75 L 2.5 166 L 7.75 169.5 L 52.75 174.5 L 64 179.75 L 76.75 182 L 81 178.75 L 70.75 176.5 L 83.25 177.75 L 87.75 173.25 L 74.75 171.5 L 84.75 172 L 84.75 166 L 69.75 163.25 L 72.75 156 L 65.75 157.5 L 58 157.5 L 41.75 154 Z "/>
  <path id="ID0.14885786827653646" fill="#EDC696" stroke="#000000" stroke-width="2" stroke-linecap="round" d="M 121.25 161.75 L 113.75 159.75 L 111 163 L 96.75 161.25 L 95.5 165.25 L 107 167.5 L 93.75 167.75 L 93.75 172.5 L 105.25 173.5 L 95.25 175.5 L 98 178.75 L 107.25 179 L 112.75 179.75 L 117.5 178.25 L 123 173.75 L 121.25 161.75 Z "/>
  <path id="ID0.46459442283958197" fill="none" stroke="#000000" stroke-width="2" stroke-linecap="round" d="M 100.9 138.6 L 110.4 139.25 L 113.1 142.25 L 95.25 141.35 L 100.9 138.6 Z "/>
  <path id="ID0.21433626487851143" fill="none" stroke="#000000" stroke-width="2" stroke-linecap="round" d="M 71.5 228.5 L 227 239 "/>
  <path id="ID0.43385023018345237" fill="#EDC696" stroke="none" d="M 70.984 7.5156 C 81.2333 7.5156 90.5205 11.6788 97.2457 18.4039 C 103.9708 25.1291 108.134 34.4163 108.134 44.6656 C 108.134 54.9149 103.9708 64.2021 97.2457 70.9273 C 90.5205 77.6525 81.2333 81.8156 70.984 81.8156 C 60.7347 81.8156 51.4475 77.6525 44.7223 70.9273 C 37.9971 64.2021 33.834 54.9149 33.834 44.6656 C 33.834 34.4163 37.9971 25.1291 44.7223 18.4039 C 51.4475 11.6788 60.7347 7.5156 70.984 7.5156 Z " stroke-width="1.174703598022461"/>
  <path id="ID0.9234447325579822" fill="#FFA8AD" stroke="none" stroke-linecap="round" d="M 8.7 110.65 L 12.55 96.5 L 17.05 88.8 L 24.2 84.95 L 29.8 84.7 L 31.85 86.5 L 23.25 87.15 L 18.5 91.3 L 13.8 107.5 L 10.3 124.6 L 6.35 124.4 L 8.7 110.65 Z " stroke-width="1"/>
  <path id="ID0.31437755189836025" fill="#FFA8AD" stroke="none" stroke-linecap="round" d="M 32.2 80.4 L 38.25 76.85 L 42.8 75.5 L 45.85 77.7 L 42.75 78.25 L 37.55 80.55 L 33.15 84.95 L 30.2 82.85 L 32.2 80.4 Z " stroke-width="1"/>
  <path id="ID0.23437434248626232" fill="none" stroke="#000000" stroke-width="2.1546642780303955" stroke-linecap="round" d="M 91.5459 77.5698 C 91.5459 77.5698 90.4829 104.7107 85.8001 117.2516 C 82.0423 127.074 75.9518 143.4753 66.9468 142.7484 C 57.2458 141.962 52.5141 124.3648 48.273 113.84 C 44.0132 103.2685 43.2684 91.545 41.6295 80.2632 C 41.2194 77.4477 42.7068 74.1583 42.7068 74.1583 "/>
  <path id="ID0.2265506349503994" fill="#FFFFE3" stroke="none" stroke-linecap="round" d="M 3.45 165.05 L 2.75 162.5 L 7.05 126.6 L 12.1 126.9 L 6.45 160.55 L 7.45 165.05 L 11.95 168.8 L 7.55 168.2 L 3.45 165.05 Z " stroke-width="1"/>
  <path id="ID0.5758178308606148" fill="#687D8A" stroke="none" stroke-linecap="round" d="M 18.95 189.5 L 26.1 191.4 L 26.1 230.3 L 19.4 230.3 L 18.95 189.5 Z " stroke-width="1"/>
  <path id="ID0.9609844367951155" fill="#FFA8AD" stroke="none" stroke-linecap="round" d="M 18.6 180.2 L 18.9 171.8 L 24.7 172.35 L 24.5 187.8 L 19.45 186.4 L 18.1 185.7 L 17.4 184.65 L 18.6 180.2 Z " stroke-width="1"/>
  <path id="ID0.1522524207830429" fill="#D3EFF9" stroke="none" stroke-linecap="round" d="M 96.65 118.7 L 104.4 118.7 L 104.4 122.65 L 96.65 122.65 L 96.65 118.7 Z " stroke-width="1"/>
  <path id="ID0.9991747327148914" fill="#D3EFF9" stroke="none" d="M 67.95 121.75 L 76.55 121.75 L 76.55 125.05 L 67.95 125.05 L 67.95 121.75 Z " stroke-width="1"/>
</svg>