<svg xmlns="http://www.w3.org/2000/svg" xmlns:xlink="http://www.w3.org/1999/xlink" version="1.1" width="216.29019263386726" height="249.14122107625008" viewBox="-0.0965881496667862 0.05238960683345795 216.29019263386726 249.14122107625008">
  <!-- Exported by Scratch - http://scratch.mit.edu/ -->
  <path id="ID0.2330573690123856" fill="#EDC696" stroke="#000000" stroke-width="2" stroke-linecap="round" d="M 112.5 205.5 L 107 154.75 L 103.5 131 L 98.5 131.75 L 97 209 L 112.5 205.5 Z "/>
  <path id="ID0.24896233575418591" fill="#E10139" stroke="#000000" stroke-width="2" stroke-linecap="round" d="M 91.75 98.5 L 95 132.5 L 104.25 130.75 L 101.5 112.5 L 98.25 103.75 L 94.75 97.75 L 91.75 98.5 Z "/>
  <path id="ID0.3887670743279159" fill="#333640" stroke="#000000" stroke-width="1.615766714042114" d="M 5.3655 177.4166 L 96.8094 177.4166 L 96.8094 239.0588 L 5.3655 239.0588 L 5.3655 177.4166 Z "/>
  <path id="ID0.5024464935995638" fill="#FF1B45" stroke="#000000" stroke-width="2.447005569934845" stroke-linecap="round" d="M 51.1014 80.1395 C 63.2166 80.0375 77.4736 80.4918 86.5137 88.6045 C 95.9477 97.0711 98.4086 111.6699 99.8376 124.2671 C 102.1125 144.2021 98.252 164.4723 97.6761 184.6266 C 97.4999 189.5704 101.3768 195.1022 97.6761 196.413 C 83.4345 201.4587 67.6391 201.1374 52.5288 201.1031 C 36.7383 200.8503 20.3727 200.5672 5.424 195.5566 C 1.6825 194.3037 4.9224 189.6919 4.7715 184.6266 C 4.167 164.3646 0.428 143.8693 2.977 123.7777 C 4.5692 111.2295 8.0031 97.1592 17.3205 88.6045 C 25.8695 80.7545 39.4782 80.0375 51.1014 80.1395 Z "/>
  <path id="ID0.9501931658014655" fill="#E10139" stroke="none" stroke-linecap="round" d="M 71.7657 83.2723 L 82.7319 86.8602 L 83.3886 198.1239 L 70.9777 199.1604 L 71.7657 83.2723 Z " stroke-width="1.0863931118590533"/>
  <path id="ID0.9501931658014655" fill="#E10139" stroke="none" d="M 46.503 91.136 L 57.9946 91.136 L 57.2066 199.6952 L 45.6494 199.0488 L 46.503 91.136 Z " stroke-width="1.0584538348774142"/>
  <path id="ID0.1049648616462946" fill="#EDC696" stroke="#000000" stroke-width="2.2960804003415634" d="M 54.7139 75.3172 C 60.0753 75.3172 64.9339 76.6653 68.4523 78.8429 C 71.9707 81.0206 74.1481 84.0285 74.1481 87.3474 C 74.1481 90.6663 71.9707 93.6742 68.4523 95.8518 C 64.9339 98.0295 60.0753 99.3776 54.7139 99.3776 C 49.3525 99.3776 44.4939 98.0295 40.9755 95.8518 C 37.4571 93.6742 35.2797 90.6663 35.2797 87.3474 C 35.2797 84.0285 37.4571 81.0206 40.9755 78.8429 C 44.4939 76.6653 49.3525 75.3172 54.7139 75.3172 Z "/>
  <path id="ID0.9501931658014655" fill="#E10139" stroke="none" stroke-linecap="round" d="M 18.653 89.0527 L 25.548 84.5081 L 30.2103 83.7905 L 29.8163 198.8414 L 18.456 197.1272 L 18.653 89.0527 Z " stroke-width="1.0863931118590533"/>
  <g id="ID0.757927589584142">
    <path id="ID0.03880475042387843" fill="none" stroke="#D3EFF9" stroke-width="4.387208014726639" stroke-linecap="round" d="M 37.259 122.4664 C 37.259 122.4664 34.0291 121.9194 32.75 122.7101 C 31.4825 123.4935 30.9575 125.1747 30.5563 126.6098 C 30.163 128.0177 29.6965 129.7355 30.4345 130.9971 C 31.1769 132.2664 32.925 132.6491 34.3342 133.0688 C 34.9289 133.2462 36.1622 132.7032 36.1622 132.7032 "/>
    <path id="ID0.3760126787237823" fill="none" stroke="#D3EFF9" stroke-width="4.387208014726639" stroke-linecap="round" d="M 45.3266 134.3118 C 46.4483 134.1958 47.6533 133.4992 48.4464 132.6057 C 49.3297 131.4723 50.0424 130.0163 50.0551 128.5597 C 50.0682 127.0305 49.6607 125.0816 48.3489 124.2944 C 47.0839 123.5354 45.1857 124.0804 43.9617 124.9037 C 42.7084 125.7465 42.0528 127.3488 41.6462 128.8034 C 41.2529 130.2103 40.8799 131.9486 41.6462 133.1907 C 42.26 134.1714 44.0348 134.4283 45.3266 134.3118 Z "/>
    <path id="ID0.2663978422060609" fill="none" stroke="#D3EFF9" stroke-width="4.387208014726639" stroke-linecap="round" d="M 53.1017 135.5061 C 53.1017 135.5061 54.3248 132.6101 54.8079 131.1189 C 55.2597 129.7238 55.3319 128.2039 55.9047 126.8536 C 56.4808 125.495 56.8001 123.4774 58.2201 123.0757 C 59.6874 122.6604 61.3424 123.8932 62.3636 125.0256 C 63.3693 126.1404 63.496 127.8261 63.826 129.2909 C 64.1492 130.725 64.157 132.2167 64.3135 133.6781 C 64.4002 134.4893 64.5572 136.1155 64.5572 136.1155 "/>
    <path id="ID0.9560619830153883" fill="none" stroke="#D3EFF9" stroke-width="4.387208014726639" stroke-linecap="round" d="M 76.1346 124.0506 C 76.1346 124.0506 72.9173 123.2853 71.6255 124.0506 C 70.3605 124.8004 69.6849 126.4855 69.5538 127.9504 C 69.4212 129.4333 69.796 131.2106 70.8943 132.2157 C 71.9984 133.2258 73.7947 133.0191 75.2815 133.1907 C 75.9318 133.2657 77.2314 132.9469 77.2314 132.9469 "/>
    <path id="ID0.4034480722621083" fill="none" stroke="#D3EFF9" stroke-width="4.387208014726639" stroke-linecap="round" d="M 82.7154 135.1405 C 82.9957 128.3179 82.8329 128.6362 82.9591 125.3912 C 82.9957 124.4548 83.2028 122.5882 83.2028 122.5882 "/>
    <path id="ID0.9343968974426389" fill="none" stroke="#D3EFF9" stroke-width="4.387208014726639" stroke-linecap="round" d="M 90.8805 134.4093 C 90.8805 134.4093 90.8717 130.9907 91.0023 129.2909 C 91.1154 127.8202 91.4523 126.37 91.6117 124.9037 C 91.6555 124.5001 91.6117 123.685 91.6117 123.685 "/>
  </g>
  <g id="ID0.9215131159871817">
    <path id="ID0.30071049043908715" fill="#000000" stroke="none" d="M 54.8548 151.6962 C 55.573 151.6962 56.2237 152.0079 56.6956 152.5121 C 57.1667 153.0156 57.4583 153.7115 57.4583 154.4793 C 57.4583 155.2471 57.1667 155.943 56.6956 156.4465 C 56.2237 156.9507 55.573 157.2624 54.8548 157.2624 C 54.1365 157.2624 53.4858 156.9507 53.014 156.4465 C 52.5428 155.943 52.2512 155.2471 52.2512 154.4793 C 52.2512 153.7115 52.5428 153.0156 53.014 152.5121 C 53.4858 152.0079 54.1365 151.6962 54.8548 151.6962 Z " stroke-width="0.7182214260101318"/>
    <path id="ID0.8355377512052655" fill="#000000" stroke="none" d="M 54.9445 155.1078 L 57.4583 155.1078 L 57.4583 161.2126 L 54.9445 161.2126 L 54.9445 155.1078 Z " stroke-width="0.7182214260101318"/>
  </g>
  <path id="ID0.7782022436149418" fill="#E2FFDE" stroke="#000000" stroke-width="2.860919237136841" d="M 56.5279 9.4611 C 67.8743 9.4611 78.1557 14.0693 85.6005 21.5141 C 93.0454 28.9589 97.6536 39.2404 97.6536 50.5868 C 97.6536 61.9332 93.0454 72.2146 85.6005 79.6594 C 78.1557 87.1043 67.8743 91.7125 56.5279 91.7125 C 45.1815 91.7125 34.9 87.1043 27.4552 79.6594 C 20.0104 72.2146 15.4021 61.9332 15.4021 50.5868 C 15.4021 39.2404 20.0104 28.9589 27.4552 21.5141 C 34.9 14.0693 45.1815 9.4611 56.5279 9.4611 Z "/>
  <path id="ID0.21433626487851143" fill="none" stroke="#000000" stroke-width="2" stroke-linecap="round" d="M 58.5 236.5 L 214 247 "/>
  <path id="ID0.43385023018345237" fill="#EDC696" stroke="none" d="M 57.934 15.5156 C 68.1833 15.5156 77.4705 19.6788 84.1957 26.4039 C 90.9208 33.1291 95.084 42.4163 95.084 52.6656 C 95.084 62.9149 90.9208 72.2021 84.1957 78.9273 C 77.4705 85.6525 68.1833 89.8156 57.934 89.8156 C 47.6847 89.8156 38.3975 85.6525 31.6723 78.9273 C 24.9471 72.2021 20.784 62.9149 20.784 52.6656 C 20.784 42.4163 24.9471 33.1291 31.6723 26.4039 C 38.3975 19.6788 47.6847 15.5156 57.934 15.5156 Z " stroke-width="1.174703598022461"/>
  <path id="ID0.31437755189836025" fill="#FF7AC4" stroke="none" stroke-linecap="round" d="M 19.2 88.4 L 25.25 84.85 L 29.8 83.5 L 32.85 85.7 L 29.75 86.25 L 24.55 88.55 L 20.15 92.95 L 17.2 90.85 L 19.2 88.4 Z " stroke-width="1"/>
  <path id="ID0.23437434248626232" fill="none" stroke="#000000" stroke-width="2.1546642780303955" stroke-linecap="round" d="M 78.5959 85.5698 C 78.5959 85.5698 77.5329 112.7107 72.8501 125.2516 C 69.0923 135.074 63.0018 151.4753 53.9968 150.7484 C 44.2958 149.962 39.5641 132.3648 35.323 121.84 C 31.0632 111.2685 30.3184 99.545 28.6795 88.2632 C 28.2694 85.4477 29.7568 82.1583 29.7568 82.1583 "/>
  <path id="ID0.5758178308606148" fill="#687D8A" stroke="none" stroke-linecap="round" d="M 5.95 197.5 L 13.1 199.4 L 13.1 238.3 L 6.4 238.3 L 5.95 197.5 Z " stroke-width="1"/>
  <path id="ID0.9609844367951155" fill="#FFA8AD" stroke="none" stroke-linecap="round" d="M 5.6 188.2 L 5.9 179.8 L 11.7 180.35 L 11.5 195.8 L 6.45 194.4 L 5.1 193.7 L 4.4 192.65 L 5.6 188.2 Z " stroke-width="1"/>
  <path id="ID0.1522524207830429" fill="#D3EFF9" stroke="none" stroke-linecap="round" d="M 83.65 126.7 L 91.4 126.7 L 91.4 130.65 L 83.65 130.65 L 83.65 126.7 Z " stroke-width="1"/>
  <path id="ID0.9991747327148914" fill="#D3EFF9" stroke="none" d="M 54.95 129.75 L 63.55 129.75 L 63.55 133.05 L 54.95 133.05 L 54.95 129.75 Z " stroke-width="1"/>
  <path id="ID0.17011773446574807" fill="#FF1B45" stroke="#000000" stroke-width="1.4719005121524482" d="M 47.8596 2.356 C 48.8553 2.1597 49.8077 2.2344 50.5425 2.5141 C 51.2765 2.7939 51.792 3.2781 51.9148 3.9005 C 52.0375 4.5229 51.7443 5.1666 51.1715 5.7041 C 50.5979 6.2418 49.7451 6.6725 48.7494 6.8688 C 47.7537 7.0651 46.8014 6.9904 46.0666 6.7107 C 45.3326 6.4309 44.817 5.9467 44.6943 5.3243 C 44.5716 4.7019 44.8647 4.0582 45.4376 3.5207 C 46.0112 2.983 46.8639 2.5523 47.8596 2.356 Z "/>
  <path id="ID0.7822854588739574" fill="#FF1B45" stroke="#000000" stroke-width="2.207850694656372" stroke-linecap="round" d="M 93.3881 35.0611 L 77.3812 35.7971 L 41.1356 39.1089 L 24.7239 44.1869 L 17.4012 47.9403 C 15.03 49.226 15.6048 38.6055 16.1133 33.9572 C 16.6844 28.7327 17.7508 23.3058 20.713 19.0542 C 23.4728 14.8828 28.0306 12.0391 32.4882 9.8548 C 37.9004 7.2032 43.8527 5.5922 49.783 4.5192 C 54.9494 3.5845 60.3535 3.1893 65.5692 4.004 C 71.1911 4.7819 76.8785 6.3804 81.8337 9.2293 C 85.3199 11.2252 88.5441 14.286 90.1499 17.9503 C 92.4792 23.2587 96.7411 30.3179 93.3881 35.0611 Z "/>
  <path id="ID0.6644536075182259" fill="#000000" stroke="#000000" stroke-width="2.567663531071433" stroke-linecap="round" d="M 69.6528 34.0284 C 75.43 33.275 81.2396 33.3375 87.058 32.683 C 88.446 32.4447 88.903 31.9537 89.8178 31.5299 C 90.5957 31.1743 91.3884 30.196 92.2097 30.5209 C 95.4824 31.6164 98.9377 32.7647 101.593 35.614 C 102.6925 36.7902 103.3468 39.9883 102.145 41.1396 C 99.7819 43.4046 96.4156 43.6717 93.4976 43.3018 C 91.6938 43.074 90.3271 40.4179 88.5299 39.4579 C 86.4604 38.3182 84.2533 37.4975 82.0904 36.8152 C 80.3278 36.5557 78.9037 36.4039 77.3067 36.3347 C 72.2073 36.1156 63.6813 36.5279 61.7045 35.9503 C 60.463 35.5573 67.0667 34.3657 69.6528 34.0284 Z "/>
  <path id="ID0.5022262083366513" fill="#FF7AC4" stroke="none" stroke-linecap="round" d="M 25.7863 14.8832 C 29.4905 12.3686 33.7931 10.9259 37.9288 9.2474 C 40.5509 8.2914 46.8907 6.2492 46.0238 6.9931 C 45.0698 7.8139 37.1982 10.5191 33.2152 12.9875 C 30.7683 14.6147 28.558 16.704 26.9646 19.1356 C 25.4655 21.4227 24.9358 24.299 24.2492 26.9745 C 23.6098 29.4788 23.1292 31.9565 22.8659 34.5059 C 22.7009 36.7889 23.0155 39.0493 22.9684 41.4225 C 22.9561 42.0138 23.2553 42.1951 22.8659 42.5497 C 21.4293 43.8377 19.6863 44.7486 17.9474 45.6237 C 17.513 45.7733 17.5078 45.6176 17.4351 45.1114 C 17.1441 43.0845 16.8059 41.112 16.8203 39.117 C 16.9781 35.7212 17.3664 32.2864 17.9474 28.9982 C 18.3891 26.4959 18.7907 23.8697 20.0501 21.6635 C 21.4682 19.1746 23.3393 16.5452 25.7863 14.8832 Z " stroke-width="1.0246843099594116"/>
  <path id="ID0.7746342602185905" fill="#D3EFF9" stroke="#000000" stroke-width="2.567663531071433" stroke-linecap="round" d="M 17.6211 47.2035 C 17.7389 47.2486 22.7389 42.9483 25.7902 42.4466 C 29.6384 41.8143 33.4411 44.0582 37.3814 43.9362 C 39.8843 43.8641 42.4742 42.8762 44.9249 41.8701 C 48.1483 40.5497 50.8375 38.0098 54.0139 36.9691 C 60.8354 34.7349 67.6297 32.7043 74.5101 32.0682 C 82.2066 31.3695 96.0638 33.5846 97.5453 32.9811 C 99.0268 32.3776 88.0722 29.2938 83.1943 28.6567 C 77.8542 27.96 72.4965 28.4684 67.1874 28.6567 C 63.1139 28.9479 58.9984 29.166 55.0442 30.0982 C 49.4392 31.3955 43.949 33.5423 38.4853 35.6238 C 33.6921 37.4496 29.0107 39.3062 24.539 41.822 C 22.0258 43.1828 17.4989 47.1564 17.6211 47.2035 Z "/>
</svg>