<svg xmlns="http://www.w3.org/2000/svg" xmlns:xlink="http://www.w3.org/1999/xlink" version="1.1" width="155.012974858284" height="283.43552124500275" viewBox="-0.7898059487342834 -1.042318880558014 155.012974858284 283.43552124500275">
  <!-- Exported by Scratch - http://scratch.mit.edu/ -->
  <g id="ID0.2874785466119647">
    <path id="ID0.5024464935995638" fill="#FF1B45" stroke="#000000" stroke-width="3.407035231590271" stroke-linecap="round" d="M 72.8128 113.2515 C 89.681 113.1096 109.401 113.7876 122.1183 125.0376 C 135.3092 136.7055 141.1534 156.4232 142.0892 174.0103 C 143.7439 205.1347 146.7148 241.1936 129.5967 267.7038 C 119.3631 283.3091 93.0143 278.6949 74.2324 278.4927 C 53.5154 278.2701 24.7407 283.3943 13.4736 266.0003 C -3.4412 240.3612 3.0697 204.7702 5.8078 174.0103 C 7.3682 156.4675 12.8058 136.9486 25.7787 125.0376 C 37.6817 114.1078 56.6294 113.1096 72.8128 113.2515 Z "/>
    <path id="ID0.9501931658014655" fill="#E10139" stroke="none" stroke-linecap="round" d="M 101.4871 117.4981 L 116.7557 122.4936 L 117.1214 275.189 L 101.1214 275.189 L 101.4871 117.4981 Z " stroke-width="1.5126159207727705"/>
    <path id="ID0.9501931658014655" fill="#E10139" stroke="none" d="M 66.4714 128.5 L 82.4714 128.5 L 82.4714 267 L 66.4714 267 L 66.4714 128.5 Z " stroke-width="1.4737152891173075"/>
    <path id="ID0.17011773446574807" fill="#FF1B45" stroke="#000000" stroke-width="1.999999985306733" d="M 58.9083 2.7449 C 60.2612 2.4781 61.5553 2.5797 62.5537 2.9597 C 63.5511 3.3399 64.2516 3.9978 64.4184 4.8435 C 64.5851 5.6893 64.1868 6.5638 63.4084 7.2942 C 62.629 8.0248 61.4703 8.61 60.1174 8.8768 C 58.7644 9.1436 57.4703 9.042 56.472 8.662 C 55.4746 8.2818 54.774 7.6238 54.6073 6.7781 C 54.4405 5.9324 54.8389 5.0578 55.6173 4.3274 C 56.3966 3.5969 57.5553 3.0117 58.9083 2.7449 Z "/>
    <path id="ID0.1049648616462946" fill="#EDC696" stroke="#000000" stroke-width="3.196897766562576" d="M 77.8676 106.5 C 85.3325 106.5 92.0972 108.377 96.996 111.409 C 101.8947 114.441 104.9265 118.629 104.9265 123.25 C 104.9265 127.871 101.8947 132.059 96.996 135.091 C 92.0972 138.123 85.3325 140 77.8676 140 C 70.4028 140 63.6381 138.123 58.7393 135.091 C 53.8405 132.059 50.8088 127.871 50.8088 123.25 C 50.8088 118.629 53.8405 114.441 58.7393 111.409 C 63.6381 108.377 70.4028 106.5 77.8676 106.5 Z "/>
    <path id="ID0.7782022436149418" fill="#EDC696" stroke="#000000" stroke-width="3.9833388328552246" d="M 80.5044 14.8231 C 96.3023 14.8231 110.6174 21.2392 120.9831 31.6049 C 131.3487 41.9705 137.7649 56.2856 137.7649 72.0836 C 137.7649 87.8815 131.3487 102.1966 120.9831 112.5622 C 110.6174 122.9279 96.3023 129.344 80.5044 129.344 C 64.7064 129.344 50.3913 122.9279 40.0257 112.5622 C 29.66 102.1966 23.2439 87.8815 23.2439 72.0836 C 23.2439 56.2856 29.66 41.9705 40.0257 31.6049 C 50.3913 21.2392 64.7064 14.8231 80.5044 14.8231 Z "/>
    <path id="ID0.3346423259936273" fill="#000000" stroke="none" d="M 73.8933 68.7267 C 75.6589 68.7267 77.2589 69.4435 78.4177 70.6023 C 79.5765 71.7611 80.2933 73.3611 80.2933 75.1267 C 80.2933 76.8922 79.5765 78.4922 78.4177 79.651 C 77.2589 80.8099 75.6589 81.5267 73.8933 81.5267 C 72.1278 81.5267 70.5278 80.8099 69.369 79.651 C 68.2101 78.4922 67.4933 76.8922 67.4933 75.1267 C 67.4933 73.3611 68.2101 71.7611 69.369 70.6023 C 70.5278 69.4435 72.1278 68.7267 73.8933 68.7267 Z " stroke-width="0.8533333539962769"/>
    <path id="ID0.3346423259936273" fill="#000000" stroke="none" d="M 119.1433 68.6767 C 120.9089 68.6767 122.5089 69.3935 123.6677 70.5523 C 124.8265 71.7111 125.5433 73.3111 125.5433 75.0767 C 125.5433 76.8422 124.8265 78.4422 123.6677 79.601 C 122.5089 80.7599 120.9089 81.4767 119.1433 81.4767 C 117.3778 81.4767 115.7778 80.7599 114.619 79.601 C 113.4601 78.4422 112.7433 76.8422 112.7433 75.0767 C 112.7433 73.3111 113.4601 71.7111 114.619 70.5523 C 115.7778 69.3935 117.3778 68.6767 119.1433 68.6767 Z " stroke-width="0.8533333539962769"/>
    <path id="ID0.717018585652113" fill="none" stroke="#000000" stroke-width="3" stroke-linecap="round" d="M 112.15 69.2 L 126.4 69.1 "/>
    <path id="ID0.717018585652113" fill="none" stroke="#000000" stroke-width="3" stroke-linecap="round" d="M 67 68 L 81.25 67.9 "/>
    <path id="ID0.7822854588739574" fill="#FF1B45" stroke="#000000" stroke-width="3" stroke-linecap="round" d="M 128.25 45.25 L 106.5 46.25 L 57.25 50.75 L 34.5 56.5 L 25 62.75 C 21.836 64.831 22.559 50.066 23.25 43.75 C 24.026 36.651 25.475 29.277 29.5 23.5 C 33.25 17.832 39.443 13.968 45.5 11 C 52.854 7.397 60.946 5.22 69 3.75 C 76.065 2.461 83.374 1.561 90.5 2.25 C 98.241 3.251 106.138 5.165 113 8.75 C 117.698 11.202 122.044 15.496 124 20.25 C 127.217 28.058 133.021 38.464 128.25 45.25 Z "/>
    <path id="ID0.7746342602185905" fill="#D3EFF9" stroke="#000000" stroke-width="3.488909137305689" stroke-linecap="round" d="M 25.25 63.2261 C 25.602 63.2835 39.166 56.0196 46.5 54.7387 C 51.545 53.8599 56.896 56.9284 62.25 56.7626 C 65.651 56.6647 68.95 55.197 72.5 53.9552 C 77.97 52.0488 83.176 49.0208 88.75 47.4264 C 98.046 44.7744 107.755 42.8276 117 41.877 C 125.963 40.9525 142.935 42.5534 144 41.877 C 145.033 40.9107 131.128 36.8668 124.5 36.0011 C 117.244 35.0544 109.964 35.7451 102.75 36.0011 C 97.215 36.3967 91.623 36.6931 86.25 37.9597 C 78.634 39.7225 71.186 42.6931 63.75 45.4678 C 56.66 48.1133 49.377 51.1217 42.25 54.4775 C 36.548 57.0381 24.898 63.1686 25.25 63.2261 Z "/>
    <path id="ID0.6644536075182259" fill="#000000" stroke="#000000" stroke-width="3.488909137305689" stroke-linecap="round" d="M 127.75 41.5505 C 130.099 41.1562 131.706 41.0974 133.5 40.2448 C 133.952 39.823 132.111 37.8435 133.5 38.2861 C 139.126 40.0881 144.873 41.5009 149.5 45.7942 C 151.157 47.1353 151.883 51.738 150.25 53.3023 C 147.039 56.38 142.465 56.743 138.5 56.2403 C 136.049 55.9308 134.192 52.3217 131.75 51.0173 C 128.938 49.4686 125.939 48.3535 123 47.4264 C 120.605 47.0739 118.631 46.9054 116.5 46.7736 C 110.789 46.4197 97.156 47.2737 99.25 46.4471 C 101.46 45.2759 118.359 43.1266 127.75 41.5505 Z "/>
    <path id="ID0.5251190410926938" fill="none" stroke="#000000" stroke-width="3" stroke-linecap="round" d="M 79.25 96.5 L 109.75 96.5 "/>
    <path id="ID0.9501931658014655" fill="#E10139" stroke="none" stroke-linecap="round" d="M 27.6214 125.589 L 37.2214 119.2614 L 43.7129 118.2623 L 43.6214 279.339 L 27.6214 279.339 L 27.6214 125.589 Z " stroke-width="1.5126159207727705"/>
    <g id="ID0.757927589584142">
      <path id="ID0.03880475042387843" fill="none" stroke="#D3EFF9" stroke-width="6.108433842658997" stroke-linecap="round" d="M 41.0225 172.0382 C 41.0225 172.0382 36.5253 171.2766 34.7444 172.3775 C 32.9797 173.4682 32.2487 175.8091 31.6902 177.8072 C 31.1424 179.7674 30.4929 182.1592 31.5205 183.9157 C 32.5542 185.683 34.988 186.2158 36.9502 186.8002 C 37.7782 187.0473 39.4954 186.2912 39.4954 186.2912 "/>
      <path id="ID0.3760126787237823" fill="none" stroke="#D3EFF9" stroke-width="6.108433842658997" stroke-linecap="round" d="M 49.8458 187.4789 C 52.4066 187.4314 54.516 187.1844 55.9542 185.9518 C 57.5085 184.6195 58.7471 182.5677 58.8388 180.5221 C 58.9338 178.3943 58.2897 175.6795 56.4633 174.5833 C 54.702 173.5266 52.0591 174.2854 50.3548 175.4317 C 48.6098 176.6052 47.697 178.8362 47.1309 180.8614 C 46.5832 182.8202 46.2214 185.1502 47.1309 186.9699 C 47.6461 188.0009 49.3795 187.7809 50.5245 187.6486 Z "/>
      <path id="ID0.2663978422060609" fill="none" stroke="#D3EFF9" stroke-width="6.108433842658997" stroke-linecap="round" d="M 63.0807 190.1938 C 63.0807 190.1938 64.7836 186.1615 65.4562 184.0853 C 66.0854 182.1429 66.1858 180.0266 66.9833 178.1466 C 67.7856 176.255 68.2301 173.4458 70.2072 172.8865 C 72.2502 172.3083 74.5544 174.0248 75.9763 175.6014 C 77.3765 177.1536 77.553 179.5006 78.0125 181.5402 C 78.4624 183.5369 78.4733 185.6138 78.6912 187.6486 C 78.812 188.778 79.0305 191.0422 79.0305 191.0422 "/>
      <path id="ID0.527254129294306" fill="none" stroke="#D3EFF9" stroke-width="6.108433842658997" stroke-linecap="round" d="M 66.4743 183.9157 C 72.0737 184.067 72.3757 184.4247 72.7524 184.4247 C 72.9777 184.4247 76.6095 183.8987 76.4853 183.9157 Z "/>
      <path id="ID0.9560619830153883" fill="none" stroke="#D3EFF9" stroke-width="6.108433842658997" stroke-linecap="round" d="M 95.15 174.244 C 95.15 174.244 90.6705 173.1784 88.8719 174.244 C 87.1106 175.2878 86.1699 177.6342 85.9874 179.6737 C 85.8027 181.7383 86.3247 184.2129 87.8538 185.6125 C 89.3911 187.0188 91.8922 186.731 93.9623 186.9699 C 94.8677 187.0744 96.6771 186.6305 96.6771 186.6305 "/>
      <path id="ID0.4034480722621083" fill="none" stroke="#D3EFF9" stroke-width="6.108433842658997" stroke-linecap="round" d="M 104.3127 189.6847 C 104.7029 180.1854 104.4762 180.6286 104.652 176.1104 C 104.7029 174.8066 104.9914 172.2078 104.9914 172.2078 "/>
      <path id="ID0.9343968974426389" fill="none" stroke="#D3EFF9" stroke-width="6.108433842658997" stroke-linecap="round" d="M 115.6811 188.6667 C 115.6811 188.6667 115.6689 183.9068 115.8508 181.5402 C 116.0083 179.4925 116.4773 177.4733 116.6992 175.4317 C 116.7603 174.8698 116.6992 173.7349 116.6992 173.7349 "/>
      <path id="ID0.298086020629853" fill="none" stroke="#D3EFF9" stroke-width="6.108433842658997" stroke-linecap="round" d="M 108.0594 180.2131 C 113.0263 180.8829 114.3376 181.4008 114.3376 181.4008 C 114.3376 181.4008 116.4137 181.0547 116.3737 181.0614 Z "/>
    </g>
    <path id="ID0.23437434248626232" fill="none" stroke="#000000" stroke-width="3" stroke-linecap="round" d="M 111.25 120.75 C 111.25 120.75 109.77 158.539 103.25 176 C 98.018 189.676 89.538 212.512 77 211.5 C 63.493 210.405 56.905 185.904 51 171.25 C 45.069 156.531 44.032 140.208 41.75 124.5 C 41.179 120.58 43.25 116 43.25 116 "/>
    <g id="ID0.9215131159871817">
      <path id="ID0.30071049043908715" fill="#000000" stroke="none" d="M 78.125 212.75 C 79.125 212.75 80.031 213.184 80.688 213.886 C 81.344 214.587 81.75 215.556 81.75 216.625 C 81.75 217.694 81.344 218.663 80.688 219.364 C 80.031 220.066 79.125 220.5 78.125 220.5 C 77.125 220.5 76.219 220.066 75.562 219.364 C 74.906 218.663 74.5 217.694 74.5 216.625 C 74.5 215.556 74.906 214.587 75.562 213.886 C 76.219 213.184 77.125 212.75 78.125 212.75 Z " stroke-width="1"/>
      <path id="ID0.8355377512052655" fill="#000000" stroke="none" d="M 78.25 217.5 L 81.75 217.5 L 81.75 226 L 78.25 226 L 78.25 217.5 Z " stroke-width="1"/>
    </g>
  </g>
</svg>