<svg xmlns="http://www.w3.org/2000/svg" xmlns:xlink="http://www.w3.org/1999/xlink" version="1.1" width="229.63720801472664" height="251.12718299031258" viewBox="-0.4436040073633194 -0.9335829168558121 229.63720801472664 251.12718299031258">
  <!-- Exported by Scratch - http://scratch.mit.edu/ -->
  <path id="ID0.2330573690123856" fill="#EDC696" stroke="#000000" stroke-width="2" stroke-linecap="round" d="M 118 170.5 L 120 155.75 L 116.5 132 L 111.5 132.75 L 107.5 163.5 L 117.5 171.25 Z "/>
  <path id="ID0.24896233575418591" fill="#E10139" stroke="#000000" stroke-width="2" stroke-linecap="round" d="M 104.75 99.5 L 108 133.5 L 117.25 131.75 L 114.5 113.5 L 111.25 104.75 L 107.75 98.75 L 104.75 99.5 Z "/>
  <path id="ID0.3887670743279159" fill="#333640" stroke="#000000" stroke-width="1.615766714042114" d="M 18.3655 178.4666 L 109.8094 178.4666 L 109.8094 240.1088 L 18.3655 240.1088 L 18.3655 178.4666 Z "/>
  <path id="ID0.5024464935995638" fill="#FF1B45" stroke="#000000" stroke-width="2.447005569934845" stroke-linecap="round" d="M 64.0514 81.1395 C 76.1666 81.0375 90.4236 81.4918 99.4637 89.6045 C 108.8977 98.0711 111.3586 112.6699 112.7876 125.2671 C 115.0625 145.2021 111.202 165.4723 110.6261 185.6266 C 110.4499 190.5704 114.3268 196.1022 110.6261 197.413 C 96.3845 202.4587 80.5891 202.1374 65.4788 202.1031 C 49.6883 201.8503 33.3227 201.5672 18.374 196.5566 C 14.6325 195.3037 17.8724 190.6919 17.7215 185.6266 C 17.117 165.3646 13.378 144.8693 15.927 124.7777 C 17.5192 112.2295 20.9531 98.1592 30.2705 89.6045 C 38.8195 81.7545 52.4282 81.0375 64.0514 81.1395 Z "/>
  <path id="ID0.9501931658014655" fill="#E10139" stroke="none" stroke-linecap="round" d="M 84.7657 84.2723 L 95.7319 87.8602 L 96.3886 199.1239 L 83.9777 200.1604 L 84.7657 84.2723 Z " stroke-width="1.0863931118590533"/>
  <path id="ID0.9501931658014655" fill="#E10139" stroke="none" d="M 59.503 92.136 L 70.9946 92.136 L 70.2066 200.6952 L 58.6494 200.0488 L 59.503 92.136 Z " stroke-width="1.0584538348774142"/>
  <path id="ID0.1049648616462946" fill="#EDC696" stroke="#000000" stroke-width="2.2960804003415634" d="M 67.6639 76.3172 C 73.0253 76.3172 77.8839 77.6653 81.4023 79.8429 C 84.9207 82.0206 87.0981 85.0285 87.0981 88.3474 C 87.0981 91.6663 84.9207 94.6742 81.4023 96.8518 C 77.8839 99.0295 73.0253 100.3776 67.6639 100.3776 C 62.3025 100.3776 57.4439 99.0295 53.9255 96.8518 C 50.4071 94.6742 48.2297 91.6663 48.2297 88.3474 C 48.2297 85.0285 50.4071 82.0206 53.9255 79.8429 C 57.4439 77.6653 62.3025 76.3172 67.6639 76.3172 Z "/>
  <path id="ID0.9501931658014655" fill="#E10139" stroke="none" stroke-linecap="round" d="M 31.653 90.0527 L 38.548 85.5081 L 43.2103 84.7905 L 42.8163 199.8414 L 31.456 198.1272 L 31.653 90.0527 Z " stroke-width="1.0863931118590533"/>
  <g id="ID0.757927589584142">
    <path id="ID0.03880475042387843" fill="none" stroke="#D3EFF9" stroke-width="4.387208014726639" stroke-linecap="round" d="M 50.259 123.4664 C 50.259 123.4664 47.0291 122.9194 45.75 123.7101 C 44.4825 124.4935 43.9575 126.1747 43.5563 127.6098 C 43.163 129.0177 42.6965 130.7355 43.4345 131.9971 C 44.1769 133.2664 45.925 133.6491 47.3342 134.0688 C 47.9289 134.2462 49.1622 133.7032 49.1622 133.7032 "/>
    <path id="ID0.3760126787237823" fill="none" stroke="#D3EFF9" stroke-width="4.387208014726639" stroke-linecap="round" d="M 56.5961 134.5563 C 58.4353 134.5221 59.9504 134.3447 60.9833 133.4595 C 62.0996 132.5026 62.9892 131.0289 63.0551 129.5597 C 63.1233 128.0315 62.6607 126.0816 61.3489 125.2944 C 60.0839 124.5354 58.1857 125.0804 56.9617 125.9037 C 55.7084 126.7465 55.0528 128.3488 54.6462 129.8034 C 54.2529 131.2103 53.993 132.8838 54.6462 134.1907 C 55.0162 134.9311 56.2612 134.7732 57.0836 134.6781 Z "/>
    <path id="ID0.2663978422060609" fill="none" stroke="#D3EFF9" stroke-width="4.387208014726639" stroke-linecap="round" d="M 66.1017 136.5061 C 66.1017 136.5061 67.3248 133.6101 67.8079 132.1189 C 68.2597 130.7238 68.3319 129.2039 68.9047 127.8536 C 69.4808 126.495 69.8001 124.4774 71.2201 124.0757 C 72.6874 123.6604 74.3424 124.8932 75.3636 126.0256 C 76.3693 127.1404 76.496 128.8261 76.826 130.2909 C 77.1492 131.725 77.157 133.2167 77.3135 134.6781 C 77.4002 135.4893 77.5572 137.1155 77.5572 137.1155 "/>
    <path id="ID0.527254129294306" fill="none" stroke="#D3EFF9" stroke-width="4.387208014726639" stroke-linecap="round" d="M 68.5391 131.9971 C 72.5607 132.1058 72.7776 132.3627 73.0481 132.3627 C 73.21 132.3627 75.8184 131.9849 75.7292 131.9971 Z "/>
    <path id="ID0.9560619830153883" fill="none" stroke="#D3EFF9" stroke-width="4.387208014726639" stroke-linecap="round" d="M 89.1346 125.0506 C 89.1346 125.0506 85.9173 124.2853 84.6255 125.0506 C 83.3605 125.8004 82.6849 127.4855 82.5538 128.9504 C 82.4212 130.4333 82.796 132.2106 83.8943 133.2157 C 84.9984 134.2258 86.7947 134.0191 88.2815 134.1907 C 88.9318 134.2657 90.2314 133.9469 90.2314 133.9469 "/>
    <path id="ID0.4034480722621083" fill="none" stroke="#D3EFF9" stroke-width="4.387208014726639" stroke-linecap="round" d="M 95.7154 136.1405 C 95.9957 129.3179 95.8329 129.6362 95.9591 126.3912 C 95.9957 125.4548 96.2028 123.5882 96.2028 123.5882 "/>
    <path id="ID0.9343968974426389" fill="none" stroke="#D3EFF9" stroke-width="4.387208014726639" stroke-linecap="round" d="M 103.8805 135.4093 C 103.8805 135.4093 103.8717 131.9907 104.0023 130.2909 C 104.1154 128.8202 104.4523 127.37 104.6117 125.9037 C 104.6555 125.5001 104.6117 124.685 104.6117 124.685 "/>
    <path id="ID0.298086020629853" fill="none" stroke="#D3EFF9" stroke-width="4.387208014726639" stroke-linecap="round" d="M 98.434 129.2941 C 102.0013 129.7752 102.9431 130.1472 102.9431 130.1472 C 102.9431 130.1472 104.4343 129.8986 104.4055 129.9034 Z "/>
  </g>
  <path id="ID0.23437434248626232" fill="none" stroke="#000000" stroke-width="2.1546642780303955" stroke-linecap="round" d="M 91.5459 86.5698 C 91.5459 86.5698 90.4829 113.7107 85.8001 126.2516 C 82.0423 136.074 75.9518 152.4753 66.9468 151.7484 C 57.2458 150.962 52.5141 133.3648 48.273 122.84 C 44.0132 112.2685 43.2684 100.545 41.6295 89.2632 C 41.2194 86.4477 42.7068 83.1583 42.7068 83.1583 "/>
  <g id="ID0.9215131159871817">
    <path id="ID0.30071049043908715" fill="#000000" stroke="none" d="M 67.8548 152.6962 C 68.573 152.6962 69.2237 153.0079 69.6956 153.5121 C 70.1667 154.0156 70.4583 154.7115 70.4583 155.4793 C 70.4583 156.2471 70.1667 156.943 69.6956 157.4465 C 69.2237 157.9507 68.573 158.2624 67.8548 158.2624 C 67.1365 158.2624 66.4858 157.9507 66.014 157.4465 C 65.5428 156.943 65.2512 156.2471 65.2512 155.4793 C 65.2512 154.7115 65.5428 154.0156 66.014 153.5121 C 66.4858 153.0079 67.1365 152.6962 67.8548 152.6962 Z " stroke-width="0.7182214260101318"/>
    <path id="ID0.8355377512052655" fill="#000000" stroke="none" d="M 67.9445 156.1078 L 70.4583 156.1078 L 70.4583 162.2126 L 67.9445 162.2126 L 67.9445 156.1078 Z " stroke-width="0.7182214260101318"/>
  </g>
  <g id="ID0.06070044217631221">
    <path id="ID0.17011773446574807" fill="#FF1B45" stroke="#000000" stroke-width="1.436442890452479" d="M 54.0113 1.7881 C 54.983 1.5965 55.9125 1.6695 56.6295 1.9424 C 57.3459 2.2155 57.849 2.688 57.9688 3.2954 C 58.0885 3.9029 57.8024 4.531 57.2434 5.0556 C 56.6836 5.5803 55.8514 6.0006 54.8797 6.1922 C 53.908 6.3838 52.9785 6.3109 52.2615 6.0379 C 51.5451 5.7648 51.042 5.2923 50.9222 4.6849 C 50.8025 4.0775 51.0886 3.4493 51.6476 2.9248 C 52.2074 2.4 53.0396 1.9797 54.0113 1.7881 Z "/>
    <path id="ID0.7782022436149418" fill="#EDC696" stroke="#000000" stroke-width="2.860919237136841" d="M 69.4779 10.4611 C 80.8243 10.4611 91.1057 15.0693 98.5505 22.5141 C 105.9954 29.9589 110.6036 40.2404 110.6036 51.5868 C 110.6036 62.9332 105.9954 73.2146 98.5505 80.6594 C 91.1057 88.1043 80.8243 92.7125 69.4779 92.7125 C 58.1315 92.7125 47.85 88.1043 40.4052 80.6594 C 32.9604 73.2146 28.3521 62.9332 28.3521 51.5868 C 28.3521 40.2404 32.9604 29.9589 40.4052 22.5141 C 47.85 15.0693 58.1315 10.4611 69.4779 10.4611 Z "/>
    <path id="ID0.3346423259936273" fill="#000000" stroke="none" d="M 64.76 49.182 C 66.028 49.182 67.1772 49.6968 68.0095 50.5291 C 68.8418 51.3614 69.3566 52.5106 69.3566 53.7786 C 69.3566 55.0467 68.8418 56.1958 68.0095 57.0281 C 67.1772 57.8604 66.028 58.3753 64.76 58.3753 C 63.4919 58.3753 62.3428 57.8604 61.5105 57.0281 C 60.6782 56.1958 60.1633 55.0467 60.1633 53.7786 C 60.1633 52.5106 60.6782 51.3614 61.5105 50.5291 C 62.3428 49.6968 63.4919 49.182 64.76 49.182 Z " stroke-width="0.6128823161125183"/>
    <path id="ID0.3346423259936273" fill="#000000" stroke="none" d="M 97.36 49.132 C 98.628 49.132 99.7772 49.6468 100.6095 50.4791 C 101.4418 51.3114 101.9566 52.4606 101.9566 53.7286 C 101.9566 54.9967 101.4418 56.1458 100.6095 56.9781 C 99.7772 57.8104 98.628 58.3253 97.36 58.3253 C 96.0919 58.3253 94.9428 57.8104 94.1105 56.9781 C 93.2782 56.1458 92.7633 54.9967 92.7633 53.7286 C 92.7633 52.4606 93.2782 51.3114 94.1105 50.4791 C 94.9428 49.6468 96.0919 49.132 97.36 49.132 Z " stroke-width="0.6128823161125183"/>
    <path id="ID0.717018585652113" fill="none" stroke="#000000" stroke-width="2.1546642780303955" stroke-linecap="round" d="M 92.1923 49.5455 L 102.4269 49.4737 "/>
    <path id="ID0.717018585652113" fill="none" stroke="#000000" stroke-width="2.1546642780303955" stroke-linecap="round" d="M 59.7923 48.6455 L 70.0269 48.5737 "/>
    <path id="ID0.7822854588739574" fill="#FF1B45" stroke="#000000" stroke-width="2.1546642780303955" stroke-linecap="round" d="M 103.7556 32.3146 L 88.1343 33.0328 L 52.7619 36.2648 L 36.4224 40.3945 L 29.5993 44.8834 C 27.3268 46.3781 27.8461 35.7735 28.3424 31.2372 C 28.8997 26.1386 29.9404 20.8424 32.8313 16.6932 C 35.5246 12.6224 39.9725 9.8472 44.3228 7.7155 C 49.6046 5.1277 55.4164 3.5642 61.201 2.5084 C 66.2752 1.5826 71.5247 0.9362 76.6428 1.431 C 82.2025 2.15 87.8743 3.5247 92.8027 6.0995 C 96.1769 7.8606 99.2983 10.9446 100.7032 14.359 C 103.0137 19.9669 107.1823 27.4407 103.7556 32.3146 Z "/>
    <path id="ID0.7746342602185905" fill="#D3EFF9" stroke="#000000" stroke-width="2.5058093273041053" stroke-linecap="round" d="M 29.7993 45.4393 C 30.0521 45.4805 39.794 40.2634 45.0615 39.3434 C 48.6849 38.7123 52.5281 40.9162 56.3734 40.7971 C 58.8161 40.7267 61.1855 39.6726 63.7352 38.7808 C 67.6639 37.4115 71.403 35.2367 75.4063 34.0916 C 82.0829 32.1869 89.0561 30.7886 95.6961 30.1059 C 102.1335 29.4419 114.3231 30.5917 115.0881 30.1059 C 115.83 29.4119 105.8431 26.5075 101.0827 25.8857 C 95.8713 25.2058 90.6427 25.7019 85.4614 25.8857 C 81.4861 26.1699 77.4698 26.3828 73.6108 27.2924 C 68.1408 28.5585 62.7915 30.692 57.4508 32.6849 C 52.3586 34.5849 47.1278 36.7457 42.009 39.1559 C 37.9137 40.9949 29.5464 45.398 29.7993 45.4393 Z "/>
    <path id="ID0.6644536075182259" fill="#000000" stroke="#000000" stroke-width="2.5058093273041053" stroke-linecap="round" d="M 87.8675 31.372 C 93.3755 30.482 99.1751 30.6977 104.8534 30.059 C 106.208 29.8264 106.654 29.3472 107.5467 28.9336 C 108.3059 28.5866 109.0794 27.6319 109.8809 27.9489 C 113.0749 29.018 116.4469 30.1387 119.0383 32.9194 C 120.1113 34.0673 120.7498 37.1883 119.5769 38.3118 C 117.2707 40.5223 113.9856 40.783 111.1378 40.4219 C 109.3775 40.1997 108.0437 37.6075 106.2898 36.6707 C 104.2702 35.5584 102.1163 34.7575 100.0054 34.0916 C 98.2853 33.8384 96.8675 33.7175 95.337 33.6227 C 91.2352 33.3686 85.2057 34.1245 82.9476 33.3883 C 81.8559 33.0263 86.1638 31.6477 87.8675 31.372 Z "/>
    <path id="ID0.5251190410926938" fill="none" stroke="#000000" stroke-width="2.1546642780303955" stroke-linecap="round" d="M 68.5628 69.153 L 90.4685 69.153 "/>
  </g>
  <path id="ID0.29729688772931695" fill="#735A40" stroke="#000000" stroke-width="2" stroke-linecap="round" d="M 103.25 184.75 L 62.75 182.5 L 83 149.75 L 124 151.75 L 103.25 184.75 Z "/>
  <path id="ID0.2946433946490288" fill="#E10139" stroke="#000000" stroke-width="2" stroke-linecap="round" d="M 34 137.5 L 38.5 124.5 L 39 108.5 L 37 98.25 L 30 92.75 L 24.25 93 L 16.25 97 L 11.75 105.25 L 7.75 119 L 5 134.25 L 34 137.5 Z "/>
  <path id="ID0.683351079467684" fill="#EDC696" stroke="#000000" stroke-width="2" stroke-linecap="round" d="M 41.75 163 L 26.25 160.25 L 28.5 151.75 L 32 137.25 L 15.5 135 L 6.25 134.5 L 3.75 151.75 L 1.75 171.75 L 2.5 175 L 7.75 178.5 L 52.75 183.5 L 64 188.75 L 76.75 191 L 81 187.75 L 70.75 185.5 L 83.25 186.75 L 87.75 182.25 L 74.75 180.5 L 84.75 181 L 84.75 175 L 69.75 172.25 L 72.75 165 L 65.75 166.5 L 58 166.5 L 41.75 163 Z "/>
  <path id="ID0.14885786827653646" fill="#EDC696" stroke="#000000" stroke-width="2" stroke-linecap="round" d="M 121.25 170.75 L 113.75 168.75 L 111 172 L 96.75 170.25 L 95.5 174.25 L 107 176.5 L 93.75 176.75 L 93.75 181.5 L 105.25 182.5 L 95.25 184.5 L 98 187.75 L 107.25 188 L 112.75 188.75 L 117.5 187.25 L 123 182.75 L 121.25 170.75 Z "/>
  <path id="ID0.46459442283958197" fill="none" stroke="#000000" stroke-width="2" stroke-linecap="round" d="M 100.9 147.6 L 110.4 148.25 L 113.1 151.25 L 95.25 150.35 L 100.9 147.6 Z "/>
  <path id="ID0.21433626487851143" fill="none" stroke="#000000" stroke-width="2" stroke-linecap="round" d="M 71.5 237.5 L 227 248 "/>
</svg>