<svg xmlns="http://www.w3.org/2000/svg" xmlns:xlink="http://www.w3.org/1999/xlink" version="1.1" width="106.85868811607361" height="215.21594977378845" viewBox="12.484458088874817 1.589798092842102 106.85868811607361 215.21594977378845">
  <!-- Exported by Scratch - http://scratch.mit.edu/ -->
  <path id="ID0.11782124871388078" fill="#EDC696" stroke="#000000" stroke-width="1.9999999111666458" stroke-linecap="round" d="M 42.3873 141.994 L 40.8917 106.3164 L 27.3593 107.2682 L 25.02 148.2508 L 18.0607 175.0398 L 14.3386 186.0833 L 13.7849 188.895 L 15.8788 190.5878 L 18.8214 188.5133 L 21.6383 182.9464 L 18.6334 193.531 L 22.1606 195.666 L 24.9741 194.1796 L 27.3537 183.9253 L 25.0478 193.9407 L 26.5902 195.7249 L 30.1026 193.6692 L 32.7743 185.8598 L 35.7232 176.3045 L 43.9075 148.4284 L 42.3873 141.994 Z "/>
  <path id="ID0.13247013883665204" fill="#E10139" stroke="#000000" stroke-width="2.000000106425242" stroke-linecap="round" d="M 27.1019 99.2012 L 31.8889 89.1907 L 37.076 83.5921 L 41.3375 81.3782 L 46.5383 83.4281 L 49.7354 89.1588 L 50.5311 95.4331 L 50.4013 105.092 L 48.6452 110.0961 L 26.2805 105.9196 L 27.1019 99.2012 Z "/>
  <g id="ID0.8168169404380023">
    <path id="ID0.3887670743279159" fill="#333640" stroke="#000000" stroke-width="1.4689056946303964" d="M 114.3146 157.9403 L 31.1822 157.9403 L 31.3108 173.4905 L 27.5398 215.0066 L 118.0427 215.5053 L 114.0575 173.7545 L 114.3146 157.9403 Z "/>
    <path id="ID0.5024464935995638" fill="#FF1B45" stroke="#000000" stroke-width="2.2245912551879883" stroke-linecap="round" d="M 72.715 69.1614 C 61.701 69.0687 49.1996 70.0616 40.5214 76.857 C 33.752 82.1627 32.9245 92.3164 31.9679 100.5652 C 29.5097 121.6914 29.965 142.9756 30.3736 164.1515 C 30.4759 169.4452 30.3929 173.0239 33.8217 174.2363 C 45.6098 178.5772 58.6511 179.034 71.4173 179.1304 C 84.8627 179.232 98.7961 179.2357 111.5712 174.8666 C 115.0119 173.6408 114.6411 167.8762 114.8339 164.1515 C 115.4064 153.1041 114.6463 142.0086 114.2407 130.968 C 113.6334 120.0742 113.8543 109.0001 111.7936 98.3036 C 110.3432 90.7763 109.529 81.4412 103.4255 76.857 C 94.995 70.5266 83.2818 69.0687 72.715 69.1614 Z "/>
    <path id="ID0.9501931658014655" fill="#E10139" stroke="none" stroke-linecap="round" d="M 54.0418 72.4777 L 44.0723 75.7395 L 43.4754 176.8902 L 54.7582 177.8324 L 54.0418 72.4777 Z " stroke-width="0.9876482338323532"/>
    <path id="ID0.9501931658014655" fill="#E10139" stroke="none" d="M 76.8806 79.3763 L 66.4335 79.3763 L 67.1499 178.0683 L 77.6567 177.4806 L 76.8806 79.3763 Z " stroke-width="0.9622484256337909"/>
    <path id="ID0.1049648616462946" fill="#EDC696" stroke="#000000" stroke-width="2.087384119009954" d="M 69.3262 65.0499 C 64.4521 65.0499 60.0352 66.2754 56.8366 68.2551 C 53.638 70.2349 51.6584 72.9694 51.6584 75.9866 C 51.6584 79.0039 53.638 81.7384 56.8366 83.7181 C 60.0352 85.6978 64.4521 86.9234 69.3262 86.9234 C 74.2003 86.9234 78.6173 85.6978 81.8159 83.7181 C 85.0145 81.7384 86.994 79.0039 86.994 75.9866 C 86.994 72.9694 85.0145 70.2349 81.8159 68.2551 C 78.6173 66.2754 74.2003 65.0499 69.3262 65.0499 Z "/>
    <path id="ID0.7782022436149418" fill="#EDC696" stroke="#000000" stroke-width="2.6008832454681396" d="M 67.6684 5.1976 C 57.3533 5.1976 48.0064 9.387 41.2382 16.1552 C 34.4701 22.9233 30.2807 32.2702 30.2807 42.5853 C 30.2807 52.9004 34.4701 62.2474 41.2382 69.0155 C 48.0064 75.7837 57.3533 79.973 67.6684 79.973 C 77.9835 79.973 87.3305 75.7837 94.0986 69.0155 C 100.8667 62.2474 105.0561 52.9004 105.0561 42.5853 C 105.0561 32.2702 100.8667 22.9233 94.0986 16.1552 C 87.3305 9.387 77.9835 5.1976 67.6684 5.1976 Z "/>
    <path id="ID0.3346423259936273" fill="#000000" stroke="none" d="M 69.7168 35.8626 C 68.564 35.8626 67.5193 36.3306 66.7626 37.0873 C 66.006 37.8439 65.538 38.8886 65.538 40.0414 C 65.538 41.1942 66.006 42.2389 66.7626 42.9956 C 67.5193 43.7522 68.564 44.2202 69.7168 44.2202 C 70.8696 44.2202 71.9143 43.7522 72.6709 42.9956 C 73.4276 42.2389 73.8956 41.1942 73.8956 40.0414 C 73.8956 38.8886 73.4276 37.8439 72.6709 37.0873 C 71.9143 36.3306 70.8696 35.8626 69.7168 35.8626 Z " stroke-width="0.557175874710083"/>
    <path id="ID0.3346423259936273" fill="#000000" stroke="none" d="M 40.2668 35.8626 C 39.114 35.8626 38.0693 36.3306 37.3126 37.0873 C 36.556 37.8439 36.088 38.8886 36.088 40.0414 C 36.088 41.1942 36.556 42.2389 37.3126 42.9956 C 38.0693 43.7522 39.114 44.2202 40.2668 44.2202 C 41.4196 44.2202 42.4643 43.7522 43.2209 42.9956 C 43.9776 42.2389 44.4456 41.1942 44.4456 40.0414 C 44.4456 38.8886 43.9776 37.8439 43.2209 37.0873 C 42.4643 36.3306 41.4196 35.8626 40.2668 35.8626 Z " stroke-width="0.557175874710083"/>
    <path id="ID0.5251190410926938" fill="none" stroke="#000000" stroke-width="1.9588215351104736" stroke-linecap="round" d="M 67.3957 54.9822 L 47.481 54.9822 "/>
    <path id="ID0.9501931658014655" fill="#E10139" stroke="none" stroke-linecap="round" d="M 102.1806 77.5509 L 95.9124 73.4193 L 91.6738 72.767 L 92.032 177.3606 L 102.3597 175.8022 L 102.1806 77.5509 Z " stroke-width="0.9876482338323532"/>
    <path id="ID0.8345567877404392" fill="#D3EFF9" stroke="#D3EFF9" stroke-width="1.7778376769416502" stroke-linecap="round" d="M 68.8348 138.186 C 68.8567 137.2588 68.9783 136.5701 69.1162 136.0125 C 69.2647 135.412 69.1961 134.7686 69.2569 134.1495 C 69.3835 132.8554 69.6069 131.5674 69.679 130.2683 C 69.7476 129.0301 69.648 127.7825 69.679 126.5424 C 69.6947 125.9201 69.7049 125.2886 69.8197 124.6794 C 69.9407 124.0392 70.0988 123.3902 70.3825 122.8164 C 71.2289 121.1037 72.3078 119.5351 73.1965 117.8485 C 73.4813 117.3082 73.6608 116.7071 73.9 116.1408 C 74.6446 114.3803 75.4201 112.6297 76.1512 110.8624 C 76.4039 110.2507 76.6409 109.6284 76.8547 108.9994 C 77.063 108.3871 77.695 107.7145 77.4175 107.1364 C 77.1119 106.4999 76.2362 106.4496 75.5884 106.3602 C 74.3334 106.1869 73.0541 106.3328 71.7895 106.3602 C 70.6644 106.3844 69.5366 106.5831 68.4127 106.5154 C 66.1085 106.3763 63.8106 106.0335 61.5183 105.7392 C 59.7809 105.5162 58.0582 105.0809 56.3123 104.9629 C 55.7434 104.9244 55.1057 104.9375 54.6239 105.2734 C 54.1405 105.6106 53.827 106.2298 53.639 106.8259 C 53.4381 107.4624 53.4741 108.1704 53.4983 108.8441 C 53.5208 109.4726 53.3469 110.2979 53.7797 110.7071 C 54.2063 111.1107 54.8823 110.7071 55.4681 110.7071 C 57.8111 110.7071 60.1608 110.6655 62.5032 110.7071 C 63.0885 110.7177 63.6277 110.8363 64.1916 110.8624 C 64.7533 110.8884 65.3212 110.7959 65.88 110.8624 C 67.0597 111.0033 68.4487 110.6978 69.3976 111.4833 C 69.8506 111.8584 68.9918 112.6601 68.6941 113.1911 C 68.3783 113.7537 67.9286 114.2138 67.5684 114.7435 C 67.2251 115.2484 66.8756 115.7533 66.5835 116.296 C 65.9841 117.4101 65.4326 118.5595 64.8951 119.7115 C 64.6357 120.2666 64.3565 120.8218 64.1916 121.4192 C 64.0256 122.0209 63.9558 122.655 63.9102 123.2822 C 63.8618 123.9522 63.9102 124.6285 63.9102 125.3004 C 63.9102 127.8856 63.9479 130.4782 63.9102 133.0628 C 63.9006 133.7086 63.7931 134.3035 63.7695 134.9258 C 63.7459 135.5455 63.5078 136.2398 63.7695 136.7887 C 64.0357 137.347 64.6188 137.7357 65.1765 137.8755 C 65.7326 138.0146 66.2971 137.6196 66.8649 137.565 C 67.3782 137.5159 67.9754 137.8662 68.4127 137.565 Z "/>
    <path id="ID0.12530163442716002" fill="#000000" stroke="#000000" stroke-width="2.449541385401672" stroke-linecap="round" d="M 54.7231 21.6811 C 53.5177 21.8568 53.2036 19.367 52.1045 19.2234 C 49.5809 18.9056 47.0016 20.5659 44.501 20.0783 C 41.2052 19.4367 37.0836 18.7965 35.3015 15.9505 C 33.9076 13.7242 35.9919 10.6509 37.107 8.2725 C 37.8023 6.79 39.0189 5.3469 40.5483 4.7618 C 43.7989 3.5186 47.3778 3.2184 50.8521 3.0169 C 55.0602 2.7727 59.3262 2.8666 63.503 3.4302 C 70.5734 4.3844 77.7224 5.6891 84.5339 8.0131 C 89.7746 9.6228 94.8259 12.0161 99.4311 15.1578 C 101.735 16.727 103.4209 18.9822 104.9268 21.4755 C 106.3085 23.7494 107.5858 25.9511 107.9997 28.8603 C 108.3267 31.1693 107.2111 33.4414 107.0883 35.8053 C 106.9072 39.1972 107.3014 42.6761 106.5906 45.9996 C 105.8713 49.3628 104.4454 52.8664 102.8506 55.6268 C 102.4362 56.3448 102.4808 53.9754 102.5722 52.9564 C 102.9396 48.8804 106.0875 44.3989 104.1889 40.773 C 102.4325 37.4182 96.1606 39.1278 93.786 36.1777 C 92.327 34.3652 95.7801 30.4635 94.94 29.2854 C 94.3455 28.452 92.518 31.7749 90.9169 32.1545 C 89.6324 32.4589 87.8898 32.1686 87.0828 31.1498 C 86.5423 30.4678 88.5687 29.5163 88.2217 28.753 C 87.7579 27.7714 86.4872 26.9753 85.3426 26.6096 C 83.3204 26.2517 80.7608 27.944 79.1265 26.6739 C 77.0117 25.033 78.2249 21.0971 76.3411 19.2623 C 74.97 17.9429 72.5743 18.923 70.6383 18.8612 C 66.4942 18.5305 62.222 17.4423 58.0869 18.0849 C 56.51 18.3341 56.2844 21.3306 54.7231 21.6811 Z "/>
  </g>
  <path id="ID0.11782124871388078" fill="#EDC696" stroke="#000000" stroke-width="2.000000053886697" stroke-linecap="round" d="M 110.7836 149.1567 L 113.5086 107.2643 L 95.5219 106.5275 L 94.53 151.3417 L 87.4611 178.0062 L 84.7577 189.3421 L 84.4616 192.1925 L 86.7007 193.688 L 89.4426 191.3548 L 91.7421 185.555 L 89.7112 196.3688 L 93.4178 198.1746 L 96.0846 196.4388 L 97.5229 186.0107 L 96.1363 196.1942 L 97.8345 197.8309 L 101.1456 195.4646 L 103.0968 187.4448 L 105.1655 177.6611 L 110.7836 149.1567 Z "/>
  <path id="ID0.13247013883665204" fill="#E10139" stroke="#000000" stroke-width="2.000000050887002" stroke-linecap="round" d="M 116.1149 99.8721 L 113.5879 89.0675 L 109.7233 82.4861 L 106.0362 79.4091 L 100.5167 80.2951 L 96.1641 85.2061 L 94.0404 91.1634 L 92.0941 100.6251 L 92.7353 105.8895 L 115.4753 106.6103 L 116.1149 99.8721 Z "/>
</svg>