<svg xmlns="http://www.w3.org/2000/svg" xmlns:xlink="http://www.w3.org/1999/xlink" version="1.1" width="135.65308356285095" height="214.1890332698822" viewBox="17.109459042549133 1.0897983312606812 135.65308356285095 214.1890332698822">
  <!-- Exported by Scratch - http://scratch.mit.edu/ -->
  <g id="ID0.757233876734972">
    <path id="ID0.11782124871388078" fill="#EDC696" stroke="#000000" stroke-width="2.000000011496329" stroke-linecap="round" d="M 62.9303 141.7701 L 64.7415 107.498 L 51.7535 106.7377 L 46.4632 142.5975 L 27.7131 162.8311 L 20.0083 171.5745 L 18.4099 173.9531 L 19.6858 176.3241 L 23.2019 175.5496 L 27.9531 171.506 L 21.0872 180.1038 L 23.5138 183.4373 L 26.6832 183.155 L 32.8448 174.62 L 26.8436 182.9633 L 27.5757 185.2053 L 31.6098 184.6686 L 37.0948 178.501 L 43.5109 170.8306 L 61.8427 148.2916 L 62.9303 141.7701 Z "/>
    <path id="ID0.13247013883665204" fill="#E10139" stroke="#000000" stroke-width="2.0000001158113627" stroke-linecap="round" d="M 51.5833 98.7983 L 56.7579 88.9826 L 62.1598 83.591 L 66.5047 81.5454 L 71.6213 83.797 L 74.592 89.6483 L 75.1419 95.9489 L 74.6346 105.5954 L 72.6842 110.5271 L 50.4998 105.4795 L 51.5833 98.7983 Z "/>
    <g id="ID0.8168169404380023">
      <path id="ID0.3887670743279159" fill="#333640" stroke="#000000" stroke-width="1.4689056946303964" d="M 140.2646 157.4403 L 57.1322 157.4403 L 57.2608 172.9905 L 60.0033 213.4797 L 139.4932 213.9784 L 140.0075 173.2545 L 140.2646 157.4403 Z "/>
      <path id="ID0.5024464935995638" fill="#FF1B45" stroke="#000000" stroke-width="2.2245912551879883" stroke-linecap="round" d="M 98.665 68.6614 C 87.651 68.5687 75.1496 69.5616 66.4714 76.357 C 59.702 81.6627 58.8745 91.8164 57.9179 100.0652 C 55.4597 121.1914 55.915 142.4756 56.3236 163.6515 C 56.4259 168.9452 56.3429 172.5239 59.7717 173.7363 C 71.5598 178.0772 84.6011 178.534 97.3673 178.6304 C 110.8127 178.732 124.7461 178.7357 137.5212 174.3666 C 140.9619 173.1408 140.5911 167.3762 140.7839 163.6515 C 141.3564 152.6041 140.5963 141.5086 140.1907 130.468 C 139.5834 119.5742 139.8043 108.5001 137.7436 97.8036 C 136.2932 90.2763 135.479 80.9412 129.3755 76.357 C 120.945 70.0266 109.2318 68.5687 98.665 68.6614 Z "/>
      <path id="ID0.9501931658014655" fill="#E10139" stroke="none" stroke-linecap="round" d="M 79.9918 71.9777 L 70.0223 75.2395 L 69.4254 176.3902 L 80.7082 177.3324 L 79.9918 71.9777 Z " stroke-width="0.9876482338323532"/>
      <path id="ID0.9501931658014655" fill="#E10139" stroke="none" d="M 102.8306 78.8763 L 92.3835 78.8763 L 93.0999 177.5683 L 103.6067 176.9806 L 102.8306 78.8763 Z " stroke-width="0.9622484256337909"/>
      <path id="ID0.1049648616462946" fill="#EDC696" stroke="#000000" stroke-width="2.087384119009954" d="M 95.2762 64.5499 C 90.4021 64.5499 85.9852 65.7754 82.7866 67.7551 C 79.588 69.7349 77.6084 72.4694 77.6084 75.4866 C 77.6084 78.5039 79.588 81.2384 82.7866 83.2181 C 85.9852 85.1978 90.4021 86.4234 95.2762 86.4234 C 100.1503 86.4234 104.5673 85.1978 107.7659 83.2181 C 110.9645 81.2384 112.944 78.5039 112.944 75.4866 C 112.944 72.4694 110.9645 69.7349 107.7659 67.7551 C 104.5673 65.7754 100.1503 64.5499 95.2762 64.5499 Z "/>
      <path id="ID0.7782022436149418" fill="#EDC696" stroke="#000000" stroke-width="2.6008832454681396" d="M 93.6184 4.6976 C 83.3033 4.6976 73.9564 8.887 67.1882 15.6552 C 60.4201 22.4233 56.2307 31.7702 56.2307 42.0853 C 56.2307 52.4004 60.4201 61.7474 67.1882 68.5155 C 73.9564 75.2837 83.3033 79.473 93.6184 79.473 C 103.9335 79.473 113.2805 75.2837 120.0486 68.5155 C 126.8167 61.7474 131.0061 52.4004 131.0061 42.0853 C 131.0061 31.7702 126.8167 22.4233 120.0486 15.6552 C 113.2805 8.887 103.9335 4.6976 93.6184 4.6976 Z "/>
      <path id="ID0.3346423259936273" fill="#000000" stroke="none" d="M 95.6668 35.3626 C 94.514 35.3626 93.4693 35.8306 92.7126 36.5873 C 91.956 37.3439 91.488 38.3886 91.488 39.5414 C 91.488 40.6942 91.956 41.7389 92.7126 42.4956 C 93.4693 43.2522 94.514 43.7202 95.6668 43.7202 C 96.8196 43.7202 97.8643 43.2522 98.6209 42.4956 C 99.3776 41.7389 99.8456 40.6942 99.8456 39.5414 C 99.8456 38.3886 99.3776 37.3439 98.6209 36.5873 C 97.8643 35.8306 96.8196 35.3626 95.6668 35.3626 Z " stroke-width="0.557175874710083"/>
      <path id="ID0.3346423259936273" fill="#000000" stroke="none" d="M 66.2168 35.3626 C 65.064 35.3626 64.0193 35.8306 63.2626 36.5873 C 62.506 37.3439 62.038 38.3886 62.038 39.5414 C 62.038 40.6942 62.506 41.7389 63.2626 42.4956 C 64.0193 43.2522 65.064 43.7202 66.2168 43.7202 C 67.3696 43.7202 68.4143 43.2522 69.1709 42.4956 C 69.9276 41.7389 70.3956 40.6942 70.3956 39.5414 C 70.3956 38.3886 69.9276 37.3439 69.1709 36.5873 C 68.4143 35.8306 67.3696 35.3626 66.2168 35.3626 Z " stroke-width="0.557175874710083"/>
      <path id="ID0.5251190410926938" fill="none" stroke="#000000" stroke-width="1.9588215351104736" stroke-linecap="round" d="M 93.3457 54.4822 L 73.431 54.4822 "/>
      <path id="ID0.9501931658014655" fill="#E10139" stroke="none" stroke-linecap="round" d="M 128.1306 77.0509 L 121.8624 72.9193 L 117.6238 72.267 L 117.982 176.8606 L 128.3097 175.3022 L 128.1306 77.0509 Z " stroke-width="0.9876482338323532"/>
      <path id="ID0.8345567877404392" fill="#D3EFF9" stroke="#D3EFF9" stroke-width="1.7778376769416502" stroke-linecap="round" d="M 94.7348 137.686 C 94.7567 136.7588 94.8783 136.0701 95.0162 135.5125 C 95.1647 134.912 95.0961 134.2686 95.1569 133.6495 C 95.2835 132.3554 95.5069 131.0674 95.579 129.7683 C 95.6476 128.5301 95.548 127.2825 95.579 126.0424 C 95.5947 125.4201 95.6049 124.7886 95.7197 124.1794 C 95.8407 123.5392 95.9988 122.8902 96.2825 122.3164 C 97.1289 120.6037 98.2078 119.0351 99.0965 117.3485 C 99.3813 116.8082 99.5608 116.2071 99.8 115.6408 C 100.5446 113.8803 101.3201 112.1297 102.0512 110.3624 C 102.3039 109.7507 102.5409 109.1284 102.7547 108.4994 C 102.963 107.8871 103.595 107.2145 103.3175 106.6364 C 103.0119 105.9999 102.1362 105.9496 101.4884 105.8602 C 100.2334 105.6869 98.9541 105.8328 97.6895 105.8602 C 96.5644 105.8844 95.4366 106.0831 94.3127 106.0154 C 92.0085 105.8763 89.7106 105.5335 87.4183 105.2392 C 85.6809 105.0162 83.9582 104.5809 82.2123 104.4629 C 81.6434 104.4244 81.0057 104.4375 80.5239 104.7734 C 80.0405 105.1106 79.727 105.7298 79.539 106.3259 C 79.3381 106.9624 79.3741 107.6704 79.3983 108.3441 C 79.4208 108.9726 79.2469 109.7979 79.6797 110.2071 C 80.1063 110.6107 80.7823 110.2071 81.3681 110.2071 C 83.7111 110.2071 86.0608 110.1655 88.4032 110.2071 C 88.9885 110.2177 89.5277 110.3363 90.0916 110.3624 C 90.6533 110.3884 91.2212 110.2959 91.78 110.3624 C 92.9597 110.5033 94.3487 110.1978 95.2976 110.9833 C 95.7506 111.3584 94.8918 112.1601 94.5941 112.6911 C 94.2783 113.2537 93.8286 113.7138 93.4684 114.2435 C 93.1251 114.7484 92.7756 115.2533 92.4835 115.796 C 91.8841 116.9101 91.3326 118.0595 90.7951 119.2115 C 90.5357 119.7666 90.2565 120.3218 90.0916 120.9192 C 89.9256 121.5209 89.8558 122.155 89.8102 122.7822 C 89.7618 123.4522 89.8102 124.1285 89.8102 124.8004 C 89.8102 127.3856 89.8479 129.9782 89.8102 132.5628 C 89.8006 133.2086 89.6931 133.8035 89.6695 134.4258 C 89.6459 135.0455 89.4078 135.7398 89.6695 136.2887 C 89.9357 136.847 90.5188 137.2357 91.0765 137.3755 C 91.6326 137.5146 92.1971 137.1196 92.7649 137.065 C 93.2782 137.0159 93.8754 137.3662 94.3127 137.065 Z "/>
      <path id="ID0.12530163442716002" fill="#000000" stroke="#000000" stroke-width="2.449541385401672" stroke-linecap="round" d="M 80.6731 21.1811 C 79.4677 21.3568 79.1536 18.867 78.0545 18.7234 C 75.5309 18.4056 72.9516 20.0659 70.451 19.5783 C 67.1552 18.9367 63.0336 18.2965 61.2515 15.4505 C 59.8576 13.2242 61.9419 10.1509 63.057 7.7725 C 63.7523 6.29 64.9689 4.8469 66.4983 4.2618 C 69.7489 3.0186 73.3278 2.7184 76.8021 2.5169 C 81.0102 2.2727 85.2762 2.3666 89.453 2.9302 C 96.5234 3.8844 103.6724 5.1891 110.4839 7.5131 C 115.7246 9.1228 120.7759 11.5161 125.3811 14.6578 C 127.685 16.227 129.3709 18.4822 130.8768 20.9755 C 132.2585 23.2494 133.5358 25.4511 133.9497 28.3603 C 134.2767 30.6693 133.1611 32.9414 133.0383 35.3053 C 132.8572 38.6972 133.2514 42.1761 132.5406 45.4996 C 131.8213 48.8628 130.3954 52.3664 128.8006 55.1268 C 128.3862 55.8448 128.4308 53.4754 128.5222 52.4564 C 128.8896 48.3804 132.0375 43.8989 130.1389 40.273 C 128.3825 36.9182 122.1106 38.6278 119.736 35.6777 C 118.277 33.8652 121.7301 29.9635 120.89 28.7854 C 120.2955 27.952 118.468 31.2749 116.8669 31.6545 C 115.5824 31.9589 113.8398 31.6686 113.0328 30.6498 C 112.4923 29.9678 114.5187 29.0163 114.1717 28.253 C 113.7079 27.2714 112.4372 26.4753 111.2926 26.1096 C 109.2704 25.7517 106.7108 27.444 105.0765 26.1739 C 102.9617 24.533 104.1749 20.5971 102.2911 18.7623 C 100.92 17.4429 98.5243 18.423 96.5883 18.3612 C 92.4442 18.0305 88.172 16.9423 84.0369 17.5849 C 82.46 17.8341 82.2344 20.8306 80.6731 21.1811 Z "/>
    </g>
    <path id="ID0.11782124871388078" fill="#EDC696" stroke="#000000" stroke-width="2.000000009410801" stroke-linecap="round" d="M 151.4621 145.0894 L 143.8786 103.5913 L 128.5284 106.8311 L 134.9957 144.2492 L 114.2978 162.4854 L 105.7492 170.4059 L 103.9187 172.6108 L 104.9486 175.0986 L 108.5249 174.6832 L 113.6603 171.1402 L 105.9611 179.0006 L 108.0385 182.5621 L 111.2203 182.6014 L 118.2124 174.7324 L 111.3992 182.4268 L 111.9011 184.7313 L 115.9688 184.6049 L 122.0487 179.0228 L 129.2067 172.0397 L 149.7214 151.4676 L 151.4621 145.0894 Z "/>
    <path id="ID0.13247013883665204" fill="#E10139" stroke="#000000" stroke-width="1.9999999905173995" stroke-linecap="round" d="M 146.4317 97.7578 L 141.9389 87.6118 L 136.9175 81.8642 L 132.7223 79.5268 L 127.464 81.4241 L 124.1009 87.059 L 123.1225 93.3074 L 122.9703 102.9661 L 124.5796 108.0193 L 147.0567 104.4974 L 146.4317 97.7578 Z "/>
  </g>
</svg>