<svg xmlns="http://www.w3.org/2000/svg" xmlns:xlink="http://www.w3.org/1999/xlink" version="1.1" width="107.05307745933533" height="216.21353888511658" viewBox="12.746658444404602 1.589798092842102 107.05307745933533 216.21353888511658">
  <!-- Exported by Scratch - http://scratch.mit.edu/ -->
  <path id="ID0.11782124871388078" fill="#EDC696" stroke="#000000" stroke-width="1.9999998969413166" stroke-linecap="round" d="M 44.6369 144.1118 L 44.6744 108.4029 L 31.1136 108.7728 L 29.4796 150.6008 L 18.9139 176.0828 L 14.7211 186.9563 L 14.0471 189.7416 L 16.0665 191.5227 L 19.0954 189.5764 L 22.1487 184.1356 L 18.6922 194.5814 L 22.1245 196.866 L 24.9992 195.5017 L 27.8169 185.3591 L 25.0831 195.2662 L 26.5475 197.115 L 30.1449 195.212 L 33.1494 187.5245 L 36.5058 178.1046 L 45.8794 150.6055 L 44.6369 144.1118 Z "/>
  <path id="ID0.13247013883665204" fill="#E10139" stroke="#000000" stroke-width="2.000000161191358" stroke-linecap="round" d="M 28.7288 100.2464 L 32.8815 89.9566 L 37.709 84.0451 L 41.824 81.5694 L 47.1426 83.2907 L 50.6913 88.8107 L 51.8771 95.0231 L 52.3504 104.6713 L 50.9101 109.7753 L 28.3283 107.003 L 28.7288 100.2464 Z "/>
  <g id="ID0.8168169404380023">
    <path id="ID0.3887670743279159" fill="#333640" stroke="#000000" stroke-width="1.4689056946303964" d="M 110.3146 157.9403 L 27.1822 157.9403 L 27.3108 173.4905 L 21.5258 216.5029 L 118.4993 216.0041 L 110.0575 173.7545 L 110.3146 157.9403 Z "/>
    <path id="ID0.5024464935995638" fill="#FF1B45" stroke="#000000" stroke-width="2.2245912551879883" stroke-linecap="round" d="M 68.715 69.1614 C 57.701 69.0687 45.1996 70.0616 36.5214 76.857 C 29.752 82.1627 28.9245 92.3164 27.9679 100.5652 C 25.5097 121.6914 25.965 142.9756 26.3736 164.1515 C 26.4759 169.4452 26.3929 173.0239 29.8217 174.2363 C 41.6098 178.5772 54.6511 179.034 67.4173 179.1304 C 80.8627 179.232 94.7961 179.2357 107.5712 174.8666 C 111.0119 173.6408 110.6411 167.8762 110.8339 164.1515 C 111.4064 153.1041 110.6463 142.0086 110.2407 130.968 C 109.6334 120.0742 109.8543 109.0001 107.7936 98.3036 C 106.3432 90.7763 105.529 81.4412 99.4255 76.857 C 90.995 70.5266 79.2818 69.0687 68.715 69.1614 Z "/>
    <path id="ID0.9501931658014655" fill="#E10139" stroke="none" stroke-linecap="round" d="M 50.0418 72.4777 L 40.0723 75.7395 L 39.4754 176.8902 L 50.7582 177.8324 L 50.0418 72.4777 Z " stroke-width="0.9876482338323532"/>
    <path id="ID0.9501931658014655" fill="#E10139" stroke="none" d="M 72.8806 79.3763 L 62.4335 79.3763 L 63.1499 178.0683 L 73.6567 177.4806 L 72.8806 79.3763 Z " stroke-width="0.9622484256337909"/>
    <path id="ID0.1049648616462946" fill="#EDC696" stroke="#000000" stroke-width="2.087384119009954" d="M 65.3262 65.0499 C 60.4521 65.0499 56.0352 66.2754 52.8366 68.2551 C 49.638 70.2349 47.6584 72.9694 47.6584 75.9866 C 47.6584 79.0039 49.638 81.7384 52.8366 83.7181 C 56.0352 85.6978 60.4521 86.9234 65.3262 86.9234 C 70.2003 86.9234 74.6173 85.6978 77.8159 83.7181 C 81.0145 81.7384 82.994 79.0039 82.994 75.9866 C 82.994 72.9694 81.0145 70.2349 77.8159 68.2551 C 74.6173 66.2754 70.2003 65.0499 65.3262 65.0499 Z "/>
    <path id="ID0.7782022436149418" fill="#EDC696" stroke="#000000" stroke-width="2.6008832454681396" d="M 63.6684 5.1976 C 53.3533 5.1976 44.0064 9.387 37.2382 16.1552 C 30.4701 22.9233 26.2807 32.2702 26.2807 42.5853 C 26.2807 52.9004 30.4701 62.2474 37.2382 69.0155 C 44.0064 75.7837 53.3533 79.973 63.6684 79.973 C 73.9835 79.973 83.3305 75.7837 90.0986 69.0155 C 96.8667 62.2474 101.0561 52.9004 101.0561 42.5853 C 101.0561 32.2702 96.8667 22.9233 90.0986 16.1552 C 83.3305 9.387 73.9835 5.1976 63.6684 5.1976 Z "/>
    <path id="ID0.3346423259936273" fill="#000000" stroke="none" d="M 65.7168 35.8626 C 64.564 35.8626 63.5193 36.3306 62.7626 37.0873 C 62.006 37.8439 61.538 38.8886 61.538 40.0414 C 61.538 41.1942 62.006 42.2389 62.7626 42.9956 C 63.5193 43.7522 64.564 44.2202 65.7168 44.2202 C 66.8696 44.2202 67.9143 43.7522 68.6709 42.9956 C 69.4276 42.2389 69.8956 41.1942 69.8956 40.0414 C 69.8956 38.8886 69.4276 37.8439 68.6709 37.0873 C 67.9143 36.3306 66.8696 35.8626 65.7168 35.8626 Z " stroke-width="0.557175874710083"/>
    <path id="ID0.3346423259936273" fill="#000000" stroke="none" d="M 36.2668 35.8626 C 35.114 35.8626 34.0693 36.3306 33.3126 37.0873 C 32.556 37.8439 32.088 38.8886 32.088 40.0414 C 32.088 41.1942 32.556 42.2389 33.3126 42.9956 C 34.0693 43.7522 35.114 44.2202 36.2668 44.2202 C 37.4196 44.2202 38.4643 43.7522 39.2209 42.9956 C 39.9776 42.2389 40.4456 41.1942 40.4456 40.0414 C 40.4456 38.8886 39.9776 37.8439 39.2209 37.0873 C 38.4643 36.3306 37.4196 35.8626 36.2668 35.8626 Z " stroke-width="0.557175874710083"/>
    <path id="ID0.5251190410926938" fill="none" stroke="#000000" stroke-width="1.9588215351104736" stroke-linecap="round" d="M 63.3957 54.9822 L 43.481 54.9822 "/>
    <path id="ID0.9501931658014655" fill="#E10139" stroke="none" stroke-linecap="round" d="M 98.1806 77.5509 L 91.9124 73.4193 L 87.6738 72.767 L 88.032 177.3606 L 98.3597 175.8022 L 98.1806 77.5509 Z " stroke-width="0.9876482338323532"/>
    <path id="ID0.8345567877404392" fill="#D3EFF9" stroke="#D3EFF9" stroke-width="1.7778376769416502" stroke-linecap="round" d="M 64.8348 138.186 C 64.8567 137.2588 64.9783 136.5701 65.1162 136.0125 C 65.2647 135.412 65.1961 134.7686 65.2569 134.1495 C 65.3835 132.8554 65.6069 131.5674 65.679 130.2683 C 65.7476 129.0301 65.648 127.7825 65.679 126.5424 C 65.6947 125.9201 65.7049 125.2886 65.8197 124.6794 C 65.9407 124.0392 66.0988 123.3902 66.3825 122.8164 C 67.2289 121.1037 68.3078 119.5351 69.1965 117.8485 C 69.4813 117.3082 69.6608 116.7071 69.9 116.1408 C 70.6446 114.3803 71.4201 112.6297 72.1512 110.8624 C 72.4039 110.2507 72.6409 109.6284 72.8547 108.9994 C 73.063 108.3871 73.695 107.7145 73.4175 107.1364 C 73.1119 106.4999 72.2362 106.4496 71.5884 106.3602 C 70.3334 106.1869 69.0541 106.3328 67.7895 106.3602 C 66.6644 106.3844 65.5366 106.5831 64.4127 106.5154 C 62.1085 106.3763 59.8106 106.0335 57.5183 105.7392 C 55.7809 105.5162 54.0582 105.0809 52.3123 104.9629 C 51.7434 104.9244 51.1057 104.9375 50.6239 105.2734 C 50.1405 105.6106 49.827 106.2298 49.639 106.8259 C 49.4381 107.4624 49.4741 108.1704 49.4983 108.8441 C 49.5208 109.4726 49.3469 110.2979 49.7797 110.7071 C 50.2063 111.1107 50.8823 110.7071 51.4681 110.7071 C 53.8111 110.7071 56.1608 110.6655 58.5032 110.7071 C 59.0885 110.7177 59.6277 110.8363 60.1916 110.8624 C 60.7533 110.8884 61.3212 110.7959 61.88 110.8624 C 63.0597 111.0033 64.4487 110.6978 65.3976 111.4833 C 65.8506 111.8584 64.9918 112.6601 64.6941 113.1911 C 64.3783 113.7537 63.9286 114.2138 63.5684 114.7435 C 63.2251 115.2484 62.8756 115.7533 62.5835 116.296 C 61.9841 117.4101 61.4326 118.5595 60.8951 119.7115 C 60.6357 120.2666 60.3565 120.8218 60.1916 121.4192 C 60.0256 122.0209 59.9558 122.655 59.9102 123.2822 C 59.8618 123.9522 59.9102 124.6285 59.9102 125.3004 C 59.9102 127.8856 59.9479 130.4782 59.9102 133.0628 C 59.9006 133.7086 59.7931 134.3035 59.7695 134.9258 C 59.7459 135.5455 59.5078 136.2398 59.7695 136.7887 C 60.0357 137.347 60.6188 137.7357 61.1765 137.8755 C 61.7326 138.0146 62.2971 137.6196 62.8649 137.565 C 63.3782 137.5159 63.9754 137.8662 64.4127 137.565 Z "/>
    <path id="ID0.12530163442716002" fill="#000000" stroke="#000000" stroke-width="2.449541385401672" stroke-linecap="round" d="M 50.7231 21.6811 C 49.5177 21.8568 49.2036 19.367 48.1045 19.2234 C 45.5809 18.9056 43.0016 20.5659 40.501 20.0783 C 37.2052 19.4367 33.0836 18.7965 31.3015 15.9505 C 29.9076 13.7242 31.9919 10.6509 33.107 8.2725 C 33.8023 6.79 35.0189 5.3469 36.5483 4.7618 C 39.7989 3.5186 43.3778 3.2184 46.8521 3.0169 C 51.0602 2.7727 55.3262 2.8666 59.503 3.4302 C 66.5734 4.3844 73.7224 5.6891 80.5339 8.0131 C 85.7746 9.6228 90.8259 12.0161 95.4311 15.1578 C 97.735 16.727 99.4209 18.9822 100.9268 21.4755 C 102.3085 23.7494 103.5858 25.9511 103.9997 28.8603 C 104.3267 31.1693 103.2111 33.4414 103.0883 35.8053 C 102.9072 39.1972 103.3014 42.6761 102.5906 45.9996 C 101.8713 49.3628 100.4454 52.8664 98.8506 55.6268 C 98.4362 56.3448 98.4808 53.9754 98.5722 52.9564 C 98.9396 48.8804 102.0875 44.3989 100.1889 40.773 C 98.4325 37.4182 92.1606 39.1278 89.786 36.1777 C 88.327 34.3652 91.7801 30.4635 90.94 29.2854 C 90.3455 28.452 88.518 31.7749 86.9169 32.1545 C 85.6324 32.4589 83.8898 32.1686 83.0828 31.1498 C 82.5423 30.4678 84.5687 29.5163 84.2217 28.753 C 83.7579 27.7714 82.4872 26.9753 81.3426 26.6096 C 79.3204 26.2517 76.7608 27.944 75.1265 26.6739 C 73.0117 25.033 74.2249 21.0971 72.3411 19.2623 C 70.97 17.9429 68.5743 18.923 66.6383 18.8612 C 62.4942 18.5305 58.222 17.4423 54.0869 18.0849 C 52.51 18.3341 52.2844 21.3306 50.7231 21.6811 Z "/>
  </g>
  <path id="ID0.11782124871388078" fill="#EDC696" stroke="#000000" stroke-width="2.0000000304824996" stroke-linecap="round" d="M 97.058 150.5222 L 101.0299 111.8719 L 82.3733 109.5957 L 80.7009 152.5948 L 63.5377 174.1908 L 56.5175 183.4929 L 55.1038 185.9857 L 56.5558 188.2533 L 60.003 187.2146 L 64.4343 182.8226 L 58.2395 191.9159 L 60.9116 195.0559 L 64.0506 194.5344 L 69.5478 185.557 L 64.196 194.331 L 65.0958 196.5111 L 69.0777 195.6703 L 74.0797 189.1049 L 79.8962 180.9705 L 96.4677 157.1074 L 97.058 150.5222 Z "/>
  <path id="ID0.13247013883665204" fill="#E10139" stroke="#000000" stroke-width="2.0000000169836776" stroke-linecap="round" d="M 104.4702 104.9149 L 102.8122 93.9433 L 99.4842 87.0749 L 96.054 83.7139 L 90.4814 84.1573 L 85.7514 88.7059 L 83.1598 94.4751 L 80.4658 103.7517 L 80.6855 109.0504 L 103.2958 111.5807 L 104.4702 104.9149 Z "/>
</svg>