<svg xmlns="http://www.w3.org/2000/svg" xmlns:xlink="http://www.w3.org/1999/xlink" version="1.1" width="151.43068671226501" height="214.68784308433533" viewBox="15.14805805683136 1.589798092842102 151.43068671226501 214.68784308433533">
  <!-- Exported by Scratch - http://scratch.mit.edu/ -->
  <g id="ID0.6717190686613321">
    <g id="ID0.6148217148147523">
      <path id="ID0.11782124871388078" fill="#EDC696" stroke="#000000" stroke-width="1.9999999961129369" stroke-linecap="round" d="M 65.4015 139.3464 L 72.479 105.7641 L 59.7639 103.0089 L 49.004 137.623 L 27.3565 154.7212 L 18.3948 162.1712 L 16.4485 164.2746 L 17.3434 166.8141 L 20.9368 166.5914 L 26.2551 163.3293 L 18.1448 170.7648 L 20.028 174.4327 L 23.203 174.6429 L 30.6077 167.1608 L 23.3911 174.4782 L 23.7684 176.8063 L 27.8371 176.8985 L 34.208 171.6511 L 41.7308 165.0625 L 63.3207 145.622 L 65.4015 139.3464 Z "/>
      <path id="ID0.13247013883665204" fill="#E10139" stroke="#000000" stroke-width="2.0000000528786925" stroke-linecap="round" d="M 60.7994 95.068 L 67.4265 86.1682 L 73.5957 81.6747 L 78.2041 80.324 L 82.9121 83.3381 L 84.9444 89.5777 L 84.5155 95.8877 L 82.5259 105.3404 L 79.838 109.9121 L 58.698 101.502 L 60.7994 95.068 Z "/>
    </g>
    <g id="ID0.8168169404380023">
      <path id="ID0.3887670743279159" fill="#333640" stroke="#000000" stroke-width="1.4689056946303964" d="M 148.7646 157.9403 L 65.6322 157.9403 L 65.7608 173.4905 L 75.4881 213.9797 L 141.994 214.9772 L 148.5075 173.7545 L 148.7646 157.9403 Z "/>
      <path id="ID0.5024464935995638" fill="#FF1B45" stroke="#000000" stroke-width="2.2245912551879883" stroke-linecap="round" d="M 107.165 69.1614 C 96.151 69.0687 83.6496 70.0616 74.9714 76.857 C 68.202 82.1627 67.3745 92.3164 66.4179 100.5652 C 63.9597 121.6914 64.415 142.9756 64.8236 164.1515 C 64.9259 169.4452 64.8429 173.0239 68.2717 174.2363 C 80.0598 178.5772 93.1011 179.034 105.8673 179.1304 C 119.3127 179.232 133.2461 179.2357 146.0212 174.8666 C 149.4619 173.6408 149.0911 167.8762 149.2839 164.1515 C 149.8564 153.1041 149.0963 142.0086 148.6907 130.968 C 148.0834 120.0742 148.3043 109.0001 146.2436 98.3036 C 144.7932 90.7763 143.979 81.4412 137.8755 76.857 C 129.445 70.5266 117.7318 69.0687 107.165 69.1614 Z "/>
      <path id="ID0.9501931658014655" fill="#E10139" stroke="none" stroke-linecap="round" d="M 88.4918 72.4777 L 78.5223 75.7395 L 77.9254 176.8902 L 89.2082 177.8324 L 88.4918 72.4777 Z " stroke-width="0.9876482338323532"/>
      <path id="ID0.9501931658014655" fill="#E10139" stroke="none" d="M 111.3306 79.3763 L 100.8835 79.3763 L 101.5999 178.0683 L 112.1067 177.4806 L 111.3306 79.3763 Z " stroke-width="0.9622484256337909"/>
      <path id="ID0.1049648616462946" fill="#EDC696" stroke="#000000" stroke-width="2.087384119009954" d="M 103.7762 65.0499 C 98.9021 65.0499 94.4852 66.2754 91.2866 68.2551 C 88.088 70.2349 86.1084 72.9694 86.1084 75.9866 C 86.1084 79.0039 88.088 81.7384 91.2866 83.7181 C 94.4852 85.6978 98.9021 86.9234 103.7762 86.9234 C 108.6503 86.9234 113.0673 85.6978 116.2659 83.7181 C 119.4645 81.7384 121.444 79.0039 121.444 75.9866 C 121.444 72.9694 119.4645 70.2349 116.2659 68.2551 C 113.0673 66.2754 108.6503 65.0499 103.7762 65.0499 Z "/>
      <path id="ID0.7782022436149418" fill="#EDC696" stroke="#000000" stroke-width="2.6008832454681396" d="M 102.1184 5.1976 C 91.8033 5.1976 82.4564 9.387 75.6882 16.1552 C 68.9201 22.9233 64.7307 32.2702 64.7307 42.5853 C 64.7307 52.9004 68.9201 62.2474 75.6882 69.0155 C 82.4564 75.7837 91.8033 79.973 102.1184 79.973 C 112.4335 79.973 121.7805 75.7837 128.5486 69.0155 C 135.3167 62.2474 139.5061 52.9004 139.5061 42.5853 C 139.5061 32.2702 135.3167 22.9233 128.5486 16.1552 C 121.7805 9.387 112.4335 5.1976 102.1184 5.1976 Z "/>
      <path id="ID0.3346423259936273" fill="#000000" stroke="none" d="M 104.1668 35.8626 C 103.014 35.8626 101.9693 36.3306 101.2126 37.0873 C 100.456 37.8439 99.988 38.8886 99.988 40.0414 C 99.988 41.1942 100.456 42.2389 101.2126 42.9956 C 101.9693 43.7522 103.014 44.2202 104.1668 44.2202 C 105.3196 44.2202 106.3643 43.7522 107.1209 42.9956 C 107.8776 42.2389 108.3456 41.1942 108.3456 40.0414 C 108.3456 38.8886 107.8776 37.8439 107.1209 37.0873 C 106.3643 36.3306 105.3196 35.8626 104.1668 35.8626 Z " stroke-width="0.557175874710083"/>
      <path id="ID0.3346423259936273" fill="#000000" stroke="none" d="M 74.7168 35.8626 C 73.564 35.8626 72.5193 36.3306 71.7626 37.0873 C 71.006 37.8439 70.538 38.8886 70.538 40.0414 C 70.538 41.1942 71.006 42.2389 71.7626 42.9956 C 72.5193 43.7522 73.564 44.2202 74.7168 44.2202 C 75.8696 44.2202 76.9143 43.7522 77.6709 42.9956 C 78.4276 42.2389 78.8956 41.1942 78.8956 40.0414 C 78.8956 38.8886 78.4276 37.8439 77.6709 37.0873 C 76.9143 36.3306 75.8696 35.8626 74.7168 35.8626 Z " stroke-width="0.557175874710083"/>
      <path id="ID0.5251190410926938" fill="none" stroke="#000000" stroke-width="1.9588215351104736" stroke-linecap="round" d="M 101.8457 54.9822 L 81.931 54.9822 "/>
      <path id="ID0.9501931658014655" fill="#E10139" stroke="none" stroke-linecap="round" d="M 136.6306 77.5509 L 130.3624 73.4193 L 126.1238 72.767 L 126.482 177.3606 L 136.8097 175.8022 L 136.6306 77.5509 Z " stroke-width="0.9876482338323532"/>
      <path id="ID0.8345567877404392" fill="#D3EFF9" stroke="#D3EFF9" stroke-width="1.7778376769416502" stroke-linecap="round" d="M 103.2348 138.186 C 103.2567 137.2588 103.3783 136.5701 103.5162 136.0125 C 103.6647 135.412 103.5961 134.7686 103.6569 134.1495 C 103.7835 132.8554 104.0069 131.5674 104.079 130.2683 C 104.1476 129.0301 104.048 127.7825 104.079 126.5424 C 104.0947 125.9201 104.1049 125.2886 104.2197 124.6794 C 104.3407 124.0392 104.4988 123.3902 104.7825 122.8164 C 105.6289 121.1037 106.7078 119.5351 107.5965 117.8485 C 107.8813 117.3082 108.0608 116.7071 108.3 116.1408 C 109.0446 114.3803 109.8201 112.6297 110.5512 110.8624 C 110.8039 110.2507 111.0409 109.6284 111.2547 108.9994 C 111.463 108.3871 112.095 107.7145 111.8175 107.1364 C 111.5119 106.4999 110.6362 106.4496 109.9884 106.3602 C 108.7334 106.1869 107.4541 106.3328 106.1895 106.3602 C 105.0644 106.3844 103.9366 106.5831 102.8127 106.5154 C 100.5085 106.3763 98.2106 106.0335 95.9183 105.7392 C 94.1809 105.5162 92.4582 105.0809 90.7123 104.9629 C 90.1434 104.9244 89.5057 104.9375 89.0239 105.2734 C 88.5405 105.6106 88.227 106.2298 88.039 106.8259 C 87.8381 107.4624 87.8741 108.1704 87.8983 108.8441 C 87.9208 109.4726 87.7469 110.2979 88.1797 110.7071 C 88.6063 111.1107 89.2823 110.7071 89.8681 110.7071 C 92.2111 110.7071 94.5608 110.6655 96.9032 110.7071 C 97.4885 110.7177 98.0277 110.8363 98.5916 110.8624 C 99.1533 110.8884 99.7212 110.7959 100.28 110.8624 C 101.4597 111.0033 102.8487 110.6978 103.7976 111.4833 C 104.2506 111.8584 103.3918 112.6601 103.0941 113.1911 C 102.7783 113.7537 102.3286 114.2138 101.9684 114.7435 C 101.6251 115.2484 101.2756 115.7533 100.9835 116.296 C 100.3841 117.4101 99.8326 118.5595 99.2951 119.7115 C 99.0357 120.2666 98.7565 120.8218 98.5916 121.4192 C 98.4256 122.0209 98.3558 122.655 98.3102 123.2822 C 98.2618 123.9522 98.3102 124.6285 98.3102 125.3004 C 98.3102 127.8856 98.3479 130.4782 98.3102 133.0628 C 98.3006 133.7086 98.1931 134.3035 98.1695 134.9258 C 98.1459 135.5455 97.9078 136.2398 98.1695 136.7887 C 98.4357 137.347 99.0188 137.7357 99.5765 137.8755 C 100.1326 138.0146 100.6971 137.6196 101.2649 137.565 C 101.7782 137.5159 102.3754 137.8662 102.8127 137.565 Z "/>
      <path id="ID0.12530163442716002" fill="#000000" stroke="#000000" stroke-width="2.449541385401672" stroke-linecap="round" d="M 89.1731 21.6811 C 87.9677 21.8568 87.6536 19.367 86.5545 19.2234 C 84.0309 18.9056 81.4516 20.5659 78.951 20.0783 C 75.6552 19.4367 71.5336 18.7965 69.7515 15.9505 C 68.3576 13.7242 70.4419 10.6509 71.557 8.2725 C 72.2523 6.79 73.4689 5.3469 74.9983 4.7618 C 78.2489 3.5186 81.8278 3.2184 85.3021 3.0169 C 89.5102 2.7727 93.7762 2.8666 97.953 3.4302 C 105.0234 4.3844 112.1724 5.6891 118.9839 8.0131 C 124.2246 9.6228 129.2759 12.0161 133.8811 15.1578 C 136.185 16.727 137.8709 18.9822 139.3768 21.4755 C 140.7585 23.7494 142.0358 25.9511 142.4497 28.8603 C 142.7767 31.1693 141.6611 33.4414 141.5383 35.8053 C 141.3572 39.1972 141.7514 42.6761 141.0406 45.9996 C 140.3213 49.3628 138.8954 52.8664 137.3006 55.6268 C 136.8862 56.3448 136.9308 53.9754 137.0222 52.9564 C 137.3896 48.8804 140.5375 44.3989 138.6389 40.773 C 136.8825 37.4182 130.6106 39.1278 128.236 36.1777 C 126.777 34.3652 130.2301 30.4635 129.39 29.2854 C 128.7955 28.452 126.968 31.7749 125.3669 32.1545 C 124.0824 32.4589 122.3398 32.1686 121.5328 31.1498 C 120.9923 30.4678 123.0187 29.5163 122.6717 28.753 C 122.2079 27.7714 120.9372 26.9753 119.7926 26.6096 C 117.7704 26.2517 115.2108 27.944 113.5765 26.6739 C 111.4617 25.033 112.6749 21.0971 110.7911 19.2623 C 109.42 17.9429 107.0243 18.923 105.0883 18.8612 C 100.9442 18.5305 96.672 17.4423 92.5369 18.0849 C 90.96 18.3341 90.7344 21.3306 89.1731 21.6811 Z "/>
    </g>
    <g id="ID0.009609720204025507">
      <path id="ID0.11782124871388078" fill="#EDC696" stroke="#000000" stroke-width="2.0000000352803577" stroke-linecap="round" d="M 165.2783 141.4687 L 152.8268 101.1628 L 137.9693 106.2002 L 148.8284 142.5873 L 130.4393 163.1494 L 122.8904 172.0278 L 121.3342 174.4343 L 122.652 176.7824 L 126.1538 175.9458 L 130.8327 171.8187 L 124.12 180.5367 L 126.6052 183.8267 L 129.7691 183.4884 L 135.7787 174.8457 L 129.9261 183.2938 L 130.6977 185.5225 L 134.7217 184.9146 L 140.0968 178.6509 L 146.3761 170.8682 L 164.3063 148.0084 L 165.2783 141.4687 Z "/>
      <path id="ID0.13247013883665204" fill="#E10139" stroke="#000000" stroke-width="2.0000000275273146" stroke-linecap="round" d="M 154.7269 95.0694 L 149.0626 85.5279 L 143.395 80.4163 L 138.9522 78.593 L 133.956 81.1004 L 131.2849 87.0944 L 131.0544 93.4148 L 132.0487 103.0233 L 134.2459 107.85 L 156.1468 101.6873 L 154.7269 95.0694 Z "/>
    </g>
  </g>
</svg>