<svg xmlns="http://www.w3.org/2000/svg" xmlns:xlink="http://www.w3.org/1999/xlink" version="1.1" width="162.19239020347595" height="215.21594977378845" viewBox="14.67245876789093 1.0897983312606812 162.19239020347595 215.21594977378845">
  <!-- Exported by Scratch - http://scratch.mit.edu/ -->
  <g id="ID0.6148217148147523">
    <path id="ID0.11782124871388078" fill="#EDC696" stroke="#000000" stroke-width="2.0000000621580645" stroke-linecap="round" d="M 66.547 139.1513 L 75.952 106.1451 L 63.4603 102.5089 L 50.3098 136.2873 L 27.5213 151.8323 L 18.0614 158.6383 L 15.9729 160.6007 L 16.6883 163.1965 L 20.2885 163.2252 L 25.8216 160.3425 L 17.2119 167.1935 L 18.8344 170.984 L 21.987 171.4153 L 29.8961 164.4685 L 22.1861 171.2642 L 22.4 173.6129 L 26.4523 173.989 L 33.1741 169.1992 L 41.1385 163.152 L 64.0331 145.2663 L 66.547 139.1513 Z "/>
    <path id="ID0.13247013883665204" fill="#E10139" stroke="#000000" stroke-width="2.000000140499426" stroke-linecap="round" d="M 65.063 94.6057 L 72.2954 86.1903 L 78.7632 82.1385 L 83.4547 81.1128 L 87.9408 84.4483 L 89.5324 90.8146 L 88.664 97.0792 L 86.0193 106.37 L 83.0187 110.7428 L 62.5175 100.8773 L 65.063 94.6057 Z "/>
  </g>
  <g id="ID0.8168169404380023">
    <path id="ID0.3887670743279159" fill="#333640" stroke="#000000" stroke-width="1.4689056946303964" d="M 155.2646 157.4403 L 72.1322 157.4403 L 72.2608 172.9905 L 84.0021 213.509 L 146.9942 215.0053 L 155.0075 173.2545 L 155.2646 157.4403 Z "/>
    <path id="ID0.5024464935995638" fill="#FF1B45" stroke="#000000" stroke-width="2.2245912551879883" stroke-linecap="round" d="M 113.665 68.6614 C 102.651 68.5687 90.1496 69.5616 81.4714 76.357 C 74.702 81.6627 73.8745 91.8164 72.9179 100.0652 C 70.4597 121.1914 70.915 142.4756 71.3236 163.6515 C 71.4259 168.9452 71.3429 172.5239 74.7717 173.7363 C 86.5598 178.0772 99.6011 178.534 112.3673 178.6304 C 125.8127 178.732 139.7461 178.7357 152.5212 174.3666 C 155.9619 173.1408 155.5911 167.3762 155.7839 163.6515 C 156.3564 152.6041 155.5963 141.5086 155.1907 130.468 C 154.5834 119.5742 154.8043 108.5001 152.7436 97.8036 C 151.2932 90.2763 150.479 80.9412 144.3755 76.357 C 135.945 70.0266 124.2318 68.5687 113.665 68.6614 Z "/>
    <path id="ID0.9501931658014655" fill="#E10139" stroke="none" stroke-linecap="round" d="M 94.9918 71.9777 L 85.0223 75.2395 L 84.4254 176.3902 L 95.7082 177.3324 L 94.9918 71.9777 Z " stroke-width="0.9876482338323532"/>
    <path id="ID0.9501931658014655" fill="#E10139" stroke="none" d="M 117.8306 78.8763 L 107.3835 78.8763 L 108.0999 177.5683 L 118.6067 176.9806 L 117.8306 78.8763 Z " stroke-width="0.9622484256337909"/>
    <path id="ID0.1049648616462946" fill="#EDC696" stroke="#000000" stroke-width="2.087384119009954" d="M 110.2762 64.5499 C 105.4021 64.5499 100.9852 65.7754 97.7866 67.7551 C 94.588 69.7349 92.6084 72.4694 92.6084 75.4866 C 92.6084 78.5039 94.588 81.2384 97.7866 83.2181 C 100.9852 85.1978 105.4021 86.4234 110.2762 86.4234 C 115.1503 86.4234 119.5673 85.1978 122.7659 83.2181 C 125.9645 81.2384 127.944 78.5039 127.944 75.4866 C 127.944 72.4694 125.9645 69.7349 122.7659 67.7551 C 119.5673 65.7754 115.1503 64.5499 110.2762 64.5499 Z "/>
    <path id="ID0.7782022436149418" fill="#EDC696" stroke="#000000" stroke-width="2.6008832454681396" d="M 108.6184 4.6976 C 98.3033 4.6976 88.9564 8.887 82.1882 15.6552 C 75.4201 22.4233 71.2307 31.7702 71.2307 42.0853 C 71.2307 52.4004 75.4201 61.7474 82.1882 68.5155 C 88.9564 75.2837 98.3033 79.473 108.6184 79.473 C 118.9335 79.473 128.2805 75.2837 135.0486 68.5155 C 141.8167 61.7474 146.0061 52.4004 146.0061 42.0853 C 146.0061 31.7702 141.8167 22.4233 135.0486 15.6552 C 128.2805 8.887 118.9335 4.6976 108.6184 4.6976 Z "/>
    <path id="ID0.3346423259936273" fill="#000000" stroke="none" d="M 110.6668 35.3626 C 109.514 35.3626 108.4693 35.8306 107.7126 36.5873 C 106.956 37.3439 106.488 38.3886 106.488 39.5414 C 106.488 40.6942 106.956 41.7389 107.7126 42.4956 C 108.4693 43.2522 109.514 43.7202 110.6668 43.7202 C 111.8196 43.7202 112.8643 43.2522 113.6209 42.4956 C 114.3776 41.7389 114.8456 40.6942 114.8456 39.5414 C 114.8456 38.3886 114.3776 37.3439 113.6209 36.5873 C 112.8643 35.8306 111.8196 35.3626 110.6668 35.3626 Z " stroke-width="0.557175874710083"/>
    <path id="ID0.3346423259936273" fill="#000000" stroke="none" d="M 81.2168 35.3626 C 80.064 35.3626 79.0193 35.8306 78.2626 36.5873 C 77.506 37.3439 77.038 38.3886 77.038 39.5414 C 77.038 40.6942 77.506 41.7389 78.2626 42.4956 C 79.0193 43.2522 80.064 43.7202 81.2168 43.7202 C 82.3696 43.7202 83.4143 43.2522 84.1709 42.4956 C 84.9276 41.7389 85.3956 40.6942 85.3956 39.5414 C 85.3956 38.3886 84.9276 37.3439 84.1709 36.5873 C 83.4143 35.8306 82.3696 35.3626 81.2168 35.3626 Z " stroke-width="0.557175874710083"/>
    <path id="ID0.5251190410926938" fill="none" stroke="#000000" stroke-width="1.9588215351104736" stroke-linecap="round" d="M 108.3457 54.4822 L 88.431 54.4822 "/>
    <path id="ID0.9501931658014655" fill="#E10139" stroke="none" stroke-linecap="round" d="M 143.1306 77.0509 L 136.8624 72.9193 L 132.6238 72.267 L 132.982 176.8606 L 143.3097 175.3022 L 143.1306 77.0509 Z " stroke-width="0.9876482338323532"/>
    <path id="ID0.8345567877404392" fill="#D3EFF9" stroke="#D3EFF9" stroke-width="1.7778376769416502" stroke-linecap="round" d="M 109.7348 137.686 C 109.7567 136.7588 109.8783 136.0701 110.0162 135.5125 C 110.1647 134.912 110.0961 134.2686 110.1569 133.6495 C 110.2835 132.3554 110.5069 131.0674 110.579 129.7683 C 110.6476 128.5301 110.548 127.2825 110.579 126.0424 C 110.5947 125.4201 110.6049 124.7886 110.7197 124.1794 C 110.8407 123.5392 110.9988 122.8902 111.2825 122.3164 C 112.1289 120.6037 113.2078 119.0351 114.0965 117.3485 C 114.3813 116.8082 114.5608 116.2071 114.8 115.6408 C 115.5446 113.8803 116.3201 112.1297 117.0512 110.3624 C 117.3039 109.7507 117.5409 109.1284 117.7547 108.4994 C 117.963 107.8871 118.595 107.2145 118.3175 106.6364 C 118.0119 105.9999 117.1362 105.9496 116.4884 105.8602 C 115.2334 105.6869 113.9541 105.8328 112.6895 105.8602 C 111.5644 105.8844 110.4366 106.0831 109.3127 106.0154 C 107.0085 105.8763 104.7106 105.5335 102.4183 105.2392 C 100.6809 105.0162 98.9582 104.5809 97.2123 104.4629 C 96.6434 104.4244 96.0057 104.4375 95.5239 104.7734 C 95.0405 105.1106 94.727 105.7298 94.539 106.3259 C 94.3381 106.9624 94.3741 107.6704 94.3983 108.3441 C 94.4208 108.9726 94.2469 109.7979 94.6797 110.2071 C 95.1063 110.6107 95.7823 110.2071 96.3681 110.2071 C 98.7111 110.2071 101.0608 110.1655 103.4032 110.2071 C 103.9885 110.2177 104.5277 110.3363 105.0916 110.3624 C 105.6533 110.3884 106.2212 110.2959 106.78 110.3624 C 107.9597 110.5033 109.3487 110.1978 110.2976 110.9833 C 110.7506 111.3584 109.8918 112.1601 109.5941 112.6911 C 109.2783 113.2537 108.8286 113.7138 108.4684 114.2435 C 108.1251 114.7484 107.7756 115.2533 107.4835 115.796 C 106.8841 116.9101 106.3326 118.0595 105.7951 119.2115 C 105.5357 119.7666 105.2565 120.3218 105.0916 120.9192 C 104.9256 121.5209 104.8558 122.155 104.8102 122.7822 C 104.7618 123.4522 104.8102 124.1285 104.8102 124.8004 C 104.8102 127.3856 104.8479 129.9782 104.8102 132.5628 C 104.8006 133.2086 104.6931 133.8035 104.6695 134.4258 C 104.6459 135.0455 104.4078 135.7398 104.6695 136.2887 C 104.9357 136.847 105.5188 137.2357 106.0765 137.3755 C 106.6326 137.5146 107.1971 137.1196 107.7649 137.065 C 108.2782 137.0159 108.8754 137.3662 109.3127 137.065 Z "/>
    <path id="ID0.12530163442716002" fill="#000000" stroke="#000000" stroke-width="2.449541385401672" stroke-linecap="round" d="M 95.6731 21.1811 C 94.4677 21.3568 94.1536 18.867 93.0545 18.7234 C 90.5309 18.4056 87.9516 20.0659 85.451 19.5783 C 82.1552 18.9367 78.0336 18.2965 76.2515 15.4505 C 74.8576 13.2242 76.9419 10.1509 78.057 7.7725 C 78.7523 6.29 79.9689 4.8469 81.4983 4.2618 C 84.7489 3.0186 88.3278 2.7184 91.8021 2.5169 C 96.0102 2.2727 100.2762 2.3666 104.453 2.9302 C 111.5234 3.8844 118.6724 5.1891 125.4839 7.5131 C 130.7246 9.1228 135.7759 11.5161 140.3811 14.6578 C 142.685 16.227 144.3709 18.4822 145.8768 20.9755 C 147.2585 23.2494 148.5358 25.4511 148.9497 28.3603 C 149.2767 30.6693 148.1611 32.9414 148.0383 35.3053 C 147.8572 38.6972 148.2514 42.1761 147.5406 45.4996 C 146.8213 48.8628 145.3954 52.3664 143.8006 55.1268 C 143.3862 55.8448 143.4308 53.4754 143.5222 52.4564 C 143.8896 48.3804 147.0375 43.8989 145.1389 40.273 C 143.3825 36.9182 137.1106 38.6278 134.736 35.6777 C 133.277 33.8652 136.7301 29.9635 135.89 28.7854 C 135.2955 27.952 133.468 31.2749 131.8669 31.6545 C 130.5824 31.9589 128.8398 31.6686 128.0328 30.6498 C 127.4923 29.9678 129.5187 29.0163 129.1717 28.253 C 128.7079 27.2714 127.4372 26.4753 126.2926 26.1096 C 124.2704 25.7517 121.7108 27.444 120.0765 26.1739 C 117.9617 24.533 119.1749 20.5971 117.2911 18.7623 C 115.92 17.4429 113.5243 18.423 111.5883 18.3612 C 107.4442 18.0305 103.172 16.9423 99.0369 17.5849 C 97.46 17.8341 97.2344 20.8306 95.6731 21.1811 Z "/>
  </g>
  <g id="ID0.009609720204025507">
    <path id="ID0.11782124871388078" fill="#EDC696" stroke="#000000" stroke-width="1.9999999576833036" stroke-linecap="round" d="M 175.5644 138.6101 L 158.9737 99.8241 L 144.7231 106.3849 L 159.3211 141.4397 L 143.1787 163.809 L 136.5978 173.4269 L 135.3013 175.9826 L 136.857 178.1803 L 140.2523 176.9828 L 144.4749 172.3899 L 138.7089 181.7609 L 141.5239 184.7735 L 144.6352 184.1068 L 149.7099 174.884 L 144.771 183.8969 L 145.7711 186.0329 L 149.7097 185.0082 L 154.4015 178.2177 L 159.8342 169.8221 L 175.2803 145.2156 L 175.5644 138.6101 Z "/>
    <path id="ID0.13247013883665204" fill="#E10139" stroke="#000000" stroke-width="2.0000000365523394" stroke-linecap="round" d="M 160.273 93.5279 L 153.6438 84.6297 L 147.4735 80.1377 L 142.8647 78.788 L 138.1575 81.8033 L 136.1267 88.0434 L 136.5572 94.3533 L 138.549 103.8055 L 141.2381 108.3765 L 162.376 99.9614 L 160.273 93.5279 Z "/>
  </g>
</svg>