<svg xmlns="http://www.w3.org/2000/svg" xmlns:xlink="http://www.w3.org/1999/xlink" version="1.1" width="277.60088324546814" height="229.7106397151947" viewBox="0.19955837726593018 1.589798092842102 277.60088324546814 229.7106397151947">
  <!-- Exported by Scratch - http://scratch.mit.edu/ -->
  <g id="ID0.9655418670736253">
    <path id="ID0.11782124871388078" fill="#EDC696" stroke="#000000" stroke-width="2.000000147712255" stroke-linecap="round" d="M 137.2323 112.2935 L 154.7269 111.7808 L 151.7213 146.2764 L 151.0251 180.6325 L 150.7668 192.2835 L 150.3306 195.1159 L 147.7856 195.995 L 145.7246 193.0429 L 144.9704 186.8497 L 144.1938 197.8251 L 140.1505 198.6323 L 138.0109 196.2772 L 139.2629 185.8251 L 138.0228 196.0275 L 135.9653 197.1802 L 133.3621 194.052 L 133.5075 185.7995 L 133.9865 175.8109 L 134.7343 143.5097 L 137.2323 112.2935 Z "/>
    <path id="ID0.13247013883665204" fill="#E10139" stroke="#000000" stroke-width="2" stroke-linecap="round" d="M 134.85 105.2 L 137.6 94.45 L 141.6 87.95 L 145.35 84.95 L 150.85 85.95 L 155.1 90.95 L 157.1 96.95 L 158.85 106.45 L 158.1 111.7 L 135.35 111.95 L 134.85 105.2 Z "/>
  </g>
  <g id="ID0.8168169404380023">
    <path id="ID0.3887670743279159" fill="#333640" stroke="#000000" stroke-width="1.4689056946303964" d="M 224.2646 157.9403 L 141.1322 157.9403 L 141.1322 213.9797 L 224.2646 213.9797 L 224.2646 157.9403 Z "/>
    <path id="ID0.5024464935995638" fill="#FF1B45" stroke="#000000" stroke-width="2.2245912551879883" stroke-linecap="round" d="M 182.665 69.1614 C 171.651 69.0687 159.1496 70.0616 150.4714 76.857 C 143.702 82.1627 142.8745 92.3164 141.9179 100.5652 C 139.4597 121.6914 139.915 142.9756 140.3236 164.1515 C 140.4259 169.4452 140.3429 173.0239 143.7717 174.2363 C 155.5598 178.5772 168.6011 179.034 181.3673 179.1304 C 194.8127 179.232 208.7461 179.2357 221.5212 174.8666 C 224.9619 173.6408 224.5911 167.8762 224.7839 164.1515 C 225.3564 153.1041 224.5963 142.0086 224.1907 130.968 C 223.5834 120.0742 223.8043 109.0001 221.7436 98.3036 C 220.2932 90.7763 219.479 81.4412 213.3755 76.857 C 204.945 70.5266 193.2318 69.0687 182.665 69.1614 Z "/>
    <path id="ID0.9501931658014655" fill="#E10139" stroke="none" stroke-linecap="round" d="M 163.9918 72.4777 L 154.0223 75.7395 L 153.4254 176.8902 L 164.7082 177.8324 L 163.9918 72.4777 Z " stroke-width="0.9876482338323532"/>
    <path id="ID0.9501931658014655" fill="#E10139" stroke="none" d="M 186.8306 79.3763 L 176.3835 79.3763 L 177.0999 178.0683 L 187.6067 177.4806 L 186.8306 79.3763 Z " stroke-width="0.9622484256337909"/>
    <path id="ID0.1049648616462946" fill="#EDC696" stroke="#000000" stroke-width="2.087384119009954" d="M 179.2762 65.0499 C 174.4021 65.0499 169.9852 66.2754 166.7866 68.2551 C 163.588 70.2349 161.6084 72.9694 161.6084 75.9866 C 161.6084 79.0039 163.588 81.7384 166.7866 83.7181 C 169.9852 85.6978 174.4021 86.9234 179.2762 86.9234 C 184.1503 86.9234 188.5673 85.6978 191.7659 83.7181 C 194.9645 81.7384 196.944 79.0039 196.944 75.9866 C 196.944 72.9694 194.9645 70.2349 191.7659 68.2551 C 188.5673 66.2754 184.1503 65.0499 179.2762 65.0499 Z "/>
    <path id="ID0.7782022436149418" fill="#EDC696" stroke="#000000" stroke-width="2.6008832454681396" d="M 177.6184 5.1976 C 167.3033 5.1976 157.9564 9.387 151.1882 16.1552 C 144.4201 22.9233 140.2307 32.2702 140.2307 42.5853 C 140.2307 52.9004 144.4201 62.2474 151.1882 69.0155 C 157.9564 75.7837 167.3033 79.973 177.6184 79.973 C 187.9335 79.973 197.2805 75.7837 204.0486 69.0155 C 210.8167 62.2474 215.0061 52.9004 215.0061 42.5853 C 215.0061 32.2702 210.8167 22.9233 204.0486 16.1552 C 197.2805 9.387 187.9335 5.1976 177.6184 5.1976 Z "/>
    <path id="ID0.3346423259936273" fill="#000000" stroke="none" d="M 179.6668 35.8626 C 178.514 35.8626 177.4693 36.3306 176.7126 37.0873 C 175.956 37.8439 175.488 38.8886 175.488 40.0414 C 175.488 41.1942 175.956 42.2389 176.7126 42.9956 C 177.4693 43.7522 178.514 44.2202 179.6668 44.2202 C 180.8196 44.2202 181.8643 43.7522 182.6209 42.9956 C 183.3776 42.2389 183.8456 41.1942 183.8456 40.0414 C 183.8456 38.8886 183.3776 37.8439 182.6209 37.0873 C 181.8643 36.3306 180.8196 35.8626 179.6668 35.8626 Z " stroke-width="0.557175874710083"/>
    <path id="ID0.3346423259936273" fill="#000000" stroke="none" d="M 150.2168 35.8626 C 149.064 35.8626 148.0193 36.3306 147.2626 37.0873 C 146.506 37.8439 146.038 38.8886 146.038 40.0414 C 146.038 41.1942 146.506 42.2389 147.2626 42.9956 C 148.0193 43.7522 149.064 44.2202 150.2168 44.2202 C 151.3696 44.2202 152.4143 43.7522 153.1709 42.9956 C 153.9276 42.2389 154.3956 41.1942 154.3956 40.0414 C 154.3956 38.8886 153.9276 37.8439 153.1709 37.0873 C 152.4143 36.3306 151.3696 35.8626 150.2168 35.8626 Z " stroke-width="0.557175874710083"/>
    <path id="ID0.5251190410926938" fill="none" stroke="#000000" stroke-width="1.9588215351104736" stroke-linecap="round" d="M 177.3457 54.9822 L 157.431 54.9822 "/>
    <path id="ID0.9501931658014655" fill="#E10139" stroke="none" stroke-linecap="round" d="M 212.1306 77.5509 L 205.8624 73.4193 L 201.6238 72.767 L 201.982 177.3606 L 212.3097 175.8022 L 212.1306 77.5509 Z " stroke-width="0.9876482338323532"/>
    <path id="ID0.8345567877404392" fill="#D3EFF9" stroke="#D3EFF9" stroke-width="1.7778376769416502" stroke-linecap="round" d="M 178.7348 138.186 C 178.7567 137.2588 178.8783 136.5701 179.0162 136.0125 C 179.1647 135.412 179.0961 134.7686 179.1569 134.1495 C 179.2835 132.8554 179.5069 131.5674 179.579 130.2683 C 179.6476 129.0301 179.548 127.7825 179.579 126.5424 C 179.5947 125.9201 179.6049 125.2886 179.7197 124.6794 C 179.8407 124.0392 179.9988 123.3902 180.2825 122.8164 C 181.1289 121.1037 182.2078 119.5351 183.0965 117.8485 C 183.3813 117.3082 183.5608 116.7071 183.8 116.1408 C 184.5446 114.3803 185.3201 112.6297 186.0512 110.8624 C 186.3039 110.2507 186.5409 109.6284 186.7547 108.9994 C 186.963 108.3871 187.595 107.7145 187.3175 107.1364 C 187.0119 106.4999 186.1362 106.4496 185.4884 106.3602 C 184.2334 106.1869 182.9541 106.3328 181.6895 106.3602 C 180.5644 106.3844 179.4366 106.5831 178.3127 106.5154 C 176.0085 106.3763 173.7106 106.0335 171.4183 105.7392 C 169.6809 105.5162 167.9582 105.0809 166.2123 104.9629 C 165.6434 104.9244 165.0057 104.9375 164.5239 105.2734 C 164.0405 105.6106 163.727 106.2298 163.539 106.8259 C 163.3381 107.4624 163.3741 108.1704 163.3983 108.8441 C 163.4208 109.4726 163.2469 110.2979 163.6797 110.7071 C 164.1063 111.1107 164.7823 110.7071 165.3681 110.7071 C 167.7111 110.7071 170.0608 110.6655 172.4032 110.7071 C 172.9885 110.7177 173.5277 110.8363 174.0916 110.8624 C 174.6533 110.8884 175.2212 110.7959 175.78 110.8624 C 176.9597 111.0033 178.3487 110.6978 179.2976 111.4833 C 179.7506 111.8584 178.8918 112.6601 178.5941 113.1911 C 178.2783 113.7537 177.8286 114.2138 177.4684 114.7435 C 177.1251 115.2484 176.7756 115.7533 176.4835 116.296 C 175.8841 117.4101 175.3326 118.5595 174.7951 119.7115 C 174.5357 120.2666 174.2565 120.8218 174.0916 121.4192 C 173.9256 122.0209 173.8558 122.655 173.8102 123.2822 C 173.7618 123.9522 173.8102 124.6285 173.8102 125.3004 C 173.8102 127.8856 173.8479 130.4782 173.8102 133.0628 C 173.8006 133.7086 173.6931 134.3035 173.6695 134.9258 C 173.6459 135.5455 173.4078 136.2398 173.6695 136.7887 C 173.9357 137.347 174.5188 137.7357 175.0765 137.8755 C 175.6326 138.0146 176.1971 137.6196 176.7649 137.565 C 177.2782 137.5159 177.8754 137.8662 178.3127 137.565 Z "/>
    <path id="ID0.12530163442716002" fill="#000000" stroke="#000000" stroke-width="2.449541385401672" stroke-linecap="round" d="M 164.6731 21.6811 C 163.4677 21.8568 163.1536 19.367 162.0545 19.2234 C 159.5309 18.9056 156.9516 20.5659 154.451 20.0783 C 151.1552 19.4367 147.0336 18.7965 145.2515 15.9505 C 143.8576 13.7242 145.9419 10.6509 147.057 8.2725 C 147.7523 6.79 148.9689 5.3469 150.4983 4.7618 C 153.7489 3.5186 157.3278 3.2184 160.8021 3.0169 C 165.0102 2.7727 169.2762 2.8666 173.453 3.4302 C 180.5234 4.3844 187.6724 5.6891 194.4839 8.0131 C 199.7246 9.6228 204.7759 12.0161 209.3811 15.1578 C 211.685 16.727 213.3709 18.9822 214.8768 21.4755 C 216.2585 23.7494 217.5358 25.9511 217.9497 28.8603 C 218.2767 31.1693 217.1611 33.4414 217.0383 35.8053 C 216.8572 39.1972 217.2514 42.6761 216.5406 45.9996 C 215.8213 49.3628 214.3954 52.8664 212.8006 55.6268 C 212.3862 56.3448 212.4308 53.9754 212.5222 52.9564 C 212.8896 48.8804 216.0375 44.3989 214.1389 40.773 C 212.3825 37.4182 206.1106 39.1278 203.736 36.1777 C 202.277 34.3652 205.7301 30.4635 204.89 29.2854 C 204.2955 28.452 202.468 31.7749 200.8669 32.1545 C 199.5824 32.4589 197.8398 32.1686 197.0328 31.1498 C 196.4923 30.4678 198.5187 29.5163 198.1717 28.753 C 197.7079 27.7714 196.4372 26.9753 195.2926 26.6096 C 193.2704 26.2517 190.7108 27.944 189.0765 26.6739 C 186.9617 25.033 188.1749 21.0971 186.2911 19.2623 C 184.92 17.9429 182.5243 18.923 180.5883 18.8612 C 176.4442 18.5305 172.172 17.4423 168.0369 18.0849 C 166.46 18.3341 166.2344 21.3306 164.6731 21.6811 Z "/>
  </g>
  <path id="ID0.13247013883665204" fill="#E10139" stroke="#000000" stroke-width="2" stroke-linecap="round" d="M 229.25 104.25 L 226.5 93.5 L 222.5 87 L 218.75 84 L 213.25 85 L 209 90 L 207 96 L 205.25 105.5 L 206 110.75 L 228.75 111 L 229.25 104.25 Z "/>
  <path id="ID0.11782124871388078" fill="#EDC696" stroke="#000000" stroke-width="2.000000028639768" stroke-linecap="round" d="M 226.9177 111.2935 L 209.4231 110.7808 L 212.4286 145.2764 L 213.1249 179.6325 L 213.3832 191.2835 L 213.8194 194.1159 L 216.3644 194.995 L 218.4254 192.0429 L 219.1796 185.8497 L 219.9562 196.8251 L 223.9995 197.6323 L 226.1391 195.2772 L 224.8871 184.8251 L 226.1272 195.0274 L 228.1847 196.1802 L 230.7879 193.0519 L 230.6425 184.7994 L 230.1635 174.8109 L 229.4156 142.5097 L 226.9177 111.2935 Z "/>
  <path id="ID0.2196369837038219" fill="none" stroke="#000000" stroke-width="2" stroke-linecap="round" d="M 276.5 221.5 L 1.5 230 "/>
</svg>