<svg xmlns="http://www.w3.org/2000/svg" xmlns:xlink="http://www.w3.org/1999/xlink" version="1.1" width="151.43068671226501" height="214.68784308433533" viewBox="15.64805805683136 1.589798092842102 151.43068671226501 214.68784308433533">
  <!-- Exported by Scratch - http://scratch.mit.edu/ -->
  <g id="ID0.6717190686613321">
    <g id="ID0.6148217148147523">
      <path id="ID0.11782124871388078" fill="#EDC696" stroke="#000000" stroke-width="1.9999999961129369" stroke-linecap="round" d="M 65.9015 139.3464 L 72.979 105.7641 L 60.2639 103.0089 L 49.504 137.623 L 27.8565 154.7212 L 18.8948 162.1712 L 16.9485 164.2746 L 17.8434 166.8141 L 21.4368 166.5914 L 26.7551 163.3293 L 18.6448 170.7648 L 20.528 174.4327 L 23.703 174.6429 L 31.1077 167.1608 L 23.8911 174.4782 L 24.2684 176.8063 L 28.3371 176.8985 L 34.708 171.6511 L 42.2308 165.0625 L 63.8207 145.622 L 65.9015 139.3464 Z "/>
      <path id="ID0.13247013883665204" fill="#E10139" stroke="#000000" stroke-width="2.0000000528786925" stroke-linecap="round" d="M 61.2994 95.068 L 67.9265 86.1682 L 74.0957 81.6747 L 78.7041 80.324 L 83.4121 83.3381 L 85.4444 89.5777 L 85.0155 95.8877 L 83.0259 105.3404 L 80.338 109.9121 L 59.198 101.502 L 61.2994 95.068 Z "/>
    </g>
    <g id="ID0.8168169404380023">
      <path id="ID0.3887670743279159" fill="#333640" stroke="#000000" stroke-width="1.4689056946303964" d="M 149.2646 157.9403 L 66.1322 157.9403 L 66.2608 173.4905 L 75.9881 213.9797 L 142.494 214.9772 L 149.0075 173.7545 L 149.2646 157.9403 Z "/>
      <path id="ID0.5024464935995638" fill="#FF1B45" stroke="#000000" stroke-width="2.2245912551879883" stroke-linecap="round" d="M 107.665 69.1614 C 96.651 69.0687 84.1496 70.0616 75.4714 76.857 C 68.702 82.1627 67.8745 92.3164 66.9179 100.5652 C 64.4597 121.6914 64.915 142.9756 65.3236 164.1515 C 65.4259 169.4452 65.3429 173.0239 68.7717 174.2363 C 80.5598 178.5772 93.6011 179.034 106.3673 179.1304 C 119.8127 179.232 133.7461 179.2357 146.5212 174.8666 C 149.9619 173.6408 149.5911 167.8762 149.7839 164.1515 C 150.3564 153.1041 149.5963 142.0086 149.1907 130.968 C 148.5834 120.0742 148.8043 109.0001 146.7436 98.3036 C 145.2932 90.7763 144.479 81.4412 138.3755 76.857 C 129.945 70.5266 118.2318 69.0687 107.665 69.1614 Z "/>
      <path id="ID0.9501931658014655" fill="#E10139" stroke="none" stroke-linecap="round" d="M 88.9918 72.4777 L 79.0223 75.7395 L 78.4254 176.8902 L 89.7082 177.8324 L 88.9918 72.4777 Z " stroke-width="0.9876482338323532"/>
      <path id="ID0.9501931658014655" fill="#E10139" stroke="none" d="M 111.8306 79.3763 L 101.3835 79.3763 L 102.0999 178.0683 L 112.6067 177.4806 L 111.8306 79.3763 Z " stroke-width="0.9622484256337909"/>
      <path id="ID0.1049648616462946" fill="#EDC696" stroke="#000000" stroke-width="2.087384119009954" d="M 104.2762 65.0499 C 99.4021 65.0499 94.9852 66.2754 91.7866 68.2551 C 88.588 70.2349 86.6084 72.9694 86.6084 75.9866 C 86.6084 79.0039 88.588 81.7384 91.7866 83.7181 C 94.9852 85.6978 99.4021 86.9234 104.2762 86.9234 C 109.1503 86.9234 113.5673 85.6978 116.7659 83.7181 C 119.9645 81.7384 121.944 79.0039 121.944 75.9866 C 121.944 72.9694 119.9645 70.2349 116.7659 68.2551 C 113.5673 66.2754 109.1503 65.0499 104.2762 65.0499 Z "/>
      <path id="ID0.7782022436149418" fill="#EDC696" stroke="#000000" stroke-width="2.6008832454681396" d="M 102.6184 5.1976 C 92.3033 5.1976 82.9564 9.387 76.1882 16.1552 C 69.4201 22.9233 65.2307 32.2702 65.2307 42.5853 C 65.2307 52.9004 69.4201 62.2474 76.1882 69.0155 C 82.9564 75.7837 92.3033 79.973 102.6184 79.973 C 112.9335 79.973 122.2805 75.7837 129.0486 69.0155 C 135.8167 62.2474 140.0061 52.9004 140.0061 42.5853 C 140.0061 32.2702 135.8167 22.9233 129.0486 16.1552 C 122.2805 9.387 112.9335 5.1976 102.6184 5.1976 Z "/>
      <path id="ID0.3346423259936273" fill="#000000" stroke="none" d="M 104.6668 35.8626 C 103.514 35.8626 102.4693 36.3306 101.7126 37.0873 C 100.956 37.8439 100.488 38.8886 100.488 40.0414 C 100.488 41.1942 100.956 42.2389 101.7126 42.9956 C 102.4693 43.7522 103.514 44.2202 104.6668 44.2202 C 105.8196 44.2202 106.8643 43.7522 107.6209 42.9956 C 108.3776 42.2389 108.8456 41.1942 108.8456 40.0414 C 108.8456 38.8886 108.3776 37.8439 107.6209 37.0873 C 106.8643 36.3306 105.8196 35.8626 104.6668 35.8626 Z " stroke-width="0.557175874710083"/>
      <path id="ID0.3346423259936273" fill="#000000" stroke="none" d="M 75.2168 35.8626 C 74.064 35.8626 73.0193 36.3306 72.2626 37.0873 C 71.506 37.8439 71.038 38.8886 71.038 40.0414 C 71.038 41.1942 71.506 42.2389 72.2626 42.9956 C 73.0193 43.7522 74.064 44.2202 75.2168 44.2202 C 76.3696 44.2202 77.4143 43.7522 78.1709 42.9956 C 78.9276 42.2389 79.3956 41.1942 79.3956 40.0414 C 79.3956 38.8886 78.9276 37.8439 78.1709 37.0873 C 77.4143 36.3306 76.3696 35.8626 75.2168 35.8626 Z " stroke-width="0.557175874710083"/>
      <path id="ID0.5251190410926938" fill="none" stroke="#000000" stroke-width="1.9588215351104736" stroke-linecap="round" d="M 102.3457 54.9822 L 82.431 54.9822 "/>
      <path id="ID0.9501931658014655" fill="#E10139" stroke="none" stroke-linecap="round" d="M 137.1306 77.5509 L 130.8624 73.4193 L 126.6238 72.767 L 126.982 177.3606 L 137.3097 175.8022 L 137.1306 77.5509 Z " stroke-width="0.9876482338323532"/>
      <path id="ID0.8345567877404392" fill="#D3EFF9" stroke="#D3EFF9" stroke-width="1.7778376769416502" stroke-linecap="round" d="M 103.7348 138.186 C 103.7567 137.2588 103.8783 136.5701 104.0162 136.0125 C 104.1647 135.412 104.0961 134.7686 104.1569 134.1495 C 104.2835 132.8554 104.5069 131.5674 104.579 130.2683 C 104.6476 129.0301 104.548 127.7825 104.579 126.5424 C 104.5947 125.9201 104.6049 125.2886 104.7197 124.6794 C 104.8407 124.0392 104.9988 123.3902 105.2825 122.8164 C 106.1289 121.1037 107.2078 119.5351 108.0965 117.8485 C 108.3813 117.3082 108.5608 116.7071 108.8 116.1408 C 109.5446 114.3803 110.3201 112.6297 111.0512 110.8624 C 111.3039 110.2507 111.5409 109.6284 111.7547 108.9994 C 111.963 108.3871 112.595 107.7145 112.3175 107.1364 C 112.0119 106.4999 111.1362 106.4496 110.4884 106.3602 C 109.2334 106.1869 107.9541 106.3328 106.6895 106.3602 C 105.5644 106.3844 104.4366 106.5831 103.3127 106.5154 C 101.0085 106.3763 98.7106 106.0335 96.4183 105.7392 C 94.6809 105.5162 92.9582 105.0809 91.2123 104.9629 C 90.6434 104.9244 90.0057 104.9375 89.5239 105.2734 C 89.0405 105.6106 88.727 106.2298 88.539 106.8259 C 88.3381 107.4624 88.3741 108.1704 88.3983 108.8441 C 88.4208 109.4726 88.2469 110.2979 88.6797 110.7071 C 89.1063 111.1107 89.7823 110.7071 90.3681 110.7071 C 92.7111 110.7071 95.0608 110.6655 97.4032 110.7071 C 97.9885 110.7177 98.5277 110.8363 99.0916 110.8624 C 99.6533 110.8884 100.2212 110.7959 100.78 110.8624 C 101.9597 111.0033 103.3487 110.6978 104.2976 111.4833 C 104.7506 111.8584 103.8918 112.6601 103.5941 113.1911 C 103.2783 113.7537 102.8286 114.2138 102.4684 114.7435 C 102.1251 115.2484 101.7756 115.7533 101.4835 116.296 C 100.8841 117.4101 100.3326 118.5595 99.7951 119.7115 C 99.5357 120.2666 99.2565 120.8218 99.0916 121.4192 C 98.9256 122.0209 98.8558 122.655 98.8102 123.2822 C 98.7618 123.9522 98.8102 124.6285 98.8102 125.3004 C 98.8102 127.8856 98.8479 130.4782 98.8102 133.0628 C 98.8006 133.7086 98.6931 134.3035 98.6695 134.9258 C 98.6459 135.5455 98.4078 136.2398 98.6695 136.7887 C 98.9357 137.347 99.5188 137.7357 100.0765 137.8755 C 100.6326 138.0146 101.1971 137.6196 101.7649 137.565 C 102.2782 137.5159 102.8754 137.8662 103.3127 137.565 Z "/>
      <path id="ID0.12530163442716002" fill="#000000" stroke="#000000" stroke-width="2.449541385401672" stroke-linecap="round" d="M 89.6731 21.6811 C 88.4677 21.8568 88.1536 19.367 87.0545 19.2234 C 84.5309 18.9056 81.9516 20.5659 79.451 20.0783 C 76.1552 19.4367 72.0336 18.7965 70.2515 15.9505 C 68.8576 13.7242 70.9419 10.6509 72.057 8.2725 C 72.7523 6.79 73.9689 5.3469 75.4983 4.7618 C 78.7489 3.5186 82.3278 3.2184 85.8021 3.0169 C 90.0102 2.7727 94.2762 2.8666 98.453 3.4302 C 105.5234 4.3844 112.6724 5.6891 119.4839 8.0131 C 124.7246 9.6228 129.7759 12.0161 134.3811 15.1578 C 136.685 16.727 138.3709 18.9822 139.8768 21.4755 C 141.2585 23.7494 142.5358 25.9511 142.9497 28.8603 C 143.2767 31.1693 142.1611 33.4414 142.0383 35.8053 C 141.8572 39.1972 142.2514 42.6761 141.5406 45.9996 C 140.8213 49.3628 139.3954 52.8664 137.8006 55.6268 C 137.3862 56.3448 137.4308 53.9754 137.5222 52.9564 C 137.8896 48.8804 141.0375 44.3989 139.1389 40.773 C 137.3825 37.4182 131.1106 39.1278 128.736 36.1777 C 127.277 34.3652 130.7301 30.4635 129.89 29.2854 C 129.2955 28.452 127.468 31.7749 125.8669 32.1545 C 124.5824 32.4589 122.8398 32.1686 122.0328 31.1498 C 121.4923 30.4678 123.5187 29.5163 123.1717 28.753 C 122.7079 27.7714 121.4372 26.9753 120.2926 26.6096 C 118.2704 26.2517 115.7108 27.944 114.0765 26.6739 C 111.9617 25.033 113.1749 21.0971 111.2911 19.2623 C 109.92 17.9429 107.5243 18.923 105.5883 18.8612 C 101.4442 18.5305 97.172 17.4423 93.0369 18.0849 C 91.46 18.3341 91.2344 21.3306 89.6731 21.6811 Z "/>
    </g>
    <g id="ID0.009609720204025507">
      <path id="ID0.11782124871388078" fill="#EDC696" stroke="#000000" stroke-width="2.0000000352803577" stroke-linecap="round" d="M 165.7783 141.4687 L 153.3268 101.1628 L 138.4693 106.2002 L 149.3284 142.5873 L 130.9393 163.1494 L 123.3904 172.0278 L 121.8342 174.4343 L 123.152 176.7824 L 126.6538 175.9458 L 131.3327 171.8187 L 124.62 180.5367 L 127.1052 183.8267 L 130.2691 183.4884 L 136.2787 174.8457 L 130.4261 183.2938 L 131.1977 185.5225 L 135.2217 184.9146 L 140.5968 178.6509 L 146.8761 170.8682 L 164.8063 148.0084 L 165.7783 141.4687 Z "/>
      <path id="ID0.13247013883665204" fill="#E10139" stroke="#000000" stroke-width="2.0000000275273146" stroke-linecap="round" d="M 155.2269 95.0694 L 149.5626 85.5279 L 143.895 80.4163 L 139.4522 78.593 L 134.456 81.1004 L 131.7849 87.0944 L 131.5544 93.4148 L 132.5487 103.0233 L 134.7459 107.85 L 156.6468 101.6873 L 155.2269 95.0694 Z "/>
    </g>
  </g>
</svg>