<svg xmlns="http://www.w3.org/2000/svg" xmlns:xlink="http://www.w3.org/1999/xlink" version="1.1" width="114.06667304039001" height="215.21594977378845" viewBox="12.776458859443665 1.0897983312606812 114.06667304039001 215.21594977378845">
  <!-- Exported by Scratch - http://scratch.mit.edu/ -->
  <g id="ID0.9494941630400717">
    <path id="ID0.11782124871388078" fill="#EDC696" stroke="#000000" stroke-width="1.999999959325781" stroke-linecap="round" d="M 47.4553 143.3741 L 49.7218 107.7372 L 36.1644 107.2599 L 31.9226 148.9043 L 19.7868 173.677 L 14.9234 184.2676 L 14.0769 187.0055 L 15.9811 188.9091 L 19.1256 187.1557 L 22.5126 181.9161 L 18.4107 192.1258 L 21.6938 194.6201 L 24.648 193.438 L 28.0933 183.491 L 24.7464 193.2082 L 26.0926 195.1447 L 29.8018 193.47 L 33.2803 185.9851 L 37.2182 176.7931 L 48.29 149.9328 L 47.4553 143.3741 Z "/>
    <path id="ID0.13247013883665204" fill="#E10139" stroke="#000000" stroke-width="2.000000106425242" stroke-linecap="round" d="M 34.6519 98.7012 L 39.4389 88.6907 L 44.626 83.0921 L 48.8875 80.8782 L 54.0883 82.9281 L 57.2854 88.6588 L 58.0811 94.9331 L 57.9513 104.592 L 56.1952 109.5961 L 33.8305 105.4196 L 34.6519 98.7012 Z "/>
    <g id="ID0.8168169404380023">
      <path id="ID0.3887670743279159" fill="#333640" stroke="#000000" stroke-width="1.4689056946303964" d="M 121.8146 157.4403 L 38.6822 157.4403 L 38.8108 172.9905 L 35.0398 214.5066 L 125.5427 215.0053 L 121.5575 173.2545 L 121.8146 157.4403 Z "/>
      <path id="ID0.5024464935995638" fill="#FF1B45" stroke="#000000" stroke-width="2.2245912551879883" stroke-linecap="round" d="M 80.215 68.6614 C 69.201 68.5687 56.6996 69.5616 48.0214 76.357 C 41.252 81.6627 40.4245 91.8164 39.4679 100.0652 C 37.0097 121.1914 37.465 142.4756 37.8736 163.6515 C 37.9759 168.9452 37.8929 172.5239 41.3217 173.7363 C 53.1098 178.0772 66.1511 178.534 78.9173 178.6304 C 92.3627 178.732 106.2961 178.7357 119.0712 174.3666 C 122.5119 173.1408 122.1411 167.3762 122.3339 163.6515 C 122.9064 152.6041 122.1463 141.5086 121.7407 130.468 C 121.1334 119.5742 121.3543 108.5001 119.2936 97.8036 C 117.8432 90.2763 117.029 80.9412 110.9255 76.357 C 102.495 70.0266 90.7818 68.5687 80.215 68.6614 Z "/>
      <path id="ID0.9501931658014655" fill="#E10139" stroke="none" stroke-linecap="round" d="M 61.5418 71.9777 L 51.5723 75.2395 L 50.9754 176.3902 L 62.2582 177.3324 L 61.5418 71.9777 Z " stroke-width="0.9876482338323532"/>
      <path id="ID0.9501931658014655" fill="#E10139" stroke="none" d="M 84.3806 78.8763 L 73.9335 78.8763 L 74.6499 177.5683 L 85.1567 176.9806 L 84.3806 78.8763 Z " stroke-width="0.9622484256337909"/>
      <path id="ID0.1049648616462946" fill="#EDC696" stroke="#000000" stroke-width="2.087384119009954" d="M 76.8262 64.5499 C 71.9521 64.5499 67.5352 65.7754 64.3366 67.7551 C 61.138 69.7349 59.1584 72.4694 59.1584 75.4866 C 59.1584 78.5039 61.138 81.2384 64.3366 83.2181 C 67.5352 85.1978 71.9521 86.4234 76.8262 86.4234 C 81.7003 86.4234 86.1173 85.1978 89.3159 83.2181 C 92.5145 81.2384 94.494 78.5039 94.494 75.4866 C 94.494 72.4694 92.5145 69.7349 89.3159 67.7551 C 86.1173 65.7754 81.7003 64.5499 76.8262 64.5499 Z "/>
      <path id="ID0.7782022436149418" fill="#EDC696" stroke="#000000" stroke-width="2.6008832454681396" d="M 75.1684 4.6976 C 64.8533 4.6976 55.5064 8.887 48.7382 15.6552 C 41.9701 22.4233 37.7807 31.7702 37.7807 42.0853 C 37.7807 52.4004 41.9701 61.7474 48.7382 68.5155 C 55.5064 75.2837 64.8533 79.473 75.1684 79.473 C 85.4835 79.473 94.8305 75.2837 101.5986 68.5155 C 108.3667 61.7474 112.5561 52.4004 112.5561 42.0853 C 112.5561 31.7702 108.3667 22.4233 101.5986 15.6552 C 94.8305 8.887 85.4835 4.6976 75.1684 4.6976 Z "/>
      <path id="ID0.3346423259936273" fill="#000000" stroke="none" d="M 77.2168 35.3626 C 76.064 35.3626 75.0193 35.8306 74.2626 36.5873 C 73.506 37.3439 73.038 38.3886 73.038 39.5414 C 73.038 40.6942 73.506 41.7389 74.2626 42.4956 C 75.0193 43.2522 76.064 43.7202 77.2168 43.7202 C 78.3696 43.7202 79.4143 43.2522 80.1709 42.4956 C 80.9276 41.7389 81.3956 40.6942 81.3956 39.5414 C 81.3956 38.3886 80.9276 37.3439 80.1709 36.5873 C 79.4143 35.8306 78.3696 35.3626 77.2168 35.3626 Z " stroke-width="0.557175874710083"/>
      <path id="ID0.3346423259936273" fill="#000000" stroke="none" d="M 47.7668 35.3626 C 46.614 35.3626 45.5693 35.8306 44.8126 36.5873 C 44.056 37.3439 43.588 38.3886 43.588 39.5414 C 43.588 40.6942 44.056 41.7389 44.8126 42.4956 C 45.5693 43.2522 46.614 43.7202 47.7668 43.7202 C 48.9196 43.7202 49.9643 43.2522 50.7209 42.4956 C 51.4776 41.7389 51.9456 40.6942 51.9456 39.5414 C 51.9456 38.3886 51.4776 37.3439 50.7209 36.5873 C 49.9643 35.8306 48.9196 35.3626 47.7668 35.3626 Z " stroke-width="0.557175874710083"/>
      <path id="ID0.5251190410926938" fill="none" stroke="#000000" stroke-width="1.9588215351104736" stroke-linecap="round" d="M 74.8957 54.4822 L 54.981 54.4822 "/>
      <path id="ID0.9501931658014655" fill="#E10139" stroke="none" stroke-linecap="round" d="M 109.6806 77.0509 L 103.4124 72.9193 L 99.1738 72.267 L 99.532 176.8606 L 109.8597 175.3022 L 109.6806 77.0509 Z " stroke-width="0.9876482338323532"/>
      <path id="ID0.8345567877404392" fill="#D3EFF9" stroke="#D3EFF9" stroke-width="1.7778376769416502" stroke-linecap="round" d="M 76.3348 137.686 C 76.3567 136.7588 76.4783 136.0701 76.6162 135.5125 C 76.7647 134.912 76.6961 134.2686 76.7569 133.6495 C 76.8835 132.3554 77.1069 131.0674 77.179 129.7683 C 77.2476 128.5301 77.148 127.2825 77.179 126.0424 C 77.1947 125.4201 77.2049 124.7886 77.3197 124.1794 C 77.4407 123.5392 77.5988 122.8902 77.8825 122.3164 C 78.7289 120.6037 79.8078 119.0351 80.6965 117.3485 C 80.9813 116.8082 81.1608 116.2071 81.4 115.6408 C 82.1446 113.8803 82.9201 112.1297 83.6512 110.3624 C 83.9039 109.7507 84.1409 109.1284 84.3547 108.4994 C 84.563 107.8871 85.195 107.2145 84.9175 106.6364 C 84.6119 105.9999 83.7362 105.9496 83.0884 105.8602 C 81.8334 105.6869 80.5541 105.8328 79.2895 105.8602 C 78.1644 105.8844 77.0366 106.0831 75.9127 106.0154 C 73.6085 105.8763 71.3106 105.5335 69.0183 105.2392 C 67.2809 105.0162 65.5582 104.5809 63.8123 104.4629 C 63.2434 104.4244 62.6057 104.4375 62.1239 104.7734 C 61.6405 105.1106 61.327 105.7298 61.139 106.3259 C 60.9381 106.9624 60.9741 107.6704 60.9983 108.3441 C 61.0208 108.9726 60.8469 109.7979 61.2797 110.2071 C 61.7063 110.6107 62.3823 110.2071 62.9681 110.2071 C 65.3111 110.2071 67.6608 110.1655 70.0032 110.2071 C 70.5885 110.2177 71.1277 110.3363 71.6916 110.3624 C 72.2533 110.3884 72.8212 110.2959 73.38 110.3624 C 74.5597 110.5033 75.9487 110.1978 76.8976 110.9833 C 77.3506 111.3584 76.4918 112.1601 76.1941 112.6911 C 75.8783 113.2537 75.4286 113.7138 75.0684 114.2435 C 74.7251 114.7484 74.3756 115.2533 74.0835 115.796 C 73.4841 116.9101 72.9326 118.0595 72.3951 119.2115 C 72.1357 119.7666 71.8565 120.3218 71.6916 120.9192 C 71.5256 121.5209 71.4558 122.155 71.4102 122.7822 C 71.3618 123.4522 71.4102 124.1285 71.4102 124.8004 C 71.4102 127.3856 71.4479 129.9782 71.4102 132.5628 C 71.4006 133.2086 71.2931 133.8035 71.2695 134.4258 C 71.2459 135.0455 71.0078 135.7398 71.2695 136.2887 C 71.5357 136.847 72.1188 137.2357 72.6765 137.3755 C 73.2326 137.5146 73.7971 137.1196 74.3649 137.065 C 74.8782 137.0159 75.4754 137.3662 75.9127 137.065 Z "/>
      <path id="ID0.12530163442716002" fill="#000000" stroke="#000000" stroke-width="2.449541385401672" stroke-linecap="round" d="M 62.2231 21.1811 C 61.0177 21.3568 60.7036 18.867 59.6045 18.7234 C 57.0809 18.4056 54.5016 20.0659 52.001 19.5783 C 48.7052 18.9367 44.5836 18.2965 42.8015 15.4505 C 41.4076 13.2242 43.4919 10.1509 44.607 7.7725 C 45.3023 6.29 46.5189 4.8469 48.0483 4.2618 C 51.2989 3.0186 54.8778 2.7184 58.3521 2.5169 C 62.5602 2.2727 66.8262 2.3666 71.003 2.9302 C 78.0734 3.8844 85.2224 5.1891 92.0339 7.5131 C 97.2746 9.1228 102.3259 11.5161 106.9311 14.6578 C 109.235 16.227 110.9209 18.4822 112.4268 20.9755 C 113.8085 23.2494 115.0858 25.4511 115.4997 28.3603 C 115.8267 30.6693 114.7111 32.9414 114.5883 35.3053 C 114.4072 38.6972 114.8014 42.1761 114.0906 45.4996 C 113.3713 48.8628 111.9454 52.3664 110.3506 55.1268 C 109.9362 55.8448 109.9808 53.4754 110.0722 52.4564 C 110.4396 48.3804 113.5875 43.8989 111.6889 40.273 C 109.9325 36.9182 103.6606 38.6278 101.286 35.6777 C 99.827 33.8652 103.2801 29.9635 102.44 28.7854 C 101.8455 27.952 100.018 31.2749 98.4169 31.6545 C 97.1324 31.9589 95.3898 31.6686 94.5828 30.6498 C 94.0423 29.9678 96.0687 29.0163 95.7217 28.253 C 95.2579 27.2714 93.9872 26.4753 92.8426 26.1096 C 90.8204 25.7517 88.2608 27.444 86.6265 26.1739 C 84.5117 24.533 85.7249 20.5971 83.8411 18.7623 C 82.47 17.4429 80.0743 18.423 78.1383 18.3612 C 73.9942 18.0305 69.722 16.9423 65.5869 17.5849 C 64.01 17.8341 63.7844 20.8306 62.2231 21.1811 Z "/>
    </g>
    <path id="ID0.11782124871388078" fill="#EDC696" stroke="#000000" stroke-width="2.0000000553230626" stroke-linecap="round" d="M 119.8177 145.4505 L 120.6975 106.6066 L 101.9189 105.824 L 103.6778 148.8197 L 88.2898 171.7145 L 82.033 181.5464 L 80.8225 184.1439 L 82.4505 186.2886 L 85.804 184.9785 L 89.8712 180.2475 L 84.4207 189.8054 L 87.3345 192.7226 L 90.4219 191.9526 L 95.1864 182.5658 L 90.5506 191.7383 L 91.6213 193.8398 L 95.5236 192.6844 L 99.9865 185.7413 L 105.1364 177.1693 L 119.7539 152.0617 L 119.8177 145.4505 Z "/>
    <path id="ID0.13247013883665204" fill="#E10139" stroke="#000000" stroke-width="2.000000050887002" stroke-linecap="round" d="M 123.6149 99.3721 L 121.0879 88.5675 L 117.2233 81.9861 L 113.5362 78.9091 L 108.0167 79.7951 L 103.6641 84.7061 L 101.5404 90.6634 L 99.5941 100.1251 L 100.2353 105.3895 L 122.9753 106.1103 L 123.6149 99.3721 Z "/>
  </g>
</svg>