<svg xmlns="http://www.w3.org/2000/svg" xmlns:xlink="http://www.w3.org/1999/xlink" version="1.1" width="42.593299865722656" height="10.793299674987793" viewBox="0.46330004930496216 -0.3179999887943268 42.593299865722656 10.793299674987793">
  <!-- Exported by Scratch - http://scratch.mit.edu/ -->
  <g id="ID0.2872838294133544">
    <path id="ID0.3346423259936273" fill="#000000" stroke="none" d="M 5.56 0.782 C 6.828 0.782 7.9772 1.2968 8.8095 2.1291 C 9.6418 2.9614 10.1566 4.1106 10.1566 5.3786 C 10.1566 6.6467 9.6418 7.7958 8.8095 8.6281 C 7.9772 9.4604 6.828 9.9753 5.56 9.9753 C 4.2919 9.9753 3.1428 9.4604 2.3105 8.6281 C 1.4782 7.7958 0.9633 6.6467 0.9633 5.3786 C 0.9633 4.1106 1.4782 2.9614 2.3105 2.1291 C 3.1428 1.2968 4.2919 0.782 5.56 0.782 Z " stroke-width="0.6128823161125183"/>
    <path id="ID0.3346423259936273" fill="#000000" stroke="none" d="M 37.96 0.182 C 39.228 0.182 40.3772 0.6968 41.2095 1.5291 C 42.0418 2.3614 42.5566 3.5106 42.5566 4.7786 C 42.5566 6.0467 42.0418 7.1958 41.2095 8.0281 C 40.3772 8.8604 39.228 9.3753 37.96 9.3753 C 36.6919 9.3753 35.5428 8.8604 34.7105 8.0281 C 33.8782 7.1958 33.3633 6.0467 33.3633 4.7786 C 33.3633 3.5106 33.8782 2.3614 34.7105 1.5291 C 35.5428 0.6968 36.6919 0.182 37.96 0.182 Z " stroke-width="0.6128823161125183"/>
  </g>
</svg>