<svg xmlns="http://www.w3.org/2000/svg" xmlns:xlink="http://www.w3.org/1999/xlink" version="1.1" width="44.73926663398743" height="9.633663892745972" viewBox="0.36496782302856445 0.8963679075241089 44.73926663398743 9.633663892745972">
  <!-- Exported by Scratch - http://scratch.mit.edu/ -->
  <path id="ID0.3346423259936273" fill="#000000" stroke="none" d="M 6.31 3.2614 C 7.578 3.2614 8.7272 3.6081 9.5595 4.1686 C 10.3918 4.7291 10.9066 5.503 10.9066 6.357 C 10.9066 7.211 10.3918 7.985 9.5595 8.5455 C 8.7272 9.106 7.578 9.4527 6.31 9.4527 C 5.0419 9.4527 3.8928 9.106 3.0605 8.5455 C 2.2282 7.985 1.7133 7.211 1.7133 6.357 C 1.7133 5.503 2.2282 4.7291 3.0605 4.1686 C 3.8928 3.6081 5.0419 3.2614 6.31 3.2614 Z " stroke-width="0.5224908974035506"/>
  <path id="ID0.3346423259936273" fill="#000000" stroke="none" d="M 38.71 2.8614 C 39.978 2.8614 41.1272 3.2081 41.9595 3.7686 C 42.7918 4.3291 43.3066 5.103 43.3066 5.957 C 43.3066 6.811 42.7918 7.585 41.9595 8.1455 C 41.1272 8.706 39.978 9.0527 38.71 9.0527 C 37.4419 9.0527 36.2928 8.706 35.4605 8.1455 C 34.6282 7.585 34.1133 6.811 34.1133 5.957 C 34.1133 5.103 34.6282 4.3291 35.4605 3.7686 C 36.2928 3.2081 37.4419 2.8614 38.71 2.8614 Z " stroke-width="0.5224908974035506"/>
  <path id="ID0.717018585652113" fill="none" stroke="#000000" stroke-width="2.1546642780303955" stroke-linecap="round" d="M 33.7923 2.5455 L 44.0269 2.4737 "/>
  <path id="ID0.717018585652113" fill="none" stroke="#000000" stroke-width="2.1546642780303955" stroke-linecap="round" d="M 1.4423 2.0455 L 11.6769 1.9737 "/>
</svg>