<svg xmlns="http://www.w3.org/2000/svg" xmlns:xlink="http://www.w3.org/1999/xlink" version="1.1" width="44.63926434516907" height="12.106264352798462" viewBox="0.21496784687042236 0.6963678598403931 44.63926434516907 12.106264352798462">
  <!-- Exported by Scratch - http://scratch.mit.edu/ -->
  <path id="ID0.3346423259936273" fill="#000000" stroke="none" d="M 6.31 2.532 C 7.578 2.532 8.7272 3.0468 9.5595 3.8791 C 10.3918 4.7114 10.9066 5.8606 10.9066 7.1286 C 10.9066 8.3967 10.3918 9.5458 9.5595 10.3781 C 8.7272 11.2104 7.578 11.7253 6.31 11.7253 C 5.0419 11.7253 3.8928 11.2104 3.0605 10.3781 C 2.2282 9.5458 1.7133 8.3967 1.7133 7.1286 C 1.7133 5.8606 2.2282 4.7114 3.0605 3.8791 C 3.8928 3.0468 5.0419 2.532 6.31 2.532 Z " stroke-width="0.6128823161125183"/>
  <path id="ID0.3346423259936273" fill="#000000" stroke="none" d="M 38.71 1.932 C 39.978 1.932 41.1272 2.4468 41.9595 3.2791 C 42.7918 4.1114 43.3066 5.2606 43.3066 6.5286 C 43.3066 7.7967 42.7918 8.9458 41.9595 9.7781 C 41.1272 10.6104 39.978 11.1253 38.71 11.1253 C 37.4419 11.1253 36.2928 10.6104 35.4605 9.7781 C 34.6282 8.9458 34.1133 7.7967 34.1133 6.5286 C 34.1133 5.2606 34.6282 4.1114 35.4605 3.2791 C 36.2928 2.4468 37.4419 1.932 38.71 1.932 Z " stroke-width="0.6128823161125183"/>
  <path id="ID0.717018585652113" fill="none" stroke="#000000" stroke-width="2.1546642780303955" stroke-linecap="round" d="M 33.5423 2.2955 L 43.7769 2.2237 "/>
  <path id="ID0.717018585652113" fill="none" stroke="#000000" stroke-width="2.1546642780303955" stroke-linecap="round" d="M 1.2923 1.8455 L 11.5269 1.7737 "/>
</svg>